<svg xmlns="http://www.w3.org/2000/svg" width="22.413" height="22.464" viewBox="0 0 22.413 22.464">
  <g id="Group_2099" data-name="Group 2099" transform="translate(8119 -11140)">
    <path id="noun_world_1819991" d="M21.436,7.888a1.511,1.511,0,1,0-1.511-1.511A1.455,1.455,0,0,0,21.436,7.888Zm0-2.015a.5.5,0,0,1,.5.5.5.5,0,1,1-1.007,0A.5.5,0,0,1,21.436,5.873Zm-15.11,14.1a1.515,1.515,0,0,0-1.511,1.511A1.549,1.549,0,0,0,6.326,23a1.515,1.515,0,0,0,1.511-1.511A1.549,1.549,0,0,0,6.326,19.976Zm0,2.015a.5.5,0,0,1-.5-.5.542.542,0,0,1,.5-.5.5.5,0,0,1,0,1.007Zm18.787-8.059A11.242,11.242,0,0,1,13.881,25.164a11.451,11.451,0,0,1-4.332-.856.5.5,0,0,1-.252-.655.462.462,0,0,1,.655-.252,10.534,10.534,0,0,0,3.929.806A10.232,10.232,0,0,0,24.106,13.982a9.628,9.628,0,0,0-.806-3.929.5.5,0,1,1,.907-.4A10.2,10.2,0,0,1,25.113,13.932ZM4.564,17.961a.5.5,0,0,1-.252.655.3.3,0,0,1-.2.05.44.44,0,0,1-.453-.3A10.488,10.488,0,0,1,2.7,13.932,11.242,11.242,0,0,1,13.932,2.7a11.077,11.077,0,0,1,4.432.907.5.5,0,0,1,.252.655.524.524,0,0,1-.655.3,9.972,9.972,0,0,0-4.029-.856A10.232,10.232,0,0,0,3.707,13.932,9.973,9.973,0,0,0,4.564,17.961Z" transform="translate(-8121.7 11137.3)" fill="#2975eb"/>
    <path id="Subtraction_25" data-name="Subtraction 25" d="M7.492,10.5H.775a.776.776,0,0,1-.546-.225A.764.764,0,0,1,0,9.731V.766A.764.764,0,0,1,.228.225.775.775,0,0,1,.775,0H5.7V1.96a.668.668,0,0,0,.671.665h1.9V9.731a.764.764,0,0,1-.229.541A.775.775,0,0,1,7.492,10.5ZM8,2.243H6.366A.284.284,0,0,1,6.08,1.96V.283L8,2.243Z" transform="translate(-8111.726 11145.335)" fill="#2975eb"/>
  </g>
</svg>
