<svg xmlns="http://www.w3.org/2000/svg" xmlns:xlink="http://www.w3.org/1999/xlink" width="225.697" height="244.084" viewBox="0 0 225.697 244.084">
  <defs>
    <filter id="Path_592" x="32.241" y="0" width="165.817" height="51.625" filterUnits="userSpaceOnUse">
      <feOffset dy="3" input="SourceAlpha"/>
      <feGaussianBlur stdDeviation="3" result="blur"/>
      <feFlood flood-opacity="0.161"/>
      <feComposite operator="in" in2="blur"/>
      <feComposite in="SourceGraphic"/>
    </filter>
    <filter id="Path_593" x="0" y="27.636" width="225.697" height="82.894" filterUnits="userSpaceOnUse">
      <feOffset dy="3" input="SourceAlpha"/>
      <feGaussianBlur stdDeviation="3" result="blur-2"/>
      <feFlood flood-opacity="0.161"/>
      <feComposite operator="in" in2="blur-2"/>
      <feComposite in="SourceGraphic"/>
    </filter>
    <filter id="Path_594" x="9.232" y="55.271" width="207.236" height="188.813" filterUnits="userSpaceOnUse">
      <feOffset dy="3" input="SourceAlpha"/>
      <feGaussianBlur stdDeviation="3" result="blur-3"/>
      <feFlood flood-opacity="0.161"/>
      <feComposite operator="in" in2="blur-3"/>
      <feComposite in="SourceGraphic"/>
    </filter>
    <filter id="Path_595" x="36.866" y="82.907" width="151.966" height="161.177" filterUnits="userSpaceOnUse">
      <feOffset dy="3" input="SourceAlpha"/>
      <feGaussianBlur stdDeviation="3" result="blur-4"/>
      <feFlood flood-opacity="0.161"/>
      <feComposite operator="in" in2="blur-4"/>
      <feComposite in="SourceGraphic"/>
    </filter>
  </defs>
  <g id="Group_720" data-name="Group 720" transform="translate(11.518 8.5)">
    <g transform="matrix(1, 0, 0, 1, -11.52, -8.5)" filter="url(#Path_592)">
      <path id="Path_592-2" data-name="Path 592" d="M223.514,28.625a4.626,4.626,0,0,1-2.393-.666c-38.97-23.65-89.5-24.509-128.948-2.707a4.607,4.607,0,0,1-4.462-8.06,137.644,137.644,0,0,1,138.2,2.887,4.608,4.608,0,0,1-2.393,8.546Z" transform="translate(-41.58 8.5)" fill="#484848" stroke="#484848" stroke-width="5"/>
    </g>
    <g transform="matrix(1, 0, 0, 1, -11.52, -8.5)" filter="url(#Path_593)">
      <path id="Path_593-2" data-name="Path 593" d="M21.909,117.04C39.747,84.821,79.293,64,122.663,64s82.916,20.821,100.754,53.04a4.607,4.607,0,1,1-8.061,4.462c-16.238-29.336-52.626-48.29-92.694-48.29S46.206,92.167,29.969,121.5a4.607,4.607,0,1,1-8.06-4.462Z" transform="translate(-9.81 -27.86)" fill="#484848" stroke="#484848" stroke-width="5"/>
    </g>
    <g transform="matrix(1, 0, 0, 1, -11.52, -8.5)" filter="url(#Path_594)">
      <path id="Path_594-2" data-name="Path 594" d="M134.786,128c53.373,0,92.118,36.8,92.118,87.513,0,13.674-4.6,26.637-9.563,38.611a4.606,4.606,0,1,1-8.51-3.527c4.606-11.1,8.861-23.021,8.861-35.084,0-46.1-34.094-78.3-82.906-78.3-47.265,0-82.906,35.642-82.906,82.907a23.029,23.029,0,0,0,46.059,0c0-21.694,15.149-36.848,36.848-36.848s36.847,15.154,36.847,36.847c0,30.055-17,55.339-49.163,73.119a4.606,4.606,0,0,1-4.462-8.06c29.471-16.291,44.413-38.178,44.413-65.058,0-19.089-13.881-27.636-27.636-27.636s-27.635,8.546-27.635,27.636a32.242,32.242,0,0,1-64.483,0C42.667,167.6,82.267,128,134.786,128Z" transform="translate(-21.94 -64.23)" fill="#484848" stroke="#484848" stroke-width="5"/>
    </g>
    <g transform="matrix(1, 0, 0, 1, -11.52, -8.5)" filter="url(#Path_595)">
      <path id="Path_595-2" data-name="Path 595" d="M226.421,256.483c0-32.026-23.245-55.271-55.271-55.271-33.573,0-55.271,19.886-55.271,50.665a4.606,4.606,0,0,1-9.212,0c0-35.813,25.917-59.877,64.483-59.877,36.757,0,64.483,27.721,64.483,64.483,0,26.916-9.59,49.194-31.108,72.233a4.605,4.605,0,0,1-6.729-6.289C217.6,301.224,226.421,280.889,226.421,256.483Z" transform="translate(-58.3 -100.59)" fill="#484848" stroke="#484848" stroke-width="5"/>
    </g>
  </g>
</svg>
