<svg xmlns="http://www.w3.org/2000/svg" xmlns:xlink="http://www.w3.org/1999/xlink" width="1218" height="1674" viewBox="0 0 1218 1674">
  <defs>
    <filter id="Rectangle_1310" x="0" y="0" width="1218" height="1674" filterUnits="userSpaceOnUse">
      <feOffset dy="3" input="SourceAlpha"/>
      <feGaussianBlur stdDeviation="3" result="blur"/>
      <feFlood flood-opacity="0.161"/>
      <feComposite operator="in" in2="blur"/>
      <feComposite in="SourceGraphic"/>
    </filter>
  </defs>
  <g id="Group_2807" data-name="Group 2807" transform="translate(-351 -13638)">
    <g transform="matrix(1, 0, 0, 1, 351, 13638)" filter="url(#Rectangle_1310)">
      <rect id="Rectangle_1310-2" data-name="Rectangle 1310" width="1200" height="1656" rx="8" transform="translate(9 6)" fill="#fff"/>
    </g>
    <text id="For_a_full_breakdown_of_how_encryption_keys_and_signatures_work_please_see_step_one._" data-name="For a full breakdown of how encryption keys and signatures work, please see step one.
" transform="translate(475 15057)" fill="#707070" font-size="25" font-family="SegoeUI, Segoe UI"><tspan x="9.627" y="27">For a full breakdown of how encryption keys and signatures work, please see step one.</tspan><tspan x="485.5" y="60"></tspan></text>
    <g id="Group_2011" data-name="Group 2011" transform="translate(0 660)">
      <text id="To_determine_whether_the_document_is_the_original_digitally_notarized_file_we_need_to_use_an_address_to_find_it_in_the_blockchain._" data-name="To determine whether the document is the original digitally notarized file, we need to use an address to find it in the blockchain. 
" transform="translate(475 13298)" fill="#707070" font-size="25" font-family="SegoeUI, Segoe UI"><tspan x="16.115" y="27">To determine whether the document is the original digitally notarized file, we need to </tspan><tspan x="253.334" y="60">use an address to find it in the blockchain. </tspan><tspan x="485.5" y="93"></tspan></text>
      <g id="noun_person_2200675" transform="translate(677.006 13501.024)">
        <g id="Group_1744" data-name="Group 1744">
          <g id="Group_1743" data-name="Group 1743">
            <path id="Path_1508" data-name="Path 1508" d="M105.072,97.354H90.67l-1.746-6.692a22.775,22.775,0,0,0,15.567-21.531V60.984c6.11-1.018,10.766-6.692,10.766-13.384a13.748,13.748,0,0,0-7.711-12.511q0-4.364-.436-10.038C105.363,5.846,88.924,2.5,68.557,2.5S31.6,5.846,30.149,25.05q-.436,5.674-.436,10.038A13.589,13.589,0,0,0,22,47.6c0,6.838,4.655,12.511,10.766,13.384v8.147A22.775,22.775,0,0,0,48.335,90.662l-1.746,6.692h-14.4A23.035,23.035,0,0,0,9.2,120.34v14.4a5.991,5.991,0,0,0,5.965,5.965H121.948a5.991,5.991,0,0,0,5.965-5.965v-14.4A22.818,22.818,0,0,0,105.072,97.354ZM39.9,69.131V57.347a3.2,3.2,0,0,0-1.309-2.764A3.33,3.33,0,0,0,35.532,54h-.873c-3.055,0-5.528-2.91-5.528-6.547a6.466,6.466,0,0,1,3.637-5.965v.727a3.492,3.492,0,1,0,6.983,0V35.088a15.352,15.352,0,0,1,2.182-7.711c6.4,2.473,15.858,4.073,26.623,4.073,10.62,0,20.222-1.6,26.623-4.073a15.783,15.783,0,0,1,2.182,7.711v7.129a3.492,3.492,0,0,0,6.983,0v-.727a6.234,6.234,0,0,1,3.637,5.965c0,3.637-2.473,6.547-5.528,6.547h-.873a3.81,3.81,0,0,0-3.055.582,3.583,3.583,0,0,0-1.309,2.764V69.131A15.739,15.739,0,0,1,81.5,84.843h-25.9A15.647,15.647,0,0,1,39.9,69.131ZM81.8,107.1l-9.456,7.129a6.118,6.118,0,0,1-7.565,0L55.318,107.1a6.318,6.318,0,0,1-2.328-6.692l2.182-8.438H81.65l2.182,8.438A5.73,5.73,0,0,1,81.8,107.1Z" transform="translate(-9.2 -2.5)" fill="#327495"/>
            <circle id="Ellipse_508" data-name="Ellipse 508" cx="6.256" cy="6.256" r="6.256" transform="translate(39.862 37.68)" fill="#327495"/>
            <circle id="Ellipse_509" data-name="Ellipse 509" cx="6.256" cy="6.256" r="6.256" transform="translate(66.049 37.68)" fill="#327495"/>
            <path id="Path_1509" data-name="Path 1509" d="M50.415,52.9c3.346-.436,5.237-1.6,6.256-3.2,1.018,1.6,2.91,2.764,6.256,3.2a27.141,27.141,0,0,0,14.257-2.619,1.876,1.876,0,0,0-.291-3.492c-5.674-1.309-11.348-4.364-13.966-5.674a5.422,5.422,0,0,0-6.11.582,5.421,5.421,0,0,0-6.11-.582c-2.619,1.309-8.292,4.364-13.966,5.674a1.848,1.848,0,0,0-.291,3.492A25.606,25.606,0,0,0,50.415,52.9Z" transform="translate(2.686 14.754)" fill="#327495"/>
          </g>
        </g>
      </g>
      <g id="Group_1973" data-name="Group 1973" transform="translate(96 12944)">
        <text id="When_Bob_claims_the_document_as_his._thee_entire_VC_is_encrypted_and_signed_by_its_rightful_owner_Bob." data-name="When Bob claims the document as his. thee entire VC is encrypted and signed by its rightful owner Bob." transform="translate(627 778)" fill="#707070" font-size="25" font-family="SegoeUI, Segoe UI"><tspan x="24.725" y="27">When Bob claims the document as his. </tspan><tspan x="7.745" y="60">thee entire VC is encrypted and signed by </tspan><tspan x="115.741" y="93">its rightful owner Bob.</tspan></text>
      </g>
      <g id="Group_1982" data-name="Group 1982" transform="translate(52 78)">
        <g id="Path_1696" data-name="Path 1696" transform="translate(907.223 13363.227)" fill="#c3e2f2">
          <path d="M 259.9251403808594 247.3891448974609 L 23.62955856323242 247.3891448974609 C 20.64705848693848 247.3891448974609 17.75412940979004 246.7874298095703 15.03116512298584 245.6006927490234 C 12.39727210998535 244.4527893066406 10.03077220916748 242.8083953857422 7.997379302978516 240.7131805419922 C 5.960915088653564 238.6148376464844 4.361843585968018 236.1707916259766 3.244593858718872 233.4490051269531 C 2.086986541748047 230.62890625 1.500022292137146 227.6319427490234 1.500022292137146 224.5413360595703 L 1.500022292137146 24.34786605834961 C 1.500022292137146 21.25725936889648 2.086986541748047 18.26029396057129 3.244593858718872 15.44018745422363 C 4.361843585968018 12.71836566925049 5.960915088653564 10.27433013916016 7.997379302978516 8.175972938537598 C 10.03077220916748 6.080758571624756 12.39727210998535 4.436365604400635 15.03116512298584 3.288472890853882 C 17.75412940979004 2.101722955703735 20.64705848693848 1.500008702278137 23.62955856323242 1.500008702278137 L 259.9251403808594 1.500008702278137 C 262.9076232910156 1.500008702278137 265.8005676269531 2.101722955703735 268.5235290527344 3.288472890853882 C 271.1574096679688 4.436365604400635 273.52392578125 6.080758571624756 275.5573425292969 8.175972938537598 C 277.5938110351563 10.27436542510986 279.19287109375 12.71836566925049 280.3101196289063 15.44018745422363 C 281.4677429199219 18.26029396057129 282.0546875 21.25725936889648 282.0546875 24.34786605834961 L 282.0546875 224.5413360595703 C 282.0546875 227.6319427490234 281.4677429199219 230.62890625 280.3101196289063 233.4490051269531 C 279.19287109375 236.1707916259766 277.5938110351563 238.6148376464844 275.5573425292969 240.7131805419922 C 273.52392578125 242.8083953857422 271.1574096679688 244.4527893066406 268.5235290527344 245.6006927490234 C 265.8005676269531 246.7874298095703 262.9076232910156 247.3891448974609 259.9251403808594 247.3891448974609 Z" stroke="none"/>
          <path d="M 23.62954711914063 3 C 18.13619995117188 3 12.96688842773438 5.209197998046875 9.073760986328125 9.220657348632813 C 7.17095947265625 11.18130493164063 5.676605224609375 13.46549987792969 4.6322021484375 16.009765625 C 3.549163818359375 18.64823913574219 3 21.45358276367188 3 24.34785461425781 L 3 224.5413055419922 C 3 227.4355773925781 3.549163818359375 230.2409210205078 4.6322021484375 232.87939453125 C 5.676605224609375 235.4236602783203 7.17095947265625 237.7078552246094 9.073760986328125 239.6685028076172 C 12.96688842773438 243.6799621582031 18.13619995117188 245.88916015625 23.62954711914063 245.88916015625 L 259.9251403808594 245.88916015625 C 265.4184875488281 245.88916015625 270.5877990722656 243.6799621582031 274.4809265136719 239.6685028076172 C 276.3837280273438 237.7078552246094 277.8780822753906 235.4236602783203 278.9224853515625 232.87939453125 C 280.0055236816406 230.2409210205078 280.5546875 227.4355773925781 280.5546875 224.5413055419922 L 280.5546875 24.34785461425781 C 280.5546875 21.45358276367188 280.0055236816406 18.64823913574219 278.9224853515625 16.009765625 C 277.8780822753906 13.46549987792969 276.3837280273438 11.18130493164063 274.4809265136719 9.220657348632813 C 270.5877990722656 5.209197998046875 265.4184875488281 3 259.9251403808594 3 L 23.62954711914063 3 M 23.62954711914063 0 L 259.9251403808594 0 C 272.9753723144531 0 283.5546875 10.90089416503906 283.5546875 24.34785461425781 L 283.5546875 224.5413055419922 C 283.5546875 237.9882659912109 272.9753723144531 248.88916015625 259.9251403808594 248.88916015625 L 23.62954711914063 248.88916015625 C 10.57931518554688 248.88916015625 0 237.9882659912109 0 224.5413055419922 L 0 24.34785461425781 C 0 10.90089416503906 10.57931518554688 0 23.62954711914063 0 Z" stroke="none" fill="#327495"/>
        </g>
        <g id="Group_1972" data-name="Group 1972" transform="translate(-171 9846)">
          <g id="Group_1924" data-name="Group 1924">
            <g id="Path_1578" data-name="Path 1578" transform="translate(1112 3546)" fill="#cecece">
              <path d="M 198 182.5 L 18 182.5 C 13.59269428253174 182.5 9.44919490814209 180.78369140625 6.332749843597412 177.6672821044922 C 3.216305494308472 174.5508270263672 1.5 170.4073028564453 1.5 166 L 1.5 18 C 1.5 13.59269428253174 3.216305494308472 9.44919490814209 6.332749843597412 6.332749843597412 C 9.44919490814209 3.216305494308472 13.59269428253174 1.5 18 1.5 L 198 1.5 C 202.4073028564453 1.5 206.5508270263672 3.216305494308472 209.6672821044922 6.332749843597412 C 212.78369140625 9.44919490814209 214.5 13.59269428253174 214.5 18 L 214.5 166 C 214.5 170.4073028564453 212.78369140625 174.5508270263672 209.6672821044922 177.6672821044922 C 206.5508270263672 180.78369140625 202.4073028564453 182.5 198 182.5 Z" stroke="none"/>
              <path d="M 18 3 C 13.99334716796875 3 10.22650146484375 4.560272216796875 7.393386840820313 7.393386840820313 C 4.560272216796875 10.22650146484375 3 13.99334716796875 3 18 L 3 166 C 3 170.0066528320313 4.560272216796875 173.7734680175781 7.393386840820313 176.6065826416016 C 10.22653198242188 179.4397277832031 13.99334716796875 181 18 181 L 198 181 C 202.0066528320313 181 205.7734680175781 179.4397277832031 208.6065826416016 176.6065826416016 C 211.4397277832031 173.7734680175781 213 170.0066528320313 213 166 L 213 18 C 213 13.99334716796875 211.4397277832031 10.22653198242188 208.6065826416016 7.393386840820313 C 205.7734680175781 4.560272216796875 202.0066528320313 3 198 3 L 18 3 M 18 0 L 198 0 C 207.9411163330078 0 216 8.058853149414063 216 18 L 216 166 C 216 175.9411163330078 207.9411163330078 184 198 184 L 18 184 C 8.058853149414063 184 0 175.9411163330078 0 166 L 0 18 C 0 8.058853149414063 8.058853149414063 0 18 0 Z" stroke="none" fill="#484848"/>
            </g>
            <g id="Group_1915" data-name="Group 1915" transform="translate(1019 299)">
              <g id="Group_1907" data-name="Group 1907" transform="translate(-640 -121)">
                <g id="Group_1906" data-name="Group 1906" transform="translate(772.171 3379.973)">
                  <g id="Rectangle_1264" data-name="Rectangle 1264" transform="translate(-0.171 31.027)" fill="#fff" stroke="#484848" stroke-width="3">
                    <rect width="138" height="104" rx="18" stroke="none"/>
                    <rect x="1.5" y="1.5" width="135" height="101" rx="16.5" fill="none"/>
                  </g>
                  <g id="Group_1878" data-name="Group 1878" transform="translate(55.511 0)">
                    <g id="Path_1577" data-name="Path 1577" transform="translate(6.317 21.027)" fill="#fff">
                      <path d="M 7 15.5 C 3.415889978408813 15.5 0.5 12.13551044464111 0.5 8 C 0.5 3.864490032196045 3.415889978408813 0.5 7 0.5 C 10.58411026000977 0.5 13.5 3.864490032196045 13.5 8 C 13.5 12.13551044464111 10.58411026000977 15.5 7 15.5 Z" stroke="none"/>
                      <path d="M 7 1 C 3.691590309143066 1 1 4.140190124511719 1 8 C 1 11.85980987548828 3.691590309143066 15 7 15 C 10.30840969085693 15 13 11.85980987548828 13 8 C 13 4.140190124511719 10.30840969085693 1 7 1 M 7 0 C 10.86598968505859 0 14 3.581720352172852 14 8 C 14 12.41827964782715 10.86598968505859 16 7 16 C 3.134010314941406 16 0 12.41827964782715 0 8 C 0 3.581720352172852 3.134010314941406 0 7 0 Z" stroke="none" fill="#707070"/>
                    </g>
                    <g id="noun_locked_809428" transform="translate(0 0)">
                      <path id="Path_1347" data-name="Path 1347" d="M40.321,18.584V8.662a8.342,8.342,0,0,0-16.684,0v9.921a13.869,13.869,0,1,0,16.684,0ZM33.638,29.715v4.343a1.658,1.658,0,1,1-3.317,0V29.715a2.814,2.814,0,1,1,3.317,0Zm3.668-12.859a13.893,13.893,0,0,0-10.653,0V8.662a5.327,5.327,0,0,1,10.654,0v8.194Z" transform="translate(-18.11 -0.321)" fill="#484848"/>
                    </g>
                  </g>
                </g>
              </g>
              <g id="noun_signature_1745297" transform="translate(150.574 3343.909)">
                <g id="Group_1912" data-name="Group 1912">
                  <g id="Group_1911" data-name="Group 1911">
                    <g id="Group_1910" data-name="Group 1910">
                      <path id="Path_1575" data-name="Path 1575" d="M41.2,45.8A73.057,73.057,0,0,0,61.8,32.4,2.563,2.563,0,0,0,60,28.1c-5-.2-8.8,2.9-12.5,5.8a111.7,111.7,0,0,0-9.2,7.8c-7.7,3.4-16,5.8-24.1,8.1-3.1.9-1.8,5.7,1.3,4.8,5-1.4,10-2.9,14.9-4.6A109.248,109.248,0,0,0,17.8,68.2c-1.6,2.8,2.7,5.3,4.3,2.5A108.561,108.561,0,0,1,37.7,49.3C38.8,48.1,40,46.9,41.2,45.8Z" fill="#484848"/>
                      <path id="Path_1576" data-name="Path 1576" d="M85.2,46.9c-2.6.3-6,1.2-8.8,1.1a4.4,4.4,0,0,0-.2-1,2.483,2.483,0,0,0-3.1-1.7c-.8.3-6.6,2.7-7.1,1.8a2.467,2.467,0,0,0-3.4-.9,19.483,19.483,0,0,1-9.3,3.6,17.377,17.377,0,0,1,1-1.9c1.1-1.7-.8-4.5-2.8-3.7a99.085,99.085,0,0,0-13.6,6.4c-2.8,1.6-.3,5.9,2.5,4.3,2.4-1.3,4.8-2.6,7.3-3.7,0,.2-.1.3-.1.5A2.6,2.6,0,0,0,50,54.9a24.215,24.215,0,0,0,13.5-3.3c2.3,1.5,5.5.5,8.4-.5a2.622,2.622,0,0,0,1.7,1.7c3.7.6,7.9-.4,11.6-.8C88.3,51.6,88.4,46.6,85.2,46.9Z" fill="#484848"/>
                    </g>
                  </g>
                </g>
              </g>
              <g id="Group_1914" data-name="Group 1914" transform="translate(-616 -298)">
                <g id="Group_1914-2" data-name="Group 1914" transform="translate(772.837 3608.027)" opacity="0.1">
                  <path id="noun_identification_9042" d="M90.942,22.138A3.138,3.138,0,0,0,87.8,19H5.139A3.138,3.138,0,0,0,2,22.138v50.24a3.139,3.139,0,0,0,3.139,3.137H87.8a3.139,3.139,0,0,0,3.138-3.138ZM34.427,57.912H9.412c-.829-3.281,1.288-5.09,4.719-5.881,3.358-.773,5.722-2.3,3.62-4.4C11.6,41.483,16.2,34,21.894,34s10.34,7.481,4.194,13.628c-2.1,2.1.212,3.628,3.569,4.4C33.089,52.822,35.257,54.632,34.427,57.912Zm49.1,0H39.986V54.206H83.53Zm0-9.265H39.986V44.941H83.53Zm0-9.265H39.986V35.677H83.53Z" transform="translate(-2 -19)" fill="#327495"/>
                </g>
                <text id="_6C7D_2CDB_FE3D_79A9_EE82_90B1_FB99_BB41_F97C_DB2C_0488_91DC_EC82_4F8C_2184_1337_825D_FFE4_77C6_662B_BB8D_8A6C_72EA_D0919D42_4FB4_1867_C696_91C0_F8BA" data-name="6C7D 2CDB FE3D 79A9 EE82 
90B1 FB99 BB41 F97C DB2C 
0488 91DC  EC82 4F8C 2184 
1337 825D FFE4 77C6 662B 
BB8D 8A6C 72EA D0919D42 
4FB4 1867 C696 91C0 F8BA" transform="translate(778 3619)" fill="#9bcfe9" font-size="6" font-family="SegoeUI-Bold, Segoe UI" font-weight="700"><tspan x="0" y="0">6C7D 2CDB FE3D 79A9 EE82 </tspan><tspan x="0" y="8">90B1 FB99 BB41 F97C DB2C </tspan><tspan x="0" y="16" xml:space="preserve">0488 91DC  EC82 4F8C 2184 </tspan><tspan x="0" y="24">1337 825D FFE4 77C6 662B </tspan><tspan x="0" y="32">BB8D 8A6C 72EA D0919D42 </tspan><tspan x="0" y="40">4FB4 1867 C696 91C0 F8BA</tspan></text>
              </g>
            </g>
            <g id="Group_1916" data-name="Group 1916" transform="translate(1206.683 3703.973)">
              <g id="Path_1577-2" data-name="Path 1577" transform="translate(6.317 21.027)" fill="#fff">
                <path d="M 7 15.5 C 3.415889978408813 15.5 0.5 12.13551044464111 0.5 8 C 0.5 3.864490032196045 3.415889978408813 0.5 7 0.5 C 10.58411026000977 0.5 13.5 3.864490032196045 13.5 8 C 13.5 12.13551044464111 10.58411026000977 15.5 7 15.5 Z" stroke="none"/>
                <path d="M 7 1 C 3.691590309143066 1 1 4.140190124511719 1 8 C 1 11.85980987548828 3.691590309143066 15 7 15 C 10.30840969085693 15 13 11.85980987548828 13 8 C 13 4.140190124511719 10.30840969085693 1 7 1 M 7 0 C 10.86598968505859 0 14 3.581720352172852 14 8 C 14 12.41827964782715 10.86598968505859 16 7 16 C 3.134010314941406 16 0 12.41827964782715 0 8 C 0 3.581720352172852 3.134010314941406 0 7 0 Z" stroke="none" fill="#707070"/>
              </g>
              <g id="noun_locked_809428-2" data-name="noun_locked_809428" transform="translate(0 0)">
                <path id="Path_1347-2" data-name="Path 1347" d="M40.321,18.584V8.662a8.342,8.342,0,0,0-16.684,0v9.921a13.869,13.869,0,1,0,16.684,0ZM33.638,29.715v4.343a1.658,1.658,0,1,1-3.317,0V29.715a2.814,2.814,0,1,1,3.317,0Zm3.668-12.859a13.893,13.893,0,0,0-10.653,0V8.662a5.327,5.327,0,0,1,10.654,0v8.194Z" transform="translate(-18.11 -0.321)" fill="#484848"/>
              </g>
            </g>
            <text id="Verifiable_Credential" data-name="Verifiable 
Credential" transform="translate(1125 3567)" fill="#484848" font-size="15" font-family="SegoeUI-Bold, Segoe UI" font-weight="700"><tspan x="0" y="0">Verifiable </tspan><tspan x="0" y="15">Credential</tspan></text>
          </g>
        </g>
        <g id="Group_1974" data-name="Group 1974" transform="translate(1035.683 13335.973)">
          <g id="Path_1577-3" data-name="Path 1577" transform="translate(7.317 22.027)" fill="#fff">
            <path d="M 7 15.5 C 3.415889978408813 15.5 0.5 12.13551044464111 0.5 8 C 0.5 3.864490032196045 3.415889978408813 0.5 7 0.5 C 10.58411026000977 0.5 13.5 3.864490032196045 13.5 8 C 13.5 12.13551044464111 10.58411026000977 15.5 7 15.5 Z" stroke="none"/>
            <path d="M 7 1 C 3.691590309143066 1 1 4.140190124511719 1 8 C 1 11.85980987548828 3.691590309143066 15 7 15 C 10.30840969085693 15 13 11.85980987548828 13 8 C 13 4.140190124511719 10.30840969085693 1 7 1 M 7 0 C 10.86598968505859 0 14 3.581720352172852 14 8 C 14 12.41827964782715 10.86598968505859 16 7 16 C 3.134010314941406 16 0 12.41827964782715 0 8 C 0 3.581720352172852 3.134010314941406 0 7 0 Z" stroke="none" fill="#707070"/>
          </g>
          <g id="noun_locked_809428-3" data-name="noun_locked_809428" transform="translate(0 0)">
            <path id="Path_1347-3" data-name="Path 1347" d="M40.321,18.584V8.662a8.342,8.342,0,0,0-16.684,0v9.921a13.869,13.869,0,1,0,16.684,0ZM33.638,29.715v4.343a1.658,1.658,0,1,1-3.317,0V29.715a2.814,2.814,0,1,1,3.317,0Zm3.668-12.859a13.893,13.893,0,0,0-10.653,0V8.662a5.327,5.327,0,0,1,10.654,0v8.194Z" transform="translate(-18.11 -0.321)" fill="#327495"/>
          </g>
        </g>
        <g id="noun_signature_1745296" transform="translate(1007.671 13582.512)">
          <g id="Group_1876" data-name="Group 1876" transform="translate(0 13)">
            <g id="Group_1875" data-name="Group 1875">
              <path id="Path_1569" data-name="Path 1569" d="M88.064,51.052c-4.281,1.427-8.765,1.631-13.249,1.733,0-.408.1-.815.1-1.223a2.626,2.626,0,0,0-3.873-2.242c-1.223.713-2.344,1.427-3.567,2.14.1-.51.1-1.019.2-1.529.306-2.14-2.344-2.854-3.873-2.242-3.669,1.631-6.829,4.892-10.6,6.319.1-1.121.306-2.242.408-3.261.306-2.548-2.14-4.179-4.281-2.446a46.552,46.552,0,0,1-5.809,4.179c.408-.713.713-1.529,1.121-2.242,1.019-2.038-1.223-5.1-3.465-3.465-2.65,1.936-5.3,3.771-8.052,5.5a51.885,51.885,0,0,0,3.363-11.313c.408-2.242-2.446-4.586-4.281-2.446a141.166,141.166,0,0,1-21,20.282c-2.548,2.038,1.019,5.606,3.567,3.567a140.982,140.982,0,0,0,13.657-12.23,42.1,42.1,0,0,1-4.281,7.848c-1.529,2.242,1.325,4.688,3.465,3.465,2.752-1.529,5.4-3.16,7.95-4.79-.1.2-.2.306-.306.51a2.563,2.563,0,0,0,3.465,3.465A53.715,53.715,0,0,0,47.6,55.638c0,.306-.1.612-.1.815-.2,1.529.612,3.363,2.446,3.261,4.688-.306,8.052-2.854,11.721-5.2-.1.408-.1.917-.2,1.325-.306,2.14,2.344,2.854,3.873,2.242,1.223-.612,2.446-1.223,3.567-1.835a2.778,2.778,0,0,0,2.344,1.733c6.013-.2,12.026,0,17.836-1.936C92.446,54.925,91.121,50.033,88.064,51.052Z" transform="translate(-10.34 -37.672)" fill="#327495"/>
            </g>
          </g>
        </g>
      </g>
      <g id="Group_1977" data-name="Group 1977" transform="translate(0 775)">
        <g id="Path_1696-2" data-name="Path 1696" transform="translate(910.223 13139.227)" fill="#c3e2f2" opacity="0.3">
          <path d="M 259.9251403808594 247.3891448974609 L 23.62955856323242 247.3891448974609 C 20.64705848693848 247.3891448974609 17.75412940979004 246.7874298095703 15.03116512298584 245.6006927490234 C 12.39727210998535 244.4527893066406 10.03077220916748 242.8083953857422 7.997379302978516 240.7131805419922 C 5.960915088653564 238.6148376464844 4.361843585968018 236.1707916259766 3.244593858718872 233.4490051269531 C 2.086986541748047 230.62890625 1.500022292137146 227.6319427490234 1.500022292137146 224.5413360595703 L 1.500022292137146 24.34786605834961 C 1.500022292137146 21.25725936889648 2.086986541748047 18.26029396057129 3.244593858718872 15.44018745422363 C 4.361843585968018 12.71836566925049 5.960915088653564 10.27433013916016 7.997379302978516 8.175972938537598 C 10.03077220916748 6.080758571624756 12.39727210998535 4.436365604400635 15.03116512298584 3.288472890853882 C 17.75412940979004 2.101722955703735 20.64705848693848 1.500008702278137 23.62955856323242 1.500008702278137 L 259.9251403808594 1.500008702278137 C 262.9076232910156 1.500008702278137 265.8005676269531 2.101722955703735 268.5235290527344 3.288472890853882 C 271.1574096679688 4.436365604400635 273.52392578125 6.080758571624756 275.5573425292969 8.175972938537598 C 277.5938110351563 10.27436542510986 279.19287109375 12.71836566925049 280.3101196289063 15.44018745422363 C 281.4677429199219 18.26029396057129 282.0546875 21.25725936889648 282.0546875 24.34786605834961 L 282.0546875 224.5413360595703 C 282.0546875 227.6319427490234 281.4677429199219 230.62890625 280.3101196289063 233.4490051269531 C 279.19287109375 236.1707916259766 277.5938110351563 238.6148376464844 275.5573425292969 240.7131805419922 C 273.52392578125 242.8083953857422 271.1574096679688 244.4527893066406 268.5235290527344 245.6006927490234 C 265.8005676269531 246.7874298095703 262.9076232910156 247.3891448974609 259.9251403808594 247.3891448974609 Z" stroke="none"/>
          <path d="M 23.62954711914063 3 C 18.13619995117188 3 12.96688842773438 5.209197998046875 9.073760986328125 9.220657348632813 C 7.17095947265625 11.18130493164063 5.676605224609375 13.46549987792969 4.6322021484375 16.009765625 C 3.549163818359375 18.64823913574219 3 21.45358276367188 3 24.34785461425781 L 3 224.5413055419922 C 3 227.4355773925781 3.549163818359375 230.2409210205078 4.6322021484375 232.87939453125 C 5.676605224609375 235.4236602783203 7.17095947265625 237.7078552246094 9.073760986328125 239.6685028076172 C 12.96688842773438 243.6799621582031 18.13619995117188 245.88916015625 23.62954711914063 245.88916015625 L 259.9251403808594 245.88916015625 C 265.4184875488281 245.88916015625 270.5877990722656 243.6799621582031 274.4809265136719 239.6685028076172 C 276.3837280273438 237.7078552246094 277.8780822753906 235.4236602783203 278.9224853515625 232.87939453125 C 280.0055236816406 230.2409210205078 280.5546875 227.4355773925781 280.5546875 224.5413055419922 L 280.5546875 24.34785461425781 C 280.5546875 21.45358276367188 280.0055236816406 18.64823913574219 278.9224853515625 16.009765625 C 277.8780822753906 13.46549987792969 276.3837280273438 11.18130493164063 274.4809265136719 9.220657348632813 C 270.5877990722656 5.209197998046875 265.4184875488281 3 259.9251403808594 3 L 23.62954711914063 3 M 23.62954711914063 0 L 259.9251403808594 0 C 272.9753723144531 0 283.5546875 10.90089416503906 283.5546875 24.34785461425781 L 283.5546875 224.5413055419922 C 283.5546875 237.9882659912109 272.9753723144531 248.88916015625 259.9251403808594 248.88916015625 L 23.62954711914063 248.88916015625 C 10.57931518554688 248.88916015625 0 237.9882659912109 0 224.5413055419922 L 0 24.34785461425781 C 0 10.90089416503906 10.57931518554688 0 23.62954711914063 0 Z" stroke="none" fill="#327495"/>
        </g>
        <g id="Group_1972-2" data-name="Group 1972" transform="translate(-168 9622)">
          <g id="Group_1924-2" data-name="Group 1924">
            <g id="Path_1578-2" data-name="Path 1578" transform="translate(1112 3546)" fill="#cecece">
              <path d="M 198 182.5 L 18 182.5 C 13.59269428253174 182.5 9.44919490814209 180.78369140625 6.332749843597412 177.6672821044922 C 3.216305494308472 174.5508270263672 1.5 170.4073028564453 1.5 166 L 1.5 18 C 1.5 13.59269428253174 3.216305494308472 9.44919490814209 6.332749843597412 6.332749843597412 C 9.44919490814209 3.216305494308472 13.59269428253174 1.5 18 1.5 L 198 1.5 C 202.4073028564453 1.5 206.5508270263672 3.216305494308472 209.6672821044922 6.332749843597412 C 212.78369140625 9.44919490814209 214.5 13.59269428253174 214.5 18 L 214.5 166 C 214.5 170.4073028564453 212.78369140625 174.5508270263672 209.6672821044922 177.6672821044922 C 206.5508270263672 180.78369140625 202.4073028564453 182.5 198 182.5 Z" stroke="none"/>
              <path d="M 18 3 C 13.99334716796875 3 10.22650146484375 4.560272216796875 7.393386840820313 7.393386840820313 C 4.560272216796875 10.22650146484375 3 13.99334716796875 3 18 L 3 166 C 3 170.0066528320313 4.560272216796875 173.7734680175781 7.393386840820313 176.6065826416016 C 10.22653198242188 179.4397277832031 13.99334716796875 181 18 181 L 198 181 C 202.0066528320313 181 205.7734680175781 179.4397277832031 208.6065826416016 176.6065826416016 C 211.4397277832031 173.7734680175781 213 170.0066528320313 213 166 L 213 18 C 213 13.99334716796875 211.4397277832031 10.22653198242188 208.6065826416016 7.393386840820313 C 205.7734680175781 4.560272216796875 202.0066528320313 3 198 3 L 18 3 M 18 0 L 198 0 C 207.9411163330078 0 216 8.058853149414063 216 18 L 216 166 C 216 175.9411163330078 207.9411163330078 184 198 184 L 18 184 C 8.058853149414063 184 0 175.9411163330078 0 166 L 0 18 C 0 8.058853149414063 8.058853149414063 0 18 0 Z" stroke="none" fill="#484848"/>
            </g>
            <g id="Group_1915-2" data-name="Group 1915" transform="translate(1019 299)">
              <g id="Group_1907-2" data-name="Group 1907" transform="translate(-640 -121)">
                <g id="Group_1906-2" data-name="Group 1906" transform="translate(772.171 3379.973)">
                  <g id="Rectangle_1264-2" data-name="Rectangle 1264" transform="translate(-0.171 31.027)" fill="#fff" stroke="#484848" stroke-width="3">
                    <rect width="138" height="104" rx="18" stroke="none"/>
                    <rect x="1.5" y="1.5" width="135" height="101" rx="16.5" fill="none"/>
                  </g>
                  <g id="Group_1878-2" data-name="Group 1878" transform="translate(55.511 0)">
                    <g id="Path_1577-4" data-name="Path 1577" transform="translate(6.317 21.027)" fill="#fff">
                      <path d="M 7 15.5 C 3.415889978408813 15.5 0.5 12.13551044464111 0.5 8 C 0.5 3.864490032196045 3.415889978408813 0.5 7 0.5 C 10.58411026000977 0.5 13.5 3.864490032196045 13.5 8 C 13.5 12.13551044464111 10.58411026000977 15.5 7 15.5 Z" stroke="none"/>
                      <path d="M 7 1 C 3.691590309143066 1 1 4.140190124511719 1 8 C 1 11.85980987548828 3.691590309143066 15 7 15 C 10.30840969085693 15 13 11.85980987548828 13 8 C 13 4.140190124511719 10.30840969085693 1 7 1 M 7 0 C 10.86598968505859 0 14 3.581720352172852 14 8 C 14 12.41827964782715 10.86598968505859 16 7 16 C 3.134010314941406 16 0 12.41827964782715 0 8 C 0 3.581720352172852 3.134010314941406 0 7 0 Z" stroke="none" fill="#707070"/>
                    </g>
                    <g id="noun_locked_809428-4" data-name="noun_locked_809428" transform="translate(0 0)">
                      <path id="Path_1347-4" data-name="Path 1347" d="M40.321,18.584V8.662a8.342,8.342,0,0,0-16.684,0v9.921a13.869,13.869,0,1,0,16.684,0ZM33.638,29.715v4.343a1.658,1.658,0,1,1-3.317,0V29.715a2.814,2.814,0,1,1,3.317,0Zm3.668-12.859a13.893,13.893,0,0,0-10.653,0V8.662a5.327,5.327,0,0,1,10.654,0v8.194Z" transform="translate(-18.11 -0.321)" fill="#484848"/>
                    </g>
                  </g>
                </g>
              </g>
              <g id="noun_signature_1745297-2" data-name="noun_signature_1745297" transform="translate(150.574 3343.909)">
                <g id="Group_1912-2" data-name="Group 1912">
                  <g id="Group_1911-2" data-name="Group 1911">
                    <g id="Group_1910-2" data-name="Group 1910">
                      <path id="Path_1575-2" data-name="Path 1575" d="M41.2,45.8A73.057,73.057,0,0,0,61.8,32.4,2.563,2.563,0,0,0,60,28.1c-5-.2-8.8,2.9-12.5,5.8a111.7,111.7,0,0,0-9.2,7.8c-7.7,3.4-16,5.8-24.1,8.1-3.1.9-1.8,5.7,1.3,4.8,5-1.4,10-2.9,14.9-4.6A109.248,109.248,0,0,0,17.8,68.2c-1.6,2.8,2.7,5.3,4.3,2.5A108.561,108.561,0,0,1,37.7,49.3C38.8,48.1,40,46.9,41.2,45.8Z" fill="#484848"/>
                      <path id="Path_1576-2" data-name="Path 1576" d="M85.2,46.9c-2.6.3-6,1.2-8.8,1.1a4.4,4.4,0,0,0-.2-1,2.483,2.483,0,0,0-3.1-1.7c-.8.3-6.6,2.7-7.1,1.8a2.467,2.467,0,0,0-3.4-.9,19.483,19.483,0,0,1-9.3,3.6,17.377,17.377,0,0,1,1-1.9c1.1-1.7-.8-4.5-2.8-3.7a99.085,99.085,0,0,0-13.6,6.4c-2.8,1.6-.3,5.9,2.5,4.3,2.4-1.3,4.8-2.6,7.3-3.7,0,.2-.1.3-.1.5A2.6,2.6,0,0,0,50,54.9a24.215,24.215,0,0,0,13.5-3.3c2.3,1.5,5.5.5,8.4-.5a2.622,2.622,0,0,0,1.7,1.7c3.7.6,7.9-.4,11.6-.8C88.3,51.6,88.4,46.6,85.2,46.9Z" fill="#484848"/>
                    </g>
                  </g>
                </g>
              </g>
              <g id="Group_1914-3" data-name="Group 1914" transform="translate(-616 -298)">
                <g id="Group_1914-4" data-name="Group 1914" transform="translate(772.837 3608.027)" opacity="0.1">
                  <path id="noun_identification_9042-2" data-name="noun_identification_9042" d="M90.942,22.138A3.138,3.138,0,0,0,87.8,19H5.139A3.138,3.138,0,0,0,2,22.138v50.24a3.139,3.139,0,0,0,3.139,3.137H87.8a3.139,3.139,0,0,0,3.138-3.138ZM34.427,57.912H9.412c-.829-3.281,1.288-5.09,4.719-5.881,3.358-.773,5.722-2.3,3.62-4.4C11.6,41.483,16.2,34,21.894,34s10.34,7.481,4.194,13.628c-2.1,2.1.212,3.628,3.569,4.4C33.089,52.822,35.257,54.632,34.427,57.912Zm49.1,0H39.986V54.206H83.53Zm0-9.265H39.986V44.941H83.53Zm0-9.265H39.986V35.677H83.53Z" transform="translate(-2 -19)" fill="#327495"/>
                </g>
                <text id="_6C7D_2CDB_FE3D_79A9_EE82_90B1_FB99_BB41_F97C_DB2C_0488_91DC_EC82_4F8C_2184_1337_825D_FFE4_77C6_662B_BB8D_8A6C_72EA_D0919D42_4FB4_1867_C696_91C0_F8BA-2" data-name="6C7D 2CDB FE3D 79A9 EE82 
90B1 FB99 BB41 F97C DB2C 
0488 91DC  EC82 4F8C 2184 
1337 825D FFE4 77C6 662B 
BB8D 8A6C 72EA D0919D42 
4FB4 1867 C696 91C0 F8BA" transform="translate(778 3619)" fill="#9bcfe9" font-size="6" font-family="SegoeUI-Bold, Segoe UI" font-weight="700"><tspan x="0" y="0">6C7D 2CDB FE3D 79A9 EE82 </tspan><tspan x="0" y="8">90B1 FB99 BB41 F97C DB2C </tspan><tspan x="0" y="16" xml:space="preserve">0488 91DC  EC82 4F8C 2184 </tspan><tspan x="0" y="24">1337 825D FFE4 77C6 662B </tspan><tspan x="0" y="32">BB8D 8A6C 72EA D0919D42 </tspan><tspan x="0" y="40">4FB4 1867 C696 91C0 F8BA</tspan></text>
              </g>
            </g>
            <g id="Group_1916-2" data-name="Group 1916" transform="translate(1206.683 3703.973)">
              <g id="Path_1577-5" data-name="Path 1577" transform="translate(6.317 21.027)" fill="#fff">
                <path d="M 7 15.5 C 3.415889978408813 15.5 0.5 12.13551044464111 0.5 8 C 0.5 3.864490032196045 3.415889978408813 0.5 7 0.5 C 10.58411026000977 0.5 13.5 3.864490032196045 13.5 8 C 13.5 12.13551044464111 10.58411026000977 15.5 7 15.5 Z" stroke="none"/>
                <path d="M 7 1 C 3.691590309143066 1 1 4.140190124511719 1 8 C 1 11.85980987548828 3.691590309143066 15 7 15 C 10.30840969085693 15 13 11.85980987548828 13 8 C 13 4.140190124511719 10.30840969085693 1 7 1 M 7 0 C 10.86598968505859 0 14 3.581720352172852 14 8 C 14 12.41827964782715 10.86598968505859 16 7 16 C 3.134010314941406 16 0 12.41827964782715 0 8 C 0 3.581720352172852 3.134010314941406 0 7 0 Z" stroke="none" fill="#707070"/>
              </g>
              <g id="noun_locked_809428-5" data-name="noun_locked_809428" transform="translate(0 0)">
                <path id="Path_1347-5" data-name="Path 1347" d="M40.321,18.584V8.662a8.342,8.342,0,0,0-16.684,0v9.921a13.869,13.869,0,1,0,16.684,0ZM33.638,29.715v4.343a1.658,1.658,0,1,1-3.317,0V29.715a2.814,2.814,0,1,1,3.317,0Zm3.668-12.859a13.893,13.893,0,0,0-10.653,0V8.662a5.327,5.327,0,0,1,10.654,0v8.194Z" transform="translate(-18.11 -0.321)" fill="#484848"/>
              </g>
            </g>
            <text id="Verifiable_Credential-2" data-name="Verifiable 
Credential" transform="translate(1125 3567)" fill="#484848" font-size="15" font-family="SegoeUI-Bold, Segoe UI" font-weight="700"><tspan x="0" y="0">Verifiable </tspan><tspan x="0" y="15">Credential</tspan></text>
          </g>
        </g>
        <g id="noun_person_2200675-2" data-name="noun_person_2200675" transform="translate(751.006 13199.024)">
          <g id="Group_1744-2" data-name="Group 1744">
            <g id="Group_1743-2" data-name="Group 1743">
              <path id="Path_1508-2" data-name="Path 1508" d="M105.072,97.354H90.67l-1.746-6.692a22.775,22.775,0,0,0,15.567-21.531V60.984c6.11-1.018,10.766-6.692,10.766-13.384a13.748,13.748,0,0,0-7.711-12.511q0-4.364-.436-10.038C105.363,5.846,88.924,2.5,68.557,2.5S31.6,5.846,30.149,25.05q-.436,5.674-.436,10.038A13.589,13.589,0,0,0,22,47.6c0,6.838,4.655,12.511,10.766,13.384v8.147A22.775,22.775,0,0,0,48.335,90.662l-1.746,6.692h-14.4A23.035,23.035,0,0,0,9.2,120.34v14.4a5.991,5.991,0,0,0,5.965,5.965H121.948a5.991,5.991,0,0,0,5.965-5.965v-14.4A22.818,22.818,0,0,0,105.072,97.354ZM39.9,69.131V57.347a3.2,3.2,0,0,0-1.309-2.764A3.33,3.33,0,0,0,35.532,54h-.873c-3.055,0-5.528-2.91-5.528-6.547a6.466,6.466,0,0,1,3.637-5.965v.727a3.492,3.492,0,1,0,6.983,0V35.088a15.352,15.352,0,0,1,2.182-7.711c6.4,2.473,15.858,4.073,26.623,4.073,10.62,0,20.222-1.6,26.623-4.073a15.783,15.783,0,0,1,2.182,7.711v7.129a3.492,3.492,0,0,0,6.983,0v-.727a6.234,6.234,0,0,1,3.637,5.965c0,3.637-2.473,6.547-5.528,6.547h-.873a3.81,3.81,0,0,0-3.055.582,3.583,3.583,0,0,0-1.309,2.764V69.131A15.739,15.739,0,0,1,81.5,84.843h-25.9A15.647,15.647,0,0,1,39.9,69.131ZM81.8,107.1l-9.456,7.129a6.118,6.118,0,0,1-7.565,0L55.318,107.1a6.318,6.318,0,0,1-2.328-6.692l2.182-8.438H81.65l2.182,8.438A5.73,5.73,0,0,1,81.8,107.1Z" transform="translate(-9.2 -2.5)" fill="#327495"/>
              <circle id="Ellipse_508-2" data-name="Ellipse 508" cx="6.256" cy="6.256" r="6.256" transform="translate(39.862 37.68)" fill="#327495"/>
              <circle id="Ellipse_509-2" data-name="Ellipse 509" cx="6.256" cy="6.256" r="6.256" transform="translate(66.049 37.68)" fill="#327495"/>
              <path id="Path_1509-2" data-name="Path 1509" d="M50.415,52.9c3.346-.436,5.237-1.6,6.256-3.2,1.018,1.6,2.91,2.764,6.256,3.2a27.141,27.141,0,0,0,14.257-2.619,1.876,1.876,0,0,0-.291-3.492c-5.674-1.309-11.348-4.364-13.966-5.674a5.422,5.422,0,0,0-6.11.582,5.421,5.421,0,0,0-6.11-.582c-2.619,1.309-8.292,4.364-13.966,5.674a1.848,1.848,0,0,0-.291,3.492A25.606,25.606,0,0,0,50.415,52.9Z" transform="translate(2.686 14.754)" fill="#327495"/>
            </g>
          </g>
        </g>
        <g id="Group_1973-2" data-name="Group 1973" transform="translate(96 12642)">
          <text id="If_Bob_fails_to_claim_the_notarized_document_then_it_is_not_transfearable_because_it_lacks_its_owner_s_signature." data-name="If Bob fails to claim the notarized document, then it is not transfearable because it lacks its owner&apos;s signature." transform="translate(627 778)" fill="#707070" font-size="25" font-family="SegoeUI, Segoe UI"><tspan x="55.969" y="27">If Bob fails to claim the notarized </tspan><tspan x="30.627" y="60">document, then it is not transfearable </tspan><tspan x="32.416" y="93">because it lacks its owner&apos;s signature.</tspan></text>
        </g>
        <g id="Group_1978" data-name="Group 1978" transform="translate(1041.854 13109.889)">
          <g id="Path_1570" data-name="Path 1570" transform="translate(5.636 22.289)" fill="#fff">
            <path d="M 6.858459949493408 14.93116474151611 C 3.352390050888062 14.93116474151611 0.4999999403953552 11.69426441192627 0.4999999403953552 7.715584278106689 C 0.4999999403953552 3.736904382705688 3.352390050888062 0.5000042915344238 6.858459949493408 0.5000042915344238 C 10.36452960968018 0.5000042915344238 13.21691989898682 3.736904382705688 13.21691989898682 7.715584278106689 C 13.21691989898682 11.69426441192627 10.36452960968018 14.93116474151611 6.858459949493408 14.93116474151611 Z" stroke="none"/>
            <path d="M 6.858459949493408 1.000003814697266 C 3.628089904785156 1.000003814697266 1 4.012604713439941 1 7.715584278106689 C 1 11.41856384277344 3.628089904785156 14.4311637878418 6.858459949493408 14.4311637878418 C 10.08882999420166 14.4311637878418 12.71691989898682 11.41856384277344 12.71691989898682 7.715584278106689 C 12.71691989898682 4.012604713439941 10.08882999420166 1.000003814697266 6.858459949493408 1.000003814697266 M 6.858459949493408 3.814697265625e-06 C 10.64628028869629 3.814697265625e-06 13.71691989898682 3.454383850097656 13.71691989898682 7.715584278106689 C 13.71691989898682 11.97678375244141 10.64628028869629 15.43116474151611 6.858459949493408 15.43116474151611 C 3.070639610290527 15.43116474151611 0 11.97678375244141 0 7.715584278106689 C 0 3.454383850097656 3.070639610290527 3.814697265625e-06 6.858459949493408 3.814697265625e-06 Z" stroke="none" fill="#707070"/>
          </g>
          <g id="Group_1516" data-name="Group 1516" transform="translate(0)">
            <path id="Path_1350" data-name="Path 1350" d="M248.781,1491.637a13.17,13.17,0,0,1,9.2-12.537l0,0c.083-.026.167-.05.251-.075l.089-.026.175-.048.16-.042.115-.028.216-.05.069-.016c.085-.018.171-.038.256-.054l.039-.008c.094-.019.189-.036.283-.052l.021,0q.149-.026.3-.048l.015,0c.1-.015.2-.029.3-.042l.023,0,.294-.032.045,0,.272-.023.083-.005.237-.015.144-.005.179-.006q.163,0,.327,0t.328,0c.054,0,.108,0,.162.006l.162.006.218.014.1.006.252.021.066.006c.091.01.182.019.273.031l.045.005c.093.011.187.025.28.038l.039.005c.092.013.183.029.275.044l.046.007.258.049.065.012c.076.015.153.032.229.048l.1.021.187.045.145.036.129.034.208.057.056.016a13.169,13.169,0,0,1,9.475,12.657,13.1,13.1,0,0,1-26.193-.037Zm10.95-.568a2.652,2.652,0,0,0,.581.581v4.1a1.566,1.566,0,1,0,3.132,0v-4.1a2.657,2.657,0,1,0-3.713-.581Z" transform="translate(-248.781 -1461.905)" fill="#d95868"/>
            <path id="Path_1351" data-name="Path 1351" d="M173.471,1293.922a7.877,7.877,0,1,1,15.753,0v9.366h0a.04.04,0,0,0,0,0v0s0,0,0,0a13.069,13.069,0,0,0-2.847-1.655v-7.721a5.03,5.03,0,0,0-10.059,0v7.448h0v4.426h-2.848v-2.556l0,0Z" transform="translate(-156.536 -1286.045)" fill="#d95868"/>
          </g>
        </g>
      </g>
      <g id="Group_1981" data-name="Group 1981" transform="translate(564 13432)">
        <g id="Group_1548" data-name="Group 1548" transform="translate(123.084 142.773)">
          <text id="Bob_s_Private_Key" data-name="Bob&apos;s Private Key" transform="translate(131.916 43.227)" fill="#327495" font-size="15" font-family="SegoeUI-Semibold, Segoe UI" font-weight="600"><tspan x="0" y="0">Bob&apos;s Private Key</tspan></text>
        </g>
        <g id="Group_1905" data-name="Group 1905" transform="translate(243.084 62.561)">
          <g id="noun_Key_3192361" transform="translate(65.215 0) rotate(45)">
            <path id="Path_1345" data-name="Path 1345" d="M29.79,92.229A29.781,29.781,0,1,1,41.853,35.213L76.531.535A1.826,1.826,0,0,1,77.841,0a.691.691,0,0,1,.2.018L89.277,1.346a1.86,1.86,0,0,1,1.6,1.623L92.21,14.185a1.792,1.792,0,0,1-.516,1.513l-7.268,7.268a1.826,1.826,0,0,1-2.619,0l-1.882-1.882-4.243,4.261,1.881,1.881a1.826,1.826,0,0,1,.535,1.31,1.784,1.784,0,0,1-.535,1.291l-5.5,5.5a1.837,1.837,0,0,1-2.6,0l-1.882-1.882-4.261,4.242,1.882,1.882a1.844,1.844,0,0,1,.553,1.31,1.876,1.876,0,0,1-.553,1.31l-8.19,8.19a29.423,29.423,0,0,1,2.545,12.064A29.789,29.789,0,0,1,29.79,92.229Zm3.154-32.944a9.121,9.121,0,0,0-15.568,6.456,9.121,9.121,0,0,0,18.243,0A9.132,9.132,0,0,0,32.944,59.285Z" transform="translate(0 0)" fill="#327495"/>
          </g>
          <text id="Private" transform="translate(68.916 46.439)" fill="#327495" font-size="13" font-family="SegoeUI-Semibold, Segoe UI" font-weight="600"><tspan x="0" y="0">Private</tspan></text>
        </g>
      </g>
    </g>
    <g id="Group_1994" data-name="Group 1994" transform="translate(49 8262)">
      <text id="This_verification_step_checks_to_see_whether_or_not_the_document_has_been_properly_claimed_signed_and_encrypted_by_its_rightful_owner." data-name="This verification step checks to see whether or not the document has 
been properly claimed, signed and encrypted by its rightful owner." transform="translate(608 6919)" fill="#66b368" font-size="22" font-family="SegoeUI-Bold, Segoe UI" font-weight="700"><tspan x="0" y="0">This verification step checks to see whether or not the document has </tspan><tspan x="0" y="30">been properly claimed, signed and encrypted by its rightful owner.</tspan></text>
      <g id="Group_1985" data-name="Group 1985" transform="translate(472 6862)">
        <circle id="Ellipse_494" data-name="Ellipse 494" cx="31.5" cy="31.5" r="31.5" transform="translate(40 33)" fill="#66b368"/>
        <path id="Path_1485" data-name="Path 1485" d="M32.911,10.361,17.687,25.585l-6.874-6.874a2.087,2.087,0,1,0-2.952,2.952l8.35,8.35a2.087,2.087,0,0,0,2.952,0l16.7-16.7a2.087,2.087,0,0,0-2.952-2.952Z" transform="translate(49.188 44.191)" fill="#fff" stroke="#1c561e" stroke-width="0.063"/>
      </g>
    </g>
    <g id="Component_10_6" data-name="Component 10 – 6" transform="translate(512 13834)">
      <g id="Rectangle_1267" data-name="Rectangle 1267" transform="translate(447)" fill="#fff" stroke="#53aa56" stroke-width="4">
        <path d="M0,0H432a18,18,0,0,1,18,18V48a18,18,0,0,1-18,18H0a0,0,0,0,1,0,0V0A0,0,0,0,1,0,0Z" stroke="none"/>
        <path d="M4,2H432a16,16,0,0,1,16,16V48a16,16,0,0,1-16,16H4a2,2,0,0,1-2-2V4A2,2,0,0,1,4,2Z" fill="none"/>
      </g>
      <g id="Rectangle_1268" data-name="Rectangle 1268" fill="#53aa56" stroke="#53aa56" stroke-width="3">
        <path d="M18,0H449a0,0,0,0,1,0,0V66a0,0,0,0,1,0,0H18A18,18,0,0,1,0,48V18A18,18,0,0,1,18,0Z" stroke="none"/>
        <path d="M18,1.5H446A1.5,1.5,0,0,1,447.5,3V63a1.5,1.5,0,0,1-1.5,1.5H18A16.5,16.5,0,0,1,1.5,48V18A16.5,16.5,0,0,1,18,1.5Z" fill="none"/>
      </g>
      <text id="Technical_Steps" data-name="Technical Steps" transform="translate(672 45)" fill="#53aa56" font-size="30" font-family="SegoeUI-Bold, Segoe UI" font-weight="700"><tspan x="-106.626" y="0">Technical Steps</tspan></text>
      <text id="What_s_happening_" data-name="What&apos;s happening?" transform="translate(224 45)" fill="#f9f9f9" font-size="30" font-family="SegoeUI-Bold, Segoe UI" font-weight="700"><tspan x="-134.487" y="0">What&apos;s happening?</tspan></text>
    </g>
    <g id="Group_2082" data-name="Group 2082" transform="translate(-28.233 13636)">
      <circle id="Ellipse_375" data-name="Ellipse 375" cx="29.5" cy="29.5" r="29.5" transform="translate(1494.233 43)" fill="none"/>
      <g id="Group_1077" data-name="Group 1077" transform="translate(1534.858 69.243) rotate(90)">
        <line id="Line_268" data-name="Line 268" x2="12.388" y2="11.504" fill="none" stroke="#fff" stroke-linecap="round" stroke-width="4"/>
        <line id="Line_269" data-name="Line 269" x1="12.388" y2="11.504" transform="translate(0 12.388)" fill="none" stroke="#fff" stroke-linecap="round" stroke-width="4"/>
      </g>
    </g>
    <g id="Component_11_7" data-name="Component 11 – 7" transform="translate(360 13644)">
      <path id="Rectangle_1215" data-name="Rectangle 1215" d="M8,0H1192a8,8,0,0,1,8,8V128a0,0,0,0,1,0,0H0a0,0,0,0,1,0,0V8A8,8,0,0,1,8,0Z" fill="#53aa56"/>
      <g id="Group_1742" data-name="Group 1742">
        <circle id="Ellipse_494-2" data-name="Ellipse 494" cx="31.5" cy="31.5" r="31.5" transform="translate(40 33)" fill="#fff"/>
        <path id="Path_1485-2" data-name="Path 1485" d="M32.911,10.361,17.687,25.585l-6.874-6.874a2.087,2.087,0,1,0-2.952,2.952l8.35,8.35a2.087,2.087,0,0,0,2.952,0l16.7-16.7a2.087,2.087,0,0,0-2.952-2.952Z" transform="translate(49.188 44.191)" fill="#53aa56" stroke="#53aa56" stroke-width="0.063"/>
      </g>
      <g id="Group_1706" data-name="Group 1706" transform="translate(-388.233 -8)">
        <circle id="Ellipse_375-2" data-name="Ellipse 375" cx="29.5" cy="29.5" r="29.5" transform="translate(1494.233 43)" fill="none"/>
        <g id="Group_1077-2" data-name="Group 1077" transform="translate(1534.858 69.243) rotate(90)">
          <line id="Line_268-2" data-name="Line 268" x2="12.388" y2="11.504" fill="none" stroke="#fff" stroke-linecap="round" stroke-width="4"/>
          <line id="Line_269-2" data-name="Line 269" x1="12.388" y2="11.504" transform="translate(0 12.388)" fill="none" stroke="#fff" stroke-linecap="round" stroke-width="4"/>
        </g>
      </g>
      <text id="Notarized_document_is_signed_by_its_owner" data-name="Notarized document is signed by its owner" transform="translate(145 78)" fill="#fff" font-size="37" font-family="SegoeUI-Semibold, Segoe UI" font-weight="600"><tspan x="0" y="0">Notarized document is signed by its owner</tspan></text>
    </g>
  </g>
</svg>
