<svg xmlns="http://www.w3.org/2000/svg" width="94.794" height="63.853" viewBox="0 0 94.794 63.853">
  <g id="Group_1731" data-name="Group 1731" transform="translate(-204.349 -458.771)">
    <path id="Path_1507" data-name="Path 1507" d="M234.475,516.686a5.506,5.506,0,0,0,1.507-1.27,13.153,13.153,0,0,0,1.954-1.751,18.171,18.171,0,0,0,1.9-1.6c7.764-6.8,15.692-13.412,23.464-20.2q8.393-7.332,16.539-14.935,7.632-7.141,15.054-14.5,1.648-1.641,3.3-3.279c.109-.108.223-.212.4-.377a13.525,13.525,0,0,1-.69,3.478,39.925,39.925,0,0,1-5.325,10.45,80.5,80.5,0,0,1-8.875,10.735,159.927,159.927,0,0,1-22.341,18.793c-6.373,4.544-12.969,8.746-19.7,12.729-.1.057-.194.109-.291.163-.31.18-.634.342-.928.545-.329.227-.74.337-.99.678a12.309,12.309,0,0,0-1.716.893c-.54.307-1.1.591-1.616.927-.394.255-.882.371-1.177.775a1.466,1.466,0,0,0-.571.218c-.637.354-1.275.7-1.912,1.055l-3.673,2.023-.09-.123a24.584,24.584,0,0,0,1.848-1.79,11.359,11.359,0,0,0,1.64-1.458c.687-.611,1.377-1.22,2.061-1.834C234.343,516.935,234.476,516.854,234.475,516.686Z" fill="#2c3a63"/>
    <path id="Path_1508" data-name="Path 1508" d="M242.731,515.947a.939.939,0,0,0,.479-.2c8.829-5.109,17.429-10.589,26.01-16.1,9.885-6.348,19.719-12.773,29.558-19.192.1-.068.212-.133.359-.226a2.268,2.268,0,0,1-.175.95,19.432,19.432,0,0,1-3.728,6.309,56.179,56.179,0,0,1-10.871,9.783,127.935,127.935,0,0,1-16.239,9.743,244.729,244.729,0,0,1-22.443,10,.6.6,0,0,1-.093.022,4.3,4.3,0,0,0-1.152.536,6.55,6.55,0,0,0-1.9.713,5.015,5.015,0,0,0-1.848.74,2.144,2.144,0,0,0-.734.163c-.765.285-1.532.563-2.3.843-.879.317-1.753.652-2.64.947a23.561,23.561,0,0,1-2.941.965l-.016-.018c.621-.415,1.306-.715,1.957-1.077.263-.146.6-.214.741-.536a9.575,9.575,0,0,0,2.474-1.254,7.592,7.592,0,0,0,1.51-.79c.279-.16.636-.217.816-.532a6.9,6.9,0,0,0,1.659-.881A6.026,6.026,0,0,0,242.731,515.947Z" fill="#2c3a63"/>
    <path id="Path_1509" data-name="Path 1509" d="M246.458,517.618c1.4-.333,2.742-.825,4.1-1.279a351.993,351.993,0,0,0,39.41-16.072c1.31-.622,2.608-1.271,3.913-1.9.125-.061.24-.169.432-.122a5.215,5.215,0,0,1-.676,2.157,15.407,15.407,0,0,1-4.546,4.987,45.469,45.469,0,0,1-11.124,5.89,119.84,119.84,0,0,1-18.41,5.292c-4.962,1.067-9.964,1.906-14.982,2.657-1.261.189-2.536.285-3.78.584-.123-.122-.259-.045-.4-.034a5.64,5.64,0,0,1-1.533.114c.909-.315,1.87-.459,2.763-.828a4.112,4.112,0,0,0,1.759-.587,7,7,0,0,0,2.164-.566A2.1,2.1,0,0,0,246.458,517.618Z" fill="#2c3a63"/>
    <path id="Path_1510" data-name="Path 1510" d="M237.936,513.665a13.153,13.153,0,0,1-1.954,1.751c-2.258-.576-4.474-1.288-6.682-2.027a78.547,78.547,0,0,1-14.984-6.526,29.53,29.53,0,0,1-6.815-5.24,11.386,11.386,0,0,1-3-5.1,5.849,5.849,0,0,1-.152-1.281c0-.379.1-.4.4-.213,1.92,1.176,3.842,2.349,5.775,3.5,7.158,4.274,14.407,8.385,21.8,12.234,1.728.9,3.471,1.767,5.206,2.653C237.674,513.487,237.8,513.581,237.936,513.665Z" fill="#6a7896"/>
    <path id="Path_1511" data-name="Path 1511" d="M234.475,516.686c0,.168-.132.249-.235.342-.684.614-1.374,1.223-2.061,1.834a67.529,67.529,0,0,1-11.355-1.629,24.06,24.06,0,0,1-8.622-3.657,7.967,7.967,0,0,1-2.281-2.425,1.772,1.772,0,0,1-.286-.733,6.073,6.073,0,0,1,1.384.344c7.656,2.171,15.365,4.13,23.145,5.811A2.37,2.37,0,0,1,234.475,516.686Z" fill="#6a7896"/>
    <path id="Path_1512" data-name="Path 1512" d="M283.746,513.273a6.977,6.977,0,0,1-1.977,2.059,19.206,19.206,0,0,1-6.48,2.858,50.6,50.6,0,0,1-11.606,1.466,101.815,101.815,0,0,1-10.525-.328c-1.4-.106-2.795-.259-4.194-.417A217.686,217.686,0,0,0,283.746,513.273Z" fill="#2c3a63"/>
    <path id="Path_1513" data-name="Path 1513" d="M238.866,519.89a5.64,5.64,0,0,0,1.533-.114c.137-.011.273-.088.4.034a24.751,24.751,0,0,1-3.433,1.151,38.526,38.526,0,0,1-8.69,1.6,17.835,17.835,0,0,1-9.2-1.533,7.892,7.892,0,0,1-2.069-1.456.723.723,0,0,1-.28-.4c2.343.344,4.672.609,7.01.793,1.64.13,3.28.235,4.925.278.493.013.986.051,1.479.077a24.584,24.584,0,0,1-1.848,1.79l.09.123,3.673-2.023c.127.184.316.082.474.089.609.023,1.22-.063,1.83.015-.142.322-.478.39-.741.536-.651.362-1.336.662-1.957,1.077l-.117.038.035.046c.034-.019.065-.043.1-.066a23.561,23.561,0,0,0,2.941-.965c.887-.295,1.761-.63,2.64-.947C238.084,520.188,238.456,519.878,238.866,519.89Z" fill="#6a7896"/>
    <path id="Path_1514" data-name="Path 1514" d="M252.073,519.728a132.694,132.694,0,0,0,20.56.909,2.721,2.721,0,0,1-.848.649A11.5,11.5,0,0,1,266.5,522.6a33.541,33.541,0,0,1-11.415-1.855C254.073,520.433,253.077,520.069,252.073,519.728Z" fill="#2c3a63"/>
  </g>
</svg>
