<svg xmlns="http://www.w3.org/2000/svg" width="16" height="20.003" viewBox="0 0 16 20.003">
  <g id="Icons_play" data-name="Icons/play" transform="translate(-5 -1.999)">
    <g id="icon">
      <path id="Path_1504" data-name="Path 1504" d="M6.541,2.159l14,9a1,1,0,0,1,0,1.682l-14,9A1,1,0,0,1,5,21V3A1,1,0,0,1,6.541,2.159Z" fill="#62d1f8"/>
      <path id="Path_1505" data-name="Path 1505" d="M6.541,2.159l14,9a1,1,0,0,1,0,1.682l-14,9A1,1,0,0,1,5,21V3A1,1,0,0,1,6.541,2.159Z" fill="#62d1f8"/>
      <path id="Path_1506" data-name="Path 1506" d="M6.541,2.159l14,9a1,1,0,0,1,0,1.682l-14,9A1,1,0,0,1,5,21V3A1,1,0,0,1,6.541,2.159Z" fill="#62d1f8"/>
    </g>
  </g>
</svg>
