<svg xmlns="http://www.w3.org/2000/svg" width="20" height="22" viewBox="0 0 20 22">
  <g id="Icons_home" data-name="Icons/home" transform="translate(-2 -1)">
    <g id="icon">
      <path id="Path_1726" data-name="Path 1726" d="M16,21h3a1,1,0,0,0,1-1V9.489L12,3.267,4,9.489V20a1,1,0,0,0,1,1H8V12a1,1,0,0,1,1-1h6a1,1,0,0,1,1,1Zm-2,0V13H10v8ZM2,9a1,1,0,0,1,.386-.789l9-7a1,1,0,0,1,1.228,0l9,7A1,1,0,0,1,22,9V20a3,3,0,0,1-3,3H5a3,3,0,0,1-3-3Z" fill="#2362c7"/>
      <path id="Path_1727" data-name="Path 1727" d="M16,21h3a1,1,0,0,0,1-1V9.489L12,3.267,4,9.489V20a1,1,0,0,0,1,1H8V12a1,1,0,0,1,1-1h6a1,1,0,0,1,1,1Zm-2,0V13H10v8ZM2,9a1,1,0,0,1,.386-.789l9-7a1,1,0,0,1,1.228,0l9,7A1,1,0,0,1,22,9V20a3,3,0,0,1-3,3H5a3,3,0,0,1-3-3Z" fill="#2362c7"/>
      <path id="Path_1728" data-name="Path 1728" d="M16,21h3a1,1,0,0,0,1-1V9.489L12,3.267,4,9.489V20a1,1,0,0,0,1,1H8V12a1,1,0,0,1,1-1h6a1,1,0,0,1,1,1Zm-2,0V13H10v8ZM2,9a1,1,0,0,1,.386-.789l9-7a1,1,0,0,1,1.228,0l9,7A1,1,0,0,1,22,9V20a3,3,0,0,1-3,3H5a3,3,0,0,1-3-3Z" fill="#2362c7"/>
    </g>
  </g>
</svg>
