<svg height='100px' width='100px'  fill="#2262c6" xmlns="http://www.w3.org/2000/svg" xmlns:xlink="http://www.w3.org/1999/xlink" version="1.1" x="0px" y="0px" viewBox="0 0 1024 1024" style="enable-background:new 0 0 1024 1024;" xml:space="preserve"><g><g><path d="M508,83.8c11.9,2.4,23.9,4.7,35.8,7.1c28.5,5.7,57,11.3,85.5,17c34.6,6.9,69.3,13.7,103.9,20.6    c29.9,5.9,59.9,11.9,89.8,17.8c14.5,2.9,29,6.2,43.5,8.6c0.2,0,0.4,0.1,0.6,0.1c-7.3-9.6-14.7-19.3-22-28.9c0,20.6,0,41.2,0,61.9    c0,47.6,0,95.1,0,142.7c0,52.9,0,105.8,0,158.8c0,37.1,0,74.2,0,111.4c0,8.9,0.4,17.9-0.4,26.7c-0.2,1.6-0.3,3.2-0.6,4.8    c0.4-2.7,0.7-5.3,1.1-8c-2.4,17.8-7.9,35-14.8,51.5c1-2.4,2-4.8,3-7.2c-6.6,15.5-14.6,30.4-23.6,44.7    c-5.5,8.7-11.4,17.1-17.7,25.3c-0.4,0.5-0.7,0.9-1.1,1.4c-2.6,3.4,4.9-6.2,2.8-3.6c-0.8,1-1.6,2.1-2.5,3.1    c-1.9,2.4-3.8,4.7-5.7,7.1c-3.8,4.6-7.8,9.2-11.8,13.7c-18.7,20.8-39.2,39.9-60.9,57.7c-2.9,2.4-5.8,4.7-8.8,7.1    c-1.5,1.2-3,2.4-4.5,3.5c-1.7,1.4-5,3.8,2.5-1.9c-1,0.8-2.1,1.6-3.1,2.4c-6.8,5.2-13.7,10.2-20.7,15.1    c-14.9,10.6-30.2,20.6-45.8,30.1c-42.3,26-86.6,48.6-131.8,68.9c7.7-1,15.4-2,23.1-3c-8.6-3.1-17.1-6.6-25.6-10.1    c2.4,1,4.8,2,7.2,3c-41.8-17.6-82.3-38.5-120.9-62.4c-12.7-7.8-25.2-16-37.4-24.6c-6.2-4.3-12.3-8.8-18.4-13.3    c-1.5-1.1-2.9-2.2-4.4-3.3c-0.9-0.7-1.7-1.3-2.6-2c7.8,6,5.1,4,3.5,2.7c-3.3-2.6-6.7-5.2-9.9-7.9c-24.9-20.2-48.4-42.3-69.3-66.7    c-3-3.5-5.8-6.9-8.7-10.5c-1.8-2.2-7.1-9.2-0.2-0.2c-1.4-1.8-2.8-3.6-4.1-5.4c-5.4-7.3-10.6-14.8-15.5-22.4    c-9.8-15.3-18.3-31.4-25.4-48.2c1,2.4,2,4.8,3,7.2c-7.8-18.4-13.7-37.5-17.5-57.2c0.4,2.7,0.7,5.3,1.1,8c0-16.5,0-33.1,0-49.6    c0-39.7,0-79.4,0-119.1c0-48,0-96,0-144.1c0-41.5,0-83,0-124.6c0-20.2,0.6-40.4,0-60.5c0-0.3,0-0.6,0-0.9    c-7.3,9.6-14.7,19.3-22,28.9c12.1-2.4,24.2-4.8,36.4-7.3c29.3-5.8,58.6-11.7,87.9-17.5c35.3-7,70.6-14.1,105.9-21.1    c30.5-6.1,61.1-12.2,91.6-18.3c14.9-3,30-5.5,44.8-8.9c0.2,0,0.4-0.1,0.6-0.1c15.4-3.1,25.7-22.3,21-36.9    c-5.3-16.4-20.4-24.2-36.9-21c-12.1,2.4-24.2,4.8-36.4,7.3c-29.3,5.8-58.6,11.7-87.9,17.5c-35.3,7-70.6,14.1-105.9,21.1    c-30.5,6.1-61.1,12.2-91.6,18.3c-14.8,3-30.1,5.2-44.8,8.9c-0.2,0.1-0.4,0.1-0.6,0.1c-12.8,2.5-22,16.5-22,28.9    c0,13.8,0,27.6,0,41.4c0,34,0,68,0,102c0,43,0,85.9,0,128.9c0,41.3,0,82.7,0,124c0,28,0,56.1,0,84.1c0,5.7-0.1,11.5,0,17.2    c0.1,7.7,2.3,15.7,4.2,23.2c3,12.3,6.9,24.3,11.5,36.1c20.1,51.1,51.5,96.2,89.8,135.4c35.1,36.1,75.6,67.2,117.9,94.3    c33.1,21.3,67.8,40.2,103.5,56.9c19.9,9.3,40.1,18.6,60.8,25.8c12.9,4.5,25.3-2.8,36.9-8.1c18.3-8.4,36.4-17.2,54.3-26.5    c31.4-16.3,62.1-34.1,91.7-53.7c45.9-30.5,89.9-65.4,126.9-106.5c24.8-27.6,47.4-58.2,63.5-91.7c10-20.7,18.5-42.7,22.4-65.4    c1.5-9,2.9-18.1,2.8-27.2c0-16.6,0-33.2,0-49.8c0-35.7,0-71.3,0-107c0-43.3,0-86.6,0-129.8c0-39.9,0-79.9,0-119.8    c0-25.1,0-50.2,0-75.4c0-3.5,0-6.9,0-10.4c0-12.4-9.2-26.4-22-28.9c-11.9-2.4-23.9-4.7-35.8-7.1c-28.5-5.7-57-11.3-85.5-17    c-34.6-6.9-69.3-13.7-103.9-20.6C628,46.6,598,40.7,568.1,34.7c-14.5-2.9-29-5.9-43.5-8.6c-0.2,0-0.4-0.1-0.6-0.1    c-8-1.6-15.9-1.2-23.1,3c-6.2,3.6-12.2,10.8-13.8,17.9C483.6,61.8,491.5,80.6,508,83.8z"></path><path d="M304.9,484.1c14,14,28.1,28.1,42.1,42.1c22.5,22.5,45.1,45.1,67.6,67.6c5.2,5.2,10.3,10.3,15.5,15.5    c11.5,11.5,30.9,11.5,42.4,0c8.1-8.1,16.3-16.3,24.4-24.4c19.7-19.7,39.3-39.3,59-59c23.7-23.7,47.4-47.4,71-71    c20.6-20.6,41.2-41.2,61.8-61.8c10-10,20.2-19.8,30-30c0.1-0.2,0.3-0.3,0.4-0.4c11.1-11.1,11.9-31.5,0-42.4    c-12-11-30.6-11.9-42.4,0c-8.1,8.1-16.3,16.3-24.4,24.4c-19.7,19.7-39.3,39.3-59,59c-23.7,23.7-47.4,47.4-71,71    c-20.6,20.6-41.2,41.2-61.8,61.8c-10,10-20.3,19.7-30,30c-0.1,0.2-0.3,0.3-0.4,0.4c14.1,0,28.3,0,42.4,0    c-14-14-28.1-28.1-42.1-42.1c-22.5-22.5-45.1-45.1-67.6-67.6c-5.2-5.2-10.3-10.3-15.5-15.5c-11.1-11.1-31.5-11.9-42.4,0    C293.9,453.6,293,472.2,304.9,484.1L304.9,484.1z"></path></g></g></svg>