<svg height='100px' width='100px'  fill="#FFFFFF" xmlns="http://www.w3.org/2000/svg" xmlns:xlink="http://www.w3.org/1999/xlink" version="1.1" x="0px" y="0px" viewBox="0 0 64 64" enable-background="new 0 0 64 64" xml:space="preserve"><g><path d="M61.5,19.1l1.7-6.2c0.1-0.3,0-0.6-0.2-0.8c-0.3-0.3-0.8-0.3-1.1,0l-8.3,8.3l-7-3l-3-7l8.3-8.3c0.3-0.3,0.3-0.8,0-1.1   c-0.2-0.2-0.5-0.3-0.8-0.2l-6.2,1.7c-4.7,1.3-8.4,4.9-9.6,9.6l0,0c-0.8,3.1-0.5,6.4,0.8,9.2L9.6,47.7c-2.3-0.3-4.8,0.4-6.6,2.2   c-3,3-3,7.9,0,11c3,3,7.9,3,11,0c1.8-1.8,2.5-4.2,2.2-6.6l26.4-26.4c2.9,1.3,6.1,1.6,9.2,0.8C56.6,27.4,60.3,23.8,61.5,19.1z    M5.9,58c-1.4-1.4-1.4-3.8,0-5.2c1.4-1.4,3.8-1.4,5.2,0s1.4,3.8,0,5.2C9.7,59.5,7.4,59.5,5.9,58z"></path><path d="M14.8,10.8l-7.5,7.5L2,6.2C1.9,5.8,2.3,5.4,2.8,5.5L14.8,10.8z"></path><path d="M50,60.9l7.5-7.5c1.3,1.3,2.1,2.7,2.3,4.1c0.2,1.4-0.2,2.9-1.5,4.1C55.8,64.3,52.5,63.4,50,60.9z"></path><rect x="13.7" y="14.5" transform="matrix(0.7071 -0.7071 0.7071 0.7071 -10.3044 19.9769)" width="10.6" height="15.9"></rect><rect x="38.4" y="36.1" transform="matrix(0.7072 -0.707 0.707 0.7072 -20.5409 44.6826)" width="10.6" height="22.1"></rect></g></svg>