<svg height='100px' width='100px'  fill="#FFFFFF" xmlns="http://www.w3.org/2000/svg" xmlns:xlink="http://www.w3.org/1999/xlink" version="1.1" x="0px" y="0px" viewBox="0 0 100 100" enable-background="new 0 0 100 100" xml:space="preserve"><g><path fill-rule="evenodd" clip-rule="evenodd" d="M85.219,45.192c-0.779-4.299-2.436-8.303-5.064-11.864   c-0.484-0.656-0.894-0.857-1.747-0.723c-2.139,0.334-4.305,0.574-6.468,0.649c-1.144,0.04-2.402-0.117-3.438-0.572   c-6.152-2.702-12.337-5.352-18.34-8.36c-3.415-1.711-6.316-1.932-9.641,0.21c-3.636,2.342-7.589,4.189-11.386,6.284   c-3.336,1.841-3.89,6.159-1.134,8.598c1.736,1.537,4.296,1.559,6.717,0.149c3.298-1.921,6.62-3.803,9.954-5.663   c0.412-0.23,1.068-0.451,1.424-0.282c2.925,1.394,5.908,2.712,8.671,4.387c2.718,1.647,5.186,3.703,7.79,5.543l13.484,9.735   c0.873,0.613,1.866,1.109,2.595,1.862c1.835,1.896,3.79,2.11,6.223,1.197c1.05-0.394,1.369-0.789,1.284-1.739   C85.86,51.462,85.779,48.283,85.219,45.192z"></path><path fill-rule="evenodd" clip-rule="evenodd" d="M44.184,63.159c-1.164,0.06-2.3,0.648-3.306,0.954   c0.078-0.893,0.502-2.139,0.189-3.158c-0.325-1.057-1.195-2.185-2.144-2.735c-0.754-0.438-2.098-0.319-2.974,0.046   c-0.898,0.375-1.544,1.352-2.284,2.05c-0.42-1.628-1.402-2.908-3.27-3.124c-1.764-0.204-3.082,0.639-3.971,2.27   c-0.151-0.245-0.249-0.392-0.336-0.545c-1.2-2.112-2.822-2.81-4.782-2.056c-1.967,0.757-2.764,2.414-2.251,4.71   c0.318,1.422,0.623,2.849,0.989,4.259c0.496,1.907,2.116,3.097,4,2.792c0.871-0.141,1.22,0.139,1.678,0.798   c1.252,1.802,3.464,2.098,5.218,0.807c0.286-0.211,0.572-0.42,1.048-0.769c-0.395,2.022,0.251,3.408,1.815,4.28   c1.84,1.026,3.413,0.301,4.834-1.001c0.198,0.616,0.328,1.17,0.549,1.684c0.579,1.346,2.119,2.33,3.461,2.257   c1.452-0.078,3.039-1.193,3.399-2.589c0.588-2.274,1.127-4.566,1.548-6.876C47.985,65.087,46.316,63.05,44.184,63.159z"></path><path fill-rule="evenodd" clip-rule="evenodd" d="M16.637,25.504c-1.491-0.674-2.86-0.012-3.353,1.554   c-2.729,8.666-5.449,17.335-8.162,26.007c-0.446,1.426,0.361,2.781,1.828,3.114c0.87,0.197,1.747,0.366,2.622,0.536   c1.222,0.238,2.445,0.467,3.784,0.722c-0.064-10.671,3.259-20.281,7.645-29.71C19.475,26.942,18.085,26.158,16.637,25.504z"></path><path fill-rule="evenodd" clip-rule="evenodd" d="M94.888,53.035c-0.422-3.026-0.721-5.977-1.071-9.014   c-0.535-4.634-1.027-9.226-1.62-13.853c-0.217-1.692-1.419-2.408-3.059-2.003c-2.601,0.641-5.188,1.166-7.92,1.876   C87.354,38.15,89.128,47,88.773,57c0.965,0,1.759,0,2.553,0C94.531,57,95.329,56.194,94.888,53.035z"></path><path fill-rule="evenodd" clip-rule="evenodd" d="M79.142,58.875L59.401,44.705c-3.91-3.07-7.836-6.189-12.602-7.892   c-0.652-0.233-1.602-0.211-2.206,0.098c-3.145,1.609-6.229,3.336-9.321,5.047c-3.258,1.804-7.243,1.02-9.719-1.943   c-2.107-2.521-2.072-6.605,0.074-9.327c0.235-0.298,0.444-0.616,0.758-1.055c-0.57-0.032-0.906-0.013-1.226-0.075   c-1.691-0.328-2.699,0.254-3.271,1.969c-1.387,4.158-2.93,8.264-4.371,12.404c-0.126,0.362-1.013,3.658-1.119,4.936l-0.421,4.128   c0,1.33-0.031,2.445,0.024,3.556c0.012,0.244,0.294,0.541,0.53,0.677c0.11,0.064,0.461-0.151,0.611-0.321   c0.509-0.575,1.055-1.303,1.599-1.757c1.917-1.598,4.4-1.425,6.178-0.639c1.385,0.959,1.278,0.959,3.076,0.356   c1.866-0.626,3.627-0.389,5.275,0.615c0.648,0.395,1.155,0.551,1.906,0.18c3.447-1.702,7.414,0.899,8.327,3.66   c0.132,0.4,0.707,0.846,1.139,0.923c4.27,0.761,6.504,4.678,5.531,8.058c-0.325,1.128-0.573,2.279-0.839,3.424   c-0.158,0.679-0.116,1.189,0.634,1.644c1.438,0.874,2.769,1.925,4.136,2.915c1.99,1.443,4.181,0.68,4.786-1.676   c0.258-1.005,0.112-1.748-0.902-2.384c-1.587-0.996-2.922-2.163-4.533-3.344c-0.838-0.614-0.306-1.802,0.861-1.311   c0.18,0.076,0.382,0.244,0.571,0.38c2.473,1.782,4.939,3.573,7.419,5.344c1.351,0.964,2.828,0.642,3.914-0.817   c1.038-1.394,0.86-2.679-0.509-3.684c-2.802-2.055-5.604-4.109-8.404-6.167c-0.584-0.429-1.549-0.857-0.92-1.705   c0.657-0.886,1.346-0.004,1.918,0.404c3.51,2.505,7.019,5.011,10.493,7.566c0.86,0.632,1.586,1.321,2.772,0.758   c1.357-0.645,2.203-1.673,2.28-3.144c0.028-0.537-0.33-1.296-0.762-1.621c-2.994-2.256-6.046-4.435-9.099-6.611   c-0.63-0.449-1.252-0.942-0.628-1.659c0.188-0.217,1.192,0.005,1.622,0.309c3.83,2.705,7.633,5.449,11.397,8.244   c0.76,0.564,1.38,0.597,2.201,0.244C81.313,64.237,81.659,60.738,79.142,58.875z"></path></g></svg>