<svg height='100px' width='100px'  fill="#888888" xmlns="http://www.w3.org/2000/svg" xmlns:xlink="http://www.w3.org/1999/xlink" version="1.1" x="0px" y="0px" viewBox="0 0 100 100" enable-background="new 0 0 100 100" xml:space="preserve"><g><path fill="#888888" d="M84.778,67.031V32.969c5.897-1.771,10.22-7.175,10.222-13.651C94.997,11.409,88.591,5.003,80.682,5   c-6.485,0.002-11.895,4.336-13.658,10.245H32.976C31.212,9.336,25.802,5.002,19.318,5C11.408,5.002,5.002,11.409,5,19.318   c0.001,6.479,4.329,11.886,10.232,13.654v34.056C9.329,68.796,5.001,74.203,5,80.682C5.002,88.591,11.408,94.998,19.318,95   c6.471-0.002,11.871-4.319,13.646-10.209h34.07C68.81,90.681,74.211,94.998,80.682,95C88.591,94.997,94.997,88.591,95,80.682   C94.998,74.206,90.675,68.802,84.778,67.031z M67.024,76.609H32.976c-1.374-4.603-4.963-8.197-9.562-9.578V32.969   c4.587-1.377,8.169-4.957,9.551-9.542h34.07c1.382,4.589,4.969,8.169,9.561,9.545v34.056   C71.992,68.407,68.398,72.003,67.024,76.609z M80.682,13.182c3.387,0.006,6.13,2.749,6.136,6.137   c-0.007,3.378-2.737,6.11-6.111,6.131l-0.021-0.004l-0.025,0.005c-3.378-0.018-6.11-2.752-6.116-6.132   C74.552,15.93,77.294,13.188,80.682,13.182z M13.181,19.318c0.007-3.388,2.749-6.13,6.137-6.137c3.37,0.006,6.093,2.726,6.127,6.09   l-0.013,0.065l0.009,0.047c-0.043,3.347-2.746,6.045-6.098,6.066l-0.021-0.004l-0.025,0.005   C15.919,25.432,13.188,22.698,13.181,19.318z M19.318,86.818c-3.388-0.006-6.13-2.749-6.137-6.136   c0.007-3.388,2.749-6.13,6.137-6.137c3.37,0.006,6.093,2.726,6.127,6.09L25.432,80.7l0.009,0.047   C25.398,84.103,22.682,86.812,19.318,86.818z M80.682,86.818c-3.388-0.006-6.13-2.749-6.137-6.136   c0.007-3.388,2.749-6.13,6.137-6.137c3.387,0.006,6.13,2.749,6.136,6.137C86.812,84.069,84.069,86.812,80.682,86.818z"></path><path fill="#888888" d="M63.637,32.273H36.364c-2.26,0-4.091,1.831-4.091,4.091c0,2.259,1.831,4.091,4.091,4.091h27.273   c2.259,0,4.091-1.832,4.091-4.091C67.728,34.104,65.896,32.273,63.637,32.273z"></path><path fill="#888888" d="M63.637,45.909H36.364c-2.26,0-4.091,1.831-4.091,4.091c0,2.259,1.831,4.091,4.091,4.091h27.273   c2.259,0,4.091-1.832,4.091-4.091C67.728,47.741,65.896,45.909,63.637,45.909z"></path><path fill="#888888" d="M63.637,59.546H36.364c-2.26,0-4.091,1.831-4.091,4.091c0,2.259,1.831,4.091,4.091,4.091h27.273   c2.259,0,4.091-1.832,4.091-4.091C67.728,61.377,65.896,59.546,63.637,59.546z"></path></g></svg>