<svg height='100px' width='100px'  fill="#2975eb" xmlns="http://www.w3.org/2000/svg" xmlns:xlink="http://www.w3.org/1999/xlink" version="1.1" viewBox="0 0 60 60" x="0px" y="0px"><defs><path id="e" d="M3,2h-2l-4.37114e-08,-8.88178e-16c-0.552285,-2.41411e-08 -1,-0.447715 -1,-1c2.41411e-08,-0.552285 0.447715,-1 1,-1h2l-4.37114e-08,8.88178e-16c0.552285,-2.41411e-08 1,0.447715 1,1c2.41411e-08,0.552285 -0.447715,1 -1,1Z"></path><path id="d" d="M19,18h-16l5.93973e-08,6.4837e-11c-1.6561,-0.00180768 -2.99819,-1.3439 -3,-3v-12l1.06861e-09,-9.78845e-07c0.00180825,-1.6561 1.3439,-2.99819 3,-3h16l3.60664e-08,3.93676e-11c1.6561,0.00180773 2.99819,1.3439 3,3v12l-9.39188e-10,8.60306e-07c-0.00180819,1.6561 -1.3439,2.99819 -3,3Zm-16,-16l-4.68366e-08,6.07692e-11c-0.551988,0.000716214 -0.999284,0.448012 -1,1v12l-7.21817e-09,-5.57522e-06c0.000713115,0.551988 0.448007,0.999286 0.999994,1.00001h16l-4.06997e-08,5.28075e-11c0.551988,-0.000716166 0.999284,-0.448012 1,-1v-12l7.25959e-09,5.60728e-06c-0.000713097,-0.551988 -0.448007,-0.999286 -0.999994,-1.00001Z"></path><path id="a" d="M5,10l-2.18557e-07,-7.10543e-15c-2.76142,-1.20706e-07 -5,-2.23858 -5,-5c1.20706e-07,-2.76142 2.23858,-5 5,-5c2.76142,1.20706e-07 5,2.23858 5,5l1.79197e-07,-0.000154408c-0.00316063,2.76008 -2.23977,4.99682 -4.99985,5.00015Zm0,-8h-1.31134e-07c-1.65685,7.24234e-08 -3,1.34315 -3,3c7.24234e-08,1.65685 1.34315,3 3,3c1.65685,-7.24234e-08 3,-1.34315 3,-3l-7.96042e-10,-7.29171e-07c-0.00180819,-1.6561 -1.3439,-2.99819 -3,-3Z"></path><path id="c" d="M19,18h-16l5.93973e-08,6.48299e-11c-1.6561,-0.00180768 -2.99819,-1.3439 -3,-3v-12l1.06861e-09,-9.78845e-07c0.00180825,-1.6561 1.3439,-2.99819 3,-3h16l3.60664e-08,3.93712e-11c1.6561,0.00180773 2.99819,1.3439 3,3v12l-9.39188e-10,8.60306e-07c-0.00180819,1.6561 -1.3439,2.99819 -3,3Zm-16,-16l-4.68366e-08,6.07727e-11c-0.551988,0.000716214 -0.999284,0.448012 -1,1v12l-7.21817e-09,-5.57522e-06c0.000713115,0.551988 0.448007,0.999286 0.999994,1.00001h16l-4.06997e-08,5.28075e-11c0.551988,-0.000716166 0.999284,-0.448012 1,-1v-12l7.25959e-09,5.60728e-06c-0.000713097,-0.551988 -0.448007,-0.999286 -0.999994,-1.00001Z"></path><path id="b" d="M5,10l-2.18557e-07,-7.10543e-15c-2.76142,-1.20706e-07 -5,-2.23858 -5,-5c1.20706e-07,-2.76142 2.23858,-5 5,-5c2.76142,1.20706e-07 5,2.23858 5,5l1.79197e-07,-0.000154408c-0.00316063,2.76008 -2.23977,4.99682 -4.99985,5.00015Zm0,-8l-1.31134e-07,3.55271e-15c-1.65685,7.24234e-08 -3,1.34315 -3,3c7.24234e-08,1.65685 1.34315,3 3,3c1.65685,-7.24234e-08 3,-1.34315 3,-3l-7.96042e-10,-7.29171e-07c-0.00180819,-1.6561 -1.3439,-2.99819 -3,-3Z"></path></defs><g fill="#2975eb"><path d="M59,12h-58l-4.37114e-08,-3.55271e-15c-0.552285,-2.41411e-08 -1,-0.447715 -1,-1c0,0 0,0 0,0v-8l1.06861e-09,-9.78845e-07c0.00180825,-1.6561 1.3439,-2.99819 3,-3h54l3.60664e-08,3.93676e-11c1.6561,0.00180773 2.99819,1.3439 3,3v8v-3.49981e-08c0,0.552285 -0.447715,1 -1,1Zm-57,-2h56v-7l7.25959e-09,5.60728e-06c-0.000713097,-0.551988 -0.448007,-0.999286 -0.999994,-1.00001h-54l-4.68461e-08,6.07825e-11c-0.551988,0.000716214 -0.999284,0.448012 -1,1Z" transform="translate(-2.41411e-08, -1.06829e-09)"></path><use transform="translate(9, 5)" xlink:href="#e"></use><use transform="translate(15, 5)" xlink:href="#e"></use><path d="M1,4h-4.37114e-08c-0.552285,-2.41411e-08 -1,-0.447715 -1,-1c0,0 0,0 0,0v-2l1.06581e-14,1.50996e-07c-8.33927e-08,-0.552285 0.447715,-1 1,-1c0.552285,-8.33927e-08 1,0.447715 1,1c0,0 0,8.88178e-16 0,8.88178e-16v2h-3.55271e-15c0,0.552285 -0.447715,1 -1,1Z" transform="translate(16, 4)"></path><path d="M1.02657,2.08017l-3.24307e-08,-4.79595e-10c-0.26472,-0.00391476 -0.518238,-0.107464 -0.71,-0.29l1.04063e-07,1.14474e-07c-0.0884122,-0.0972568 -0.159583,-0.208885 -0.21045,-0.33008l-3.60556e-08,-8.23278e-08c-0.106119,-0.242307 -0.106119,-0.517943 7.21112e-08,-0.76025l-4.10727e-08,1.10224e-07c0.0460353,-0.123542 0.117765,-0.235907 0.21045,-0.32967l5.61151e-08,-5.18054e-08c0.400962,-0.370168 1.01904,-0.370168 1.42,-6.77961e-08l-6.60439e-09,-6.98756e-09c0.0902934,0.095532 0.161563,0.207389 0.21,0.32959l1.83228e-09,4.1559e-09c0.10677,0.242171 0.10677,0.518079 -3.66456e-09,0.76025l-2.55347e-08,6.07844e-08c-0.0508768,0.12111 -0.121879,0.232739 -0.21,0.33016l-3.87812e-08,3.68895e-08c-0.191813,0.182457 -0.445299,0.285993 -0.71,0.29Z" transform="translate(4.97343, 4.91983)"></path><path d="M57,50h-54l5.93973e-08,6.48299e-11c-1.6561,-0.00180768 -2.99819,-1.3439 -3,-3v-46l7.10543e-15,1.50996e-07c-8.33927e-08,-0.552285 0.447715,-1 1,-1h58h-4.37114e-08c0.552285,-2.41411e-08 1,0.447715 1,1v46l-9.39188e-10,8.60306e-07c-0.00180819,1.6561 -1.3439,2.99819 -3,3Zm-55,-48v45l-7.21817e-09,-5.57522e-06c0.000713115,0.551988 0.448007,0.999286 0.999994,1.00001h54l-4.06997e-08,5.28075e-11c0.551988,-0.000716166 0.999284,-0.448012 1,-1v-45Z" transform="translate(-8.33278e-08, 10)"></path><use transform="translate(5, 15)" xlink:href="#d"></use><use transform="translate(5, 37)" xlink:href="#c"></use><use transform="translate(33, 15)" xlink:href="#d"></use><use transform="translate(33, 37)" xlink:href="#c"></use><use transform="translate(11, 19)" xlink:href="#b"></use><use transform="translate(39, 19)" xlink:href="#b"></use><use transform="translate(11, 41)" xlink:href="#a"></use><use transform="translate(39, 41)" xlink:href="#a"></use><path d="M1,16h-4.37114e-08c-0.552285,-2.41411e-08 -1,-0.447715 -1,-1c0,0 0,0 0,0v-14l8.88178e-15,-1.08849e-07c8.33927e-08,-0.552285 0.447715,-1 1,-1c0.552285,8.33927e-08 1,0.447715 1,1v14h3.55271e-15c0,0.552285 -0.447715,1 -1,1Z" transform="translate(15, 27)"></path><path d="M1,16h-4.37114e-08c-0.552285,-2.41411e-08 -1,-0.447715 -1,-1c0,0 0,0 0,0v-14l1.42109e-14,1.50996e-07c-8.33927e-08,-0.552285 0.447715,-1 1,-1c0.552285,-8.33927e-08 1,0.447715 1,1c0,0 0,0 0,0v14v0c0,0.552285 -0.447715,1 -1,1Z" transform="translate(43, 27)"></path><path d="M1.00078,20.1188l-3.62383e-09,2.20268e-12c-0.552285,0.000334759 -1.00027,-0.447109 -1.00061,-0.999394c-0.000177082,-0.292149 0.127413,-0.569766 0.349236,-0.759886l21,-18l5.88626e-08,-5.04593e-08c0.419336,-0.359471 1.05068,-0.310941 1.41015,0.108395c0.359471,0.419336 0.310941,1.05068 -0.108395,1.41015l-21,18l2.66889e-08,-2.29481e-08c-0.180947,0.155585 -0.411751,0.241013 -0.65039,0.24073Z" transform="translate(18.9997, 25.8812)"></path></g></svg>