<svg height='100px' width='100px'  fill="#2262c6" xmlns="http://www.w3.org/2000/svg" viewBox="0 0 64 64" x="0px" y="0px"><title>upload, arrow, up, import</title><g><path d="M54.71,30.1553A22.5983,22.5983,0,0,1,40.5078,51.21a1.9792,1.9792,0,0,1-.7471.1464,2,2,0,0,1-.749-3.8554,18.71,18.71,0,1,0-14.0234,0,2,2,0,0,1-1.4961,3.709A22.7094,22.7094,0,1,1,54.71,30.1553Zm-16.2149-.1895A2,2,0,1,0,41.124,26.95l-7.8095-6.8086c-.0167-.0145-.0359-.0237-.053-.0375-.0331-.0271-.0662-.0532-.1007-.0779-.0362-.026-.0738-.0491-.1117-.0726-.04-.0248-.08-.0491-.1209-.0708-.0339-.0177-.0675-.0347-.1021-.05-.0409-.0187-.0828-.034-.1251-.05-.0446-.0167-.0887-.0332-.1341-.0465-.0358-.0106-.0713-.02-.1075-.0285-.044-.01-.0884-.0177-.1335-.0252s-.089-.0147-.1341-.019c-.042-.0041-.0835-.0058-.1257-.0072-.0225-.0008-.0435-.0067-.0661-.0067s-.0454.0062-.0687.007c-.04.0013-.0787.0028-.1181.0065-.0472.0043-.0935.0118-.14.02s-.0909.0156-.1356.0262c-.0334.008-.0663.0166-.0993.0262-.0472.0138-.0931.03-.1393.0479-.0434.0163-.0863.0324-.1282.0517-.0322.0146-.0635.03-.0949.0468-.0424.0221-.0833.0468-.1245.0722-.0389.0242-.0772.0482-.1143.0749-.0329.0235-.0645.0485-.0961.0742-.0177.0144-.0377.024-.0551.0391L22.876,26.95a2,2,0,0,0,2.6289,3.0156L30,26.0469V54.5547a2,2,0,0,0,4,0V26.0469Z"></path></g></svg>