<svg height='100px' width='100px'  fill="#888888" xmlns="http://www.w3.org/2000/svg" xmlns:xlink="http://www.w3.org/1999/xlink" version="1.1" x="0px" y="0px" viewBox="0 0 30 30" style="enable-background:new 0 0 30 30;" xml:space="preserve"><g><g><path d="M15,26.8c-0.7,0-1.3-0.2-2-0.5l-7.9-4.2C3.8,21.4,3,20,3,18.4v-6.8C3,10.1,3.8,8.7,5.2,8l7.8-4.2c1.2-0.7,2.7-0.7,3.9,0    L24.8,8c0,0,0,0,0,0c1.4,0.7,2.2,2.1,2.2,3.7v7c0,1.6-0.9,3-2.3,3.7l-7.8,4C16.3,26.6,15.7,26.8,15,26.8z M14.9,5.2    c-0.4,0-0.7,0.1-1,0.3L6.1,9.7C5.4,10.1,5,10.8,5,11.6v6.8c0,0.8,0.4,1.5,1.1,1.9l7.9,4.2c0.6,0.3,1.4,0.3,2,0l7.8-4    c0.7-0.4,1.2-1.1,1.2-1.9v-7c0-0.8-0.4-1.5-1.1-1.9l-7.9-4.2C15.6,5.3,15.3,5.2,14.9,5.2z"></path></g><g><path d="M15,26.6c-0.5,0-1-0.4-1-1L13.9,17c0-1.6,0.9-3.1,2.4-3.8l8.6-4.1c0.5-0.2,1.1,0,1.3,0.5c0.2,0.5,0,1.1-0.5,1.3L17.2,15    c-0.7,0.4-1.2,1.1-1.2,2l0.1,8.7C16,26.2,15.6,26.6,15,26.6C15,26.6,15,26.6,15,26.6z"></path></g><g><path d="M15.4,16.3c-0.1,0-0.3,0-0.4-0.1L4.2,10.9c-0.5-0.2-0.7-0.8-0.5-1.3C4,9.1,4.6,8.9,5.1,9.1l10.8,5.3    c0.5,0.2,0.7,0.8,0.5,1.3C16.1,16.1,15.8,16.3,15.4,16.3z"></path></g></g></svg>