<svg height='100px' width='100px'  fill="#2975eb" xmlns="http://www.w3.org/2000/svg" viewBox="0 0 64 64" x="0px" y="0px"><title>Components-element-design-box-wireframe-ui</title><g><path d="M59.47,2H4.53a1,1,0,0,0-1,1V61a1,1,0,0,0,1,1H59.47a1,1,0,0,0,1-1V3A1,1,0,0,0,59.47,2Zm-1,58H5.53V4H58.47Z"></path><path d="M8.6,21.94H55.4a1,1,0,0,0,1-1V7.22a1,1,0,0,0-1-1H8.6a1,1,0,0,0-1,1V20.94A1,1,0,0,0,8.6,21.94Zm1-13.72H54.4V19.94H9.6Z"></path><path d="M8.6,39.88H55.4a1,1,0,0,0,1-1V25.16a1,1,0,0,0-1-1H8.6a1,1,0,0,0-1,1V38.88A1,1,0,0,0,8.6,39.88Zm1-13.72H54.4V37.88H9.6Z"></path><path d="M8.6,57.82H30a1,1,0,0,0,1-1V43.1a1,1,0,0,0-1-1H8.6a1,1,0,0,0-1,1V56.82A1,1,0,0,0,8.6,57.82Zm1-13.72H29V55.82H9.6Z"></path><path d="M55.4,42.1H34a1,1,0,0,0-1,1V56.82a1,1,0,0,0,1,1H55.4a1,1,0,0,0,1-1V43.1A1,1,0,0,0,55.4,42.1Zm-1,13.72H35V44.1H54.4Z"></path></g></svg>