<svg height='100px' width='100px'  fill="#ffffff" xmlns="http://www.w3.org/2000/svg" xmlns:xlink="http://www.w3.org/1999/xlink" viewBox="0 0 48 48" version="1.1" x="0px" y="0px"><title>Brain 03</title><desc>Created with Sketch.</desc><g stroke="none" stroke-width="1" fill="none" fill-rule="evenodd"><path d="M24,41.6630791 C23.0046326,43.0765516 21.3601578,44 19.5,44 C16.4624339,44 14,41.5375661 14,38.5 C14,38.0156984 14.0625957,37.5460169 14.1801381,37.0986045 C11.765592,37.3234704 9.216905,36.0718429 7.8839746,33.7631397 C6.48868265,31.3464232 6.79810275,28.4193211 8.42192035,26.4651286 C6.67900389,25.5145901 5.5,23.4035248 5.5,21 C5.5,18.7949918 6.49228959,16.8361275 8.00194446,15.793659 C8.07479899,11.931574 10.1873897,8.67713794 13.0680742,8.09321909 C13.5051872,5.20977697 15.9945331,3 19,3 C21.0869708,3 22.9250785,4.06550934 24,5.68220488 C25.0749215,4.06550934 26.9130292,3 29,3 C32.0054669,3 34.4948128,5.20977697 34.9319258,8.09321909 C37.8126103,8.67713794 39.925201,11.931574 39.9980555,15.793659 C41.5077104,16.8361275 42.5,18.7949918 42.5,21 C42.5,23.3562512 41.3669184,25.4314341 39.680262,26.4077014 C41.293461,28.3518122 41.5359629,31.3037358 40.1160254,33.7631397 C38.783095,36.0718429 36.234408,37.3234704 33.8198619,37.0986045 C33.9374043,37.5460169 34,38.0156984 34,38.5 C34,41.5375661 31.5375661,44 28.5,44 C26.6398422,44 24.9953674,43.0765516 24,41.6630791 Z M25,9 L25,15.527787 C26.061513,14.5777071 27.4632911,14 29,14 C29.5522847,14 30,14.4477153 30,15 C30,15.5522847 29.5522847,16 29,16 C26.790861,16 25,17.790861 25,20 L25,38.5000074 C25,40.4329966 26.5670034,42 28.5,42 C30.4329966,42 32,40.4329966 32,38.5 C32,36.5670034 30.4329966,35 28.5,35 C27.9477153,35 27.5,34.5522847 27.5,34 C27.5,33.4477153 27.9477153,33 28.5,33 C29.9914854,33 31.3443098,33.5936782 32.3350537,34.557615 C32.3912674,34.5776737 32.4464686,34.6030682 32.5,34.6339746 C34.4164928,35.7404622 37.1444956,34.9099804 38.3839746,32.7631397 C39.5881278,30.6774853 39.1053345,28.1629032 37.3841148,27 L37.169873,27 C35.7891611,27 34.669873,28.1192881 34.669873,29.5 C34.669873,30.0522847 34.2221577,30.5 33.669873,30.5 C33.1175882,30.5 32.669873,30.0522847 32.669873,29.5 C32.669873,29.1541483 32.708889,28.8174093 32.7827597,28.4939444 C31.3126262,28.4112977 29.9181982,27.6084235 29.1338807,26.2499458 C28.8577383,25.7716532 29.0216135,25.1600628 29.4999061,24.8839204 C29.9781987,24.607778 30.5897891,24.7716532 30.8659315,25.2499458 C31.4992789,26.3469356 32.8498444,26.7919301 34.0018322,26.3041402 C34.8150467,25.4979605 35.9343074,25 37.169873,25 L37.5,25 C39.1016392,25 40.5,23.252049 40.5,21 C40.5,18.747951 39.1016392,17 37.5,17 L37,17 C34.790861,17 33,18.790861 33,21 C33,21.5522847 32.5522847,22 32,22 C31.4477153,22 31,21.5522847 31,21 C31,17.6862915 33.6862915,15 37,15 L37.9438971,15 C37.6305011,12.240164 36.045347,10.1749092 34.2330505,10.0105613 C32.4348446,10.921206 30.3753239,10.7218769 29.5358984,9.26794919 C29.259756,8.78965657 29.4236312,8.17806616 29.9019238,7.90192379 C30.3802164,7.62578141 30.9918068,7.78965657 31.2679492,8.26794919 C31.4506423,8.58438286 32.1504874,8.68488884 32.953864,8.39053175 C32.6603601,6.47065742 31.0019253,5 29,5 C26.790861,5 25,6.790861 25,9 Z M23,38.4999998 L23,30.9170416 C20.1622867,30.4409635 18,27.9729963 18,25 C18,24.4477153 18.4477153,24 19,24 C19.5522847,24 20,24.4477153 20,25 C20,26.8638394 21.2747728,28.4299397 23,28.8739825 L23,9 C23,6.790861 21.209139,5 19,5 C16.9980747,5 15.3396399,6.47065742 15.046136,8.39053175 C15.8495126,8.68488884 16.5493577,8.58438286 16.7320508,8.26794919 C17.0081932,7.78965657 17.6197836,7.62578141 18.0980762,7.90192379 C18.5763688,8.17806616 18.740244,8.78965657 18.4641016,9.26794919 C17.6246761,10.7218769 15.5651554,10.921206 13.7669495,10.0105613 C11.954653,10.1749092 10.3694989,12.240164 10.0561029,15 L11,15 C11.8201739,15 12.6019116,15.1645646 13.3139953,15.4624758 C14.338051,15.64407 15.3840024,15.1697258 15.915113,14.2498154 C16.1912554,13.7715228 16.8028458,13.6076476 17.2811384,13.88379 C17.759431,14.1599324 17.9233062,14.7715228 17.6471638,15.2498154 C17.1562426,16.1001158 16.4211341,16.7388186 15.5722849,17.1146875 C16.4627049,18.1615195 17,19.5180137 17,21 C17,21.5522847 16.5522847,22 16,22 C15.4477153,22 15,21.5522847 15,21 C15,18.790861 13.209139,17 11,17 C8.5,17 7.5,18.747951 7.5,21 C7.5,22.533149 8.14808549,23.8326683 9.06719042,24.506104 C9.49372613,24.8186303 10,25 10.830127,25 C13.3154084,25 15.330127,27.0147186 15.330127,29.5 C15.330127,30.0522847 14.8824118,30.5 14.330127,30.5 C13.7778423,30.5 13.330127,30.0522847 13.330127,29.5 C13.330127,28.1192881 12.1668415,26.9990495 10.7861296,26.9990495 C9.00843677,28.1875006 8.43829367,30.7232485 9.6160254,32.7631397 C10.8555044,34.9099804 13.5835072,35.7404622 15.5,34.6339746 C15.5535314,34.6030682 16.5012185,33.8559736 16.9899098,33.6048808 C17.7424439,33.2182238 18.5957375,33 19.5,33 C20.0522847,33 20.5,33.4477153 20.5,34 C20.5,34.5522847 20.0522847,35 19.5,35 C17.5670034,35 16,36.5670034 16,38.5 C16,40.4329966 17.5670034,42 19.5,42 C21.4329966,42 23,40.4329966 23,38.5 Z" fill="#ffffff" fill-rule="nonzero"></path></g></svg>