<svg height='100px' width='100px'  fill="#2262c6" xmlns="http://www.w3.org/2000/svg" viewBox="0 0 64 64" x="0px" y="0px"><title>share, social media, export</title><g><path d="M53.88,37.74a22.07,22.07,0,0,0-7.09-18.53,2,2,0,0,0-2.69,3A18.06,18.06,0,0,1,50,36.53a9,9,0,0,0-5.15,16.76A9,9,0,0,0,57.11,50,9,9,0,0,0,53.88,37.74ZM53.65,48a5,5,0,1,1-4.32-7.5,4.88,4.88,0,0,1,2.49.67A5,5,0,0,1,53.65,48ZM37.48,52.65a18.12,18.12,0,0,1-15.36-2.11A8.94,8.94,0,0,0,22.47,41a9,9,0,1,0-3.35,12.32A22.08,22.08,0,0,0,38.7,56.46a2,2,0,0,0-1.22-3.81ZM13.39,50.33a5,5,0,0,1-3-2.33,5,5,0,0,1,1.83-6.83,4.88,4.88,0,0,1,2.49-.67A5,5,0,0,1,18,49.23l-.12.09a5.35,5.35,0,0,1-.71.51A5,5,0,0,1,13.39,50.33ZM12,33.19a2.15,2.15,0,0,0,.43,0,2,2,0,0,0,1.95-1.57,18.09,18.09,0,0,1,9.5-12.24,9,9,0,1,0-.91-4A22.11,22.11,0,0,0,10.5,30.81,2,2,0,0,0,12,33.19ZM32,10.5a5,5,0,1,1-4.88,6.06c0-.08,0-.17,0-.26a5.29,5.29,0,0,1-.08-.8A5,5,0,0,1,32,10.5Z"></path></g></svg>