<svg height='100px' width='100px'  fill="#ffffff" xmlns="http://www.w3.org/2000/svg" xmlns:xlink="http://www.w3.org/1999/xlink" viewBox="0 0 100 100" version="1.1" x="0px" y="0px"><title>AB Testing 2 Copy 5</title><desc>Created with Sketch.</desc><g stroke="none" stroke-width="1" fill="none" fill-rule="evenodd"><g fill="#ffffff"><path d="M91.0330884,78.1428571 L8.93177754,78.1428571 L8.93177754,28 C8.93177754,23.8578644 12.2896419,20.5 16.4317775,20.5 L83.5330884,20.5 C87.675224,20.5 91.0330884,23.8578644 91.0330884,28 L91.0330884,78.1428571 Z M88.0330884,75.1428571 L88.0330884,28 C88.0330884,25.5147186 86.0183698,23.5 83.5330884,23.5 L16.4317775,23.5 C13.9464962,23.5 11.9317775,25.5147186 11.9317775,28 L11.9317775,75.1428571 L88.0330884,75.1428571 Z" fill-rule="nonzero"></path><path d="M5.64214023,78.1428571 C6.0553317,79.5069676 7.32241257,80.5 8.82142857,80.5 L91.1434374,80.5 C92.6424534,80.5 93.9095342,79.5069676 94.3227257,78.1428571 L5.64214023,78.1428571 Z M97.4263579,76.4780445 C97.4519716,76.7097496 97.464866,76.9435196 97.464866,77.1785714 C97.464866,80.6698 94.634666,83.5 91.1434374,83.5 L8.82142857,83.5 C5.33019997,83.5 2.5,80.6698 2.5,77.1785714 C2.5,76.9435196 2.51289433,76.7097496 2.53850803,76.4780445 C2.62252343,75.7180295 3.26478148,75.1428571 4.02942613,75.1428571 L95.9354398,75.1428571 C96.7000845,75.1428571 97.3423425,75.7180295 97.4263579,76.4780445 Z" fill-rule="nonzero"></path><circle cx="50" cy="27.5" r="1.5"></circle><path d="M31.5738796,64.2187888 L48.4261204,64.2187888 C48.4751761,63.8060218 48.5,63.3874982 48.5,62.9650002 C48.5,57.7083607 44.6620058,53.5 40,53.5 C35.3379942,53.5 31.5,57.7083607 31.5,62.9650002 C31.5,63.3874982 31.5248239,63.8060218 31.5738796,64.2187888 Z M28.8580619,66.0631693 C28.621031,65.0583238 28.5,64.0196781 28.5,62.9650002 C28.5,56.1100349 33.6163108,50.5 40,50.5 C46.3836892,50.5 51.5,56.1100349 51.5,62.9650002 C51.5,64.0196781 51.378969,65.0583238 51.1419381,66.0631693 L50.8693413,67.2187888 L29.1306587,67.2187888 L28.8580619,66.0631693 Z" fill-rule="nonzero"></path><path d="M40.0250001,53.5500002 C35.8690573,53.5500002 32.5,50.1809429 32.5,46.0250001 C32.5,41.8690573 35.8690573,38.5 40.0250001,38.5 C44.1809429,38.5 47.5500002,41.8690573 47.5500002,46.0250001 C47.5500002,50.1809429 44.1809429,53.5500002 40.0250001,53.5500002 Z M40.0250001,50.5500002 C42.5240886,50.5500002 44.5500002,48.5240886 44.5500002,46.0250001 C44.5500002,43.5259115 42.5240886,41.5 40.0250001,41.5 C37.5259115,41.5 35.5,43.5259115 35.5,46.0250001 C35.5,48.5240886 37.5259115,50.5500002 40.0250001,50.5500002 Z" fill-rule="nonzero"></path><path d="M63.4541635,56 L55.5,61.3027756 L55.5,55.9496706 C53.2500248,55.7009484 51.5,53.7934118 51.5,51.477135 L51.5,40 C51.5,37.5147186 53.5147186,35.5 56,35.5 L72,35.5 C74.4852814,35.5 76.5,37.5147186 76.5,40 L76.5,51.477135 C76.5,53.8516227 74.6609094,55.7965678 72.3294386,55.9652598 L63.4541635,56 Z M72,52.977135 C72.8284271,52.977135 73.5,52.3055621 73.5,51.477135 L73.5,40 C73.5,39.1715729 72.8284271,38.5 72,38.5 L56,38.5 C55.1715729,38.5 54.5,39.1715729 54.5,40 L54.5,51.477135 C54.5,52.3055621 55.1715729,52.977135 56,52.977135 L58.5,52.977135 L58.5,55.6972244 L62.5458365,53 L64.6325126,53 L72,52.977135 Z" fill-rule="nonzero"></path></g></g></svg>