<svg height='100px' width='100px'  fill="#888888" xmlns="http://www.w3.org/2000/svg" xmlns:xlink="http://www.w3.org/1999/xlink" version="1.1" x="0px" y="0px" viewBox="0 0 100 100" style="enable-background:new 0 0 100 100;" xml:space="preserve"><g><g><path d="M39,74.1c0,1.2,0.5,2.4,1.4,3.3l6.2,5.6c4.9,5,11.4,7.7,18.2,7.7s13.3-2.7,18.2-7.6    c4.9-4.9,7.6-11.4,7.6-18.2c0-6.8-2.7-13.3-7.6-18.2l-5.9-5.9c-0.9-0.9-2.1-1.4-3.3-1.4s-2.4,0.5-3.3,1.4s-1.4,2.1-1.4,3.3    s0.5,2.4,1.4,3.3l5.9,5.9c3.1,3.1,4.8,7.2,4.8,11.7s-1.7,8.6-4.8,11.7s-7.2,4.8-11.7,4.8c-4.4,0-8.6-1.7-11.7-4.8l-5.9-5.9    c-0.9-0.9-2.1-1.4-3.3-1.4s-2.4,0.5-3.3,1.4C39.5,71.7,39,72.8,39,74.1z"></path></g><g><path d="M52.6,29.4c0.9,0.9,2.1,1.4,3.3,1.4s2.4-0.5,3.3-1.4c1.8-1.8,1.8-4.7,0-6.5l-5.9-5.9    C48.4,12,41.9,9.4,35.1,9.4S21.8,12,16.9,16.9S9.3,28.3,9.3,35.1c0,6.8,2.7,13.3,7.6,18.2l5.9,5.9c1.9,1.9,4.8,1.9,6.6,0    c0.9-0.9,1.4-2.1,1.4-3.3s-0.5-2.4-1.4-3.3l-5.9-5.9c-3.1-3.1-4.8-7.2-4.8-11.7s1.7-8.6,4.8-11.7s7.2-4.8,11.7-4.8    c4.4,0,8.6,1.7,11.7,4.8L52.6,29.4z"></path></g><g><path d="M35.2,40c0,1.2,0.5,2.4,1.4,3.3l19.9,19.8c1.9,1.9,4.8,1.9,6.6,0c1.8-1.8,1.8-4.7,0-6.5L43.2,36.8    c-0.9-0.9-2.1-1.4-3.3-1.4s-2.4,0.5-3.3,1.4C35.8,37.7,35.3,38.8,35.2,40C35.2,40,35.2,40,35.2,40z"></path></g></g></svg>