<svg xmlns="http://www.w3.org/2000/svg" xmlns:xlink="http://www.w3.org/1999/xlink" width="245.506" height="206.053" viewBox="0 0 245.506 206.053">
  <defs>
    <clipPath id="clip-path">
      <path id="Union_48" data-name="Union 48" d="M28.229,206.049a29.521,29.521,0,0,1-12.713-2.6,24.66,24.66,0,0,1-13.678-15.2A32.771,32.771,0,0,1,0,176.809q.094-7.951.155-15.9C.182,129.8.278,110.3.327,75.868q0-13.815.025-27.629c0-5.206,0-10.727,0-16.6H.41q.014-2.984.032-5.971C.534,10.143,9.627.782,24.587.4,33.727.16,42.874.175,52.02.191,60.846.2,69.672.219,78.5.008c9.589-.226,16.343,4.334,22.186,11.352,2.962,3.56,5.891,7.157,8.965,10.612a26.115,26.115,0,0,0,20.774,9.271c11.77-.031,23.546.142,35.322.319q4.669.069,9.338.135l41.32.014.588-.012a31.219,31.219,0,0,1,9,1.062,23.654,23.654,0,0,1,14.806,10.836,31.159,31.159,0,0,1,4.647,16.458c.038,1.061.009,1.681.009,1.681s-.1,60.489-.109,107.8q.073,3.473.157,6.947a29.778,29.778,0,0,1-2.716,13.361c-4.138,9.331-13,16.41-24.775,16.182-.483.012-.966.011-1.453,0-14.985-.4-29.979-.475-44.974-.443-16,.04-32.013.194-48.013.2h-1.187c-9.227,0-18.453-.056-27.68-.115-10.327-.063-20.657-.126-30.981-.109-11.209.026-22.417.151-33.617.48q-.629.019-1.248.019C28.645,206.053,28.435,206.052,28.229,206.049Z" transform="translate(789.192 940)" fill="none"/>
    </clipPath>
  </defs>
  <g id="Group_1474" data-name="Group 1474" transform="translate(225.753 -2880)">
    <g id="Group_1473" data-name="Group 1473" transform="translate(419.152 666.527)">
      <g id="Group_1458" data-name="Group 1458" transform="translate(-1059.59 2108.5)">
        <path id="Union_47" data-name="Union 47" d="M28.229,206.049a29.521,29.521,0,0,1-12.713-2.6,24.66,24.66,0,0,1-13.678-15.2A32.771,32.771,0,0,1,0,176.809q.094-7.951.155-15.9C.182,129.8.278,110.3.327,75.868q0-13.815.025-27.629c0-5.206,0-10.727,0-16.6H.41q.014-2.984.032-5.971C.534,10.143,9.627.782,24.587.4,33.727.16,42.874.175,52.02.191,60.846.2,69.672.219,78.5.008c9.589-.226,16.343,4.334,22.186,11.352,2.962,3.56,5.891,7.157,8.965,10.612a26.115,26.115,0,0,0,20.774,9.271c11.77-.031,23.546.142,35.322.319q4.669.069,9.338.135l41.32.014.588-.012a31.219,31.219,0,0,1,9,1.062,23.654,23.654,0,0,1,14.806,10.836,31.159,31.159,0,0,1,4.647,16.458c.038,1.061.009,1.681.009,1.681s-.1,60.489-.109,107.8q.073,3.473.157,6.947a29.778,29.778,0,0,1-2.716,13.361c-4.138,9.331-13,16.41-24.775,16.182-.483.012-.966.011-1.453,0-14.985-.4-29.979-.475-44.974-.443-16,.04-32.013.194-48.013.2h-1.187c-9.227,0-18.453-.056-27.68-.115-10.327-.063-20.657-.126-30.981-.109-11.209.026-22.417.151-33.617.48q-.629.019-1.248.019C28.645,206.053,28.435,206.052,28.229,206.049Z" transform="translate(414.686 104.973)" fill="#2362c7"/>
      </g>
      <g id="Group_1459" data-name="Group 1459" transform="translate(-666.207 2073.527)">
        <text id="Life" transform="translate(37.303 236)" fill="#fff" font-size="72" font-family="BrixSlab-Bold, Brix Slab" font-weight="700"><tspan x="0" y="0">Life</tspan></text>
        <text id="Files" transform="translate(37.303 293)" fill="#fff" font-size="72" font-family="BrixSlab-Bold, Brix Slab" font-weight="700"><tspan x="0" y="0">Files</tspan></text>
      </g>
      <text id="AUSTIN" transform="translate(-626.152 2401.473)" fill="#fff" font-size="38.3" font-family="Montserrat-Medium, Montserrat" font-weight="500"><tspan x="0" y="0">AUSTIN</tspan></text>
    </g>
  </g>
</svg>
