<svg id="Group_3224" data-name="Group 3224" xmlns="http://www.w3.org/2000/svg" width="95.801" height="81.703" viewBox="0 0 95.801 81.703">
  <g id="noun_Monitor_388884" transform="translate(0 0)">
    <path id="Path_1828" data-name="Path 1828" d="M0,65.581a4.5,4.5,0,0,0,4.491,4.491H40.416V80.425H26.757v5.988H69.044V80.425H55.385V70.072H91.31A4.5,4.5,0,0,0,95.8,65.581V9.2A4.5,4.5,0,0,0,91.31,4.709H4.491A4.5,4.5,0,0,0,0,9.2Z" transform="translate(0 -4.709)" fill="#2362c7"/>
  </g>
  <path id="noun_Share_887593" d="M32.048,27.705a6.494,6.494,0,0,0-3.972,1.369L17.668,23.323A6.894,6.894,0,0,0,18.01,21.2a7.25,7.25,0,0,0-.342-2.123l10.956-6.094a6.8,6.8,0,0,0,3.424.959,6.546,6.546,0,0,0,6.505-6.505,6.505,6.505,0,0,0-13.01.068,5.943,5.943,0,0,0,.685,2.876L15.751,16.27a6.26,6.26,0,0,0-4.245-1.575,6.505,6.505,0,1,0,0,13.01,6.387,6.387,0,0,0,4.245-1.575l10.271,5.683a7.113,7.113,0,0,0-.479,2.4,6.505,6.505,0,1,0,6.505-6.505Z" transform="translate(25.818 12.291)" fill="#fff"/>
</svg>
