<svg xmlns="http://www.w3.org/2000/svg" width="76.938" height="97.698" viewBox="0 0 76.938 97.698">
  <g id="Group_3237" data-name="Group 3237" transform="translate(-1225.924 -2428.942)">
    <g id="Group_2984" data-name="Group 2984" transform="translate(1225.924 2428.942)">
      <g id="Group_977" data-name="Group 977" transform="translate(0 0)">
        <path id="Subtraction_21" data-name="Subtraction 21" d="M69.729,97.7H7.209A7.218,7.218,0,0,1,2.127,95.6,7.108,7.108,0,0,1,0,90.567V7.131A7.109,7.109,0,0,1,2.127,2.094,7.215,7.215,0,0,1,7.209,0h45.8V18.237a6.219,6.219,0,0,0,6.243,6.188H76.938V90.567A7.11,7.11,0,0,1,74.81,95.6,7.217,7.217,0,0,1,69.729,97.7Zm4.716-76.827h-15.2a2.648,2.648,0,0,1-2.658-2.635V2.63L74.444,20.87Z" transform="translate(0 0)" fill="#484848"/>
        <g id="Group_1102" data-name="Group 1102" transform="translate(18.441 33.592)">
          <path id="Path_1243" data-name="Path 1243" d="M20.283,0A20.283,20.283,0,1,1,0,20.283,20.283,20.283,0,0,1,20.283,0Z" fill="#484848"/>
          <g id="Group_1071" data-name="Group 1071" transform="translate(11.914 12.003)">
            <line id="Line_276" data-name="Line 276" y2="18.161" transform="translate(9.08)" fill="none"/>
            <line id="Line_277" data-name="Line 277" x2="17.335" transform="translate(0 9.08)" fill="none"/>
          </g>
        </g>
      </g>
    </g>
    <g id="Group_1815" data-name="Group 1815" transform="translate(1242.027 2462.12)">
      <ellipse id="Ellipse_414" data-name="Ellipse 414" cx="23.235" cy="23.235" rx="23.235" ry="23.235" transform="translate(0 0)" fill="#484848" stroke="#fff" stroke-linecap="round" stroke-linejoin="round" stroke-width="4"/>
      <line id="Line_333" data-name="Line 333" x2="0.173" y2="14.217" transform="translate(22.379 10.458)" fill="#fff" stroke="#fff" stroke-linecap="round" stroke-linejoin="round" stroke-width="4"/>
      <line id="Line_334" data-name="Line 334" x1="10.89" y1="4.754" transform="translate(22.893 25.276)" fill="#fff" stroke="#fff" stroke-linecap="round" stroke-linejoin="round" stroke-width="4"/>
    </g>
  </g>
</svg>
