<svg xmlns="http://www.w3.org/2000/svg" width="687" height="212" viewBox="0 0 687 212">
  <g id="Group_3677" data-name="Group 3677" transform="translate(-1096 -9757)">
    <rect id="Rectangle_137658" data-name="Rectangle 137658" width="687" height="212" transform="translate(1096 9757)" fill="#fff" opacity="0.2"/>
    <g id="Group_3622" data-name="Group 3622" transform="translate(23051 -11465)">
      <g id="Group_3620" data-name="Group 3620" transform="translate(-21853 21308.496)">
        <text id="_52px" data-name="52px" transform="translate(0 13.504)" fill="#6e6e6e" font-size="23" font-family="Montserrat-Medium, Montserrat" font-weight="500" opacity="0.5"><tspan x="0" y="22">52px</tspan></text>
        <text id="_52px-2" data-name="52px" transform="translate(68 70.504)" fill="#6e6e6e" font-size="23" font-family="Montserrat-Medium, Montserrat" font-weight="500" opacity="0.5"><tspan x="0" y="22">52px</tspan></text>
        <g id="Group_3617" data-name="Group 3617" transform="translate(75.152 3.465) rotate(90)">
          <line id="Line_371" data-name="Line 371" x2="49.873" transform="translate(0 6.881)" fill="none" stroke="#1473e6" stroke-width="3"/>
          <line id="Line_372" data-name="Line 372" y2="13.858" transform="translate(0 0)" fill="none" stroke="#1473e6" stroke-width="3"/>
          <line id="Line_373" data-name="Line 373" y2="13.858" transform="translate(49.873 0)" fill="none" stroke="#1473e6" stroke-width="3"/>
        </g>
        <g id="Group_3618" data-name="Group 3618" transform="translate(74.626 0)">
          <g id="Group_2759" data-name="Group 2759" transform="translate(0 0)">
            <rect id="Rectangle_865" data-name="Rectangle 865" width="56.544" height="56.544" rx="11" transform="translate(0 0)" fill="#e8ecf1"/>
          </g>
          <path id="noun_Bell_1334836" d="M45.9,36.1l-1.26-2.574a12.145,12.145,0,0,1-1.229-5.309V19.532A13.072,13.072,0,0,0,30.191,7.28h-.273A13.049,13.049,0,0,0,16.708,19.527v8.689a12.141,12.141,0,0,1-1.251,5.3L14.191,36.1A2.673,2.673,0,0,0,16.6,39.951h7.678a5.8,5.8,0,0,0,5.765,5.38h0a5.766,5.766,0,0,0,5.747-5.38h7.7A2.673,2.673,0,0,0,45.9,36.1ZM32.85,42.383a3.953,3.953,0,0,1-2.807,1.167h0a4.017,4.017,0,0,1-3.973-3.6H34A3.953,3.953,0,0,1,32.85,42.383Zm11.392-4.632a.9.9,0,0,1-.76.419H16.6a.891.891,0,0,1-.8-1.283l1.292-2.565A13.926,13.926,0,0,0,18.5,28.229v-8.6A11.266,11.266,0,0,1,29.918,9.07H30.2A11.255,11.255,0,0,1,41.6,19.625v8.6a13.935,13.935,0,0,0,1.421,6.092l1.26,2.574A.888.888,0,0,1,44.242,37.751Z" transform="translate(-1.788 2.483)" fill="#95a3b9" stroke="#95a3b9" stroke-width="0.6"/>
        </g>
        <g id="Group_3619" data-name="Group 3619" transform="translate(126.21 70.511) rotate(180)">
          <line id="Line_371-2" data-name="Line 371" x2="49.873" transform="translate(0 6.881)" fill="none" stroke="#1473e6" stroke-width="3"/>
          <line id="Line_372-2" data-name="Line 372" y2="13.858" transform="translate(0 0)" fill="none" stroke="#1473e6" stroke-width="3"/>
          <line id="Line_373-2" data-name="Line 373" y2="13.858" transform="translate(49.873 0)" fill="none" stroke="#1473e6" stroke-width="3"/>
        </g>
      </g>
      <g id="Group_3621" data-name="Group 3621" transform="translate(-21741.93 21288.512)">
        <ellipse id="Ellipse_396" data-name="Ellipse 396" cx="22.5" cy="22" rx="22.5" ry="22" transform="translate(-0.07 0.488)" fill="#d95868"/>
        <text id="_3" data-name="3" transform="translate(21.93 31.488)" fill="#fff" font-size="26" font-family="Montserrat-Medium, Montserrat" font-weight="500"><tspan x="-7.436" y="0">3</tspan></text>
      </g>
      <g id="Group_3623" data-name="Group 3623" transform="translate(-21745.326 21248)">
        <text id="_36px" data-name="36px" transform="translate(0.328 2)" fill="#6e6e6e" font-size="23" font-family="Montserrat-Medium, Montserrat" font-weight="500" opacity="0.5"><tspan x="0" y="22">36px</tspan></text>
        <g id="Group_3623-2" data-name="Group 3623" transform="translate(49.04 42.522) rotate(180)">
          <line id="Line_371-3" data-name="Line 371" x2="40.413" transform="translate(0 6.881)" fill="none" stroke="#1473e6" stroke-width="3"/>
          <line id="Line_372-3" data-name="Line 372" y2="13.858" transform="translate(0 0)" fill="none" stroke="#1473e6" stroke-width="3"/>
          <line id="Line_373-3" data-name="Line 373" y2="13.858" transform="translate(40.413 0)" fill="none" stroke="#1473e6" stroke-width="3"/>
        </g>
      </g>
      <g id="Group_3624" data-name="Group 3624" transform="translate(-21694.506 21292.105)">
        <text id="_36px-2" data-name="36px" transform="translate(11.508 4.895)" fill="#6e6e6e" font-size="23" font-family="Montserrat-Medium, Montserrat" font-weight="500" opacity="0.5"><tspan x="0" y="22">36px</tspan></text>
        <g id="Group_3624-2" data-name="Group 3624" transform="translate(-2 38.189) rotate(-90)">
          <line id="Line_371-4" data-name="Line 371" x2="35.966" transform="translate(0 6.881)" fill="none" stroke="#1473e6" stroke-width="3"/>
          <line id="Line_372-4" data-name="Line 372" y2="13.858" transform="translate(0 0)" fill="none" stroke="#1473e6" stroke-width="3"/>
          <line id="Line_373-4" data-name="Line 373" y2="13.858" transform="translate(35.966 0)" fill="none" stroke="#1473e6" stroke-width="3"/>
        </g>
      </g>
    </g>
    <g id="Group_3626" data-name="Group 3626" transform="translate(23192 -11478)">
      <g id="Group_3625" data-name="Group 3625" transform="translate(-21726 21279)">
        <g id="Group_3620-2" data-name="Group 3620" transform="translate(13.494 45.407)">
          <g id="Group_3618-2" data-name="Group 3618" transform="translate(0 0)">
            <g id="Group_2759-2" data-name="Group 2759" transform="translate(0 0)">
              <rect id="Rectangle_865-2" data-name="Rectangle 865" width="55.053" height="55.053" rx="11" fill="#e8ecf1"/>
            </g>
            <path id="noun_Bell_1334836-2" data-name="noun_Bell_1334836" d="M45.052,35.343l-1.227-2.506a11.825,11.825,0,0,1-1.2-5.169v-8.46A12.728,12.728,0,0,0,29.762,7.28H29.5A12.705,12.705,0,0,0,16.634,19.2v8.46a11.821,11.821,0,0,1-1.218,5.164l-1.231,2.515A2.6,2.6,0,0,0,16.53,39.09h7.476a5.648,5.648,0,0,0,5.613,5.238h0a5.614,5.614,0,0,0,5.6-5.238h7.493a2.6,2.6,0,0,0,2.345-3.746Zm-12.7,6.114a3.849,3.849,0,0,1-2.733,1.136h0a3.911,3.911,0,0,1-3.868-3.508h7.724A3.849,3.849,0,0,1,32.351,41.457Zm11.091-4.51a.871.871,0,0,1-.74.408H16.525a.867.867,0,0,1-.783-1.249L17,33.609a13.559,13.559,0,0,0,1.379-5.932V19.3A10.969,10.969,0,0,1,29.5,9.023h.27A10.958,10.958,0,0,1,40.875,19.3v8.377a13.568,13.568,0,0,0,1.384,5.932l1.227,2.506A.865.865,0,0,1,43.442,36.948Z" transform="translate(-2.108 2.226)" fill="#95a3b9" stroke="#95a3b9" stroke-width="0.6"/>
          </g>
        </g>
        <g id="Group_3621-2" data-name="Group 3621" transform="translate(46.699 24.365)">
          <circle id="Ellipse_396-2" data-name="Ellipse 396" cx="21.5" cy="21.5" r="21.5" transform="translate(0.301 -0.365)" fill="#d95868"/>
          <text id="_3-2" data-name="3" transform="translate(21.301 29.635)" fill="#fff" font-size="25" font-family="Montserrat-Medium, Montserrat" font-weight="500"><tspan x="-7.15" y="0">3</tspan></text>
        </g>
        <g id="Group_3623-3" data-name="Group 3623">
          <text id="_28px" data-name="28px" fill="#6e6e6e" font-size="23" font-family="Montserrat-Medium, Montserrat" font-weight="500" opacity="0.5"><tspan x="0" y="22">28px</tspan></text>
          <g id="Group_3623-4" data-name="Group 3623" transform="translate(44.408 43.477) rotate(180)">
            <line id="Line_371-5" data-name="Line 371" x2="28.486" transform="translate(0 6.7)" fill="none" stroke="#1473e6" stroke-width="3"/>
            <line id="Line_372-5" data-name="Line 372" y2="13.492" transform="translate(0 0)" fill="none" stroke="#1473e6" stroke-width="3"/>
            <line id="Line_373-5" data-name="Line 373" y2="13.492" transform="translate(28.486 0)" fill="none" stroke="#1473e6" stroke-width="3"/>
          </g>
        </g>
        <g id="Group_3624-3" data-name="Group 3624" transform="translate(70.112 70.086)">
          <text id="_28px-2" data-name="28px" transform="translate(15.889 0.914)" fill="#6e6e6e" font-size="23" font-family="Montserrat-Medium, Montserrat" font-weight="500" opacity="0.5"><tspan x="0" y="22">28px</tspan></text>
          <g id="Group_3624-4" data-name="Group 3624" transform="translate(0 29.142) rotate(-90)">
            <line id="Line_371-6" data-name="Line 371" x2="29.142" transform="translate(0 6.7)" fill="none" stroke="#1473e6" stroke-width="3"/>
            <line id="Line_372-6" data-name="Line 372" y2="13.492" transform="translate(0 0)" fill="none" stroke="#1473e6" stroke-width="3"/>
            <line id="Line_373-6" data-name="Line 373" y2="13.492" transform="translate(29.142 0)" fill="none" stroke="#1473e6" stroke-width="3"/>
          </g>
        </g>
      </g>
    </g>
  </g>
</svg>
