<svg xmlns="http://www.w3.org/2000/svg" width="168" height="109" viewBox="0 0 168 109">
  <g id="Group_3260" data-name="Group 3260" transform="translate(-823 -3740)">
    <rect id="Rectangle_137493" data-name="Rectangle 137493" width="168" height="109" transform="translate(823 3740)" fill="#eee"/>
    <path id="Path_2000" data-name="Path 2000" d="M-486.7-71.279a4.7,4.7,0,0,0-4.7,4.7v22.44a2.3,2.3,0,0,1-2.3,2.3,2.3,2.3,0,0,1-2.3-2.3v-34.44a4.7,4.7,0,0,0-4.7-4.7,4.69,4.69,0,0,0-4.643,4.092v32.815a2.3,2.3,0,0,1-2.3,2.3,2.3,2.3,0,0,1-2.3-2.3v-31.7a2.315,2.315,0,0,1-.061-.511v-3.639a4.694,4.694,0,0,0-1.378-3.328,4.685,4.685,0,0,0-3.32-1.37,4.7,4.7,0,0,0-4.7,4.7v35.846a2.3,2.3,0,0,1-2.3,2.3,2.3,2.3,0,0,1-2.3-2.3V-75.425s0-.008,0-.012a4.662,4.662,0,0,0-1.374-3.319,4.666,4.666,0,0,0-3.32-1.386,4.71,4.71,0,0,0-4.7,4.7v23.66a9.236,9.236,0,0,1,1.714,5.341v12.326a2.744,2.744,0,0,0,2.028,2.621,25.688,25.688,0,0,1,11.077,6.5,26.384,26.384,0,0,1,7.259,14.193,2.3,2.3,0,0,1-1.891,2.648,2.294,2.294,0,0,1-.382.032,2.3,2.3,0,0,1-2.266-1.922,21.74,21.74,0,0,0-5.971-11.692,21.144,21.144,0,0,0-9.119-5.343,7.31,7.31,0,0,1-5.339-7.037V-46.434a4.583,4.583,0,0,0-1.15-3.045l-.07-.081c-1.226-1.4-1.424-1.579-2.472-1.579h-4.967l.01,27.65c0,17.908,12.107,30.906,28.787,30.906h3.71A30.582,30.582,0,0,0-490.9-1.309a29.175,29.175,0,0,0,8.9-21V-66.581a4.65,4.65,0,0,0-1.376-3.319A4.644,4.644,0,0,0-486.7-71.279Z" transform="translate(1418.354 3834.593)" fill="#fff"/>
  </g>
</svg>
