<svg id="Group_3236" data-name="Group 3236" xmlns="http://www.w3.org/2000/svg" width="78.188" height="99.285" viewBox="0 0 78.188 99.285">
  <g id="Group_2318" data-name="Group 2318" transform="translate(0 0)">
    <path id="Subtraction_21" data-name="Subtraction 21" d="M70.861,99.285H7.326a7.335,7.335,0,0,1-5.165-2.128A7.223,7.223,0,0,1,0,92.038V7.247A7.224,7.224,0,0,1,2.161,2.128,7.332,7.332,0,0,1,7.326,0H53.867V18.533a6.32,6.32,0,0,0,6.344,6.288H78.187V92.038a7.226,7.226,0,0,1-2.162,5.119A7.334,7.334,0,0,1,70.861,99.285Zm4.793-78.074H60.2a2.691,2.691,0,0,1-2.7-2.677V2.673L75.652,21.209Z" transform="translate(0 0)" fill="#4ba9d9"/>
  </g>
  <g id="noun_Eye_2501659" transform="matrix(0.996, -0.087, 0.087, 0.996, 10.815, 36.605)">
    <path id="Path_1917" data-name="Path 1917" d="M.57,15.017c13.686-20.149,36.687-19.959,50.373.19a2.574,2.574,0,0,1,0,3.231C37.257,38.588,14.257,38.4.57,18.249A2.574,2.574,0,0,1,.57,15.017ZM25.852,4.182A12.494,12.494,0,0,1,38.208,16.728a12.451,12.451,0,0,1-24.9,0A12.534,12.534,0,0,1,25.852,4.182Z" transform="matrix(0.995, 0.105, -0.105, 0.995, 3.497, 0)" fill="#fff" fill-rule="evenodd"/>
  </g>
</svg>
