<svg xmlns="http://www.w3.org/2000/svg" xmlns:xlink="http://www.w3.org/1999/xlink" width="687" height="212" viewBox="0 0 687 212">
  <defs>
    <filter id="Rectangle_1284" x="198" y="47" width="128" height="128" filterUnits="userSpaceOnUse">
      <feOffset dy="3" input="SourceAlpha"/>
      <feGaussianBlur stdDeviation="3" result="blur"/>
      <feFlood flood-opacity="0.161"/>
      <feComposite operator="in" in2="blur"/>
      <feComposite in="SourceGraphic"/>
    </filter>
    <filter id="Rectangle_1284-2" x="422" y="47" width="128" height="128" filterUnits="userSpaceOnUse">
      <feOffset dy="3" input="SourceAlpha"/>
      <feGaussianBlur stdDeviation="3" result="blur-2"/>
      <feFlood flood-opacity="0.161"/>
      <feComposite operator="in" in2="blur-2"/>
      <feComposite in="SourceGraphic"/>
    </filter>
  </defs>
  <g id="Group_3665" data-name="Group 3665" transform="translate(-385 -7859)">
    <rect id="Rectangle_137649" data-name="Rectangle 137649" width="687" height="212" transform="translate(385 7859)" fill="#fff" opacity="0.2"/>
    <g id="Group_3480" data-name="Group 3480" transform="translate(22253 -11466)">
      <g id="Group_3415" data-name="Group 3415" transform="translate(-193 7875)">
        <g id="Component_161_3" data-name="Component 161 – 3" transform="translate(-21468 11503)">
          <g transform="matrix(1, 0, 0, 1, -207, -53)" filter="url(#Rectangle_1284)">
            <rect id="Rectangle_1284-3" data-name="Rectangle 1284" width="110" height="110" rx="26" transform="translate(207 53)" fill="#32a736"/>
          </g>
          <text id="Text_goes_here" data-name="Text goes
 here" transform="translate(54.93 84.102)" fill="#fff" font-size="12" font-family="Montserrat-Bold, Montserrat" font-weight="700"><tspan x="-30.054" y="0">Text goes</tspan><tspan x="-15.984" y="10" xml:space="preserve"> here</tspan></text>
          <g id="Group_3496" data-name="Group 3496" transform="translate(30 15)">
            <circle id="Ellipse_676" data-name="Ellipse 676" cx="25.5" cy="25.5" r="25.5" fill="#fff"/>
            <g id="Ellipse_679" data-name="Ellipse 679" transform="translate(11.591 15.455)" fill="#32a736" stroke="#32a736" stroke-width="1">
              <circle cx="4.162" cy="4.162" r="4.162" stroke="none"/>
              <circle cx="4.162" cy="4.162" r="3.662" fill="none"/>
            </g>
            <g id="Ellipse_680" data-name="Ellipse 680" transform="translate(31.875 15.455)" fill="#32a736" stroke="#32a736" stroke-width="1">
              <circle cx="4.162" cy="4.162" r="4.162" stroke="none"/>
              <circle cx="4.162" cy="4.162" r="3.662" fill="none"/>
            </g>
            <g id="Component_158_33" data-name="Component 158 – 33" transform="translate(11.222 32.967)">
              <path id="Path_1853" data-name="Path 1853" d="M-13468.541-9601.99c3.506.483,23.472.742,27.24,0s-3.013,10.35-12.763,10.35S-13472.047-9602.474-13468.541-9601.99Z" transform="translate(13469.364 9602.026)" fill="#32a736"/>
            </g>
          </g>
        </g>
      </g>
      <g id="Group_3473" data-name="Group 3473" transform="translate(-21579 19392.477) rotate(180)">
        <line id="Line_369" data-name="Line 369" x2="52.517" transform="translate(0 5.623)" fill="none" stroke="#fff" stroke-width="3"/>
        <line id="Line_368" data-name="Line 368" y2="11.247" transform="translate(0 0)" fill="none" stroke="#fff" stroke-width="3"/>
        <line id="Line_370" data-name="Line 370" y2="11.247" transform="translate(52.517 0)" fill="none" stroke="#fff" stroke-width="3"/>
      </g>
      <text id="_52px" data-name="52px" transform="translate(-21634 19370)" fill="#6e6e6e" font-size="23" font-family="Montserrat-Medium, Montserrat" font-weight="500" opacity="0.5"><tspan x="0" y="0">52px</tspan></text>
      <text id="_52px-2" data-name="52px" transform="translate(-21721 19441)" fill="#6e6e6e" font-size="23" font-family="Montserrat-Medium, Montserrat" font-weight="500" opacity="0.5"><tspan x="0" y="0">52px</tspan></text>
      <g id="Group_3474" data-name="Group 3474" transform="translate(-21648.178 19442.314) rotate(-90)">
        <line id="Line_369-2" data-name="Line 369" x2="53.423" transform="translate(0 5.623)" fill="none" stroke="#fff" stroke-width="3"/>
        <line id="Line_368-2" data-name="Line 368" y2="11.247" transform="translate(0 0)" fill="none" stroke="#fff" stroke-width="3"/>
        <line id="Line_370-2" data-name="Line 370" y2="11.247" transform="translate(53.423 0)" fill="none" stroke="#fff" stroke-width="3"/>
      </g>
    </g>
    <g id="Group_3493" data-name="Group 3493" transform="translate(46)">
      <g id="Group_3479" data-name="Group 3479" transform="translate(22431 -11602)">
        <g id="Group_3475" data-name="Group 3475" transform="translate(-193 8011)">
          <g id="Component_161_3-2" data-name="Component 161 – 3" transform="translate(-21468 11503)">
            <g transform="matrix(1, 0, 0, 1, -431, -53)" filter="url(#Rectangle_1284-2)">
              <rect id="Rectangle_1284-4" data-name="Rectangle 1284" width="110" height="110" rx="26" transform="translate(431 53)" fill="#32a736"/>
            </g>
            <text id="Text_goes_here-2" data-name="Text goes
 here" transform="translate(54.93 84.102)" fill="#fff" font-size="12" font-family="Montserrat-Bold, Montserrat" font-weight="700"><tspan x="-30.054" y="0">Text goes</tspan><tspan x="-15.984" y="10" xml:space="preserve"> here</tspan></text>
          </g>
        </g>
        <text id="_4px" data-name="4px" transform="translate(-21709 19591)" fill="#6e6e6e" font-size="23" font-family="Montserrat-Medium, Montserrat" font-weight="500" opacity="0.5"><tspan x="0" y="0">4px</tspan></text>
        <text id="_12px" data-name="12px" transform="translate(-21717 19532)" fill="#6e6e6e" font-size="23" font-family="Montserrat-Medium, Montserrat" font-weight="500" opacity="0.5"><tspan x="0" y="0">12px</tspan></text>
        <text id="_12px-2" data-name="12px" transform="translate(-21716 19618)" fill="#6e6e6e" font-size="23" font-family="Montserrat-Medium, Montserrat" font-weight="500" opacity="0.5"><tspan x="0" y="0">12px</tspan></text>
        <g id="Group_3484" data-name="Group 3484" transform="translate(-21631 19529)">
          <circle id="Ellipse_676-2" data-name="Ellipse 676" cx="25.5" cy="25.5" r="25.5" fill="#fff"/>
          <g id="Ellipse_679-2" data-name="Ellipse 679" transform="translate(11.591 15.455)" fill="#32a736" stroke="#32a736" stroke-width="1">
            <circle cx="4.162" cy="4.162" r="4.162" stroke="none"/>
            <circle cx="4.162" cy="4.162" r="3.662" fill="none"/>
          </g>
          <g id="Ellipse_680-2" data-name="Ellipse 680" transform="translate(31.875 15.455)" fill="#32a736" stroke="#32a736" stroke-width="1">
            <circle cx="4.162" cy="4.162" r="4.162" stroke="none"/>
            <circle cx="4.162" cy="4.162" r="3.662" fill="none"/>
          </g>
          <g id="Component_158_33-2" data-name="Component 158 – 33" transform="translate(11.222 32.967)">
            <path id="Path_1853-2" data-name="Path 1853" d="M-13468.541-9601.99c3.506.483,23.472.742,27.24,0s-3.013,10.35-12.763,10.35S-13472.047-9602.474-13468.541-9601.99Z" transform="translate(13469.364 9602.026)" fill="#32a736"/>
          </g>
        </g>
        <g id="Group_3485" data-name="Group 3485" transform="translate(-21611.178 19527.566) rotate(-90)">
          <line id="Line_369-3" data-name="Line 369" x2="12" transform="translate(0 5.623)" fill="none" stroke="#fff" stroke-width="3"/>
          <line id="Line_368-3" data-name="Line 368" y2="11.247" transform="translate(0 0)" fill="none" stroke="#fff" stroke-width="3"/>
          <line id="Line_370-3" data-name="Line 370" y2="11.247" transform="translate(12 0)" fill="none" stroke="#fff" stroke-width="3"/>
        </g>
      </g>
      <g id="Group_3482" data-name="Group 3482" transform="translate(819.822 8020.566) rotate(-90)">
        <line id="Line_369-4" data-name="Line 369" x2="12" transform="translate(0 5.623)" fill="none" stroke="#fff" stroke-width="3"/>
        <line id="Line_368-4" data-name="Line 368" y2="11.247" transform="translate(0 0)" fill="none" stroke="#fff" stroke-width="3"/>
        <line id="Line_370-4" data-name="Line 370" y2="11.247" transform="translate(12 0)" fill="none" stroke="#fff" stroke-width="3"/>
      </g>
      <g id="Group_3486" data-name="Group 3486" transform="translate(819.822 7985.795) rotate(-90)">
        <line id="Line_369-5" data-name="Line 369" x2="6" transform="translate(0 5.623)" fill="none" stroke="#fff" stroke-width="3"/>
        <line id="Line_368-5" data-name="Line 368" y2="11.247" transform="translate(0 0)" fill="none" stroke="#fff" stroke-width="3"/>
        <line id="Line_370-5" data-name="Line 370" y2="11.247" transform="translate(6 0)" fill="none" stroke="#fff" stroke-width="3"/>
      </g>
    </g>
  </g>
</svg>
