<svg xmlns="http://www.w3.org/2000/svg" width="659" height="212" viewBox="0 0 659 212">
  <g id="Group_3664" data-name="Group 3664" transform="translate(-1096 -7586)">
    <rect id="Rectangle_137533" data-name="Rectangle 137533" width="659" height="212" transform="translate(1096 7586)" fill="#fff" opacity="0.2"/>
    <g id="Group_3466" data-name="Group 3466" transform="translate(1131 7624)">
      <g id="Group_3460" data-name="Group 3460" transform="translate(52.599 26.309)">
        <path id="Path_1404" data-name="Path 1404" d="M17.765,0h201.34A17.765,17.765,0,0,1,236.87,17.765V53.3a17.765,17.765,0,0,1-17.765,17.765H17.765A17.765,17.765,0,0,1,0,53.3V17.765A17.765,17.765,0,0,1,17.765,0Z" fill="#1473e6"/>
        <text id="Download" transform="translate(71.244 44.252)" fill="#fff" font-size="25" font-family="Montserrat-Medium, Montserrat" font-weight="500"><tspan x="0" y="0">Download</tspan></text>
        <g id="Group_1697" data-name="Group 1697" transform="translate(23.898 18.185)">
          <g id="Group_1032" data-name="Group 1032" transform="translate(6.665)">
            <g id="Group_1031" data-name="Group 1031" transform="translate(0)">
              <path id="Path_1134" data-name="Path 1134" d="M143.312,15.619l-6.805,7.98a.954.954,0,0,1-1.462,0l-6.805-7.98a1.016,1.016,0,0,1-.154-1.069.972.972,0,0,1,.885-.585h3.889V1a.985.985,0,0,1,.972-1h3.889a.985.985,0,0,1,.972,1V13.965h3.889a.969.969,0,0,1,.885.585A1.015,1.015,0,0,1,143.312,15.619Z" transform="translate(-127.998 0)" fill="#fff"/>
            </g>
          </g>
          <g id="Group_1034" data-name="Group 1034" transform="translate(0 23.989)">
            <g id="Group_1033" data-name="Group 1033">
              <path id="Path_1135" data-name="Path 1135" d="M40.346,352v5.985h-20.6V352H16v7.98a1.936,1.936,0,0,0,1.873,1.995H42.218a1.935,1.935,0,0,0,1.873-1.995V352Z" transform="translate(-16 -352)" fill="#fff"/>
            </g>
          </g>
        </g>
      </g>
      <g id="Group_3461" data-name="Group 3461" transform="translate(105.301 81.447)">
        <line id="Line_369" data-name="Line 369" x2="22.271" transform="translate(0 5.314)" fill="none" stroke="#fff" stroke-width="3"/>
        <line id="Line_368" data-name="Line 368" y2="11.25" transform="translate(0)" fill="none" stroke="#fff" stroke-width="3"/>
        <line id="Line_370" data-name="Line 370" y2="11.25" transform="translate(22.271)" fill="none" stroke="#fff" stroke-width="3"/>
      </g>
      <g id="Group_3462" data-name="Group 3462" transform="translate(71.513 46.123) rotate(90)">
        <line id="Line_369-2" data-name="Line 369" x2="30.738" transform="translate(0 5.66)" fill="none" stroke="#fff" stroke-width="3"/>
        <line id="Line_368-2" data-name="Line 368" y2="11.25" fill="none" stroke="#fff" stroke-width="3"/>
        <line id="Line_370-2" data-name="Line 370" y2="11.25" transform="translate(30.738)" fill="none" stroke="#fff" stroke-width="3"/>
      </g>
      <g id="Group_3463" data-name="Group 3463" transform="translate(103.34 42.477) rotate(180)">
        <line id="Line_369-3" data-name="Line 369" x2="25.857" transform="translate(0 5.623)" fill="none" stroke="#fff" stroke-width="3"/>
        <line id="Line_368-3" data-name="Line 368" y2="11.25" transform="translate(0 0)" fill="none" stroke="#fff" stroke-width="3"/>
        <line id="Line_370-3" data-name="Line 370" y2="11.25" transform="translate(25.857 0)" fill="none" stroke="#fff" stroke-width="3"/>
      </g>
      <text id="_16px" data-name="16px" transform="translate(95 119)" fill="#6e6e6e" font-size="23" font-family="Montserrat-Medium, Montserrat" font-weight="500" opacity="0.5"><tspan x="0" y="0">16px</tspan></text>
      <text id="_20px" data-name="20px" transform="translate(62 16)" fill="#6e6e6e" font-size="23" font-family="Montserrat-Medium, Montserrat" font-weight="500" opacity="0.5"><tspan x="0" y="0">20px</tspan></text>
      <text id="_28px" data-name="28px" transform="translate(-9 70)" fill="#6e6e6e" font-size="23" font-family="Montserrat-Medium, Montserrat" font-weight="500" opacity="0.5"><tspan x="0" y="0">28px</tspan></text>
    </g>
    <g id="Group_3472" data-name="Group 3472" transform="translate(1442.568 7630.082)">
      <g id="Group_3467" data-name="Group 3467" transform="translate(49.843 24.702)">
        <g id="Group_3460-2" data-name="Group 3460">
          <path id="Path_1404-2" data-name="Path 1404" d="M17.765,0h201.34A17.765,17.765,0,0,1,236.87,17.765V53.3a17.765,17.765,0,0,1-17.765,17.765H17.765A17.765,17.765,0,0,1,0,53.3V17.765A17.765,17.765,0,0,1,17.765,0Z" fill="#1473e6"/>
          <text id="Download-2" data-name="Download" transform="translate(71.244 43.495)" fill="#fff" font-size="25" font-family="Montserrat-Medium, Montserrat" font-weight="500"><tspan x="0" y="0">Download</tspan></text>
          <g id="Group_1697-2" data-name="Group 1697" transform="translate(23.898 18.185)">
            <g id="Group_1032-2" data-name="Group 1032" transform="translate(6.665)">
              <g id="Group_1031-2" data-name="Group 1031" transform="translate(0)">
                <path id="Path_1134-2" data-name="Path 1134" d="M143.312,15.619l-6.805,7.98a.954.954,0,0,1-1.462,0l-6.805-7.98a1.016,1.016,0,0,1-.154-1.069.972.972,0,0,1,.885-.585h3.889V1a.985.985,0,0,1,.972-1h3.889a.985.985,0,0,1,.972,1V13.965h3.889a.969.969,0,0,1,.885.585A1.015,1.015,0,0,1,143.312,15.619Z" transform="translate(-127.998 0)" fill="#fff"/>
              </g>
            </g>
            <g id="Group_1034-2" data-name="Group 1034" transform="translate(0 23.989)">
              <g id="Group_1033-2" data-name="Group 1033">
                <path id="Path_1135-2" data-name="Path 1135" d="M40.346,352v5.985h-20.6V352H16v7.98a1.936,1.936,0,0,0,1.873,1.995H42.218a1.935,1.935,0,0,0,1.873-1.995V352Z" transform="translate(-16 -352)" fill="#fff"/>
              </g>
            </g>
          </g>
        </g>
      </g>
      <text id="_16px-2" data-name="16px" transform="translate(74.432 13.918)" fill="#6e6e6e" font-size="23" font-family="Montserrat-Medium, Montserrat" font-weight="500" opacity="0.5"><tspan x="0" y="0">16px</tspan></text>
      <g id="Group_3464" data-name="Group 3464" transform="translate(52.084 51.49)">
        <line id="Line_369-4" data-name="Line 369" x2="20.963" transform="translate(0 6.195)" fill="none" stroke="#fff" stroke-width="3"/>
        <line id="Line_368-4" data-name="Line 368" y2="12" transform="translate(0 0)" fill="none" stroke="#fff" stroke-width="3"/>
        <line id="Line_370-4" data-name="Line 370" y2="12" transform="translate(20.963 0)" fill="none" stroke="#fff" stroke-width="3"/>
      </g>
      <text id="_20px-2" data-name="20px" transform="translate(-10.568 62.918)" fill="#6e6e6e" font-size="23" font-family="Montserrat-Medium, Montserrat" font-weight="500" opacity="0.5"><tspan x="0" y="0">20px</tspan></text>
      <g id="Group_3469" data-name="Group 3469" transform="translate(105.128 26.87) rotate(90)">
        <line id="Line_369-5" data-name="Line 369" x2="15.198" transform="translate(0 6.195)" fill="none" stroke="#fff" stroke-width="3"/>
        <line id="Line_368-5" data-name="Line 368" y2="12" transform="translate(0)" fill="none" stroke="#fff" stroke-width="3"/>
        <line id="Line_370-5" data-name="Line 370" y2="12" transform="translate(15.198)" fill="none" stroke="#fff" stroke-width="3"/>
      </g>
    </g>
  </g>
</svg>
