<svg xmlns="http://www.w3.org/2000/svg" width="687" height="212" viewBox="0 0 687 212">
  <g id="Group_3666" data-name="Group 3666" transform="translate(-1096 -7859)">
    <rect id="Rectangle_137650" data-name="Rectangle 137650" width="687" height="212" transform="translate(1096 7859)" fill="#fff" opacity="0.2"/>
    <g id="Group_3491" data-name="Group 3491" transform="translate(1139 7895)">
      <g id="Component_119_16" data-name="Component 119 – 16" transform="translate(85 51)">
        <rect id="Rectangle_1293" data-name="Rectangle 1293" width="198" height="64" rx="32" fill="#2975eb"/>
        <text id="Zoom_in" data-name="Zoom in" transform="translate(125 41)" fill="#fff" font-size="26" font-family="Montserrat-Regular, Montserrat"><tspan x="-54.067" y="0">Zoom in</tspan></text>
        <circle id="Ellipse_410" data-name="Ellipse 410" cx="32" cy="32" r="32" fill="#fff"/>
        <g id="Group_1426" data-name="Group 1426" transform="translate(15.15 15.525)">
          <g id="Group_1425" data-name="Group 1425" transform="translate(0 0)">
            <path id="Path_18" data-name="Path 18" d="M42.553,40.676,34.874,33A13.451,13.451,0,1,0,32.99,34.88l7.68,7.673a1.33,1.33,0,1,0,1.884-1.878ZM24.462,35.245A10.786,10.786,0,1,1,35.252,24.462,10.8,10.8,0,0,1,24.462,35.245Z" transform="translate(-11 -11)" fill="#2975eb"/>
            <g id="Group_1094" data-name="Group 1094" transform="translate(7.044 7.652)">
              <line id="Line_284" data-name="Line 284" y2="12.139" transform="translate(6.232)" fill="none" stroke="#2975eb" stroke-linecap="round" stroke-width="2.5"/>
              <line id="Line_285" data-name="Line 285" x2="12.464" transform="translate(0 6.07)" fill="none" stroke="#2975eb" stroke-linecap="round" stroke-width="2.5"/>
            </g>
          </g>
        </g>
      </g>
      <g id="Group_3487" data-name="Group 3487" transform="translate(101.39 49.539)">
        <line id="Line_371" data-name="Line 371" x2="29.239" transform="translate(0 10.593)" fill="none" stroke="#1473e6" stroke-width="3"/>
        <line id="Line_372" data-name="Line 372" y2="11.25" transform="translate(0 5)" fill="none" stroke="#1473e6" stroke-width="3"/>
        <line id="Line_373" data-name="Line 373" y2="11.25" transform="translate(29.239 5)" fill="none" stroke="#1473e6" stroke-width="3"/>
      </g>
      <g id="Group_3488" data-name="Group 3488" transform="translate(82.456 97.033) rotate(-90)">
        <line id="Line_371-2" data-name="Line 371" x2="29.239" transform="translate(0 10.593)" fill="none" stroke="#1473e6" stroke-width="3"/>
        <line id="Line_372-2" data-name="Line 372" y2="11.25" transform="translate(0 5)" fill="none" stroke="#1473e6" stroke-width="3"/>
        <line id="Line_373-2" data-name="Line 373" y2="11.25" transform="translate(29.239 5)" fill="none" stroke="#1473e6" stroke-width="3"/>
      </g>
      <text id="_24px" data-name="24px" transform="translate(87 19)" fill="#6e6e6e" font-size="23" font-family="Montserrat-Medium, Montserrat" font-weight="500" opacity="0.5"><tspan x="0" y="22">24px</tspan></text>
      <text id="_24px-2" data-name="24px" transform="translate(20 68)" fill="#6e6e6e" font-size="23" font-family="Montserrat-Medium, Montserrat" font-weight="500" opacity="0.5"><tspan x="0" y="22">24px</tspan></text>
    </g>
    <g id="Group_3492" data-name="Group 3492" transform="translate(1453.121 7908.311)">
      <g id="Component_119_17" data-name="Component 119 – 17" transform="translate(62.879 37.689)">
        <rect id="Rectangle_1293-2" data-name="Rectangle 1293" width="198" height="64" rx="32" fill="#2975eb"/>
        <text id="Zoom_in-2" data-name="Zoom in" transform="translate(125 41)" fill="#fff" font-size="26" font-family="Montserrat-Regular, Montserrat"><tspan x="-54.067" y="0">Zoom in</tspan></text>
        <circle id="Ellipse_410-2" data-name="Ellipse 410" cx="32" cy="32" r="32" fill="#fff"/>
        <g id="Group_1426-2" data-name="Group 1426" transform="translate(15.15 15.525)">
          <g id="Group_1425-2" data-name="Group 1425" transform="translate(0 0)">
            <path id="Path_18-2" data-name="Path 18" d="M42.553,40.676,34.874,33A13.451,13.451,0,1,0,32.99,34.88l7.68,7.673a1.33,1.33,0,1,0,1.884-1.878ZM24.462,35.245A10.786,10.786,0,1,1,35.252,24.462,10.8,10.8,0,0,1,24.462,35.245Z" transform="translate(-11 -11)" fill="#2975eb"/>
            <g id="Group_1094-2" data-name="Group 1094" transform="translate(7.044 7.652)">
              <line id="Line_284-2" data-name="Line 284" y2="12.139" transform="translate(6.232)" fill="none" stroke="#2975eb" stroke-linecap="round" stroke-width="2.5"/>
              <line id="Line_285-2" data-name="Line 285" x2="12.464" transform="translate(0 6.07)" fill="none" stroke="#2975eb" stroke-linecap="round" stroke-width="2.5"/>
            </g>
          </g>
        </g>
      </g>
      <g id="Group_3489" data-name="Group 3489" transform="translate(103.305 40.328) rotate(90)">
        <line id="Line_371-3" data-name="Line 371" x2="10.648" transform="translate(0 10.593)" fill="none" stroke="#1473e6" stroke-width="3"/>
        <line id="Line_372-3" data-name="Line 372" y2="11.25" transform="translate(0 5)" fill="none" stroke="#1473e6" stroke-width="3"/>
        <line id="Line_373-3" data-name="Line 373" y2="11.25" transform="translate(10.648 5)" fill="none" stroke="#1473e6" stroke-width="3"/>
      </g>
      <g id="Group_3490" data-name="Group 3490" transform="translate(75.478 77.698) rotate(180)">
        <line id="Line_371-4" data-name="Line 371" x2="10.648" transform="translate(0 10.593)" fill="none" stroke="#1473e6" stroke-width="3"/>
        <line id="Line_372-4" data-name="Line 372" y2="11.25" transform="translate(0 5)" fill="none" stroke="#1473e6" stroke-width="3"/>
        <line id="Line_373-4" data-name="Line 373" y2="11.25" transform="translate(10.648 5)" fill="none" stroke="#1473e6" stroke-width="3"/>
      </g>
      <text id="_8px" data-name="8px" transform="translate(-0.121 47.688)" fill="#6e6e6e" font-size="23" font-family="Montserrat-Medium, Montserrat" font-weight="500" opacity="0.5"><tspan x="0" y="22">8px</tspan></text>
      <text id="_8px-2" data-name="8px" transform="translate(62.879 5.688)" fill="#6e6e6e" font-size="23" font-family="Montserrat-Medium, Montserrat" font-weight="500" opacity="0.5"><tspan x="0" y="22">8px</tspan></text>
    </g>
  </g>
</svg>
