<svg xmlns="http://www.w3.org/2000/svg" width="687" height="212" viewBox="0 0 687 212">
  <g id="Group_3678" data-name="Group 3678" transform="translate(-385 -10127)">
    <rect id="Rectangle_137664" data-name="Rectangle 137664" width="687" height="212" transform="translate(385 10127)" fill="#fff" opacity="0.2"/>
    <g id="Group_3633" data-name="Group 3633" transform="translate(22217 -11180)">
      <g id="Group_3627" data-name="Group 3627" transform="translate(-21752.125 21372.164)">
        <path id="Rectangle_137666" data-name="Rectangle 137666" d="M15,0H504a15,15,0,0,1,15,15V77a0,0,0,0,1,0,0H0a0,0,0,0,1,0,0V15A15,15,0,0,1,15,0Z" transform="translate(0.125 -0.164)" fill="#2362c7"/>
        <ellipse id="Ellipse_693" data-name="Ellipse 693" cx="23.5" cy="24" rx="23.5" ry="24" transform="translate(443.125 15.836)" fill="none"/>
        <g id="Group_3441" data-name="Group 3441" transform="translate(461.567 28.114)">
          <line id="Line_266" data-name="Line 266" y1="21.484" x2="21.418" fill="none" stroke="#fff" stroke-linecap="round" stroke-width="5"/>
          <line id="Line_267" data-name="Line 267" x1="21.418" y1="21.484" transform="translate(0.961)" fill="none" stroke="#fff" stroke-linecap="round" stroke-width="5"/>
        </g>
        <g id="Group_3442" data-name="Group 3442" transform="translate(33.139 15.481)">
          <path id="Subtraction_21" data-name="Subtraction 21" d="M32.618,45.7H3.372a3.376,3.376,0,0,1-2.377-.98A3.325,3.325,0,0,1,0,42.366V3.336A3.325,3.325,0,0,1,.995.98,3.375,3.375,0,0,1,3.372,0H24.8V8.531a2.909,2.909,0,0,0,2.92,2.894H35.99V42.366a3.326,3.326,0,0,1-1,2.356A3.376,3.376,0,0,1,32.618,45.7ZM34.825,9.764H27.713A1.239,1.239,0,0,1,26.47,8.531V1.23l8.354,8.533Z" transform="translate(0 0)" fill="#f8f8f8"/>
          <g id="Group_1102" data-name="Group 1102" transform="translate(8.627 15.714)">
            <path id="Path_1243" data-name="Path 1243" d="M9.488,0A9.488,9.488,0,1,1,0,9.488,9.488,9.488,0,0,1,9.488,0Z" fill="#2362c7"/>
            <g id="Group_1071" data-name="Group 1071" transform="translate(5.573 5.615)">
              <line id="Line_276" data-name="Line 276" y2="8.495" transform="translate(4.248)" fill="none" stroke="#fcfcfc" stroke-linecap="round" stroke-width="3"/>
              <line id="Line_277" data-name="Line 277" x2="8.109" transform="translate(0 4.248)" fill="none" stroke="#fcfcfc" stroke-linecap="round" stroke-width="3"/>
            </g>
          </g>
        </g>
      </g>
      <text id="_16px" data-name="16px" transform="translate(-21722 21349)" fill="#a9a9a9" font-size="23" font-family="Montserrat-Medium, Montserrat" font-weight="500"><tspan x="0" y="22">16px</tspan></text>
      <text id="_28px" data-name="28px" transform="translate(-21299 21349)" fill="#a9a9a9" font-size="23" font-family="Montserrat-Medium, Montserrat" font-weight="500"><tspan x="0" y="22">28px</tspan></text>
      <text id="_28px-2" data-name="28px" transform="translate(-21299 21449)" fill="#a9a9a9" font-size="23" font-family="Montserrat-Medium, Montserrat" font-weight="500"><tspan x="0" y="22">28px</tspan></text>
      <text id="_16px-2" data-name="16px" transform="translate(-21723 21447)" fill="#a9a9a9" font-size="23" font-family="Montserrat-Medium, Montserrat" font-weight="500"><tspan x="0" y="22">16px</tspan></text>
      <text id="_36px" data-name="36px" transform="translate(-21811 21401)" fill="#a9a9a9" font-size="23" font-family="Montserrat-Medium, Montserrat" font-weight="500"><tspan x="0" y="22">36px</tspan></text>
      <g id="Group_3628" data-name="Group 3628" transform="translate(-21711.949 21385.785) rotate(-90)">
        <line id="Line_371" data-name="Line 371" x2="11.664" transform="translate(0 5.54)" fill="none" stroke="#fff" stroke-width="3"/>
        <line id="Line_372" data-name="Line 372" y2="11.157" transform="translate(0 0)" fill="none" stroke="#fff" stroke-width="3"/>
        <line id="Line_373" data-name="Line 373" y2="11.157" transform="translate(11.664 0)" fill="none" stroke="#fff" stroke-width="3"/>
      </g>
      <g id="Group_3638" data-name="Group 3638" transform="translate(-21711.949 21446.977) rotate(-90)">
        <line id="Line_371-2" data-name="Line 371" x2="11.664" transform="translate(0 5.54)" fill="none" stroke="#fff" stroke-width="3"/>
        <line id="Line_372-2" data-name="Line 372" y2="11.157" transform="translate(0 0)" fill="none" stroke="#fff" stroke-width="3"/>
        <line id="Line_373-2" data-name="Line 373" y2="11.157" transform="translate(11.664 0)" fill="none" stroke="#fff" stroke-width="3"/>
      </g>
      <g id="Group_3637" data-name="Group 3637" transform="translate(-21284.432 21396.465) rotate(-90)">
        <line id="Line_371-3" data-name="Line 371" x2="22.343" transform="translate(0 5.54)" fill="none" stroke="#fff" stroke-width="3"/>
        <line id="Line_372-3" data-name="Line 372" y2="11.157" transform="translate(0 0)" fill="none" stroke="#fff" stroke-width="3"/>
        <line id="Line_373-3" data-name="Line 373" y2="11.157" transform="translate(22.343 0)" fill="none" stroke="#fff" stroke-width="3"/>
      </g>
      <g id="Group_3629" data-name="Group 3629" transform="translate(-21750.902 21407.533)">
        <line id="Line_371-4" data-name="Line 371" x2="30.137" transform="translate(0 5.54)" fill="none" stroke="#fff" stroke-width="3"/>
        <line id="Line_372-4" data-name="Line 372" y2="11.157" transform="translate(0 0)" fill="none" stroke="#fff" stroke-width="3"/>
        <line id="Line_373-4" data-name="Line 373" y2="11.157" transform="translate(30.137 0)" fill="none" stroke="#fff" stroke-width="3"/>
      </g>
      <g id="Group_3636" data-name="Group 3636" transform="translate(-21263.846 21407.533)">
        <line id="Line_371-5" data-name="Line 371" x2="28.54" transform="translate(0 5.54)" fill="none" stroke="#fff" stroke-width="3"/>
        <line id="Line_372-5" data-name="Line 372" y2="11.157" transform="translate(0 0)" fill="none" stroke="#fff" stroke-width="3"/>
        <line id="Line_373-5" data-name="Line 373" y2="11.157" transform="translate(28.54 0)" fill="none" stroke="#fff" stroke-width="3"/>
      </g>
      <g id="Group_3630" data-name="Group 3630" transform="translate(-21681.441 21407.533)">
        <line id="Line_371-6" data-name="Line 371" x2="17.031" transform="translate(0 5.54)" fill="none" stroke="#fff" stroke-width="3"/>
        <line id="Line_372-6" data-name="Line 372" y2="11.157" transform="translate(0 0)" fill="none" stroke="#fff" stroke-width="3"/>
        <line id="Line_373-6" data-name="Line 373" y2="11.157" transform="translate(17.031 0)" fill="none" stroke="#fff" stroke-width="3"/>
      </g>
      <text id="New_Document" data-name="New Document" transform="translate(-21665 21392)" fill="#f8f8f8" font-size="35" font-family="Montserrat-Medium, Montserrat" font-weight="500"><tspan x="0" y="34">New Document</tspan></text>
      <g id="Group_3639" data-name="Group 3639" transform="translate(-21284.432 21446.906) rotate(-90)">
        <line id="Line_371-7" data-name="Line 371" x2="22.343" transform="translate(0 5.54)" fill="none" stroke="#fff" stroke-width="3"/>
        <line id="Line_372-7" data-name="Line 372" y2="11.157" transform="translate(0 0)" fill="none" stroke="#fff" stroke-width="3"/>
        <line id="Line_373-7" data-name="Line 373" y2="11.157" transform="translate(22.343 0)" fill="none" stroke="#fff" stroke-width="3"/>
      </g>
      <text id="_34px" data-name="34px" transform="translate(-21225 21398)" fill="#a9a9a9" font-size="23" font-family="Montserrat-Medium, Montserrat" font-weight="500"><tspan x="0" y="22">34px</tspan></text>
    </g>
  </g>
</svg>
