<svg xmlns="http://www.w3.org/2000/svg" width="687" height="212" viewBox="0 0 687 212">
  <g id="Group_3672" data-name="Group 3672" transform="translate(-1096 -8762)">
    <rect id="Rectangle_137652" data-name="Rectangle 137652" width="687" height="212" transform="translate(1096 8762)" fill="#fff" opacity="0.2"/>
    <g id="Group_3544" data-name="Group 3544" transform="translate(23002 -11692)">
      <g id="Group_3538" data-name="Group 3538" transform="translate(-21810 20164)">
        <g id="Component_114_4" data-name="Component 114 – 4" transform="translate(74.488 368.527)">
          <g id="Group_1657" data-name="Group 1657">
            <g id="Path_1299" data-name="Path 1299" fill="#fff">
              <path d="M 340.2183837890625 55.71555709838867 L 11.29355716705322 55.71555709838867 C 5.341966152191162 55.71555709838867 0.5000116229057312 52.2717399597168 0.5000116229057312 48.03873825073242 L 0.5000116229057312 8.17682933807373 C 0.5000116229057312 3.943829774856567 5.341966152191162 0.5000115633010864 11.29355716705322 0.5000115633010864 L 340.2183837890625 0.5000115633010864 C 346.1699523925781 0.5000115633010864 351.0119323730469 3.943829774856567 351.0119323730469 8.17682933807373 L 351.0119323730469 48.03873825073242 C 351.0119323730469 52.2717399597168 346.1699523925781 55.71555709838867 340.2183837890625 55.71555709838867 Z" stroke="none"/>
              <path d="M 11.29354858398438 1.000011444091797 C 8.485870361328125 1.000011444091797 5.85809326171875 1.783058166503906 3.89422607421875 3.204921722412109 C 2.027862548828125 4.556240081787109 1 6.321964263916016 1 8.176830291748047 L 1 48.03873825073242 C 1 49.89360046386719 2.027862548828125 51.65932846069336 3.89422607421875 53.01064682006836 C 5.85809326171875 54.43251037597656 8.485870361328125 55.21555709838867 11.29354858398438 55.21555709838867 L 340.2183837890625 55.21555709838867 C 343.0260620117188 55.21555709838867 345.6538391113281 54.43251037597656 347.6176452636719 53.01064682006836 C 349.4840698242188 51.65932846069336 350.5119323730469 49.89360046386719 350.5119323730469 48.03873825073242 L 350.5119323730469 8.176830291748047 C 350.5119323730469 6.321964263916016 349.4840698242188 4.556240081787109 347.6176452636719 3.204921722412109 C 345.6538391113281 1.783058166503906 343.0260620117188 1.000011444091797 340.2183837890625 1.000011444091797 L 11.29354858398438 1.000011444091797 M 11.29354858398438 1.1444091796875e-05 L 340.2183837890625 1.1444091796875e-05 C 346.4555969238281 1.1444091796875e-05 351.5119323730469 3.660873413085938 351.5119323730469 8.176830291748047 L 351.5119323730469 48.03873825073242 C 351.5119323730469 52.55469512939453 346.4555969238281 56.21555709838867 340.2183837890625 56.21555709838867 L 11.29354858398438 56.21555709838867 C 5.0562744140625 56.21555709838867 0 52.55469512939453 0 48.03873825073242 L 0 8.176830291748047 C 0 3.660873413085938 5.0562744140625 1.1444091796875e-05 11.29354858398438 1.1444091796875e-05 Z" stroke="none" fill="#c7cdd8"/>
            </g>
          </g>
          <text id="_453123" data-name="453123" transform="translate(86.512 36.474)" fill="#3b3b3b" font-size="23" font-family="Montserrat-Regular, Montserrat"><tspan x="0" y="0">453123</tspan></text>
          <path id="_5ec800093f708f495e5c94dd_noun_Key_677345" data-name="5ec800093f708f495e5c94dd_noun_Key_677345" d="M15.4,22.483l1.556,1.556a1.76,1.76,0,0,0,1.31.542H20.1v1.556a2.113,2.113,0,0,0,2.113,2.113h1.556v1.838a1.859,1.859,0,0,0,.532,1.3l1.222,1.222a1.725,1.725,0,0,0,1.218.5H31.6a1.518,1.518,0,0,0,1.514-1.514h0V26.74a1.722,1.722,0,0,0-.507-1.225L22.483,15.4A11.568,11.568,0,1,0,15.4,22.483ZM4.886,4.879A9.454,9.454,0,0,1,20.279,15.248a1.056,1.056,0,0,0,.225,1.158L30.993,26.9v4.095H26.9l-1.032-1.032V27.472a1.359,1.359,0,0,0-1.359-1.359H22.216V23.828a1.359,1.359,0,0,0-1.359-1.359H18.371L16.406,20.5a1.056,1.056,0,0,0-1.158-.225A9.454,9.454,0,0,1,4.882,4.886Zm4.422,8.306A3.873,3.873,0,1,0,5.435,9.311,3.873,3.873,0,0,0,9.308,13.184Zm0-5.605a1.754,1.754,0,1,1-1.246.513,1.76,1.76,0,0,1,1.246-.513Z" transform="translate(19.91 28.618) rotate(-45)" fill="#484848"/>
        </g>
        <text id="Your_Keycode" data-name="Your Keycode" transform="translate(74 353)" fill="rgba(72,72,72,0.77)" font-size="28" font-family="Montserrat-Regular, Montserrat"><tspan x="0" y="0">Your Keycode</tspan></text>
      </g>
      <g id="Group_3539" data-name="Group 3539" transform="translate(-21732.395 20547.928)">
        <line id="Line_371" data-name="Line 371" x2="19.871" transform="translate(0 12.041)" fill="none" stroke="#1473e6" stroke-width="3"/>
        <line id="Line_372" data-name="Line 372" y2="12" transform="translate(0 6)" fill="none" stroke="#1473e6" stroke-width="3"/>
        <line id="Line_373" data-name="Line 373" y2="12" transform="translate(19.871 6)" fill="none" stroke="#1473e6" stroke-width="3"/>
      </g>
      <g id="Group_3541" data-name="Group 3541" transform="translate(-21668.395 20547.928)">
        <line id="Line_371-2" data-name="Line 371" x2="19.871" transform="translate(0 12.041)" fill="none" stroke="#1473e6" stroke-width="3"/>
        <line id="Line_372-2" data-name="Line 372" y2="12" transform="translate(0 6)" fill="none" stroke="#1473e6" stroke-width="3"/>
        <line id="Line_373-2" data-name="Line 373" y2="12" transform="translate(19.871 6)" fill="none" stroke="#1473e6" stroke-width="3"/>
      </g>
      <text id="_20px" data-name="20px" transform="translate(-21800 20546)" fill="#6e6e6e" font-size="23" font-family="Montserrat-Medium, Montserrat" font-weight="500" opacity="0.5"><tspan x="0" y="22">20px</tspan></text>
      <text id="_12px" data-name="12px" transform="translate(-21722 20589)" fill="#6e6e6e" font-size="23" font-family="Montserrat-Medium, Montserrat" font-weight="500" opacity="0.5"><tspan x="0" y="22">12px</tspan></text>
      <text id="_20px-2" data-name="20px" transform="translate(-21381 20546)" fill="#6e6e6e" font-size="23" font-family="Montserrat-Medium, Montserrat" font-weight="500" opacity="0.5"><tspan x="0" y="22">20px</tspan></text>
      <g id="Group_3540" data-name="Group 3540" transform="translate(-21705.178 20586.566) rotate(-90)">
        <line id="Line_369" data-name="Line 369" x2="12" transform="translate(0 5.623)" fill="none" stroke="#1473e6" stroke-width="3"/>
        <line id="Line_368" data-name="Line 368" y2="11.247" transform="translate(0 0)" fill="none" stroke="#1473e6" stroke-width="3"/>
        <line id="Line_370" data-name="Line 370" y2="11.247" transform="translate(12 0)" fill="none" stroke="#1473e6" stroke-width="3"/>
      </g>
    </g>
  </g>
</svg>
