<svg xmlns="http://www.w3.org/2000/svg" width="126" height="100" viewBox="0 0 126 100">
  <g id="Group_3229" data-name="Group 3229" transform="translate(-252 -387)">
    <path id="Rectangle_1360" data-name="Rectangle 1360" d="M0,0H101a25,25,0,0,1,25,25V75a25,25,0,0,1-25,25H0a0,0,0,0,1,0,0V0A0,0,0,0,1,0,0Z" transform="translate(252 387)" fill="#2975eb"/>
    <text id="Paste_Key" data-name="Paste Key" transform="translate(266 472)" fill="#fff" font-size="20" font-family="Montserrat-Regular, Montserrat"><tspan x="0" y="0">Paste Key</tspan></text>
    <g id="noun_clipboard_168951" transform="translate(296.267 401.286)">
      <g id="Group_2533" data-name="Group 2533">
        <path id="Path_1942" data-name="Path 1942" d="M45.109,8.095H41.022V7.98A1.731,1.731,0,0,0,39.3,6.253H36.3a4.645,4.645,0,0,0-8.978,0H24.217A1.731,1.731,0,0,0,22.49,7.98v.115H18.4a4.618,4.618,0,0,0-4.6,4.6V46.655a4.618,4.618,0,0,0,4.6,4.6H45.166a4.618,4.618,0,0,0,4.6-4.6V12.7A4.705,4.705,0,0,0,45.109,8.095ZM31.814,6.253a1.209,1.209,0,1,1-1.209,1.209A1.148,1.148,0,0,1,31.814,6.253ZM46.26,46.6a1.154,1.154,0,0,1-1.151,1.151H18.4A1.154,1.154,0,0,1,17.253,46.6V12.7A1.154,1.154,0,0,1,18.4,11.548H22.49v.058a1.731,1.731,0,0,0,1.727,1.727H39.353a1.731,1.731,0,0,0,1.727-1.727v-.058h4.086A1.154,1.154,0,0,1,46.317,12.7V46.6Z" transform="translate(-13.8 -2.8)" fill="#fff"/>
      </g>
      <g id="Group_2534" data-name="Group 2534" transform="translate(7.539 25.956)">
        <path id="Path_1943" data-name="Path 1943" d="M46.007,51.353H28.627a1.727,1.727,0,0,1,0-3.453H46.065a1.7,1.7,0,0,1,1.727,1.727A1.745,1.745,0,0,1,46.007,51.353Z" transform="translate(-26.9 -47.9)" fill="#fff"/>
      </g>
      <g id="Group_2535" data-name="Group 2535" transform="translate(7.539 16.69)">
        <path id="Path_1944" data-name="Path 1944" d="M46.007,35.253H28.627a1.727,1.727,0,0,1,0-3.453H46.065a1.7,1.7,0,0,1,1.727,1.727A1.745,1.745,0,0,1,46.007,35.253Z" transform="translate(-26.9 -31.8)" fill="#fff"/>
      </g>
      <g id="Group_2536" data-name="Group 2536" transform="translate(7.539 35.222)">
        <path id="Path_1945" data-name="Path 1945" d="M46.007,67.453H28.627a1.727,1.727,0,0,1,0-3.453H46.065a1.7,1.7,0,0,1,1.727,1.727A1.745,1.745,0,0,1,46.007,67.453Z" transform="translate(-26.9 -64)" fill="#fff"/>
      </g>
    </g>
  </g>
</svg>
