<svg xmlns="http://www.w3.org/2000/svg" xmlns:xlink="http://www.w3.org/1999/xlink" width="687" height="746" viewBox="0 0 687 746">
  <defs>
    <clipPath id="clip-path">
      <rect id="Rectangle_137671" data-name="Rectangle 137671" width="360" height="348" fill="#fff" stroke="#707070" stroke-width="1"/>
    </clipPath>
  </defs>
  <g id="Group_3680" data-name="Group 3680" transform="translate(-1096 -10508)">
    <path id="Path_2054" data-name="Path 2054" d="M0,0H687V746H0Z" transform="translate(1096 10508)" fill="#fff" opacity="0.2"/>
    <g id="Group_3449" data-name="Group 3449" transform="translate(1260 10575)">
      <g id="Mask_Group_76" data-name="Mask Group 76" clip-path="url(#clip-path)">
        <path id="Path_1355" data-name="Path 1355" d="M-22936,910.408s48.422,178.174,174.238,107.061,278.982-195.366,422.773-91.432,321.963-132.068,445.436-28.914,175.047,147.7,275.857,88.306,0-400.111,0-400.111l-1332.4,10.159Z" transform="translate(22076 -698)" fill="#2362c7"/>
      </g>
      <text id="Document_Owner" data-name="Document Owner" transform="translate(36 29)" fill="#fff" font-size="30" font-family="Montserrat-Medium, Montserrat" font-weight="500"><tspan x="0" y="29">Document Owner</tspan></text>
      <text id="More_ways_to_login" data-name="More ways to login" transform="translate(36 73)" fill="#fff" font-size="20" font-family="Montserrat-Medium, Montserrat" font-weight="500" opacity="0.69"><tspan x="0" y="19">More ways to login</tspan></text>
      <g id="Group_1687" data-name="Group 1687" transform="translate(0 -46)">
        <g id="Component_112_5" data-name="Component 112 – 5" transform="translate(40 152)">
          <g id="Rectangle_1185" data-name="Rectangle 1185" fill="#fff" stroke="rgba(112,112,112,0.36)" stroke-width="1">
            <rect width="280" height="454" rx="5" stroke="none"/>
            <rect x="0.5" y="0.5" width="279" height="453" rx="4.5" fill="none"/>
          </g>
        </g>
        <text id="Palm_Login" data-name="Palm Login" transform="translate(55.5 168)" fill="#2362c7" font-size="25" font-family="Montserrat-Bold, Montserrat" font-weight="700"><tspan x="50.575" y="24">Palm Login</tspan></text>
      </g>
      <g id="Group_1765" data-name="Group 1765" transform="translate(0 8)">
        <g id="noun_Arrow_711843" transform="translate(22 -405.365)">
          <path id="Path_1391" data-name="Path 1391" d="M18,995.492a2.207,2.207,0,0,0,.533,1.354L29.032,1008a2.255,2.255,0,0,0,2.871.164,2.05,2.05,0,0,0-.02-2.871L24.5,997.461H58.028a1.969,1.969,0,0,0,0-3.937H24.5l7.382-7.834a2.169,2.169,0,0,0,.02-2.871,2.226,2.226,0,0,0-2.871.164l-10.5,11.156A1.893,1.893,0,0,0,18,995.492Z" transform="translate(0 0)" fill="#2362c7"/>
        </g>
        <text id="Go_Back" data-name="Go Back" transform="translate(140 597)" fill="#2362c7" font-size="20" font-family="Montserrat-Medium, Montserrat" font-weight="500"><tspan x="-42.14" y="0">Go Back</tspan></text>
      </g>
      <text id="Palm_registered_" data-name="Palm registered!" transform="translate(69 170)" fill="rgba(72,72,72,0.77)" font-size="15" font-family="Montserrat-Medium, Montserrat" font-weight="500"><tspan x="48.815" y="15">Palm registered!</tspan></text>
      <g id="Component_113_2" data-name="Component 113 – 2" transform="translate(77 464)">
        <path id="Path_1356" data-name="Path 1356" d="M10,0H200c5.523,0,10,3.731,10,8.333V41.667c0,4.6-4.477,8.333-10,8.333H10C4.477,50,0,46.269,0,41.667V8.333C0,3.731,4.477,0,10,0Z" fill="#9a9a9a"/>
        <rect id="Rectangle_1189" data-name="Rectangle 1189" width="210" height="50" rx="9" fill="#2975eb"/>
        <text id="Test" transform="translate(0 8)" fill="#fff" font-size="25" font-family="Montserrat-Medium, Montserrat" font-weight="500"><tspan x="79.763" y="24">Test</tspan></text>
      </g>
      <text id="How_does_this_work_" data-name="How does this work?" transform="translate(68 519)" fill="#9a9a9a" font-size="15" font-family="Montserrat-Regular, Montserrat"><tspan x="27.105" y="15">How does this work?</tspan></text>
      <g id="noun_palm_1671954" transform="translate(139.48 257.849)">
        <path id="Path_1362" data-name="Path 1362" d="M64.658,147.676h5.113a48.447,48.447,0,0,0,34.115-13.832,46.493,46.493,0,0,0,14.169-33.476h0v-61A12.79,12.79,0,0,0,98.767,28.323V22.828A12.795,12.795,0,0,0,78.33,12.548a12.905,12.905,0,0,0-2.614-3.8,12.81,12.81,0,0,0-21.758,7.435,12.68,12.68,0,0,0-6.585-1.844A12.839,12.839,0,0,0,34.547,27.162v27.49a10.175,10.175,0,0,0-2.727-.35H24.975a6.336,6.336,0,0,0-6.328,6.328V98.746C18.645,127.1,38,147.676,64.658,147.676ZM24.974,60.644h6.845c1.444,0,1.717.246,3.407,2.177l.1.111a6.316,6.316,0,0,1,1.585,4.2V84.114a10.074,10.074,0,0,0,7.357,9.7,29.135,29.135,0,0,1,12.567,7.362,29.963,29.963,0,0,1,8.228,16.111,3.171,3.171,0,0,0,6.256-1.045,36.36,36.36,0,0,0-10-19.558,35.4,35.4,0,0,0-15.265-8.957,3.781,3.781,0,0,1-2.795-3.611V67.127a12.727,12.727,0,0,0-2.362-7.36v-32.6a6.469,6.469,0,0,1,11.059-4.574,6.423,6.423,0,0,1,1.893,4.574s0,.01,0,.016V67.213a3.171,3.171,0,1,0,6.341,0v-49.4a6.474,6.474,0,1,1,12.947,0v5.014a3.226,3.226,0,0,0,.084.7V67.215a3.171,3.171,0,1,0,6.341,0V21.994a6.462,6.462,0,0,1,12.871.834V70.287a3.171,3.171,0,1,0,6.341,0V39.364a6.481,6.481,0,0,1,6.473-6.473,6.479,6.479,0,0,1,6.473,6.473v61h0a40.2,40.2,0,0,1-12.262,28.944,42.14,42.14,0,0,1-29.681,12.023H64.658c-22.987,0-39.67-17.911-39.67-42.589Z" transform="translate(-18.647 -5)" fill="#ededed" stroke="#ededed" stroke-width="3"/>
      </g>
      <g id="Group_2093" data-name="Group 2093" transform="translate(-775.561 -853.561)">
        <path id="Path_1523" data-name="Path 1523" d="M34.081,0A34.081,34.081,0,1,1,0,34.081,34.081,34.081,0,0,1,34.081,0Z" transform="translate(929.56 1156.56)" fill="#2362c7"/>
        <path id="Path_1486" data-name="Path 1486" d="M38.411,10.492,19.925,28.979l-8.347-8.347a2.535,2.535,0,0,0-3.585,3.585l10.14,10.14a2.535,2.535,0,0,0,3.585,0L42,14.077a2.535,2.535,0,1,0-3.585-3.585Z" transform="translate(938.878 1168.307)" fill="#fff"/>
      </g>
    </g>
    <g id="Group_3646" data-name="Group 3646" transform="translate(1502.137 10824.664) rotate(180)">
      <line id="Line_369" data-name="Line 369" x2="104.814" transform="translate(0 8.825)" fill="none" stroke="#1473e6" stroke-width="3"/>
      <line id="Line_368" data-name="Line 368" y2="11.25" transform="translate(0 3)" fill="none" stroke="#1473e6" stroke-width="3"/>
      <line id="Line_370" data-name="Line 370" y2="11.25" transform="translate(104.814 3)" fill="none" stroke="#1473e6" stroke-width="3"/>
    </g>
    <g id="Group_3648" data-name="Group 3648" transform="translate(1484.164 10880.664) rotate(180)">
      <line id="Line_369-2" data-name="Line 369" x2="68.002" transform="translate(0 8.825)" fill="none" stroke="#1473e6" stroke-width="3"/>
      <line id="Line_368-2" data-name="Line 368" y2="17.649" transform="translate(0 0)" fill="none" stroke="#1473e6" stroke-width="3"/>
      <line id="Line_370-2" data-name="Line 370" y2="17.649" transform="translate(68.002 0)" fill="none" stroke="#1473e6" stroke-width="3"/>
    </g>
    <g id="Group_3649" data-name="Group 3649" transform="translate(1484.338 10943.279) rotate(-90)">
      <line id="Line_369-3" data-name="Line 369" x2="59.936" transform="translate(0 8.825)" fill="none" stroke="#1473e6" stroke-width="3"/>
      <line id="Line_368-3" data-name="Line 368" y2="17.649" transform="translate(0 0)" fill="none" stroke="#1473e6" stroke-width="3"/>
      <line id="Line_370-3" data-name="Line 370" y2="17.649" transform="translate(59.936 0)" fill="none" stroke="#1473e6" stroke-width="3"/>
    </g>
    <g id="Group_3647" data-name="Group 3647" transform="translate(1376.906 10974.637) rotate(-90)">
      <line id="Line_369-4" data-name="Line 369" x2="143.205" transform="translate(0 8.825)" fill="none" stroke="#1473e6" stroke-width="3"/>
      <line id="Line_368-4" data-name="Line 368" y2="11.25" transform="translate(0 3)" fill="none" stroke="#1473e6" stroke-width="3"/>
      <line id="Line_370-4" data-name="Line 370" y2="11.25" transform="translate(143.205 3)" fill="none" stroke="#1473e6" stroke-width="3"/>
    </g>
    <g id="Group_3650" data-name="Group 3650" transform="translate(1439.906 11036.637) rotate(-90)">
      <line id="Line_369-5" data-name="Line 369" x2="56.438" transform="translate(0 8.825)" fill="none" stroke="#1473e6" stroke-width="3"/>
      <line id="Line_368-5" data-name="Line 368" y2="11.25" transform="translate(0 3)" fill="none" stroke="#1473e6" stroke-width="3"/>
      <line id="Line_370-5" data-name="Line 370" y2="11.25" transform="translate(56.438 3)" fill="none" stroke="#1473e6" stroke-width="3"/>
    </g>
    <g id="Group_3651" data-name="Group 3651" transform="translate(1507.906 10815.637) rotate(-90)">
      <line id="Line_369-6" data-name="Line 369" x2="56.438" transform="translate(0 8.825)" fill="none" stroke="#1473e6" stroke-width="3"/>
      <line id="Line_368-6" data-name="Line 368" y2="11.25" transform="translate(0 3)" fill="none" stroke="#1473e6" stroke-width="3"/>
      <line id="Line_370-6" data-name="Line 370" y2="11.25" transform="translate(56.438 3)" fill="none" stroke="#1473e6" stroke-width="3"/>
    </g>
    <text id="_100px" data-name="100px" transform="translate(1414 10779)" fill="#a9a9a9" font-size="23" font-family="Montserrat-Medium, Montserrat" font-weight="500"><tspan x="0" y="22">100px</tspan></text>
    <text id="_68px" data-name="68px" transform="translate(1417 10836)" fill="#a9a9a9" font-size="23" font-family="Montserrat-Medium, Montserrat" font-weight="500"><tspan x="0" y="22">68px</tspan></text>
    <text id="_68px-2" data-name="68px" transform="translate(1502 10900)" fill="#a9a9a9" font-size="23" font-family="Montserrat-Medium, Montserrat" font-weight="500"><tspan x="0" y="22">68px</tspan></text>
    <text id="_56px" data-name="56px" transform="translate(1457 10996)" fill="#a9a9a9" font-size="23" font-family="Montserrat-Medium, Montserrat" font-weight="500"><tspan x="0" y="22">56px</tspan></text>
    <text id="_56px-2" data-name="56px" transform="translate(1525 10775)" fill="#a9a9a9" font-size="23" font-family="Montserrat-Medium, Montserrat" font-weight="500"><tspan x="0" y="22">56px</tspan></text>
    <text id="_140px" data-name="140px" transform="translate(1309 10893)" fill="#a9a9a9" font-size="23" font-family="Montserrat-Medium, Montserrat" font-weight="500"><tspan x="0" y="22">140px</tspan></text>
  </g>
</svg>
