<svg xmlns="http://www.w3.org/2000/svg" width="168" height="109" viewBox="0 0 168 109">
  <g id="Group_3256" data-name="Group 3256" transform="translate(21506 -16200)">
    <rect id="Rectangle_137545" data-name="Rectangle 137545" width="168" height="109" transform="translate(-21506 16200)" fill="#eee"/>
    <g id="Group_3248" data-name="Group 3248" transform="translate(9 -4)">
      <path id="noun_Tablet_867078" d="M70.017,2.167H17.309a5.073,5.073,0,0,0-4.936,5.2V80.594a5.074,5.074,0,0,0,4.936,5.2H70.017a5.073,5.073,0,0,0,4.935-5.2V7.369A5.074,5.074,0,0,0,70.017,2.167ZM40.551,5.481h6.7c.5,0,.905.3.905.679s-.406.679-.905.679h-6.7c-.5,0-.9-.3-.9-.679S40.051,5.481,40.551,5.481Zm3.112,77.225a2.3,2.3,0,1,1,2.3-2.3A2.3,2.3,0,0,1,43.663,82.707Zm28.184-7.946H15.476V10.435H71.847Z" transform="translate(-21474.342 16214.592)" fill="#fff"/>
      <path id="Rectangle_1288" data-name="Rectangle 1288" d="M0,0H55.443V63.231H0Z" transform="translate(-21458.355 16225.302)" fill="#fff" opacity="0.5"/>
    </g>
  </g>
</svg>
