<svg xmlns="http://www.w3.org/2000/svg" width="48.246" height="85.956" viewBox="0 0 48.246 85.956">
  <g id="Group_3251" data-name="Group 3251" transform="translate(-151.107 -228.899)">
    <g id="noun_Phone_1375627_1_" data-name="noun_Phone_1375627 (1)" transform="translate(151.208 229)">
      <path id="Path_1909" data-name="Path 1909" d="M33.267,958.365a6.223,6.223,0,0,0-4.382,1.657A5.885,5.885,0,0,0,27,964.21v74.059a5.885,5.885,0,0,0,1.885,4.188,6.224,6.224,0,0,0,4.382,1.657H68.78a6.224,6.224,0,0,0,4.382-1.657,5.885,5.885,0,0,0,1.885-4.188V964.21a5.884,5.884,0,0,0-1.884-4.19,6.223,6.223,0,0,0-4.383-1.658H33.267Zm11.489,3.886H57.278a.975.975,0,1,1,0,1.948H44.755a.975.975,0,1,1,0-1.948ZM31.167,968.1h39.7v62.367h-39.7Zm19.844,65.3a3.9,3.9,0,1,1-4.178,3.886,4.046,4.046,0,0,1,4.188-3.881Z" transform="translate(-27 -958.36)" fill="#cecece" stroke="#fff" stroke-width="0.2"/>
    </g>
    <g id="Group_2388" data-name="Group 2388" transform="translate(157.04 253.695)">
      <g id="Ellipse_688" data-name="Ellipse 688" transform="translate(1.96 2.305)" fill="#cecece" stroke="#707070" stroke-width="1">
        <ellipse cx="16" cy="15.5" rx="16" ry="15.5" stroke="none"/>
        <ellipse cx="16" cy="15.5" rx="15.5" ry="15" fill="none"/>
      </g>
      <path id="noun_Question_670398" d="M20.868,3A17.868,17.868,0,1,0,38.736,20.868,17.868,17.868,0,0,0,20.868,3Zm-.243,29.623a2.045,2.045,0,1,1,2.045-2.045A2.045,2.045,0,0,1,20.625,32.623Zm2.235-9.93s-.2.072-.2.19v1.623a2.036,2.036,0,1,1-4.072,0V22.883a4.3,4.3,0,0,1,2.969-4.049A2.889,2.889,0,0,0,23.529,16a2.969,2.969,0,0,0-2.923-2.813,2.882,2.882,0,0,0-2.589,1.642,2.036,2.036,0,1,1-3.669-1.768,6.93,6.93,0,0,1,6.223-3.946h.042a7.026,7.026,0,0,1,6.98,6.763,6.938,6.938,0,0,1-4.729,6.813Z" transform="translate(-3 -3)" fill="#fff"/>
    </g>
  </g>
</svg>
