<svg xmlns="http://www.w3.org/2000/svg" xmlns:xlink="http://www.w3.org/1999/xlink" width="687" height="746" viewBox="0 0 687 746">
  <defs>
    <clipPath id="clip-path">
      <rect id="Rectangle_1197" data-name="Rectangle 1197" width="360" height="267" fill="#fff"/>
    </clipPath>
    <filter id="Path_1917" x="208" y="412" width="128" height="128" filterUnits="userSpaceOnUse">
      <feOffset dy="3" input="SourceAlpha"/>
      <feGaussianBlur stdDeviation="3" result="blur"/>
      <feFlood flood-opacity="0.161"/>
      <feComposite operator="in" in2="blur"/>
      <feComposite in="SourceGraphic"/>
    </filter>
    <filter id="Rectangle_1284" x="328" y="412" width="128" height="128" filterUnits="userSpaceOnUse">
      <feOffset dy="3" input="SourceAlpha"/>
      <feGaussianBlur stdDeviation="3" result="blur-2"/>
      <feFlood flood-opacity="0.161"/>
      <feComposite operator="in" in2="blur-2"/>
      <feComposite in="SourceGraphic"/>
    </filter>
  </defs>
  <g id="Group_3679" data-name="Group 3679" transform="translate(-385 -10508)">
    <rect id="Rectangle_137669" data-name="Rectangle 137669" width="687" height="746" transform="translate(385 10508)" fill="#fff" opacity="0.2"/>
    <g id="Group_3447" data-name="Group 3447" transform="translate(536 10575)">
      <g id="Mask_Group_56" data-name="Mask Group 56" clip-path="url(#clip-path)">
        <path id="Path_1355" data-name="Path 1355" d="M-22936,910.408s48.422,178.174,174.238,107.061,278.982-195.366,422.773-91.432,321.963-132.068,445.436-28.914,175.047,147.7,275.857,88.306,0-400.111,0-400.111l-1332.4,10.159Z" transform="translate(22505 -698)" fill="#2362c7"/>
      </g>
      <text id="Document_Owner" data-name="Document Owner" transform="translate(36 29)" fill="#fff" font-size="30" font-family="Montserrat-Medium, Montserrat" font-weight="500"><tspan x="0" y="29">Document Owner</tspan></text>
      <text id="More_ways_to_login" data-name="More ways to login" transform="translate(36 73)" fill="#fff" font-size="20" font-family="Montserrat-Medium, Montserrat" font-weight="500" opacity="0.69"><tspan x="0" y="19">More ways to login</tspan></text>
      <g id="Group_1715" data-name="Group 1715" transform="translate(0 -236)">
        <g id="Rectangle_1196" data-name="Rectangle 1196" transform="translate(37 336)" fill="#fff" stroke="rgba(35,98,199,0.3)" stroke-width="1">
          <rect width="286" height="453" rx="10" stroke="none"/>
          <rect x="0.5" y="0.5" width="285" height="452" rx="9.5" fill="none"/>
        </g>
      </g>
      <g id="Group_1666" data-name="Group 1666" transform="translate(-8 -41)">
        <path id="Path_1356" data-name="Path 1356" d="M10,0H200c5.523,0,10,3.731,10,8.333V41.667c0,4.6-4.477,8.333-10,8.333H10C4.477,50,0,46.269,0,41.667V8.333C0,3.731,4.477,0,10,0Z" transform="translate(84 532)" fill="#2975eb"/>
        <text id="Next" transform="translate(189.5 566)" fill="#fff" font-size="25" font-family="Montserrat-Medium, Montserrat" font-weight="500"><tspan x="-29.688" y="0">Next</tspan></text>
      </g>
      <g id="Group_1761" data-name="Group 1761" transform="translate(0 8)">
        <g id="noun_Arrow_711843" transform="translate(22 -405.365)">
          <path id="Path_1391" data-name="Path 1391" d="M18,995.492a2.207,2.207,0,0,0,.533,1.354L29.032,1008a2.255,2.255,0,0,0,2.871.164,2.05,2.05,0,0,0-.02-2.871L24.5,997.461H58.028a1.969,1.969,0,0,0,0-3.937H24.5l7.382-7.834a2.169,2.169,0,0,0,.02-2.871,2.226,2.226,0,0,0-2.871.164l-10.5,11.156A1.893,1.893,0,0,0,18,995.492Z" transform="translate(0 0)" fill="#2362c7"/>
        </g>
        <text id="Go_Back" data-name="Go Back" transform="translate(140 597)" fill="#2362c7" font-size="20" font-family="Montserrat-Medium, Montserrat" font-weight="500"><tspan x="-42.14" y="0">Go Back</tspan></text>
      </g>
      <text id="How_good_are_you_at_answering_security_questions_" data-name="How good are you at 
answering security questions?" transform="translate(181 137)" fill="#2362c7" font-size="16" font-family="Montserrat-Bold, Montserrat" font-weight="700"><tspan x="-89.192" y="0">How good are you at </tspan><tspan x="-127.928" y="19">answering security questions?</tspan></text>
      <text id="Example:_What_s_your_mother_s_maiden_name_" data-name="Example: &quot;What&apos;s your mother&apos;s maiden name?" transform="translate(53 164)" fill="#cecece" font-size="13" font-family="Montserrat-Bold, Montserrat" font-weight="700"><tspan x="18.975" y="13">Example: &quot;What&apos;s your mother&apos;s </tspan><tspan x="77.281" y="29">maiden name?</tspan></text>
      <g transform="matrix(1, 0, 0, 1, -151, -67)" filter="url(#Path_1917)">
        <path id="Path_1917-2" data-name="Path 1917" d="M26,0H84a26,26,0,0,1,26,26V84a26,26,0,0,1-26,26H26A26,26,0,0,1,0,84V26A26,26,0,0,1,26,0Z" transform="translate(217 418)" fill="#fff"/>
      </g>
      <text id="I_m_not_good" data-name="I&apos;m not good" transform="translate(120.93 442.102)" fill="#ababab" font-size="13" font-family="Montserrat-Bold, Montserrat" font-weight="700"><tspan x="-43.303" y="0">I&apos;m not good</tspan></text>
      <g id="Group_2337" data-name="Group 2337" transform="translate(93 368)">
        <circle id="Ellipse_676" data-name="Ellipse 676" cx="27" cy="27" r="27" fill="#ababab"/>
        <g id="Ellipse_679" data-name="Ellipse 679" transform="translate(12 16)" fill="#fff" stroke="#fff" stroke-width="1">
          <circle cx="4.5" cy="4.5" r="4.5" stroke="none"/>
          <circle cx="4.5" cy="4.5" r="4" fill="none"/>
        </g>
        <g id="Ellipse_680" data-name="Ellipse 680" transform="translate(33 16)" fill="#fff" stroke="#fff" stroke-width="1">
          <circle cx="4.5" cy="4.5" r="4.5" stroke="none"/>
          <circle cx="4.5" cy="4.5" r="4" fill="none"/>
        </g>
        <g id="Component_158_179" data-name="Component 158 – 179" transform="translate(17.957 36.414)">
          <path id="Path_1851" data-name="Path 1851" d="M-13460.542-9598.3a134.452,134.452,0,0,1,18.129-2.759" transform="translate(13460.542 9601.058)" fill="none" stroke="#fff" stroke-linecap="round" stroke-width="4"/>
        </g>
      </g>
      <g transform="matrix(1, 0, 0, 1, -151, -67)" filter="url(#Rectangle_1284)">
        <rect id="Rectangle_1284-2" data-name="Rectangle 1284" width="110" height="110" rx="26" transform="translate(337 418)" fill="#32a736"/>
      </g>
      <g id="Group_2337-2" data-name="Group 2337" transform="translate(214 368)">
        <circle id="Ellipse_676-2" data-name="Ellipse 676" cx="27" cy="27" r="27" fill="#fff"/>
        <g id="Ellipse_679-2" data-name="Ellipse 679" transform="translate(12 16)" fill="#32a736" stroke="#32a736" stroke-width="1">
          <circle cx="4.5" cy="4.5" r="4.5" stroke="none"/>
          <circle cx="4.5" cy="4.5" r="4" fill="none"/>
        </g>
        <g id="Ellipse_680-2" data-name="Ellipse 680" transform="translate(33 16)" fill="#32a736" stroke="#32a736" stroke-width="1">
          <circle cx="4.5" cy="4.5" r="4.5" stroke="none"/>
          <circle cx="4.5" cy="4.5" r="4" fill="none"/>
        </g>
        <g id="Component_158_180" data-name="Component 158 – 180" transform="translate(11.134 33.647)">
          <path id="Path_1853" data-name="Path 1853" d="M-13468.475-9601.988c3.791.523,25.38.8,29.454,0s-3.257,11.192-13.8,11.192S-13472.266-9602.511-13468.475-9601.988Z" transform="translate(13469.364 9602.026)" fill="#32a736"/>
        </g>
      </g>
      <text id="I_m_good" data-name="I&apos;m good" transform="translate(240.93 442.102)" fill="#fff" font-size="13" font-family="Montserrat-Bold, Montserrat" font-weight="700"><tspan x="-29.848" y="0">I&apos;m good</tspan></text>
      <path id="Path_1916" data-name="Path 1916" d="M-337.066,22.1C-376.788,22.1-376.788,32-376.788,32V64.94a49.508,49.508,0,0,0,25.3,43.166l14.424,8.1,14.425-8.173a49.511,49.511,0,0,0,25.3-43.166V32S-299.826,22.1-337.066,22.1Zm-.6,77.237A4.233,4.233,0,0,1-341.9,95.1a4.233,4.233,0,0,1,4.233-4.233,4.233,4.233,0,0,1,4.233,4.233A4.233,4.233,0,0,1-337.67,99.333Zm12.863-28.974c-4.781,3.053-7.919,5.263-7.919,8.317a3.73,3.73,0,0,1-3.735,3.724,3.73,3.73,0,0,1-3.735-3.724c0-7.374,6.4-11.371,11.38-14.6,2.564-1.613,6.051-3.847,6.051-5.263,0-9.137-1.022-16.137-13.7-16.137-13.323,0-13.7,10.029-13.7,11.171a3.729,3.729,0,0,1-3.735,3.724,3.73,3.73,0,0,1-3.735-3.724c0-6.43,4.433-18.619,21.166-18.619,21.166,0,21.166,16.534,21.166,23.585C-315.294,64.326-320.026,67.3-324.807,70.359Z" transform="translate(516.945 205)" fill="#cecece" fill-rule="evenodd"/>
    </g>
    <g id="Group_3640" data-name="Group 3640" transform="translate(780.227 10772.893) rotate(90)">
      <line id="Line_369" data-name="Line 369" x2="25.892" transform="translate(0 8.825)" fill="none" stroke="#1473e6" stroke-width="3"/>
      <line id="Line_368" data-name="Line 368" y2="11.25" transform="translate(0 3)" fill="none" stroke="#1473e6" stroke-width="3"/>
      <line id="Line_370" data-name="Line 370" y2="11.25" transform="translate(25.892 3)" fill="none" stroke="#1473e6" stroke-width="3"/>
    </g>
    <g id="Group_3644" data-name="Group 3644" transform="translate(673.227 10804.893) rotate(90)">
      <line id="Line_369-2" data-name="Line 369" x2="86.725" transform="translate(0 8.825)" fill="none" stroke="#1473e6" stroke-width="3"/>
      <line id="Line_368-2" data-name="Line 368" y2="11.25" transform="translate(0 3)" fill="none" stroke="#1473e6" stroke-width="3"/>
      <line id="Line_370-2" data-name="Line 370" y2="11.25" transform="translate(86.725 3)" fill="none" stroke="#1473e6" stroke-width="3"/>
    </g>
    <g id="Group_3645" data-name="Group 3645" transform="translate(677.836 10788.43)">
      <line id="Line_369-3" data-name="Line 369" x2="76.566" transform="translate(0 8.825)" fill="none" stroke="#1473e6" stroke-width="3"/>
      <line id="Line_368-3" data-name="Line 368" y2="11.25" transform="translate(0 3)" fill="none" stroke="#1473e6" stroke-width="3"/>
      <line id="Line_370-3" data-name="Line 370" y2="11.25" transform="translate(76.566 3)" fill="none" stroke="#1473e6" stroke-width="3"/>
    </g>
    <g id="Group_3643" data-name="Group 3643" transform="translate(725.227 10897.893) rotate(90)">
      <line id="Line_369-4" data-name="Line 369" x2="25.892" transform="translate(0 8.825)" fill="none" stroke="#1473e6" stroke-width="3"/>
      <line id="Line_368-4" data-name="Line 368" y2="11.25" transform="translate(0 3)" fill="none" stroke="#1473e6" stroke-width="3"/>
      <line id="Line_370-4" data-name="Line 370" y2="11.25" transform="translate(25.892 3)" fill="none" stroke="#1473e6" stroke-width="3"/>
    </g>
    <g id="Group_3642" data-name="Group 3642" transform="translate(853.949 10839.664) rotate(180)">
      <line id="Line_369-5" data-name="Line 369" x2="94.586" transform="translate(0 8.825)" fill="none" stroke="#1473e6" stroke-width="3"/>
      <line id="Line_368-5" data-name="Line 368" y2="11.25" transform="translate(0 3)" fill="none" stroke="#1473e6" stroke-width="3"/>
      <line id="Line_370-5" data-name="Line 370" y2="11.25" transform="translate(94.586 3)" fill="none" stroke="#1473e6" stroke-width="3"/>
    </g>
    <text id="_28px" data-name="28px" transform="translate(783 10772)" fill="#a9a9a9" font-size="23" font-family="Montserrat-Medium, Montserrat" font-weight="500"><tspan x="0" y="22">28px</tspan></text>
    <text id="_92px" data-name="92px" transform="translate(599 10831)" fill="#a9a9a9" font-size="23" font-family="Montserrat-Medium, Montserrat" font-weight="500"><tspan x="0" y="22">92px</tspan></text>
    <text id="_80px" data-name="80px" transform="translate(692 10769)" fill="#a9a9a9" font-size="23" font-family="Montserrat-Medium, Montserrat" font-weight="500"><tspan x="0" y="22">80px</tspan></text>
    <text id="_28px-2" data-name="28px" transform="translate(729 10896)" fill="#a9a9a9" font-size="23" font-family="Montserrat-Medium, Montserrat" font-weight="500"><tspan x="0" y="22">28px</tspan></text>
    <text id="_92px-2" data-name="92px" transform="translate(783 10835)" fill="#a9a9a9" font-size="23" font-family="Montserrat-Medium, Montserrat" font-weight="500"><tspan x="0" y="22">92px</tspan></text>
  </g>
</svg>
