<svg id="Group_3235" data-name="Group 3235" xmlns="http://www.w3.org/2000/svg" width="76.771" height="97.488" viewBox="0 0 76.771 97.488">
  <g id="Group_2318" data-name="Group 2318" transform="translate(0 0)">
    <path id="Subtraction_21" data-name="Subtraction 21" d="M69.579,97.488H7.193A7.2,7.2,0,0,1,2.122,95.4,7.093,7.093,0,0,1,0,90.372V7.116A7.093,7.093,0,0,1,2.122,2.09,7.2,7.2,0,0,1,7.193,0h45.7V18.2a6.206,6.206,0,0,0,6.229,6.174h17.65v66A7.1,7.1,0,0,1,74.649,95.4,7.2,7.2,0,0,1,69.579,97.488Zm4.706-76.661H59.115A2.642,2.642,0,0,1,56.463,18.2V2.624l17.821,18.2Z" transform="translate(0 0)" fill="#4ba9d9"/>
  </g>
  <g id="noun_replace_418805" transform="translate(9.777 29.788)">
    <g id="Group_2515" data-name="Group 2515" transform="translate(0 0)">
      <g id="Group_2514" data-name="Group 2514" transform="translate(0 0)">
        <path id="Path_1918" data-name="Path 1918" d="M33.361,17.342H44.034a8.009,8.009,0,0,1,8.019,8.024V41.345h5.342V25.367A13.351,13.351,0,0,0,44.034,12H33.361l-1.62,1.253L31.3,14.875l.442,1.548ZM44.034,54.736H33.361a8.031,8.031,0,0,1-8.019-8.013V33.368H20V46.723A13.373,13.373,0,0,0,33.361,60.078H44.034l1.345-.97V55.864l-1.345-1.128Z" transform="translate(-11.987 -12)" fill="#fff" fill-rule="evenodd"/>
        <path id="Path_1919" data-name="Path 1919" d="M20.573,36.782a2.671,2.671,0,0,0-3.777,0L8.782,44.8a2.671,2.671,0,1,0,3.777,3.777l6.124-5.9,6.124,5.9A2.671,2.671,0,0,0,28.586,44.8Z" transform="translate(-8 -19.974)" fill="#fff" fill-rule="evenodd"/>
        <path id="Path_1920" data-name="Path 1920" d="M66.684,46.678l-6.124-5.9a2.671,2.671,0,1,0-3.777,3.777L64.8,52.573a2.671,2.671,0,0,0,3.777,0l8.013-8.013a2.671,2.671,0,0,0-3.777-3.777Z" transform="translate(-23.948 -21.303)" fill="#fff" fill-rule="evenodd"/>
      </g>
    </g>
  </g>
</svg>
