<svg id="Group_3231" data-name="Group 3231" xmlns="http://www.w3.org/2000/svg" width="70.801" height="89.905" viewBox="0 0 70.801 89.905">
  <path id="Subtraction_21" data-name="Subtraction 21" d="M64.167,89.905H6.634a6.642,6.642,0,0,1-4.677-1.927A6.541,6.541,0,0,1,0,83.343V6.562A6.542,6.542,0,0,1,1.957,1.927,6.64,6.64,0,0,1,6.634,0H48.778V16.783a5.723,5.723,0,0,0,5.745,5.694H70.8V83.343a6.543,6.543,0,0,1-1.957,4.635A6.641,6.641,0,0,1,64.167,89.905Zm4.34-70.7H54.517a2.436,2.436,0,0,1-2.446-2.424V2.42L68.505,19.206Z" transform="translate(0 0)" fill="#4ba9d9"/>
</svg>
