<svg xmlns="http://www.w3.org/2000/svg" xmlns:xlink="http://www.w3.org/1999/xlink" width="180" height="137" viewBox="0 0 180 137">
  <defs>
    <filter id="Rectangle_137544" x="0" y="0" width="180" height="137" filterUnits="userSpaceOnUse">
      <feOffset dy="3" input="SourceAlpha"/>
      <feGaussianBlur stdDeviation="3" result="blur"/>
      <feFlood flood-opacity="0.161"/>
      <feComposite operator="in" in2="blur"/>
      <feComposite in="SourceGraphic"/>
    </filter>
  </defs>
  <g id="Group_3302" data-name="Group 3302" transform="translate(21515 -16049)">
    <g transform="matrix(1, 0, 0, 1, -21515, 16049)" filter="url(#Rectangle_137544)">
      <rect id="Rectangle_137544-2" data-name="Rectangle 137544" width="162" height="119" rx="17" transform="translate(9 6)" fill="#eee"/>
    </g>
    <g id="Group_3249" data-name="Group 3249" transform="translate(7 5)">
      <g id="Group_3247" data-name="Group 3247">
        <g id="noun_Laptop_3067137" transform="translate(-21482.414 16068.909)">
          <path id="Path_1913" data-name="Path 1913" d="M45.392,494.127,37.757,475.31A2.1,2.1,0,0,0,35.822,474h-80.89A2.1,2.1,0,0,0-47,475.31l-7.656,18.817A4.868,4.868,0,0,0-55,495.9v.443a2.945,2.945,0,0,0,2.941,2.941H42.773a2.945,2.945,0,0,0,2.941-2.941V495.9A4.463,4.463,0,0,0,45.392,494.127Zm-41.241-.363H-13.437a1.078,1.078,0,0,1-1.068-1.249l.987-6.084a.731.731,0,0,1,.705-.6h16.3a.7.7,0,0,1,.705.6l.987,6.084A1.03,1.03,0,0,1,4.151,493.764Z" transform="translate(55 -417.689)" fill="#2362c7"/>
          <path id="Path_1914" data-name="Path 1914" d="M-9.393,247.527h80.91a.9.9,0,0,0,.907-.907V195.407a.9.9,0,0,0-.907-.907H-9.393a.9.9,0,0,0-.907.907V246.62A.9.9,0,0,0-9.393,247.527Zm2.821-49.38H68.7V243.88H-6.573Z" transform="translate(19.306 -194.5)" fill="#2362c7"/>
        </g>
        <path id="Rectangle_1288" data-name="Rectangle 1288" d="M0,0H73.779V44.349H0Z" transform="translate(-21468.959 16073.302)" fill="#2362c7" opacity="0.5"/>
      </g>
    </g>
  </g>
</svg>
