<svg xmlns="http://www.w3.org/2000/svg" xmlns:xlink="http://www.w3.org/1999/xlink" width="255" height="234.5" viewBox="0 0 255 234.5">
  <defs>
    <clipPath id="clip-path">
      <path id="Subtraction_23" data-name="Subtraction 23" d="M952.7-1139.5H851v-112.45H698v112.45h-.3v-219h255v219Z" transform="translate(-553 2569)" fill="#2362c7" stroke="#2362c7" stroke-width="1"/>
    </clipPath>
  </defs>
  <g id="Group_1489" data-name="Group 1489" transform="translate(-144.703 -1210.5)">
    <text id="Life" transform="translate(145 1373)" fill="#2362c7" font-size="72" font-family="BrixSlab-Bold, Brix Slab" font-weight="700"><tspan x="0" y="0">Life</tspan></text>
    <text id="Files" transform="translate(145 1429)" fill="#2362c7" font-size="72" font-family="BrixSlab-Bold, Brix Slab" font-weight="700"><tspan x="0" y="0">Files</tspan></text>
    <g id="Mask_Group_92" data-name="Mask Group 92" clip-path="url(#clip-path)">
      <path id="Union_52" data-name="Union 52" d="M28.229,206.049a29.521,29.521,0,0,1-12.713-2.6,24.66,24.66,0,0,1-13.678-15.2A32.771,32.771,0,0,1,0,176.809q.094-7.951.155-15.9C.182,129.8.278,110.3.327,75.868q0-13.815.025-27.629c0-5.206,0-10.727,0-16.6H.41q.014-2.984.032-5.971C.534,10.143,9.627.782,24.587.4,33.727.16,42.874.175,52.02.191,60.846.2,69.672.219,78.5.008c9.589-.226,16.343,4.334,22.186,11.352,2.962,3.56,5.891,7.157,8.965,10.612a26.115,26.115,0,0,0,20.774,9.271c11.77-.031,23.546.142,35.322.319q4.669.069,9.338.135l41.32.014.588-.012a31.219,31.219,0,0,1,9,1.062,23.654,23.654,0,0,1,14.806,10.836,31.159,31.159,0,0,1,4.647,16.458c.038,1.061.009,1.681.009,1.681s-.1,60.489-.109,107.8q.073,3.473.157,6.947a29.778,29.778,0,0,1-2.716,13.361c-4.138,9.331-13,16.41-24.775,16.182-.483.012-.966.011-1.453,0-14.985-.4-29.979-.475-44.974-.443-16,.04-32.013.194-48.013.2h-1.187c-9.227,0-18.453-.056-27.68-.115-10.327-.063-20.657-.126-30.981-.109-11.209.026-22.417.151-33.617.48q-.629.019-1.248.019C28.645,206.053,28.435,206.052,28.229,206.049Z" transform="translate(150.798 1215.973)" fill="none" stroke="#2362c7" stroke-width="7"/>
    </g>
  </g>
</svg>
