<svg id="Group_3225" data-name="Group 3225" xmlns="http://www.w3.org/2000/svg" width="62.35" height="79.984" viewBox="0 0 62.35 79.984">
  <path id="Path_1921" data-name="Path 1921" d="M111.748,25.871h-5.491V5.936H70.591c4.618,2.695,8.309,5.044,12.185,7.03,2.464,1.267,3.281,2.968,3.259,5.688-.111,12.326-.048,24.654-.048,36.981v4.81h20.105V45.069h5.644c0,6.2.089,12.263-.044,18.324-.053,2.44-1.886,3.018-4.012,3.006-5.78-.033-11.56-.014-17.35-.016H85.972c0,3.456.094,6.639-.025,9.814-.136,3.682-1.934,4.724-5.1,2.931-7.413-4.194-14.825-8.392-22.1-12.819a5.44,5.44,0,0,1-2.2-3.932c-.141-19.507-.073-39.015-.122-58.524C56.422,1.056,57.681,0,60.3,0q23.722.044,47.445.014c2.117,0,3.937.548,3.968,3.031C111.811,10.553,111.748,18.062,111.748,25.871Z" transform="translate(-56.43)" fill="#4ba9d9"/>
  <path id="Path_1922" data-name="Path 1922" d="M274.708,172.334c3.905,0,7.423.027,10.935-.008,2.937-.03,4.616-1.262,4.394-3.332-.277-2.571-2.084-3.188-4.329-3.165-3.523.037-7.047.009-11,.009,0-1.762.052-3.366-.013-4.966-.1-2.353-.983-2.932-2.781-1.662-3.906,2.763-7.736,5.654-11.582,8.512-1.211.9-1.236,1.89,0,2.8,3.932,2.9,7.845,5.833,11.832,8.658,1.653,1.17,2.471.3,2.529-1.5C274.751,176.051,274.708,174.412,274.708,172.334Z" transform="translate(-227.708 -133.784)" fill="#4ba9d9"/>
</svg>
