<svg xmlns="http://www.w3.org/2000/svg" width="687" height="212" viewBox="0 0 687 212">
  <g id="Group_3674" data-name="Group 3674" transform="translate(-385 -9385)">
    <rect id="Rectangle_137655" data-name="Rectangle 137655" width="687" height="212" transform="translate(385 9385)" fill="none"/>
    <g id="Group_3567" data-name="Group 3567" transform="translate(22164 -11197)">
      <g id="Group_3561" data-name="Group 3561" transform="translate(-21693 20644.645)">
        <g id="Group_3559" data-name="Group 3559" transform="translate(11.684)">
          <g id="Group_1850" data-name="Group 1850" transform="translate(38.617 0)">
            <g id="_3" data-name=" 3" transform="translate(15.126 11.006)" style="isolation: isolate">
              <text id="_3-2" data-name="3" transform="translate(0 34)" fill="#fff" font-size="35" font-family="Montserrat-Medium, Montserrat" font-weight="500" style="isolation: isolate"><tspan x="0" y="0">3</tspan></text>
            </g>
            <g id="Group_1602" data-name="Group 1602" transform="translate(0 0)">
              <g id="Group_1602-2" data-name="Group 1602-2">
                <g id="Component_68_5" data-name="Component 68 5">
                  <g id="Group_977" data-name="Group 977">
                    <path id="Subtraction_21" data-name="Subtraction 21" d="M1304.339,590.064H1257.8a5.379,5.379,0,0,1-5.371-5.333v-62.4A5.377,5.377,0,0,1,1257.8,517h34.124v13.639a4.633,4.633,0,0,0,4.634,4.627h13.139v49.472a5.36,5.36,0,0,1-5.356,5.327Zm3.645-57.513h-11.36a1.979,1.979,0,0,1-1.987-1.969V518.919l13.345,13.63Z" transform="translate(-1252.427 -517)" fill="#7f7f7f"/>
                  </g>
                  <g id="_3-3" data-name=" 3" transform="translate(14.408 15.38)" style="isolation: isolate">
                    <text id="_4" data-name="4" transform="translate(0.291 39.976)" fill="#fff" font-size="41" font-family="Montserrat-Medium, Montserrat" font-weight="500" style="isolation: isolate"><tspan x="0" y="0">4</tspan></text>
                  </g>
                </g>
              </g>
            </g>
          </g>
          <text id="Documents_Shared" data-name="Documents 
Shared" transform="translate(64.316 99.355)" fill="#7f7f7f" font-size="20" font-family="Montserrat-Bold, Montserrat" font-weight="700"><tspan x="-63.85" y="0">Documents </tspan><tspan x="-36.91" y="23">Shared</tspan></text>
        </g>
        <text id="_12px" data-name="12px" transform="translate(0 58.355)" fill="#6e6e6e" font-size="23" font-family="Montserrat-Medium, Montserrat" font-weight="500" opacity="0.5"><tspan x="0" y="22">12px</tspan></text>
        <g id="Group_3560" data-name="Group 3560" transform="translate(73.536 85.889) rotate(-90)">
          <line id="Line_369" data-name="Line 369" x2="10.785" transform="translate(0 5.054)" fill="none" stroke="#1473e6" stroke-width="3"/>
          <line id="Line_368" data-name="Line 368" y2="10.108" transform="translate(0 0)" fill="none" stroke="#1473e6" stroke-width="3"/>
          <line id="Line_370" data-name="Line 370" y2="10.108" transform="translate(10.785 0)" fill="none" stroke="#1473e6" stroke-width="3"/>
        </g>
      </g>
      <g id="Group_3565" data-name="Group 3565" transform="translate(-21583.514 20645.967)">
        <g id="Group_3563" data-name="Group 3563" transform="translate(0 70.445) rotate(-90)">
          <line id="Line_369-2" data-name="Line 369" x2="70.445" transform="translate(0 5.054)" fill="none" stroke="#1473e6" stroke-width="3"/>
          <line id="Line_368-2" data-name="Line 368" y2="10.108" transform="translate(0 0)" fill="none" stroke="#1473e6" stroke-width="3"/>
          <line id="Line_370-2" data-name="Line 370" y2="10.108" transform="translate(70.445 0)" fill="none" stroke="#1473e6" stroke-width="3"/>
        </g>
        <text id="_64px" data-name="64px" transform="translate(12.516 23.031)" fill="#6e6e6e" font-size="23" font-family="Montserrat-Medium, Montserrat" font-weight="500" opacity="0.5"><tspan x="0" y="22">64px</tspan></text>
      </g>
      <g id="Group_3566" data-name="Group 3566" transform="translate(-21641.58 20632.963)">
        <line id="Line_369-3" data-name="Line 369" x2="55.398" transform="translate(0 5.054)" fill="none" stroke="#1473e6" stroke-width="3"/>
        <line id="Line_368-3" data-name="Line 368" y2="10.108" transform="translate(0 0)" fill="none" stroke="#1473e6" stroke-width="3"/>
        <line id="Line_370-3" data-name="Line 370" y2="10.108" transform="translate(55.398 0)" fill="none" stroke="#1473e6" stroke-width="3"/>
      </g>
      <text id="_52px" data-name="52px" transform="translate(-21638 20606)" fill="#6e6e6e" font-size="23" font-family="Montserrat-Medium, Montserrat" font-weight="500" opacity="0.5"><tspan x="0" y="22">52px</tspan></text>
    </g>
    <g id="Group_3571" data-name="Group 3571" transform="translate(22513 -11434)">
      <g id="Group_3568" data-name="Group 3568" transform="translate(-21702.729 20881.336)">
        <g id="Group_1605" data-name="Group 1605" transform="translate(0 0)">
          <g id="_3-4" data-name=" 3" transform="translate(15.347 11.167)" style="isolation: isolate">
            <text id="_3-5" data-name="3" transform="translate(0 33)" fill="#fff" font-size="34" font-family="Montserrat-Medium, Montserrat" font-weight="500" style="isolation: isolate"><tspan x="0" y="0">3</tspan></text>
          </g>
          <g id="Group_1602-2-2" data-name="Group 1602" transform="translate(0 0)">
            <g id="Group_1602-2-3" data-name="Group 1602-2">
              <g id="Component_68_5-2" data-name="Component 68 5">
                <g id="Group_977-2" data-name="Group 977">
                  <path id="Subtraction_21-2" data-name="Subtraction 21" d="M1305.1,591.134h-47.222a5.458,5.458,0,0,1-5.45-5.411V522.411a5.456,5.456,0,0,1,5.45-5.411H1292.5v13.839a4.7,4.7,0,0,0,4.7,4.7h13.331v50.2a5.438,5.438,0,0,1-5.434,5.4Zm3.7-58.356h-11.526a2.008,2.008,0,0,1-2.016-2V518.947l13.54,13.83Z" transform="translate(-1252.427 -517)" fill="#7f7f7f"/>
                </g>
                <g id="_3-6" data-name=" 3" transform="translate(14.048 14.633)" style="isolation: isolate">
                  <text id="_4-2" data-name="4" transform="translate(-0.319 41.031)" fill="#fff" font-size="42" font-family="Montserrat-Medium, Montserrat" font-weight="500" style="isolation: isolate"><tspan x="0" y="0">4</tspan></text>
                </g>
              </g>
            </g>
          </g>
        </g>
        <text id="Documents_Shared-2" data-name="Documents 
Shared" transform="translate(78.729 39.664)" fill="#7f7f7f" font-size="20" font-family="Montserrat-Bold, Montserrat" font-weight="700"><tspan x="0" y="0">Documents </tspan><tspan x="0" y="22">Shared</tspan></text>
      </g>
      <g id="Group_3563-2" data-name="Group 3563" transform="translate(-21715.699 20955.303) rotate(-90)">
        <line id="Line_369-4" data-name="Line 369" x2="71.705" transform="translate(0 5.144)" fill="none" stroke="#1473e6" stroke-width="3"/>
        <line id="Line_368-4" data-name="Line 368" y2="10.288" transform="translate(0 0)" fill="none" stroke="#1473e6" stroke-width="3"/>
        <line id="Line_370-4" data-name="Line 370" y2="10.288" transform="translate(71.705 0)" fill="none" stroke="#1473e6" stroke-width="3"/>
      </g>
      <text id="_64px-2" data-name="64px" transform="translate(-21775 20907)" fill="#6e6e6e" font-size="23" font-family="Montserrat-Medium, Montserrat" font-weight="500" opacity="0.5"><tspan x="0" y="22">64px</tspan></text>
      <g id="Group_3570" data-name="Group 3570" transform="translate(-21702.533 20869.441)">
        <line id="Line_369-5" data-name="Line 369" x2="56.389" transform="translate(0 5.144)" fill="none" stroke="#1473e6" stroke-width="3"/>
        <line id="Line_368-5" data-name="Line 368" y2="10.288" transform="translate(0 0)" fill="none" stroke="#1473e6" stroke-width="3"/>
        <line id="Line_370-5" data-name="Line 370" y2="10.288" transform="translate(56.389 0)" fill="none" stroke="#1473e6" stroke-width="3"/>
      </g>
      <text id="_52px-2" data-name="52px" transform="translate(-21699 20842)" fill="#6e6e6e" font-size="23" font-family="Montserrat-Medium, Montserrat" font-weight="500" opacity="0.5"><tspan x="0" y="22">52px</tspan></text>
    </g>
    <text id="_20px" data-name="20px" transform="translate(872 9497)" fill="#6e6e6e" font-size="23" font-family="Montserrat-Medium, Montserrat" font-weight="500" opacity="0.5"><tspan x="0" y="22">20px</tspan></text>
    <g id="Group_3572" data-name="Group 3572" transform="translate(886.773 9486.195) rotate(180)">
      <line id="Line_369-6" data-name="Line 369" x2="15.986" transform="translate(0 5.054)" fill="none" stroke="#1473e6" stroke-width="3"/>
      <line id="Line_368-6" data-name="Line 368" y2="10.108" transform="translate(0 0)" fill="none" stroke="#1473e6" stroke-width="3"/>
      <line id="Line_370-6" data-name="Line 370" y2="10.108" transform="translate(15.986 0)" fill="none" stroke="#1473e6" stroke-width="3"/>
    </g>
  </g>
</svg>
