<svg xmlns="http://www.w3.org/2000/svg" xmlns:xlink="http://www.w3.org/1999/xlink" width="687" height="746" viewBox="0 0 687 746">
  <defs>
    <clipPath id="clip-path">
      <rect id="Rectangle_137672" data-name="Rectangle 137672" width="360" height="320" fill="#fff" stroke="#707070" stroke-width="1"/>
    </clipPath>
  </defs>
  <g id="Group_3681" data-name="Group 3681" transform="translate(-385 -11344)">
    <path id="Path_2055" data-name="Path 2055" d="M0,0H687V746H0Z" transform="translate(385 11344)" fill="#fff" opacity="0.2"/>
    <g id="Group_3450" data-name="Group 3450" transform="translate(549 11415)">
      <g id="Mask_Group_77" data-name="Mask Group 77" clip-path="url(#clip-path)">
        <path id="Path_1355" data-name="Path 1355" d="M-22936,910.408s48.422,178.174,174.238,107.061,278.982-195.366,422.773-91.432,321.963-132.068,445.436-28.914,175.047,147.7,275.857,88.306,0-400.111,0-400.111l-1332.4,10.159Z" transform="translate(22150 -698)" fill="#2362c7" stroke="#707070" stroke-width="1"/>
      </g>
      <text id="Owner" transform="translate(36 29)" fill="#fff" font-size="30" font-family="Montserrat-Medium, Montserrat" font-weight="500"><tspan x="0" y="29">Owner</tspan></text>
      <text id="More_ways_to_login" data-name="More ways to login" transform="translate(36 71)" fill="#fff" font-size="18" font-family="Montserrat-Medium, Montserrat" font-weight="500" opacity="0.45"><tspan x="0" y="17">More ways to login</tspan></text>
      <g id="Group_1750" data-name="Group 1750" transform="translate(0 -46)">
        <g id="Component_112_6" data-name="Component 112 – 6" transform="translate(40 152)">
          <g id="Rectangle_1185" data-name="Rectangle 1185" fill="#fff" stroke="rgba(112,112,112,0.36)" stroke-width="1">
            <rect width="280" height="454" rx="5" stroke="none"/>
            <rect x="0.5" y="0.5" width="279" height="453" rx="4.5" fill="none"/>
          </g>
        </g>
        <g id="Group_1667" data-name="Group 1667" transform="translate(0 11)">
          <text id="Password" transform="translate(72 332)" fill="rgba(72,72,72,0.77)" font-size="18" font-family="Montserrat-Regular, Montserrat"><tspan x="0" y="0">Password</tspan></text>
          <g id="Rectangle_1187" data-name="Rectangle 1187" transform="translate(72 339)" fill="#e8f0fe" stroke="rgba(112,112,112,0.27)" stroke-width="1">
            <rect width="224" height="35" rx="8" stroke="none"/>
            <rect x="0.5" y="0.5" width="223" height="34" rx="7.5" fill="none"/>
          </g>
          <text id="_" data-name="*********" transform="translate(86 364)" fill="rgba(72,72,72,0.77)" font-size="15" font-family="Montserrat-Regular, Montserrat"><tspan x="0" y="0">*********</tspan></text>
        </g>
        <g id="Group_1862" data-name="Group 1862" transform="translate(0 95)">
          <text id="Confirm_Password" data-name="Confirm Password" transform="translate(72 332)" fill="rgba(72,72,72,0.77)" font-size="18" font-family="Montserrat-Regular, Montserrat"><tspan x="0" y="0">Confirm Password</tspan></text>
          <g id="Rectangle_1187-2" data-name="Rectangle 1187" transform="translate(72 339)" fill="#e8f0fe" stroke="rgba(112,112,112,0.27)" stroke-width="1">
            <rect width="224" height="35" rx="8" stroke="none"/>
            <rect x="0.5" y="0.5" width="223" height="34" rx="7.5" fill="none"/>
          </g>
          <text id="_2" data-name="*********" transform="translate(86 365)" fill="rgba(72,72,72,0.77)" font-size="15" font-family="Montserrat-Regular, Montserrat"><tspan x="0" y="0">*********</tspan></text>
        </g>
        <g id="Group_1666" data-name="Group 1666" transform="translate(-9 -7)">
          <path id="Path_1356" data-name="Path 1356" d="M10,0H200c5.523,0,10,3.731,10,8.333V41.667c0,4.6-4.477,8.333-10,8.333H10C4.477,50,0,46.269,0,41.667V8.333C0,3.731,4.477,0,10,0Z" transform="translate(84 532)" fill="#2975eb"/>
          <text id="Set_Password" data-name="Set Password" transform="translate(189.5 566)" fill="#fff" font-size="25" font-family="Montserrat-Medium, Montserrat" font-weight="500"><tspan x="-85.15" y="0">Set Password</tspan></text>
        </g>
        <text id="Password-2" data-name="Password" transform="translate(180.5 195)" fill="#2362c7" font-size="25" font-family="Montserrat-Bold, Montserrat" font-weight="700"><tspan x="-63.463" y="0">Password</tspan></text>
      </g>
      <g id="Group_1759" data-name="Group 1759">
        <path id="Path_1391" data-name="Path 1391" d="M18,995.492a2.207,2.207,0,0,0,.533,1.354L29.032,1008a2.255,2.255,0,0,0,2.871.164,2.05,2.05,0,0,0-.02-2.871L24.5,997.461H58.028a1.969,1.969,0,0,0,0-3.937H24.5l7.382-7.834a2.169,2.169,0,0,0,.02-2.871,2.226,2.226,0,0,0-2.871.164l-10.5,11.156A1.893,1.893,0,0,0,18,995.492Z" transform="translate(22 -405.365)" fill="#2362c7"/>
        <text id="Go_Back" data-name="Go Back" transform="translate(140 597)" fill="#2362c7" font-size="20" font-family="Montserrat-Medium, Montserrat" font-weight="500"><tspan x="-42.14" y="0">Go Back</tspan></text>
      </g>
      <g id="Group_1861" data-name="Group 1861" transform="translate(-50 -70)">
        <path id="Path_1527" data-name="Path 1527" d="M93.84,44.735H92.614V38.81A9.919,9.919,0,0,0,82.7,28.9H79.129a9.919,9.919,0,0,0-9.91,9.91v5.925H67.993A4.361,4.361,0,0,0,63.6,49.128V67.518a4.361,4.361,0,0,0,4.393,4.393H93.84a4.361,4.361,0,0,0,4.393-4.393V49.128A4.426,4.426,0,0,0,93.84,44.735ZM83.828,64.146a.717.717,0,0,1-.715.919H78.72a.753.753,0,0,1-.715-.919l1.43-5.721a3.383,3.383,0,0,1-2.043-3.167,3.474,3.474,0,1,1,6.947,0A3.383,3.383,0,0,1,82.3,58.425Zm2.861-19.411H75.144V38.81a3.989,3.989,0,0,1,3.984-3.984H82.7a3.989,3.989,0,0,1,3.984,3.984Z" transform="translate(168.767 209.1)" fill="#888"/>
        <path id="Path_1528" data-name="Path 1528" d="M25.266,49.7a1.756,1.756,0,0,0-2.411-.6l-3.014,1.688v-3.5a1.688,1.688,0,0,0-3.375,0v3.5L13.453,49.1a1.757,1.757,0,1,0-1.808,3.014L14.658,53.8l-3.014,1.688a1.756,1.756,0,0,0-.6,2.411,1.574,1.574,0,0,0,1.447.844,2.234,2.234,0,0,0,.844-.241l3.014-1.688v3.5a1.688,1.688,0,0,0,3.375,0v-3.5L22.735,58.5a2.235,2.235,0,0,0,.844.241,1.672,1.672,0,0,0,1.447-.844,1.756,1.756,0,0,0-.6-2.411L21.409,53.8l3.014-1.688A1.8,1.8,0,0,0,25.266,49.7Z" transform="translate(179.205 212.531)" fill="#888"/>
        <path id="Path_1529" data-name="Path 1529" d="M42.766,49.7a1.756,1.756,0,0,0-2.411-.6l-3.014,1.688v-3.5a1.688,1.688,0,1,0-3.375,0v3.5L30.953,49.1a1.757,1.757,0,0,0-1.808,3.014L32.158,53.8l-3.014,1.688a1.756,1.756,0,0,0-.6,2.411,1.574,1.574,0,0,0,1.447.844,2.235,2.235,0,0,0,.844-.241l3.014-1.688v3.5a1.688,1.688,0,1,0,3.375,0v-3.5L40.235,58.5a2.235,2.235,0,0,0,.844.241,1.672,1.672,0,0,0,1.447-.844,1.756,1.756,0,0,0-.6-2.411L38.909,53.8l3.014-1.688A1.8,1.8,0,0,0,42.766,49.7Z" transform="translate(182.801 212.531)" fill="#888"/>
        <path id="Path_1530" data-name="Path 1530" d="M51.641,40.288c0-.964-.474-1.688-1.106-1.688H8.741C5.265,38.6,2.5,42.94,2.5,48.123v14.1c0,5.3,2.844,9.523,6.241,9.523H46.19c.632,0,1.106-.723,1.106-1.688s-.474-1.688-1.106-1.688H8.741c-2.212,0-4.029-2.772-4.029-6.148v-14.1c0-3.375,1.817-6.148,4.029-6.148H50.535C51.167,42.1,51.641,41.252,51.641,40.288Z" transform="translate(177.5 211.093)" fill="#888"/>
      </g>
      <text id="Please_choose_a_password_to_log_into_your_account" data-name="Please choose a password to log into your account" transform="translate(68 230)" fill="rgba(72,72,72,0.77)" font-size="15" font-family="Montserrat-Medium, Montserrat" font-weight="500"><tspan x="3.668" y="15">Please choose a password to </tspan><tspan x="31.485" y="34">log into your account</tspan></text>
      <text id="Password_Set_" data-name="Password Set!" transform="translate(180 452)" fill="#32a736" font-size="15" font-family="Montserrat-Regular, Montserrat"><tspan x="-52.237" y="0">Password Set!</tspan></text>
    </g>
    <g id="Group_3652" data-name="Group 3652" transform="translate(756.227 11566.893) rotate(90)">
      <line id="Line_369" data-name="Line 369" x2="12.189" transform="translate(0 8.825)" fill="none" stroke="#1473e6" stroke-width="3"/>
      <line id="Line_368" data-name="Line 368" y2="11.25" transform="translate(0 3)" fill="none" stroke="#1473e6" stroke-width="3"/>
      <line id="Line_370" data-name="Line 370" y2="11.25" transform="translate(12.189 3)" fill="none" stroke="#1473e6" stroke-width="3"/>
    </g>
    <g id="Group_3654" data-name="Group 3654" transform="translate(768.508 11602.363)">
      <line id="Line_369-2" data-name="Line 369" x2="97.219" transform="translate(0 8.825)" fill="none" stroke="#1473e6" stroke-width="3"/>
      <line id="Line_368-2" data-name="Line 368" y2="11.25" transform="translate(0 3)" fill="none" stroke="#1473e6" stroke-width="3"/>
      <line id="Line_370-2" data-name="Line 370" y2="11.25" transform="translate(97.219 3)" fill="none" stroke="#1473e6" stroke-width="3"/>
    </g>
    <g id="Group_3653" data-name="Group 3653" transform="translate(797.227 11629.195) rotate(90)">
      <line id="Line_369-3" data-name="Line 369" x2="19.963" transform="translate(0 8.825)" fill="none" stroke="#1473e6" stroke-width="3"/>
      <line id="Line_368-3" data-name="Line 368" y2="11.25" transform="translate(0 3)" fill="none" stroke="#1473e6" stroke-width="3"/>
      <line id="Line_370-3" data-name="Line 370" y2="11.25" transform="translate(19.963 3)" fill="none" stroke="#1473e6" stroke-width="3"/>
    </g>
    <g id="Group_3655" data-name="Group 3655" transform="translate(678.227 11595.195) rotate(90)">
      <line id="Line_369-4" data-name="Line 369" x2="31.637" transform="translate(0 8.825)" fill="none" stroke="#1473e6" stroke-width="3"/>
      <line id="Line_368-4" data-name="Line 368" y2="11.25" transform="translate(0 3)" fill="none" stroke="#1473e6" stroke-width="3"/>
      <line id="Line_370-4" data-name="Line 370" y2="11.25" transform="translate(31.637 3)" fill="none" stroke="#1473e6" stroke-width="3"/>
    </g>
    <g id="Group_3656" data-name="Group 3656" transform="translate(679.783 11628.389)">
      <line id="Line_369-5" data-name="Line 369" x2="88.725" transform="translate(0 8.825)" fill="none" stroke="#1473e6" stroke-width="3"/>
      <line id="Line_368-5" data-name="Line 368" y2="11.25" transform="translate(0 3)" fill="none" stroke="#1473e6" stroke-width="3"/>
      <line id="Line_370-5" data-name="Line 370" y2="11.25" transform="translate(88.725 3)" fill="none" stroke="#1473e6" stroke-width="3"/>
    </g>
    <text id="_12px" data-name="12px" transform="translate(754 11560)" fill="#a9a9a9" font-size="23" font-family="Montserrat-Medium, Montserrat" font-weight="500"><tspan x="0" y="22">12px</tspan></text>
    <text id="_20px" data-name="20px" transform="translate(798 11625)" fill="#a9a9a9" font-size="23" font-family="Montserrat-Medium, Montserrat" font-weight="500"><tspan x="0" y="22">20px</tspan></text>
    <text id="_80px" data-name="80px" transform="translate(615 11621)" fill="#a9a9a9" font-size="23" font-family="Montserrat-Medium, Montserrat" font-weight="500"><tspan x="0" y="22">80px</tspan></text>
    <text id="_40px" data-name="40px" transform="translate(605 11595)" fill="#a9a9a9" font-size="23" font-family="Montserrat-Medium, Montserrat" font-weight="500"><tspan x="0" y="22">40px</tspan></text>
    <text id="_100px" data-name="100px" transform="translate(783 11581)" fill="#a9a9a9" font-size="23" font-family="Montserrat-Medium, Montserrat" font-weight="500"><tspan x="0" y="22">100px</tspan></text>
  </g>
</svg>
