<svg xmlns="http://www.w3.org/2000/svg" xmlns:xlink="http://www.w3.org/1999/xlink" width="1665" height="755" viewBox="0 0 1665 755">
  <defs>
    <clipPath id="clip-path">
      <rect id="Rectangle_1" data-name="Rectangle 1" width="1665" height="755" fill="#2362c7" stroke="#707070" stroke-width="1"/>
    </clipPath>
  </defs>
  <g id="hero-wave-tall" clip-path="url(#clip-path)">
    <path id="Path_2" data-name="Path 2" d="M-2175.708-149.543c-125.705,47.6-277.284,17.71-375.509-74.048-54.9-51.28-93.461-119.223-153.394-164.514-80.036-60.484-188.869-72.021-287.319-52.743-54.407,10.655-108.343,30.7-149.93,67.361-43.669,38.5-72.229,93.8-121.946,124.091-49.793,30.332-111.5,30.131-169.705,33.452s-121.649,13.833-160.1,57.663c-49.982,56.979-40.606,151.336-95.462,203.639-41.244,39.323-106.338,42.2-151.453,77.01-58.6,45.22-68.128,130.43-114.714,187.951,263.84,40.558,532.61,21.479,799.476,15.215,269.355-6.323,538.825.522,808.167,7.367a2730.5,2730.5,0,0,0,27.729-460.856" transform="translate(4018.708 463.486)" fill="#2362c7"/>
  </g>
</svg>
