<svg xmlns="http://www.w3.org/2000/svg" width="85.773" height="79.925" viewBox="0 0 85.773 79.925">
  <path id="noun_Settings_937614" d="M82.052,46.331l-2.572-2.588a31.657,31.657,0,0,0,0-7.533l2.572-2.572c1.534-1.526,4.286-3.547,3.429-5.472l-3.523-7.989c-.857-1.925-4.355-1.526-6.592-1.6l-3.8-.128a35.9,35.9,0,0,0-5.692-5.32l-.12-3.539c-.069-2.077.369-5.344-1.714-6.143L55.47.132c-2.057-.8-4.243,1.8-5.872,3.2l-2.769,2.4a39.068,39.068,0,0,0-8.092,0l-2.752-2.4c-1.629-1.422-3.806-3.994-5.872-3.2L21.541,3.415c-2.066.8-1.629,4.066-1.714,6.143l-.137,3.531A35.926,35.926,0,0,0,13.972,18.4l-3.789.112c-2.229.064-5.735-.344-6.592,1.6L.033,28.1c-.857,1.917,1.929,3.946,3.429,5.464l2.572,2.58a31.648,31.648,0,0,0,0,7.541L3.462,46.259C1.936,47.777-.824,49.8.033,51.723l3.523,7.989c.857,1.925,4.363,1.526,6.6,1.6l3.78.12a35.9,35.9,0,0,0,5.709,5.336l.111,3.523c.069,2.077-.369,5.352,1.714,6.151l8.572,3.315c2.057.8,4.235-1.8,5.863-3.2l2.777-2.4a39.077,39.077,0,0,0,8.075,0l2.76,2.4c1.637,1.43,3.8,3.994,5.863,3.2l8.572-3.283c2.066-.8,1.637-4.058,1.714-6.151L65.8,66.79a35.931,35.931,0,0,0,5.726-5.312l3.789-.112c2.229-.064,5.743.344,6.6-1.6l3.557-7.989C86.364,49.894,83.57,47.865,82.052,46.331ZM42.843,58.873C31.99,58.873,23.2,50.4,23.2,39.94S31.99,21.007,42.843,21.007,62.482,29.483,62.482,39.94,53.7,58.873,42.843,58.873Z" transform="translate(0.129 0.019)" fill="#4ab2de"/>
</svg>
