<svg xmlns="http://www.w3.org/2000/svg" width="62.578" height="83.63" viewBox="0 0 62.578 83.63">
  <path id="noun_Tablet_867078" d="M70.017,2.167H17.309a5.073,5.073,0,0,0-4.936,5.2V80.594a5.074,5.074,0,0,0,4.936,5.2H70.017a5.073,5.073,0,0,0,4.935-5.2V7.369A5.074,5.074,0,0,0,70.017,2.167ZM40.551,5.481h6.7c.5,0,.905.3.905.679s-.406.679-.905.679h-6.7c-.5,0-.9-.3-.9-.679S40.051,5.481,40.551,5.481Zm3.112,77.225a2.3,2.3,0,1,1,2.3-2.3A2.3,2.3,0,0,1,43.663,82.707Zm28.184-7.946H15.476V10.435H71.847Z" transform="translate(-12.373 -2.167)" fill="#4ba9d9"/>
</svg>
