<svg xmlns="http://www.w3.org/2000/svg" width="77.441" height="80.441" viewBox="0 0 77.441 80.441">
  <path id="Union_113" data-name="Union 113" d="M23875.8-11432.726a8.269,8.269,0,0,0,0,9.876,8.269,8.269,0,0,1,1.229,7.52,8.273,8.273,0,0,1-5.441,5.331,8.272,8.272,0,0,0-5.807,7.952,8.25,8.25,0,0,1-3.391,6.808,8.256,8.256,0,0,1-7.52,1.145,8.271,8.271,0,0,0-9.383,3.054,8.27,8.27,0,0,1-6.742,3.482,8.271,8.271,0,0,1-6.744-3.482,8.27,8.27,0,0,0-9.383-3.054,8.258,8.258,0,0,1-7.52-1.145,8.255,8.255,0,0,1-3.391-6.808,8.272,8.272,0,0,0-5.885-7.952,8.269,8.269,0,0,1-5.391-5.334,8.272,8.272,0,0,1,1.225-7.484,8.269,8.269,0,0,0,0-9.876,8.27,8.27,0,0,1-1.256-7.515,8.27,8.27,0,0,1,5.422-5.352,8.27,8.27,0,0,0,5.8-7.952,8.254,8.254,0,0,1,3.391-6.808,8.255,8.255,0,0,1,7.52-1.145,8.27,8.27,0,0,0,9.383-3.054,8.271,8.271,0,0,1,6.744-3.482,8.273,8.273,0,0,1,6.744,3.482,8.27,8.27,0,0,0,9.383,3.054,8.25,8.25,0,0,1,7.518,1.145,8.251,8.251,0,0,1,3.393,6.808,8.27,8.27,0,0,0,5.8,7.952,8.264,8.264,0,0,1,5.48,5.3A8.265,8.265,0,0,1,23875.8-11432.726Zm-24.92-4.469a4.87,4.87,0,0,0-3.443-1.428,4.863,4.863,0,0,0-3.443,1.428l-8.461,8.461-2.02-2.021a4.87,4.87,0,0,0-6.887,0,4.869,4.869,0,0,0,0,6.887l2.02,2.02,3.451,3.451a4.883,4.883,0,0,0,6.887,0l3.42-3.451,8.459-8.461a4.86,4.86,0,0,0,1.436-3.439A4.867,4.867,0,0,0,23850.881-11437.194Z" transform="translate(-23800 11468)" fill="#2362c7"/>
</svg>
