<svg xmlns="http://www.w3.org/2000/svg" width="65.891" height="78.228" viewBox="0 0 65.891 78.228">
  <path id="Union_109" data-name="Union 109" d="M13.931,78.228A14.1,14.1,0,0,1,3.9,74.6,12.913,12.913,0,0,1,0,64.776c0-1.573.054-3.127.159-4.62A45.433,45.433,0,0,1,.8,55.211a38.926,38.926,0,0,1,1.227-4.97A24.582,24.582,0,0,1,4.087,45.6,17.457,17.457,0,0,1,7.2,41.591a13.686,13.686,0,0,1,4.468-2.781,15.533,15.533,0,0,1,5.7-1.023c.8,0,1.586.327,3.089,1.3.941.607,2.024,1.3,3.225,2.056a18.4,18.4,0,0,0,4.163,1.818,16.315,16.315,0,0,0,10.194,0,18.364,18.364,0,0,0,4.166-1.818c1.211-.766,2.294-1.459,3.222-2.056,1.506-.972,2.285-1.3,3.092-1.3a15.545,15.545,0,0,1,5.7,1.023,13.807,13.807,0,0,1,4.468,2.781A17.535,17.535,0,0,1,61.8,45.6a24.381,24.381,0,0,1,2.062,4.636,38.392,38.392,0,0,1,1.23,4.97,45.577,45.577,0,0,1,.639,4.941c.1,1.49.159,3.044.159,4.62A12.915,12.915,0,0,1,62,74.6,14.1,14.1,0,0,1,51.96,78.228ZM19,32.162a18.147,18.147,0,0,1-5.571-13.321A18.152,18.152,0,0,1,19,5.52,18.5,18.5,0,0,1,32.448,0,18.493,18.493,0,0,1,45.9,5.52a18.143,18.143,0,0,1,5.574,13.321A18.152,18.152,0,0,1,45.9,32.162a18.5,18.5,0,0,1-13.452,5.52A18.506,18.506,0,0,1,19,32.162Z" fill="#484848"/>
</svg>
