<svg xmlns="http://www.w3.org/2000/svg" width="77.439" height="80.443" viewBox="0 0 77.439 80.443">
  <path id="Union_112" data-name="Union 112" d="M23832-11391.04a8.263,8.263,0,0,0-9.379-3.056,8.265,8.265,0,0,1-7.521-1.145,8.267,8.267,0,0,1-3.391-6.808,8.277,8.277,0,0,0-5.885-7.952,8.274,8.274,0,0,1-5.393-5.334,8.291,8.291,0,0,1,1.227-7.484,8.269,8.269,0,0,0,0-9.876,8.276,8.276,0,0,1-1.258-7.515,8.29,8.29,0,0,1,5.424-5.352,8.274,8.274,0,0,0,5.807-7.952,8.244,8.244,0,0,1,3.385-6.807,8.271,8.271,0,0,1,7.521-1.146,8.269,8.269,0,0,0,9.385-3.056,8.274,8.274,0,0,1,6.742-3.481,8.276,8.276,0,0,1,6.746,3.481,8.269,8.269,0,0,0,9.385,3.056,8.256,8.256,0,0,1,7.516,1.146,8.234,8.234,0,0,1,3.391,6.807,8.274,8.274,0,0,0,5.807,7.952,8.258,8.258,0,0,1,5.479,5.3,8.268,8.268,0,0,1-1.187,7.533,8.268,8.268,0,0,0,0,9.875,8.258,8.258,0,0,1,1.229,7.521,8.261,8.261,0,0,1-5.441,5.328,8.274,8.274,0,0,0-5.807,7.952,8.236,8.236,0,0,1-3.391,6.808,8.256,8.256,0,0,1-7.516,1.145,8.272,8.272,0,0,0-9.385,3.056,8.273,8.273,0,0,1-6.74,3.481A8.285,8.285,0,0,1,23832-11391.04Z" transform="translate(-23800 11468.002)" fill="#2362c7"/>
</svg>
