<svg xmlns="http://www.w3.org/2000/svg" width="83" height="104" viewBox="0 0 83 104">
  <g id="Group_3272" data-name="Group 3272" transform="translate(-877 -443)">
    <g id="Rectangle_1398" data-name="Rectangle 1398" transform="translate(877 443)" fill="#fff" stroke="#888" stroke-width="8">
      <rect width="83" height="104" rx="19" stroke="none"/>
      <rect x="4" y="4" width="75" height="96" rx="15" fill="none"/>
    </g>
    <g id="Group_2784" data-name="Group 2784" transform="translate(892.276 456.441)">
      <path id="Path_1980" data-name="Path 1980" d="M30.339,43.257a2.9,2.9,0,0,0,4.341,0l6.728-7.271a2.917,2.917,0,1,0-4.232-4.015l-4.666,4.992L31.1,35.444a2.914,2.914,0,0,0-4.124-.109,2.822,2.822,0,0,0-.109,4.124Z" transform="translate(-26.023 -31.062)" fill="#888"/>
      <path id="Path_1981" data-name="Path 1981" d="M37.067,50.671l-4.558,4.883L31.1,54.035a2.917,2.917,0,0,0-4.232,4.015l3.473,3.907a2.9,2.9,0,0,0,4.341,0l6.728-7.271a2.914,2.914,0,0,0-.109-4.124A3.047,3.047,0,0,0,37.067,50.671Z" transform="translate(-26.023 -29.469)" fill="#888"/>
      <path id="Path_1982" data-name="Path 1982" d="M37.067,69.376l-4.558,4.883L31.1,72.74a2.917,2.917,0,0,0-4.232,4.015l3.581,3.8a2.9,2.9,0,0,0,4.341,0l6.728-7.271a2.914,2.914,0,0,0-.109-4.124A3.181,3.181,0,0,0,37.067,69.376Z" transform="translate(-26.023 -27.881)" fill="#888"/>
      <path id="Path_1983" data-name="Path 1983" d="M73.432,53.1H47.93a2.93,2.93,0,1,0,0,5.86H73.54a2.918,2.918,0,0,0,2.93-2.93A3.085,3.085,0,0,0,73.432,53.1Z" transform="translate(-24.407 -29.185)" fill="#888"/>
      <path id="Path_1984" data-name="Path 1984" d="M47.93,34.4a2.93,2.93,0,0,0,0,5.86H73.54a2.93,2.93,0,0,0,0-5.86Z" transform="translate(-24.407 -30.778)" fill="#888"/>
      <path id="Path_1985" data-name="Path 1985" d="M73.432,71.8H47.93a2.93,2.93,0,1,0,0,5.86H73.54a2.918,2.918,0,0,0,2.93-2.93A3.012,3.012,0,0,0,73.432,71.8Z" transform="translate(-24.407 -27.592)" fill="#888"/>
    </g>
    <g id="noun_signature_1745297" transform="translate(898.597 515.97)">
      <g id="Group_1912" data-name="Group 1912" transform="translate(0 0)">
        <g id="Group_1911" data-name="Group 1911">
          <g id="Group_1910" data-name="Group 1910">
            <path id="Path_1575" data-name="Path 1575" d="M27.583,37.419a38.484,38.484,0,0,0,10.851-7.059,1.35,1.35,0,0,0-.948-2.265c-2.634-.105-4.636,1.528-6.585,3.055a58.839,58.839,0,0,0-4.846,4.109A97.117,97.117,0,0,1,13.36,39.526a1.31,1.31,0,0,0,.685,2.528c2.634-.737,5.268-1.528,7.849-2.423a57.548,57.548,0,0,0-6.637,9.587,1.311,1.311,0,0,0,2.265,1.317,57.186,57.186,0,0,1,8.218-11.273C26.319,38.631,26.951,38,27.583,37.419Z" transform="translate(-12.426 -28.091)" fill="#4ba9d9"/>
            <path id="Path_1576" data-name="Path 1576" d="M62.236,45.556a32.784,32.784,0,0,1-4.636.579,2.318,2.318,0,0,0-.105-.527,1.308,1.308,0,0,0-1.633-.9c-.421.158-3.477,1.422-3.74.948a1.3,1.3,0,0,0-1.791-.474,10.263,10.263,0,0,1-4.9,1.9,9.153,9.153,0,0,1,.527-1c.579-.9-.421-2.37-1.475-1.949A52.194,52.194,0,0,0,37.32,47.5a1.311,1.311,0,0,0,1.317,2.265c1.264-.685,2.528-1.37,3.845-1.949,0,.105-.053.158-.053.263a1.371,1.371,0,0,0,1.264,1.686,12.756,12.756,0,0,0,7.111-1.738c1.212.79,2.9.263,4.425-.263a1.381,1.381,0,0,0,.9.9c1.949.316,4.161-.211,6.11-.421C63.869,48.032,63.922,45.4,62.236,45.556Z" transform="translate(-23.901 -35.648)" fill="#4ba9d9"/>
          </g>
        </g>
      </g>
    </g>
  </g>
</svg>
