<svg xmlns="http://www.w3.org/2000/svg" width="81.152" height="93.637" viewBox="0 0 81.152 93.637">
  <g id="noun_security_question_2758596" data-name="noun_security question_2758596" transform="translate(-11 -5)">
    <path id="Path_1392" data-name="Path 1392" d="M91.96,18.357a6.377,6.377,0,0,1,.192,1.555V48.245A48.977,48.977,0,0,1,67.123,90.851L54.715,97.817a6.42,6.42,0,0,1-6.279,0L36.029,90.851A48.977,48.977,0,0,1,11,48.245V19.912c0-1.449.577-6.348,7.816-9.97C25.372,6.662,36.392,5,51.576,5,83.8,5,90.7,13.372,91.96,18.357ZM85.745,48.181V19.912s-2.136-8.521-34.169-8.521c-34.169,0-34.169,8.521-34.169,8.521V48.245A42.588,42.588,0,0,0,39.168,85.376l12.408,6.966,12.408-7.03A42.588,42.588,0,0,0,85.745,48.181ZM52.1,22.687C70.3,22.687,70.3,36.91,70.3,42.975c0,4.741-4.07,7.3-8.182,9.93s-6.812,4.527-6.812,7.154a3.213,3.213,0,0,1-6.426,0c0-6.343,5.5-9.781,9.789-12.557,2.206-1.388,5.205-3.31,5.205-4.527,0-7.859-.878-13.881-11.781-13.881-11.46,0-11.781,8.628-11.781,9.61a3.213,3.213,0,0,1-6.426,0C33.889,33.173,37.7,22.687,52.1,22.687Zm-1.04,55.142A3.641,3.641,0,1,1,54.7,74.187,3.641,3.641,0,0,1,51.056,77.829Z" transform="translate(0 0)" fill="#cecece" fill-rule="evenodd"/>
  </g>
</svg>
