<svg id="Group_3223" data-name="Group 3223" xmlns="http://www.w3.org/2000/svg" width="95.236" height="79.799" viewBox="0 0 95.236 79.799">
  <path id="Union_17" data-name="Union 17" d="M10.951,79.795a11.468,11.468,0,0,1-4.931-1.007A9.556,9.556,0,0,1,.714,72.9,12.672,12.672,0,0,1,0,68.472q.037-3.079.059-6.159c.012-12.048.049-19.6.073-32.932V12.253H.16q0-1.156.012-2.312C.207,3.929,3.735.3,9.538.155,13.084.063,16.631.069,20.179.075,23.6.08,27.023.085,30.451,0c3.72-.087,6.339,1.678,8.606,4.4,1.149,1.379,2.286,2.768,3.477,4.109A10.138,10.138,0,0,0,50.593,12.1c4.566-.012,9.134.055,13.7.124l3.622.053H84.174a12.127,12.127,0,0,1,3.491.411,9.175,9.175,0,0,1,5.743,4.2,12.051,12.051,0,0,1,1.8,6.373c.015.411,0,.651,0,.651s-.038,23.424-.042,41.747q.028,1.345.061,2.69a11.516,11.516,0,0,1-1.055,5.174,10.178,10.178,0,0,1-9.611,6.267H84c-5.813-.156-11.629-.185-17.446-.171-6.207.016-12.419.075-18.625.076h-.46c-3.579,0-7.158-.021-10.737-.045-4.006-.024-8.013-.049-12.018-.042-4.35.011-8.7.058-13.041.186q-.244.007-.484.007Z" transform="translate(0.002 0.002)" fill="#4ba9d9"/>
  <g id="noun_Lock_2231825" transform="translate(32.805 23.859)">
    <path id="Path_1830" data-name="Path 1830" d="M17.048,30.111v3.508a1.864,1.864,0,0,0,3.728,0V30.111a2.8,2.8,0,1,0-3.728,0ZM7.728,17.775V12.184a11.184,11.184,0,0,1,22.367,0v5.592h1.864a1.864,1.864,0,0,1,1.864,1.864v20.5a1.864,1.864,0,0,1-1.864,1.864H5.864A1.864,1.864,0,0,1,4,40.143v-20.5a1.864,1.864,0,0,1,1.864-1.864ZM18.911,4.728a7.456,7.456,0,0,0-7.456,7.456v5.592H26.367V12.184A7.456,7.456,0,0,0,18.911,4.728Z" transform="translate(-4 -1)" fill="#fff"/>
  </g>
</svg>
