<svg xmlns="http://www.w3.org/2000/svg" width="168" height="109" viewBox="0 0 168 109">
  <g id="Group_3261" data-name="Group 3261" transform="translate(-823 -3968)">
    <rect id="Rectangle_137496" data-name="Rectangle 137496" width="168" height="109" transform="translate(823 3968)" fill="#eee"/>
    <g id="Group_3004" data-name="Group 3004" transform="translate(853.549 3995.367)">
      <path id="Path_1527" data-name="Path 1527" d="M100.416,48.179H98.924V40.965A12.076,12.076,0,0,0,86.859,28.9H82.506A12.076,12.076,0,0,0,70.441,40.965v7.214H68.948A5.309,5.309,0,0,0,63.6,53.527V75.915a5.309,5.309,0,0,0,5.348,5.348h31.468a5.309,5.309,0,0,0,5.348-5.348V53.527A5.388,5.388,0,0,0,100.416,48.179ZM88.227,71.811a.872.872,0,0,1-.871,1.119H82.008a.917.917,0,0,1-.871-1.119l1.741-6.965a4.119,4.119,0,0,1-2.488-3.856,4.229,4.229,0,0,1,8.458,0,4.119,4.119,0,0,1-2.488,3.856ZM91.71,48.179H77.655V40.965a4.857,4.857,0,0,1,4.851-4.851h4.353a4.857,4.857,0,0,1,4.851,4.851Z" transform="translate(0.154 -28.9)" fill="#fff"/>
      <path id="Path_1528" data-name="Path 1528" d="M28.412,50.59a2.137,2.137,0,0,0-2.935-.734L21.808,51.91V47.655a2.055,2.055,0,0,0-4.109,0V51.91L14.03,49.856a2.139,2.139,0,1,0-2.2,3.669L15.5,55.579l-3.669,2.055a2.137,2.137,0,0,0-.734,2.935A1.916,1.916,0,0,0,12.856,61.6a2.721,2.721,0,0,0,1.027-.294l3.669-2.055V63.5a2.055,2.055,0,1,0,4.109,0V59.248L25.331,61.3a2.721,2.721,0,0,0,1.027.294,2.036,2.036,0,0,0,1.761-1.027,2.137,2.137,0,0,0-.734-2.935l-3.669-2.055,3.669-2.055A2.19,2.19,0,0,0,28.412,50.59Z" transform="translate(1.38 -21.092)" fill="#fff"/>
      <path id="Path_1529" data-name="Path 1529" d="M45.912,50.59a2.137,2.137,0,0,0-2.935-.734L39.308,51.91V47.655a2.055,2.055,0,0,0-4.109,0V51.91L31.53,49.856a2.139,2.139,0,1,0-2.2,3.669L33,55.579l-3.669,2.055a2.137,2.137,0,0,0-.734,2.935A1.916,1.916,0,0,0,30.356,61.6a2.72,2.72,0,0,0,1.027-.294l3.669-2.055V63.5a2.055,2.055,0,1,0,4.109,0V59.248L42.831,61.3a2.721,2.721,0,0,0,1.027.294,2.036,2.036,0,0,0,1.761-1.027,2.137,2.137,0,0,0-.734-2.935l-3.669-2.055,3.669-2.055A2.19,2.19,0,0,0,45.912,50.59Z" transform="translate(9.563 -21.092)" fill="#fff"/>
      <path id="Path_1530" data-name="Path 1530" d="M62.327,40.655c0-1.174-.577-2.055-1.347-2.055H10.1c-4.232,0-7.6,5.283-7.6,11.594v17.17c0,6.457,3.463,11.594,7.6,11.594H55.69c.769,0,1.347-.881,1.347-2.055s-.577-2.055-1.347-2.055H10.1c-2.693,0-4.905-3.375-4.905-7.484V50.194c0-4.109,2.212-7.484,4.905-7.484H60.981C61.75,42.856,62.327,41.829,62.327,40.655Z" transform="translate(-2.5 -24.365)" fill="#fff"/>
    </g>
  </g>
</svg>
