<svg xmlns="http://www.w3.org/2000/svg" width="150.041" height="64.695" viewBox="0 0 150.041 64.695">
  <g id="Group_3243" data-name="Group 3243" transform="translate(13047.016 -4862)">
    <path id="Union_97" data-name="Union 97" d="M11.351,64.7a11.387,11.387,0,0,1-8.178-3A10.774,10.774,0,0,1,0,53.569c0-1.3.043-2.584.129-3.82A38.528,38.528,0,0,1,.65,45.66a32.519,32.519,0,0,1,1-4.109A20.386,20.386,0,0,1,3.33,37.716,14.432,14.432,0,0,1,5.863,34.4,11.16,11.16,0,0,1,9.5,32.1a12.512,12.512,0,0,1,4.647-.846,4.7,4.7,0,0,1,2.518,1.073c.767.5,1.65,1.074,2.627,1.7a14.935,14.935,0,0,0,3.393,1.5,13.114,13.114,0,0,0,8.305,0,14.972,14.972,0,0,0,3.4-1.5c.986-.633,1.869-1.206,2.625-1.7a4.7,4.7,0,0,1,2.519-1.074,12.517,12.517,0,0,1,4.648.846,11.165,11.165,0,0,1,3.64,2.3,14.446,14.446,0,0,1,2.534,3.32,20.4,20.4,0,0,1,1.681,3.833,32.379,32.379,0,0,1,1,4.11,38.689,38.689,0,0,1,.522,4.088c.085,1.232.13,2.518.13,3.822A10.77,10.77,0,0,1,50.512,61.7a11.389,11.389,0,0,1-8.177,3Zm4.128-38.1a15.122,15.122,0,0,1-4.541-11.018A15.119,15.119,0,0,1,15.479,4.565,14.953,14.953,0,0,1,26.437,0,14.958,14.958,0,0,1,37.4,4.564a15.12,15.12,0,0,1,4.541,11.017A15.121,15.121,0,0,1,37.4,26.6a14.958,14.958,0,0,1-10.959,4.566A14.961,14.961,0,0,1,15.479,26.6Z" transform="translate(-13047.016 4862)" fill="#e9f4fa"/>
    <path id="Union_89" data-name="Union 89" d="M11.351,64.7a11.387,11.387,0,0,1-8.178-3A10.774,10.774,0,0,1,0,53.569c0-1.3.043-2.584.129-3.82A38.528,38.528,0,0,1,.65,45.66a32.519,32.519,0,0,1,1-4.109A20.386,20.386,0,0,1,3.33,37.716,14.432,14.432,0,0,1,5.863,34.4,11.16,11.16,0,0,1,9.5,32.1a12.512,12.512,0,0,1,4.647-.846,4.7,4.7,0,0,1,2.518,1.073c.767.5,1.65,1.074,2.627,1.7a14.935,14.935,0,0,0,3.393,1.5,13.114,13.114,0,0,0,8.305,0,14.972,14.972,0,0,0,3.4-1.5c.986-.633,1.869-1.206,2.625-1.7a4.7,4.7,0,0,1,2.519-1.074,12.517,12.517,0,0,1,4.648.846,11.165,11.165,0,0,1,3.64,2.3,14.446,14.446,0,0,1,2.534,3.32,20.4,20.4,0,0,1,1.681,3.833,32.379,32.379,0,0,1,1,4.11,38.689,38.689,0,0,1,.522,4.088c.085,1.232.13,2.518.13,3.822A10.77,10.77,0,0,1,50.512,61.7a11.389,11.389,0,0,1-8.177,3Zm4.128-38.1a15.122,15.122,0,0,1-4.541-11.018A15.119,15.119,0,0,1,15.479,4.565,14.953,14.953,0,0,1,26.437,0,14.958,14.958,0,0,1,37.4,4.564a15.12,15.12,0,0,1,4.541,11.017A15.121,15.121,0,0,1,37.4,26.6a14.958,14.958,0,0,1-10.959,4.566A14.961,14.961,0,0,1,15.479,26.6Z" transform="translate(-13031.939 4862)" fill="#b4daed"/>
    <path id="Union_95" data-name="Union 95" d="M11.351,64.7a11.387,11.387,0,0,1-8.178-3A10.774,10.774,0,0,1,0,53.569c0-1.3.043-2.584.129-3.82A38.528,38.528,0,0,1,.65,45.66a32.519,32.519,0,0,1,1-4.109A20.386,20.386,0,0,1,3.33,37.716,14.432,14.432,0,0,1,5.863,34.4,11.16,11.16,0,0,1,9.5,32.1a12.512,12.512,0,0,1,4.647-.846,4.7,4.7,0,0,1,2.518,1.073c.767.5,1.65,1.074,2.627,1.7a14.935,14.935,0,0,0,3.393,1.5,13.114,13.114,0,0,0,8.305,0,14.972,14.972,0,0,0,3.4-1.5c.986-.633,1.869-1.206,2.625-1.7a4.7,4.7,0,0,1,2.519-1.074,12.517,12.517,0,0,1,4.648.846,11.165,11.165,0,0,1,3.64,2.3,14.446,14.446,0,0,1,2.534,3.32,20.4,20.4,0,0,1,1.681,3.833,32.379,32.379,0,0,1,1,4.11,38.689,38.689,0,0,1,.522,4.088c.085,1.232.13,2.518.13,3.822A10.77,10.77,0,0,1,50.512,61.7a11.389,11.389,0,0,1-8.177,3Zm4.128-38.1a15.122,15.122,0,0,1-4.541-11.018A15.119,15.119,0,0,1,15.479,4.565,14.953,14.953,0,0,1,26.437,0,14.958,14.958,0,0,1,37.4,4.564a15.12,15.12,0,0,1,4.541,11.017A15.121,15.121,0,0,1,37.4,26.6a14.958,14.958,0,0,1-10.959,4.566A14.961,14.961,0,0,1,15.479,26.6Z" transform="translate(-12950.659 4862)" fill="#e9f4fa"/>
    <path id="Union_91" data-name="Union 91" d="M11.351,64.7a11.387,11.387,0,0,1-8.178-3A10.774,10.774,0,0,1,0,53.569c0-1.3.043-2.584.129-3.82A38.528,38.528,0,0,1,.65,45.66a32.519,32.519,0,0,1,1-4.109A20.386,20.386,0,0,1,3.33,37.716,14.432,14.432,0,0,1,5.863,34.4,11.16,11.16,0,0,1,9.5,32.1a12.512,12.512,0,0,1,4.647-.846,4.7,4.7,0,0,1,2.518,1.073c.767.5,1.65,1.074,2.627,1.7a14.935,14.935,0,0,0,3.393,1.5,13.114,13.114,0,0,0,8.305,0,14.972,14.972,0,0,0,3.4-1.5c.986-.633,1.869-1.206,2.625-1.7a4.7,4.7,0,0,1,2.519-1.074,12.517,12.517,0,0,1,4.648.846,11.165,11.165,0,0,1,3.64,2.3,14.446,14.446,0,0,1,2.534,3.32,20.4,20.4,0,0,1,1.681,3.833,32.379,32.379,0,0,1,1,4.11,38.689,38.689,0,0,1,.522,4.088c.085,1.232.13,2.518.13,3.822A10.77,10.77,0,0,1,50.512,61.7a11.389,11.389,0,0,1-8.177,3Zm4.128-38.1a15.122,15.122,0,0,1-4.541-11.018A15.119,15.119,0,0,1,15.479,4.565,14.953,14.953,0,0,1,26.437,0,14.958,14.958,0,0,1,37.4,4.564a15.12,15.12,0,0,1,4.541,11.017A15.121,15.121,0,0,1,37.4,26.6a14.958,14.958,0,0,1-10.959,4.566A14.961,14.961,0,0,1,15.479,26.6Z" transform="translate(-12967.243 4862)" fill="#b4daed"/>
    <path id="Union_93" data-name="Union 93" d="M11.351,64.7a11.387,11.387,0,0,1-8.178-3A10.774,10.774,0,0,1,0,53.569c0-1.3.043-2.584.129-3.82A38.528,38.528,0,0,1,.65,45.66a32.519,32.519,0,0,1,1-4.109A20.386,20.386,0,0,1,3.33,37.716,14.432,14.432,0,0,1,5.863,34.4,11.16,11.16,0,0,1,9.5,32.1a12.512,12.512,0,0,1,4.647-.846,4.7,4.7,0,0,1,2.518,1.073c.767.5,1.65,1.074,2.627,1.7a14.935,14.935,0,0,0,3.393,1.5,13.114,13.114,0,0,0,8.305,0,14.972,14.972,0,0,0,3.4-1.5c.986-.633,1.869-1.206,2.625-1.7a4.7,4.7,0,0,1,2.519-1.074,12.517,12.517,0,0,1,4.648.846,11.165,11.165,0,0,1,3.64,2.3,14.446,14.446,0,0,1,2.534,3.32,20.4,20.4,0,0,1,1.681,3.833,32.379,32.379,0,0,1,1,4.11,38.689,38.689,0,0,1,.522,4.088c.085,1.232.13,2.518.13,3.822A10.77,10.77,0,0,1,50.512,61.7a11.389,11.389,0,0,1-8.177,3Zm4.128-38.1a15.122,15.122,0,0,1-4.541-11.018A15.119,15.119,0,0,1,15.479,4.565,14.953,14.953,0,0,1,26.437,0,14.958,14.958,0,0,1,37.4,4.564a15.12,15.12,0,0,1,4.541,11.017A15.121,15.121,0,0,1,37.4,26.6a14.958,14.958,0,0,1-10.959,4.566A14.961,14.961,0,0,1,15.479,26.6Z" transform="translate(-13000.516 4862)" fill="#4ba9d9"/>
  </g>
</svg>
