<svg xmlns="http://www.w3.org/2000/svg" width="77.676" height="80.685" viewBox="0 0 77.676 80.685">
  <g id="Group_3244" data-name="Group 3244" transform="translate(0.002 0.001)">
    <path id="Union_105" data-name="Union 105" d="M22529.162-14446.451a8.289,8.289,0,0,0-9.41-3.06,8.282,8.282,0,0,1-7.541-1.149,8.278,8.278,0,0,1-3.4-6.827,8.3,8.3,0,0,0-5.9-7.978,8.282,8.282,0,0,1-5.4-5.349,8.286,8.286,0,0,1,1.223-7.507,8.3,8.3,0,0,0,0-9.909,8.286,8.286,0,0,1-1.258-7.535,8.3,8.3,0,0,1,5.439-5.365,8.3,8.3,0,0,0,5.824-7.978,8.288,8.288,0,0,1,3.4-6.827,8.282,8.282,0,0,1,7.541-1.149,8.3,8.3,0,0,0,9.412-3.06,8.3,8.3,0,0,1,6.764-3.5,8.3,8.3,0,0,1,6.766,3.5,8.289,8.289,0,0,0,9.41,3.06,8.282,8.282,0,0,1,7.541,1.149,8.278,8.278,0,0,1,3.4,6.827,8.3,8.3,0,0,0,5.824,7.978,8.284,8.284,0,0,1,5.5,5.314,8.289,8.289,0,0,1-1.189,7.558,8.293,8.293,0,0,0,0,9.9,8.293,8.293,0,0,1,1.234,7.541,8.292,8.292,0,0,1-5.461,5.349,8.3,8.3,0,0,0-5.824,7.978,8.272,8.272,0,0,1-3.4,6.827,8.282,8.282,0,0,1-7.541,1.149,8.3,8.3,0,0,0-9.412,3.06,8.3,8.3,0,0,1-6.764,3.5A8.3,8.3,0,0,1,22529.162-14446.451Z" transform="translate(-22497.066 14523.639)" fill="#4ba9d9"/>
    <g id="noun_Stamp_1471848_1_" data-name="noun_Stamp_1471848 (1)" transform="translate(22.36 18.117)">
      <path id="Path_1829" data-name="Path 1829" d="M39.567,37.111v-7a7.764,7.764,0,1,0-6.267,0v6.719a2.543,2.543,0,0,1-1.92,2.484l-7.735,1.92A4.546,4.546,0,0,0,20.2,45.694v3.162H53.682V45.75a4.585,4.585,0,0,0-3.557-4.461L41.26,39.257A2.176,2.176,0,0,1,39.567,37.111Z" transform="translate(-20.2 -15.209)" fill="#fff"/>
      <rect id="Rectangle_1282" data-name="Rectangle 1282" width="30.998" height="2.71" transform="translate(1.242 36.526)" fill="#fff"/>
    </g>
  </g>
</svg>
