<svg id="Group_3227" data-name="Group 3227" xmlns="http://www.w3.org/2000/svg" width="62.039" height="83.833" viewBox="0 0 62.039 83.833">
  <g id="tools-and-utensils" transform="translate(0 0)">
    <path id="Path_1127" data-name="Path 1127" d="M59.535,8.69H41.792V2.5a2.5,2.5,0,0,0-2.5-2.5H22.751a2.5,2.5,0,0,0-2.5,2.5V8.69H2.5A2.5,2.5,0,0,0,0,11.19v11.35a2.5,2.5,0,0,0,2.5,2.5H4.561V81.333a2.5,2.5,0,0,0,2.5,2.5H54.974a2.5,2.5,0,0,0,2.5-2.5V25.041h2.057a2.5,2.5,0,0,0,2.5-2.5V11.19a2.5,2.5,0,0,0-2.5-2.5ZM25.256,5H36.784V8.654H25.256ZM5.008,13.691H57.031v6.351H5.008ZM52.469,78.834H9.57V25.041h42.9V78.834Zm0,0" transform="translate(0.001 0)" fill="#484848"/>
    <path id="Path_1128" data-name="Path 1128" d="M251.4,234.4a2.5,2.5,0,0,0,2.5-2.5V196.586a2.5,2.5,0,0,0-5.009,0V231.9a2.5,2.5,0,0,0,2.5,2.5Zm0,0" transform="translate(-208.075 -162.307)" fill="#484848"/>
    <path id="Path_1129" data-name="Path 1129" d="M176.367,234.4a2.5,2.5,0,0,0,2.5-2.5V196.586a2.5,2.5,0,0,0-5.008,0V231.9a2.5,2.5,0,0,0,2.5,2.5Zm0,0" transform="translate(-145.347 -162.307)" fill="#484848"/>
    <path id="Path_1130" data-name="Path 1130" d="M101.329,234.4a2.5,2.5,0,0,0,2.5-2.5V196.586a2.5,2.5,0,0,0-5.008,0V231.9a2.5,2.5,0,0,0,2.5,2.5Zm0,0" transform="translate(-82.616 -162.307)" fill="#484848"/>
  </g>
</svg>
