<svg xmlns="http://www.w3.org/2000/svg" width="168" height="109" viewBox="0 0 168 109">
  <g id="Group_3263" data-name="Group 3263" transform="translate(-823 -4424)">
    <rect id="Rectangle_137505" data-name="Rectangle 137505" width="168" height="109" transform="translate(823 4424)" fill="#eee"/>
    <g id="Group_2376" data-name="Group 2376" transform="translate(882.516 4436.16)">
      <g id="noun_Phone_1375627_1_" data-name="noun_Phone_1375627 (1)" transform="translate(0 0)">
        <path id="Path_1909" data-name="Path 1909" d="M33.083,958.365A5.948,5.948,0,0,0,27,964.2v73.92a5.949,5.949,0,0,0,6.083,5.835H67.555a5.949,5.949,0,0,0,6.083-5.835V964.2a5.948,5.948,0,0,0-6.083-5.837H33.083Zm11.152,3.879H56.39a.972.972,0,0,1,0,1.945H44.235a.972.972,0,0,1,0-1.945Zm-13.19,5.837H69.58v62.251H31.045Zm19.262,65.174a3.895,3.895,0,1,1-4.055,3.879,3.975,3.975,0,0,1,4.066-3.874Z" transform="translate(-27 -958.36)" fill="#fff" stroke="#fff" stroke-width="0.2"/>
      </g>
      <path id="Rectangle_1288" data-name="Rectangle 1288" d="M0,0H36.207V59.484H0Z" transform="translate(5.173 11.005)" fill="#fff" opacity="0.5"/>
    </g>
  </g>
</svg>
