<svg xmlns="http://www.w3.org/2000/svg" width="66.5" height="95.009" viewBox="0 0 66.5 95.009">
  <g id="noun_palm_1671954" transform="translate(0.5 0.5)">
    <path id="Path_1362" data-name="Path 1362" d="M48.964,99.009h3.369a31.922,31.922,0,0,0,22.479-9.114,30.634,30.634,0,0,0,9.336-22.058h0V27.642a8.427,8.427,0,0,0-12.709-7.275v-3.62A8.431,8.431,0,0,0,57.972,9.973a8.5,8.5,0,0,0-1.722-2.5,8.44,8.44,0,0,0-14.336,4.9,8.355,8.355,0,0,0-4.339-1.215,8.46,8.46,0,0,0-8.45,8.45V37.716a6.7,6.7,0,0,0-1.8-.231h-4.51a4.175,4.175,0,0,0-4.17,4.17V66.769C18.646,85.45,31.4,99.009,48.964,99.009ZM22.816,41.663h4.51c.952,0,1.131.162,2.245,1.434l.064.073a4.162,4.162,0,0,1,1.045,2.765V57.128a6.638,6.638,0,0,0,4.848,6.389,19.2,19.2,0,0,1,8.28,4.851,19.743,19.743,0,0,1,5.421,10.616A2.089,2.089,0,0,0,53.35,78.3a23.958,23.958,0,0,0-6.591-12.886,23.325,23.325,0,0,0-10.058-5.9,2.491,2.491,0,0,1-1.842-2.379V45.936a8.386,8.386,0,0,0-1.556-4.85V19.6a4.262,4.262,0,0,1,7.287-3.014A4.232,4.232,0,0,1,41.837,19.6s0,.006,0,.01V45.992a2.089,2.089,0,1,0,4.178,0V13.444a4.265,4.265,0,1,1,8.531,0v3.3a2.126,2.126,0,0,0,.055.464v28.78a2.089,2.089,0,1,0,4.178,0V16.2a4.258,4.258,0,0,1,8.481.549v31.27a2.089,2.089,0,1,0,4.178,0V27.642A4.27,4.27,0,0,1,75.7,23.378a4.269,4.269,0,0,1,4.265,4.265V67.837h0a26.49,26.49,0,0,1-8.08,19.071A27.766,27.766,0,0,1,52.332,94.83H48.964c-15.146,0-26.139-11.8-26.139-28.062Z" transform="translate(-18.647 -5)" fill="#cecece" stroke="#cecece" stroke-width="1"/>
  </g>
</svg>
