<svg xmlns="http://www.w3.org/2000/svg" width="79.904" height="128.805" viewBox="0 0 79.904 128.805">
  <g id="Group_3274" data-name="Group 3274" transform="translate(1.5 1.5)">
    <g id="noun_hands_holding_smartphone_1264229" data-name="noun_hands holding smartphone_1264229" transform="translate(0 0)">
      <path id="Path_1986" data-name="Path 1986" d="M22.2,9.219a1.129,1.129,0,0,1,1.128,1.128v4.3a1.128,1.128,0,0,1-2.256,0v-4.3A1.125,1.125,0,0,1,22.2,9.219Z" transform="translate(46.62 26.457)" fill="#2362c7" stroke="#2362c7" stroke-width="3"/>
      <ellipse id="Ellipse_681" data-name="Ellipse 681" cx="1.238" cy="1.238" rx="1.238" ry="1.238" transform="translate(67.584 28.847)" fill="#2362c7" stroke="#2362c7" stroke-width="3"/>
      <ellipse id="Ellipse_682" data-name="Ellipse 682" cx="2.13" cy="2.13" rx="2.13" ry="2.13" transform="translate(4.982 36.742)" fill="#2362c7" stroke="#2362c7" stroke-width="3"/>
      <path id="Path_1987" data-name="Path 1987" d="M5.712,18.007H18.819a15.662,15.662,0,0,1,4.4-8.479c.245-.261.48-.512.706-.77l.01-5.794a1.286,1.286,0,0,1,1.289-1.286h0a1.291,1.291,0,0,1,1.286,1.292L26.5,9.225a1.307,1.307,0,0,1-.277.8c-.351.442-.732.848-1.128,1.27a12.877,12.877,0,0,0-3.632,6.739l29.095.113a1.218,1.218,0,0,1,.148.032,1.369,1.369,0,0,1,.277.058,1.16,1.16,0,0,1,.226.119.978.978,0,0,1,.151.081c2.881,2.33,4.019,4.138,6.11,8.012a4.472,4.472,0,0,0,3.613,2.723,3.686,3.686,0,0,0,1.341-.019l.126-.019a1.985,1.985,0,0,0,1.1-2,2.03,2.03,0,0,0-.013-.335,7.13,7.13,0,0,0-1.908-3.255,1.288,1.288,0,0,1-.3-.831v-3.4c-.032-2.246-4.618-8.389-10.293-8.943A1.29,1.29,0,0,1,49.97,9.086l0-6.11a1.29,1.29,0,0,1,1.286-1.289h0a1.291,1.291,0,0,1,1.289,1.289l0,5.008c5.5,1.141,10.268,6.342,11.267,10.036H71.33a5.649,5.649,0,0,1,5.643,5.643V57.179a5.649,5.649,0,0,1-5.643,5.643H54.147a2.688,2.688,0,0,1-.57.612l-3.787,3a3.033,3.033,0,0,1-4.157-.477h0l-.748-.944L41.633,67.6a3.058,3.058,0,0,1-4.19-.487L36.167,65.5l-2.391,1.9a3.031,3.031,0,0,1-4.157-.48L28.3,65.268c-.052-.064-.1-.132-.145-.2L26.035,66.75a3.1,3.1,0,0,1-4.248-.487l-1.36-1.718a2.98,2.98,0,0,1-.651-1.721H5.712A5.649,5.649,0,0,1,.069,57.182V23.653A5.646,5.646,0,0,1,5.712,18.007ZM63.96,60.247h7.37A3.071,3.071,0,0,0,74.4,57.179V23.65a3.071,3.071,0,0,0-3.068-3.068H64v1.653a8.4,8.4,0,0,1,2.2,4.283,3.507,3.507,0,0,1,.016.7,4.383,4.383,0,0,1-2.256,4.067V60.247ZM47.65,64.362c.071.09.18.139.535.061l3.787-3c.126-.1-.023-.535-.039-.583-.348-1-1.267-1.753-1.75-1.673l-3.165,2.511a5.506,5.506,0,0,1-.026,1.856Zm-9.53-.532,1.334,1.679c.077.1.193.151.574.068l3.845-3.052c.132-.106-.006-.529-.035-.612-.358-1.025-1.376-1.747-1.8-1.7l-3.845,3.049A.464.464,0,0,0,38.12,63.831Zm-7.806-.164h0l1.315,1.66a.275.275,0,0,0,.248.1,1.28,1.28,0,0,0,.29-.039l3.023-2.4a5.077,5.077,0,0,1,.5-1.679c-.432-.728-1.057-1.267-1.521-1.183l-3.929,3.255A.383.383,0,0,0,30.315,63.666Zm-7.87-.725h0l1.363,1.718a.323.323,0,0,0,.287.119,1.448,1.448,0,0,0,.338-.048l3.342-2.649a5.437,5.437,0,0,1,.532-1.2c-.39-1.018-1.389-1.753-1.863-1.682l-3.925,3.113a.451.451,0,0,0-.074.625Zm-8.092-2.694h6.626l3.864-3.065c1.756-1.389,4.644.055,5.749,2.488L32.564,58.1c1.6-1.257,4.154-.187,5.4,2.037l2.465-1.953c1.466-1.157,3.713-.38,5.053,1.412l3.1-2.459c1.818-1.441,4.879.245,5.785,2.846.029.087.058.174.081.261h6.932V31.787a6.226,6.226,0,0,1-.738-.081A7.041,7.041,0,0,1,55.2,27.668c-1.982-3.677-2.975-5.143-5.124-6.945l-34.938-.139h-.79ZM2.644,57.179a3.071,3.071,0,0,0,3.068,3.068h6.062V20.582H5.712A3.071,3.071,0,0,0,2.644,23.65Z" transform="translate(-0.069 -1.677)" fill="#2362c7" stroke="#2362c7" stroke-width="3"/>
    </g>
    <path id="noun_Hand_402441" d="M47.561,27.858l-.368,9.16c0,.505-.644.948-1.38.948a13.246,13.246,0,0,1-6.9-1.516V50.725c0,2.211-2.668,4.043-5.888,4.043a7.159,7.159,0,0,1-3.4-.758,6.5,6.5,0,0,1-5.7,2.843c-3.22,0-5.888-1.832-5.888-4.043v-.253a8.391,8.391,0,0,1-3.128.632c-3.22,0-5.888-1.832-5.888-4.043V44.282a8.391,8.391,0,0,1-3.128.632C2.668,44.913,0,43.081,0,40.871v-21.6C0,11.118,2.024,7.58,3.5,5.054A7.855,7.855,0,0,0,4.968,1.011c0-.505.644-.948,1.38-.948s1.38.442,1.38.948A8.637,8.637,0,0,1,6.072,5.748C4.692,8.149,2.76,11.5,2.76,19.267v21.6c0,1.2,1.38,2.148,3.128,2.148s3.128-.948,3.128-2.148V25.015c0-.505.644-.948,1.38-.948s1.38.442,1.38.948V49.146c0,1.2,1.38,2.148,3.128,2.148s3.128-.948,3.128-2.148V26.215c0-.505.644-.948,1.38-.948s1.38.442,1.38.948V52.81c0,1.2,1.38,2.148,3.128,2.148s3.128-.948,3.128-2.148V26.215c0-.505.644-.948,1.38-.948s1.38.442,1.38.948v24.51c0,1.2,1.38,2.148,3.128,2.148s3.128-.948,3.128-2.148V33.353h0a11.153,11.153,0,0,1-.92-4.864V20.53a10.2,10.2,0,0,1-7.543-5.5c-.276-.505.092-1.011.828-1.2a1.544,1.544,0,0,1,1.748.569c1.1,2.021,3.128,4.359,6.348,4.359.736,0,1.38.442,1.38.948v8.781c0,5.938,2.944,7.328,6.532,7.517l.368-8.149V19.2c0-7.959-4.416-11.055-8-13.581-1.932-1.39-3.772-2.653-4.508-4.485C32.106.632,32.566.126,33.3,0h.368a1.544,1.544,0,0,1,1.38.695c.46,1.327,1.932,2.337,3.772,3.6,3.68,2.59,8.831,6.127,8.831,14.908Z" transform="matrix(-1, 0.017, -0.017, -1, 62.678, 125.455)" fill="#5ab6e5" stroke="#5ab6e5" stroke-width="2"/>
  </g>
</svg>
