<svg id="Group_3270" data-name="Group 3270" xmlns="http://www.w3.org/2000/svg" width="85.402" height="85.402" viewBox="0 0 85.402 85.402">
  <g id="Group_2759" data-name="Group 2759" transform="translate(0 0)">
    <rect id="Rectangle_865" data-name="Rectangle 865" width="85.402" height="85.402" rx="11" transform="translate(0)" fill="#76b3ef"/>
  </g>
  <path id="noun_Bell_1334836" d="M59.919,48.744l-1.813-3.7A17.472,17.472,0,0,1,56.338,37.4V24.9A18.805,18.805,0,0,0,37.327,7.28h-.392a18.772,18.772,0,0,0-19,17.618V37.4a17.466,17.466,0,0,1-1.8,7.63l-1.819,3.716a3.845,3.845,0,0,0,3.465,5.535H28.822a8.346,8.346,0,0,0,8.293,7.739h0a8.294,8.294,0,0,0,8.268-7.739H56.454a3.845,3.845,0,0,0,3.465-5.535ZM41.153,57.777a5.687,5.687,0,0,1-4.037,1.679h0A5.778,5.778,0,0,1,31.4,54.273H42.811A5.687,5.687,0,0,1,41.153,57.777ZM57.54,51.114a1.287,1.287,0,0,1-1.093.6H17.77a1.282,1.282,0,0,1-1.157-1.845l1.858-3.69a20.033,20.033,0,0,0,2.038-8.764V25.039A16.207,16.207,0,0,1,36.935,9.855h.4A16.191,16.191,0,0,1,53.747,25.039V37.417a20.046,20.046,0,0,0,2.044,8.764l1.813,3.7A1.277,1.277,0,0,1,57.54,51.114Z" transform="translate(5.561 8.833)" fill="#fff" stroke="#fff" stroke-width="1"/>
</svg>
