<svg id="noun_Laptop_3067137" xmlns="http://www.w3.org/2000/svg" width="100.717" height="81.595" viewBox="0 0 100.717 81.595">
  <path id="Path_1913" data-name="Path 1913" d="M45.392,494.127,37.757,475.31A2.1,2.1,0,0,0,35.822,474h-80.89A2.1,2.1,0,0,0-47,475.31l-7.656,18.817A4.868,4.868,0,0,0-55,495.9v.443a2.945,2.945,0,0,0,2.941,2.941H42.773a2.945,2.945,0,0,0,2.941-2.941V495.9A4.463,4.463,0,0,0,45.392,494.127Zm-41.241-.363H-13.437a1.078,1.078,0,0,1-1.068-1.249l.987-6.084a.731.731,0,0,1,.705-.6h16.3a.7.7,0,0,1,.705.6l.987,6.084A1.03,1.03,0,0,1,4.151,493.764Z" transform="translate(55 -417.689)" fill="#cecece"/>
  <path id="Path_1914" data-name="Path 1914" d="M-9.393,247.527h80.91a.9.9,0,0,0,.907-.907V195.407a.9.9,0,0,0-.907-.907H-9.393a.9.9,0,0,0-.907.907V246.62A.9.9,0,0,0-9.393,247.527Zm2.821-49.38H68.7V243.88H-6.573Z" transform="translate(19.306 -194.5)" fill="#cecece"/>
</svg>
