<svg xmlns="http://www.w3.org/2000/svg" width="80.094" height="80.094" viewBox="0 0 80.094 80.094">
  <path id="noun_person_1993839" d="M44.651,84.7A40.047,40.047,0,1,0,4.605,44.652,40.093,40.093,0,0,0,44.651,84.7ZM22.25,72.485c1.146-5.373,10.438-14.378,22.4-14.378s21.257,9,22.4,14.378a35.65,35.65,0,0,1-44.8,0ZM44.651,8.9a35.723,35.723,0,0,1,25.9,60.358c-2.256-5.484-8.456-11.037-16.179-13.745a19.569,19.569,0,1,0-19.437,0c-7.724,2.708-13.925,8.261-16.179,13.745A35.723,35.723,0,0,1,44.651,8.9Zm0,44.911A15.273,15.273,0,1,1,59.925,38.541,15.288,15.288,0,0,1,44.651,53.812Z" transform="translate(-4.605 -4.605)" fill="#4ba9d9"/>
</svg>
