<svg xmlns="http://www.w3.org/2000/svg" width="126" height="100" viewBox="0 0 126 100">
  <g id="Group_3228" data-name="Group 3228" transform="translate(-252 -387)">
    <path id="Rectangle_1360" data-name="Rectangle 1360" d="M0,0H101a25,25,0,0,1,25,25V75a25,25,0,0,1-25,25H0a0,0,0,0,1,0,0V0A0,0,0,0,1,0,0Z" transform="translate(252 387)" fill="#d95868"/>
    <text id="Copy_Key" data-name="Copy Key" transform="translate(271 471)" fill="#fff" font-size="19" font-family="Montserrat-Regular, Montserrat"><tspan x="0" y="0">Copy Key</tspan></text>
    <g id="Group_2530" data-name="Group 2530" transform="translate(293.456 402.77)">
      <rect id="Rectangle_1361" data-name="Rectangle 1361" width="33" height="29" rx="1" transform="translate(-0.455 15.229)" fill="#fff"/>
      <g id="noun_copy_308007" transform="translate(0 0)">
        <g id="Group_2529" data-name="Group 2529">
          <path id="Path_1941" data-name="Path 1941" d="M6,22.951a4.239,4.239,0,0,1,4.241-4.241H35.653a4.239,4.239,0,0,1,4.241,4.241V48.363A4.239,4.239,0,0,1,35.653,52.6H10.241A4.239,4.239,0,0,1,6,48.363V22.951Zm4.237,0h25.42v25.42H10.237V22.947ZM48.367,39.894A4.24,4.24,0,0,0,52.6,35.657V31.42H48.367v4.237H44.131v4.237ZM52.6,10.237A4.24,4.24,0,0,0,48.367,6H44.131v4.237h4.237v4.237H52.6V10.237ZM22.947,6a4.24,4.24,0,0,0-4.237,4.237v4.237h4.237V10.237h4.237V6ZM31.42,6h8.473v4.237H31.42V6ZM48.367,18.71H52.6v8.473H48.367V18.71Z" transform="translate(-6 -6)" fill="#fff" fill-rule="evenodd"/>
        </g>
      </g>
    </g>
  </g>
</svg>
