<svg id="Group_3242" data-name="Group 3242" xmlns="http://www.w3.org/2000/svg" width="101.047" height="84.794" viewBox="0 0 101.047 84.794">
  <path id="Union_58" data-name="Union 58" d="M11.749,67.468a11.739,11.739,0,0,1-8.465-3.127A11.281,11.281,0,0,1,0,55.866c0-1.354.044-2.7.132-3.983a40.727,40.727,0,0,1,.54-4.266,34.169,34.169,0,0,1,1.035-4.285,21.318,21.318,0,0,1,1.739-4,15.073,15.073,0,0,1,2.622-3.463,11.555,11.555,0,0,1,3.77-2.4,12.85,12.85,0,0,1,4.81-.883,4.842,4.842,0,0,1,2.6,1.118c.795.525,1.71,1.121,2.72,1.776a15.405,15.405,0,0,0,3.512,1.567,13.476,13.476,0,0,0,8.6,0A15.588,15.588,0,0,0,35.6,35.486c1.02-.662,1.933-1.258,2.715-1.776a4.854,4.854,0,0,1,2.607-1.118,12.9,12.9,0,0,1,4.81.881,11.549,11.549,0,0,1,3.77,2.4,15.073,15.073,0,0,1,2.622,3.463,21.207,21.207,0,0,1,1.739,4A33.888,33.888,0,0,1,54.9,47.617a39.646,39.646,0,0,1,.54,4.263c.091,1.285.135,2.625.135,3.986a11.268,11.268,0,0,1-3.284,8.475,11.739,11.739,0,0,1-8.465,3.127Zm4.273-39.729a15.832,15.832,0,0,1-4.7-11.489,15.832,15.832,0,0,1,4.7-11.489A15.429,15.429,0,0,1,27.367,0,15.42,15.42,0,0,1,38.709,4.761a15.824,15.824,0,0,1,4.7,11.489,15.832,15.832,0,0,1-4.7,11.489A15.429,15.429,0,0,1,27.367,32.5,15.429,15.429,0,0,1,16.022,27.739Z" transform="translate(45.475)" fill="#2975eb"/>
  <path id="Union_60" data-name="Union 60" d="M11.749,67.468a11.739,11.739,0,0,1-8.465-3.127A11.281,11.281,0,0,1,0,55.866c0-1.354.044-2.7.132-3.983a40.727,40.727,0,0,1,.54-4.266,34.169,34.169,0,0,1,1.035-4.285,21.318,21.318,0,0,1,1.739-4,15.073,15.073,0,0,1,2.622-3.463,11.555,11.555,0,0,1,3.77-2.4,12.85,12.85,0,0,1,4.81-.883,4.842,4.842,0,0,1,2.6,1.118c.795.525,1.71,1.121,2.72,1.776a15.405,15.405,0,0,0,3.512,1.567,13.476,13.476,0,0,0,8.6,0A15.588,15.588,0,0,0,35.6,35.486c1.02-.662,1.933-1.258,2.715-1.776a4.854,4.854,0,0,1,2.607-1.118,12.9,12.9,0,0,1,4.81.881,11.549,11.549,0,0,1,3.77,2.4,15.073,15.073,0,0,1,2.622,3.463,21.207,21.207,0,0,1,1.739,4A33.888,33.888,0,0,1,54.9,47.617a39.646,39.646,0,0,1,.54,4.263c.091,1.285.135,2.625.135,3.986a11.268,11.268,0,0,1-3.284,8.475,11.739,11.739,0,0,1-8.465,3.127Zm4.273-39.729a15.832,15.832,0,0,1-4.7-11.489,15.832,15.832,0,0,1,4.7-11.489A15.429,15.429,0,0,1,27.367,0,15.42,15.42,0,0,1,38.709,4.761a15.824,15.824,0,0,1,4.7,11.489,15.832,15.832,0,0,1-4.7,11.489A15.429,15.429,0,0,1,27.367,32.5,15.429,15.429,0,0,1,16.022,27.739Z" transform="translate(0)" fill="#2975eb"/>
  <path id="Union_56" data-name="Union 56" d="M11.749,67.468a11.739,11.739,0,0,1-8.465-3.127A11.281,11.281,0,0,1,0,55.866c0-1.354.044-2.7.132-3.983a40.727,40.727,0,0,1,.54-4.266,34.169,34.169,0,0,1,1.035-4.285,21.318,21.318,0,0,1,1.739-4,15.073,15.073,0,0,1,2.622-3.463,11.555,11.555,0,0,1,3.77-2.4,12.85,12.85,0,0,1,4.81-.883,4.842,4.842,0,0,1,2.6,1.118c.795.525,1.71,1.121,2.72,1.776a15.405,15.405,0,0,0,3.512,1.567,13.476,13.476,0,0,0,8.6,0A15.588,15.588,0,0,0,35.6,35.486c1.02-.662,1.933-1.258,2.715-1.776a4.854,4.854,0,0,1,2.607-1.118,12.9,12.9,0,0,1,4.81.881,11.549,11.549,0,0,1,3.77,2.4,15.073,15.073,0,0,1,2.622,3.463,21.207,21.207,0,0,1,1.739,4A33.888,33.888,0,0,1,54.9,47.617a39.646,39.646,0,0,1,.54,4.263c.091,1.285.135,2.625.135,3.986a11.268,11.268,0,0,1-3.284,8.475,11.739,11.739,0,0,1-8.465,3.127Zm4.273-39.729a15.832,15.832,0,0,1-4.7-11.489,15.832,15.832,0,0,1,4.7-11.489A15.429,15.429,0,0,1,27.367,0,15.42,15.42,0,0,1,38.709,4.761a15.824,15.824,0,0,1,4.7,11.489,15.832,15.832,0,0,1-4.7,11.489A15.429,15.429,0,0,1,27.367,32.5,15.429,15.429,0,0,1,16.022,27.739Z" transform="translate(23.821 17.325)" fill="#f2f2f2"/>
</svg>
