<svg xmlns="http://www.w3.org/2000/svg" width="687" height="212" viewBox="0 0 687 212">
  <g id="Group_3673" data-name="Group 3673" transform="translate(-385 -9076)">
    <rect id="Rectangle_137653" data-name="Rectangle 137653" width="687" height="212" transform="translate(385 9076)" fill="none" opacity="0.2"/>
    <g id="Group_3430" data-name="Group 3430" transform="translate(22066 -9947)">
      <path id="Rectangle_137648" data-name="Rectangle 137648" d="M15,0H238a15,15,0,0,1,15,15v94a0,0,0,0,1,0,0H0a0,0,0,0,1,0,0V15A15,15,0,0,1,15,0Z" transform="translate(-21471 19074)" fill="#fff"/>
      <text id="INFORMATION" transform="translate(-21344.455 19166.326)" fill="#484848" font-size="26" font-family="Montserrat-Bold, Montserrat" font-weight="700" opacity="0.7"><tspan x="-99.203" y="0">INFORMATION</tspan></text>
      <g id="Component_127_24" data-name="Component 127 – 24" transform="translate(-21363.387 19088.961)">
        <g id="noun_Document_History_655226" data-name="noun Document History 655226">
          <path id="Path_1398" data-name="Path 1398" d="M532.4,1469.69v-30.342h-8.6a2.992,2.992,0,0,1-2.992-2.992v-8.5H497.992A2.991,2.991,0,0,0,495,1430.85v43.388a2.992,2.992,0,0,0,2.992,2.992h26.93" transform="translate(-495 -1427.858)" fill="#484848" stroke="#f7f7f7" stroke-linecap="round" stroke-linejoin="round" stroke-width="1.5"/>
          <path id="Path_1399" data-name="Path 1399" d="M512.25,1427.858v8.5a2.992,2.992,0,0,0,2.992,2.992h8.573l-11.52-11.49Z" transform="translate(-486.442 -1427.858)" fill="#484848" stroke="#f7f7f7" stroke-linecap="round" stroke-linejoin="round" stroke-width="1.5"/>
          <line id="Line_337" data-name="Line 337" x2="22.442" transform="translate(8.229 29.175)" fill="none" stroke="#f6f6f6" stroke-linecap="round" stroke-width="1"/>
          <line id="Line_338" data-name="Line 338" x2="22.442" transform="translate(8.229 23.19)" fill="none" stroke="#f6f6f6" stroke-linecap="round" stroke-width="1"/>
          <line id="Line_339" data-name="Line 339" x2="22.442" transform="translate(8.229 35.159)" fill="none" stroke="#f6f6f6" stroke-linecap="round" stroke-width="1"/>
          <line id="Line_340" data-name="Line 340" x2="22.442" transform="translate(8.229 41.144)" fill="none" stroke="#f6f6f6" stroke-linecap="round" stroke-width="1"/>
        </g>
        <path id="Path_1406" data-name="Path 1406" d="M523.659,1455.037v5.717a2.992,2.992,0,0,1-2.992,2.992h-8.043" transform="translate(-486.256 -1414.374)" fill="#484848" stroke="#f7f7f7" stroke-linecap="round" stroke-linejoin="round" stroke-width="1.5"/>
      </g>
      <g id="Group_3553" data-name="Group 3553" transform="translate(-21353.178 19087.566) rotate(-90)">
        <line id="Line_369" data-name="Line 369" x2="12" transform="translate(0 5.623)" fill="none" stroke="#1473e6" stroke-width="3"/>
        <line id="Line_368" data-name="Line 368" y2="11.247" transform="translate(0 0)" fill="none" stroke="#1473e6" stroke-width="3"/>
        <line id="Line_370" data-name="Line 370" y2="11.247" transform="translate(12 0)" fill="none" stroke="#1473e6" stroke-width="3"/>
      </g>
      <g id="Group_3554" data-name="Group 3554" transform="translate(-21353.178 19181.566) rotate(-90)">
        <line id="Line_369-2" data-name="Line 369" x2="12" transform="translate(0 5.623)" fill="none" stroke="#1473e6" stroke-width="3"/>
        <line id="Line_368-2" data-name="Line 368" y2="11.247" transform="translate(0 0)" fill="none" stroke="#1473e6" stroke-width="3"/>
        <line id="Line_370-2" data-name="Line 370" y2="11.247" transform="translate(12 0)" fill="none" stroke="#1473e6" stroke-width="3"/>
      </g>
      <g id="Group_3558" data-name="Group 3558" transform="translate(-21353.178 19144.898) rotate(-90)">
        <line id="Line_369-3" data-name="Line 369" x2="5.332" transform="translate(0 5.623)" fill="none" stroke="#1473e6" stroke-width="3"/>
        <line id="Line_368-3" data-name="Line 368" y2="11.247" transform="translate(0 0)" fill="none" stroke="#1473e6" stroke-width="3"/>
        <line id="Line_370-3" data-name="Line 370" y2="11.247" transform="translate(5.332 0)" fill="none" stroke="#1473e6" stroke-width="3"/>
      </g>
      <text id="_12px" data-name="12px" transform="translate(-21373 19042)" fill="#6e6e6e" font-size="23" font-family="Montserrat-Medium, Montserrat" font-weight="500" opacity="0.5"><tspan x="0" y="22">12px</tspan></text>
      <text id="_12px-2" data-name="12px" transform="translate(-21373 19183)" fill="#6e6e6e" font-size="23" font-family="Montserrat-Medium, Montserrat" font-weight="500" opacity="0.5"><tspan x="0" y="22">12px</tspan></text>
      <text id="_4px" data-name="4px" transform="translate(-21324 19119)" fill="#6e6e6e" font-size="23" font-family="Montserrat-Medium, Montserrat" font-weight="500" opacity="0.5"><tspan x="0" y="22">4px</tspan></text>
      <text id="_20px" data-name="20px" transform="translate(-21215 19143)" fill="#6e6e6e" font-size="23" font-family="Montserrat-Medium, Montserrat" font-weight="500" opacity="0.5"><tspan x="0" y="22">20px</tspan></text>
      <text id="_20px-2" data-name="20px" transform="translate(-21534 19142)" fill="#6e6e6e" font-size="23" font-family="Montserrat-Medium, Montserrat" font-weight="500" opacity="0.5"><tspan x="0" y="22">20px</tspan></text>
    </g>
    <g id="Group_3556" data-name="Group 3556" transform="translate(821.691 9203.605)">
      <line id="Line_365" data-name="Line 365" x2="23.921" transform="translate(0 7.328)" fill="none" stroke="#1473e6" stroke-width="3"/>
      <line id="Line_366" data-name="Line 366" y2="11.25" transform="translate(0 2)" fill="none" stroke="#1473e6" stroke-width="3"/>
      <line id="Line_367" data-name="Line 367" y2="11.25" transform="translate(23.921 2)" fill="none" stroke="#1473e6" stroke-width="3"/>
    </g>
    <g id="Group_3557" data-name="Group 3557" transform="translate(597.691 9203.605)">
      <line id="Line_365-2" data-name="Line 365" x2="23.921" transform="translate(0 7.328)" fill="none" stroke="#1473e6" stroke-width="3"/>
      <line id="Line_366-2" data-name="Line 366" y2="11.25" transform="translate(0 2)" fill="none" stroke="#1473e6" stroke-width="3"/>
      <line id="Line_367-2" data-name="Line 367" y2="11.25" transform="translate(23.921 2)" fill="none" stroke="#1473e6" stroke-width="3"/>
    </g>
  </g>
</svg>
