<svg xmlns="http://www.w3.org/2000/svg" width="85.289" height="85.032" viewBox="0 0 85.289 85.032">
  <g id="Group_3226" data-name="Group 3226" transform="translate(-13.223 1.045)">
    <g id="noun_help_2216482" transform="translate(13.222 -1.045)">
      <path id="Path_1374" data-name="Path 1374" d="M49.068,11.327C29.875,13.617,15.153,27.357,11.663,45.46a43.082,43.082,0,0,0,33.37,50.164c1.2.218,13.523,1.418,22.792-1.636,15.7-6.107,25.3-17.339,28.136-34.134.109-.327,1.527-14.068-4.144-25.191A41.842,41.842,0,0,0,49.068,11.327ZM52.885,79.7a6.162,6.162,0,0,1,0-12.323,6.164,6.164,0,1,1,0,12.323ZM66.407,51.24a48.688,48.688,0,0,1-4.689,3.6A8.579,8.579,0,0,0,57.9,62.254H48.086c-.436-3.49-.218-7.416,2.944-9.924a53.2,53.2,0,0,0,5.344-4.144,16.3,16.3,0,0,0,3.49-5.235c.763-2.4-1.091-5.235-3.163-6-3.053-1.091-6.761-.218-8.07,2.29a42.13,42.13,0,0,0-1.854,4.907h-9.16c-.981-4.907,1.745-10.905,6.325-13.85,6.325-3.926,17.121-3.053,22.683,1.963A12.793,12.793,0,0,1,66.407,51.24Z" transform="translate(-10.906 -11.007)" fill="#4ab2de"/>
    </g>
  </g>
</svg>
