<svg xmlns="http://www.w3.org/2000/svg" width="687" height="212" viewBox="0 0 687 212">
  <g id="Group_3667" data-name="Group 3667" transform="translate(-385 -8123)">
    <rect id="Rectangle_137654" data-name="Rectangle 137654" width="687" height="212" transform="translate(385 8123)" fill="#fff" opacity="0.2"/>
    <g id="Group_3508" data-name="Group 3508" transform="translate(538 8151)">
      <g id="Group_3432" data-name="Group 3432" transform="translate(80.158 54.161)">
        <g id="Group_1338" data-name="Group 1338" transform="translate(0 0)">
          <g id="Group_2526" data-name="Group 2526" transform="translate(0 0)">
            <g id="Group_2318" data-name="Group 2318" transform="translate(0 0)">
              <path id="Subtraction_21" data-name="Subtraction 21" d="M54.04,75.717H5.588A5.6,5.6,0,0,1,0,70.19V5.527A5.6,5.6,0,0,1,5.588,0H41.08V14.134a4.816,4.816,0,0,0,4.834,4.794H59.625V70.19A5.6,5.6,0,0,1,54.04,75.717Zm3.655-59.542H45.913a2.06,2.06,0,0,1-1.45-.591,2.039,2.039,0,0,1-.61-1.45V2.037L57.691,16.172Z" fill="#d95868"/>
            </g>
            <g id="noun_Eye_2501659" transform="translate(10.679 28.024)">
              <path id="Path_1917" data-name="Path 1917" d="M.435,11.451C10.872-3.916,28.413-3.771,38.85,11.6a1.963,1.963,0,0,1,0,2.464C28.413,29.426,10.872,29.281.435,13.915A1.963,1.963,0,0,1,.435,11.451Zm19.28-8.263a9.528,9.528,0,0,1,9.423,9.568,9.5,9.5,0,0,1-18.99,0A9.558,9.558,0,0,1,19.715,3.188Z" transform="translate(0 0.002)" fill="#fff" fill-rule="evenodd"/>
            </g>
          </g>
        </g>
      </g>
      <g id="Group_3494" data-name="Group 3494" transform="translate(83.331 35.158)">
        <line id="Line_371" data-name="Line 371" x2="55.906" transform="translate(0 6.455)" fill="none" stroke="#1473e6" stroke-width="3"/>
        <line id="Line_372" data-name="Line 372" y2="12.999" transform="translate(0 0)" fill="none" stroke="#1473e6" stroke-width="3"/>
        <line id="Line_373" data-name="Line 373" y2="12.999" transform="translate(55.906 0)" fill="none" stroke="#1473e6" stroke-width="3"/>
      </g>
      <text id="_28px" data-name="28px" transform="translate(81 7)" fill="#6e6e6e" font-size="23" font-family="Montserrat-Medium, Montserrat" font-weight="500" opacity="0.5"><tspan x="0" y="22">28px</tspan></text>
      <text id="_36px" data-name="36px" transform="translate(5 77)" fill="#6e6e6e" font-size="23" font-family="Montserrat-Medium, Montserrat" font-weight="500" opacity="0.5"><tspan x="0" y="22">36px</tspan></text>
      <g id="Group_3495" data-name="Group 3495" transform="translate(75.495 56.987) rotate(90)">
        <line id="Line_371-2" data-name="Line 371" x2="70.297" transform="translate(0 6.455)" fill="none" stroke="#1473e6" stroke-width="3"/>
        <line id="Line_372-2" data-name="Line 372" y2="12.999" transform="translate(0 0)" fill="none" stroke="#1473e6" stroke-width="3"/>
        <line id="Line_373-2" data-name="Line 373" y2="12.999" transform="translate(70.297 0)" fill="none" stroke="#1473e6" stroke-width="3"/>
      </g>
    </g>
    <g id="Group_3504" data-name="Group 3504" transform="translate(768.154 8204.695)">
      <g id="Group_3503" data-name="Group 3503" transform="translate(0)">
        <g id="Group_3497" data-name="Group 3497" transform="translate(0 0)">
          <g id="Group_2526-2" data-name="Group 2526" transform="translate(0 0)">
            <g id="Group_2318-2" data-name="Group 2318" transform="translate(0 0)">
              <path id="Subtraction_21-2" data-name="Subtraction 21" d="M54.089,75.787H5.593A5.609,5.609,0,0,1,0,70.254V5.532A5.607,5.607,0,0,1,5.593,0H41.118V14.147a4.82,4.82,0,0,0,4.838,4.8H59.68V70.254A5.608,5.608,0,0,1,54.089,75.787Zm3.658-59.6H45.955A2.062,2.062,0,0,1,44.5,15.6a2.04,2.04,0,0,1-.611-1.452V2.039L57.744,16.187Z" fill="#d95868"/>
            </g>
            <g id="noun_Eye_2501659-2" data-name="noun_Eye_2501659" transform="translate(10.689 28.049)">
              <path id="Path_1917-2" data-name="Path 1917" d="M.435,11.461c10.447-15.38,28-15.235,38.45.145a1.965,1.965,0,0,1,0,2.467c-10.447,15.38-28,15.235-38.45-.145A1.965,1.965,0,0,1,.435,11.461Zm19.3-8.27a9.537,9.537,0,0,1,9.431,9.576,9.5,9.5,0,0,1-19.008,0A9.567,9.567,0,0,1,19.733,3.191Z" transform="translate(0 0.002)" fill="#fff" fill-rule="evenodd"/>
            </g>
          </g>
          <text id="View" transform="translate(142.338 46.679)" fill="#d95868" font-size="26" font-family="Montserrat-Medium, Montserrat" font-weight="500"><tspan x="-32.214" y="0">View</tspan></text>
          <g id="Group_3507" data-name="Group 3507" transform="translate(63.482 30.709)">
            <line id="Line_371-3" data-name="Line 371" x2="41.346" transform="translate(0 6.455)" fill="none" stroke="#1473e6" stroke-width="3"/>
            <line id="Line_372-3" data-name="Line 372" y2="12.999" transform="translate(0 0)" fill="none" stroke="#1473e6" stroke-width="3"/>
            <line id="Line_373-3" data-name="Line 373" y2="12.999" transform="translate(41.346 0)" fill="none" stroke="#1473e6" stroke-width="3"/>
          </g>
          <text id="_20px" data-name="20px" transform="translate(65.846 47.307)" fill="#6e6e6e" font-size="23" font-family="Montserrat-Medium, Montserrat" font-weight="500" opacity="0.5"><tspan x="0" y="22">20px</tspan></text>
        </g>
      </g>
    </g>
  </g>
</svg>
