<svg xmlns="http://www.w3.org/2000/svg" width="145.08" height="64.293" viewBox="0 0 145.08 64.293">
  <g id="Group_3252" data-name="Group 3252" transform="translate(-2.5 -28.9)">
    <path id="Path_1510" data-name="Path 1510" d="M108.8,52.571h-1.833V43.713A14.827,14.827,0,0,0,92.158,28.9H86.813A14.827,14.827,0,0,0,72,43.713v8.858H70.167A6.518,6.518,0,0,0,63.6,59.138V86.627a6.518,6.518,0,0,0,6.567,6.567H108.8a6.518,6.518,0,0,0,6.567-6.567V59.138A6.616,6.616,0,0,0,108.8,52.571ZM93.838,81.587a1.071,1.071,0,0,1-1.069,1.374H86.2a1.125,1.125,0,0,1-1.069-1.374l2.138-8.552A5.057,5.057,0,0,1,84.217,68.3a5.192,5.192,0,1,1,10.385,0,5.057,5.057,0,0,1-3.054,4.734Zm4.276-29.016H80.857V43.713a5.963,5.963,0,0,1,5.956-5.956h5.345a5.963,5.963,0,0,1,5.956,5.956v8.858Z" transform="translate(32.209)" fill="#4ba9d9"/>
    <path id="Path_1511" data-name="Path 1511" d="M29.128,50.792a2.224,2.224,0,0,0-3.054-.764l-3.818,2.138V47.738a2.138,2.138,0,0,0-4.276,0v4.429l-3.818-2.138a2.226,2.226,0,0,0-2.291,3.818l3.818,2.138-3.818,2.138a2.224,2.224,0,0,0-.764,3.054,1.994,1.994,0,0,0,1.833,1.069,2.831,2.831,0,0,0,1.069-.305L17.827,59.8v4.429a2.138,2.138,0,0,0,4.276,0V59.8l3.818,2.138a2.831,2.831,0,0,0,1.069.305,2.119,2.119,0,0,0,1.833-1.069,2.224,2.224,0,0,0-.764-3.054l-3.818-2.138,3.818-2.138A2.279,2.279,0,0,0,29.128,50.792Z" transform="translate(4.373 8.804)" fill="#4ba9d9"/>
    <path id="Path_1512" data-name="Path 1512" d="M46.628,50.792a2.224,2.224,0,0,0-3.054-.764l-3.818,2.138V47.738a2.138,2.138,0,0,0-4.276,0v4.429l-3.818-2.138a2.226,2.226,0,0,0-2.291,3.818l3.818,2.138-3.818,2.138a2.224,2.224,0,0,0-.764,3.054,1.994,1.994,0,0,0,1.833,1.069,2.831,2.831,0,0,0,1.069-.305L35.327,59.8v4.429a2.138,2.138,0,0,0,4.276,0V59.8l3.818,2.138a2.831,2.831,0,0,0,1.069.305,2.119,2.119,0,0,0,1.833-1.069,2.224,2.224,0,0,0-.764-3.054l-3.818-2.138,3.818-2.138A2.279,2.279,0,0,0,46.628,50.792Z" transform="translate(13.599 8.804)" fill="#4ba9d9"/>
    <path id="Path_1513" data-name="Path 1513" d="M64.128,50.792a2.224,2.224,0,0,0-3.054-.764l-3.818,2.138V47.738a2.138,2.138,0,0,0-4.276,0v4.429l-3.818-2.138a2.226,2.226,0,1,0-2.291,3.818l3.818,2.138-3.818,2.138a2.224,2.224,0,0,0-.764,3.054,1.994,1.994,0,0,0,1.833,1.069,2.831,2.831,0,0,0,1.069-.305L52.827,59.8v4.429a2.138,2.138,0,0,0,4.276,0V59.8l3.818,2.138a2.831,2.831,0,0,0,1.069.305,2.119,2.119,0,0,0,1.833-1.069,2.224,2.224,0,0,0-.764-3.054l-3.818-2.138,3.818-2.138A2.279,2.279,0,0,0,64.128,50.792Z" transform="translate(22.824 8.804)" fill="#4ba9d9"/>
    <path id="Path_1514" data-name="Path 1514" d="M97.489,40.738A2.088,2.088,0,0,0,95.351,38.6H14.565A12.09,12.09,0,0,0,2.5,50.665V68.532A12.09,12.09,0,0,0,14.565,80.6H86.952a2.138,2.138,0,1,0,0-4.276H14.565a7.821,7.821,0,0,1-7.789-7.789V50.665a7.821,7.821,0,0,1,7.789-7.788H95.351A2,2,0,0,0,97.489,40.738Z" transform="translate(0 5.113)" fill="#4ba9d9"/>
  </g>
</svg>
