<svg xmlns="http://www.w3.org/2000/svg" width="84.553" height="73.083" viewBox="0 0 84.553 73.083">
  <g id="noun_logout_1262646" transform="translate(-11 -14)">
    <path id="Path_1525" data-name="Path 1525" d="M72.876,33.716a4.135,4.135,0,0,0-.2,5.786l7.207,7.816H61v8.12H79.88l-7.207,7.816a4.113,4.113,0,0,0,2.944,6.9,3.8,3.8,0,0,0,2.944-1.32L94.8,51.276,78.56,33.919A4.016,4.016,0,0,0,72.876,33.716Z" transform="translate(0.752 0.28)" fill="#484848"/>
    <path id="Path_1526" data-name="Path 1526" d="M36.376,51.557a4.072,4.072,0,0,1,4.06-4.06H61.752V22.425A8.4,8.4,0,0,0,53.327,14h-33.9A8.4,8.4,0,0,0,11,22.425V78.658a8.4,8.4,0,0,0,8.425,8.425h33.9a8.4,8.4,0,0,0,8.425-8.425V55.617H40.436A4.072,4.072,0,0,1,36.376,51.557Z" transform="translate(0 0)" fill="#484848"/>
  </g>
</svg>
