<svg xmlns="http://www.w3.org/2000/svg" width="62.822" height="94.147" viewBox="0 0 62.822 94.147">
  <path id="Path_2038" data-name="Path 2038" d="M-486.81-71.309a4.693,4.693,0,0,0-4.687,4.688v22.4a2.3,2.3,0,0,1-2.3,2.3,2.3,2.3,0,0,1-2.3-2.3V-78.6a4.693,4.693,0,0,0-4.688-4.688,4.681,4.681,0,0,0-4.634,4.084V-46.45a2.3,2.3,0,0,1-2.3,2.3,2.3,2.3,0,0,1-2.3-2.3V-78.086a2.306,2.306,0,0,1-.061-.51v-3.632a4.685,4.685,0,0,0-1.375-3.322,4.675,4.675,0,0,0-3.313-1.367,4.694,4.694,0,0,0-4.688,4.688v35.776a2.3,2.3,0,0,1-2.3,2.3,2.3,2.3,0,0,1-2.3-2.3v-29s0-.008,0-.012a4.652,4.652,0,0,0-1.371-3.312,4.657,4.657,0,0,0-3.314-1.383,4.7,4.7,0,0,0-4.7,4.7v23.614a9.217,9.217,0,0,1,1.711,5.331v12.3a2.739,2.739,0,0,0,2.024,2.616,25.639,25.639,0,0,1,11.055,6.487,26.332,26.332,0,0,1,7.245,14.165A2.3,2.3,0,0,1-513.269-8.3a2.288,2.288,0,0,1-.381.032,2.3,2.3,0,0,1-2.262-1.919,21.7,21.7,0,0,0-5.959-11.669,21.1,21.1,0,0,0-9.1-5.332,7.3,7.3,0,0,1-5.329-7.023v-12.3a4.574,4.574,0,0,0-1.148-3.039l-.07-.081c-1.224-1.4-1.421-1.576-2.467-1.576h-4.958l.01,27.6c0,17.873,12.083,30.845,28.731,30.845h3.7A30.522,30.522,0,0,0-491-1.476a29.118,29.118,0,0,0,8.881-20.963V-66.621a4.641,4.641,0,0,0-1.373-3.312A4.635,4.635,0,0,0-486.81-71.309Z" transform="translate(544.943 86.916)" fill="#4ba9d9"/>
</svg>
