<svg xmlns="http://www.w3.org/2000/svg" width="90.936" height="104.979" viewBox="0 0 90.936 104.979">
  <g id="Group_3276" data-name="Group 3276" transform="translate(-134 -213.5)">
    <g id="noun_palm_1671954" transform="translate(145.962 214)">
      <path id="Path_1362" data-name="Path 1362" d="M49.232,99.841h3.4a32.2,32.2,0,0,0,22.677-9.194,30.905,30.905,0,0,0,9.419-22.253h0V27.843A8.5,8.5,0,0,0,71.905,20.5V16.851A8.505,8.505,0,0,0,58.32,10.017,8.578,8.578,0,0,0,56.582,7.49a8.515,8.515,0,0,0-14.463,4.942,8.429,8.429,0,0,0-4.377-1.226,8.535,8.535,0,0,0-8.525,8.525V38.006a6.764,6.764,0,0,0-1.813-.233h-4.55a4.212,4.212,0,0,0-4.207,4.207V67.315C18.646,86.162,31.51,99.841,49.232,99.841ZM22.853,41.988H27.4c.96,0,1.141.163,2.265,1.447l.064.074A4.2,4.2,0,0,1,30.786,46.3V57.589a6.7,6.7,0,0,0,4.891,6.446,19.367,19.367,0,0,1,8.353,4.894A19.917,19.917,0,0,1,49.5,79.638a2.108,2.108,0,0,0,4.158-.694,24.17,24.17,0,0,0-6.649-13A23.531,23.531,0,0,0,36.861,59.99,2.513,2.513,0,0,1,35,57.589V46.3a8.46,8.46,0,0,0-1.57-4.893V19.732a4.3,4.3,0,0,1,7.351-3.04,4.27,4.27,0,0,1,1.258,3.04s0,.006,0,.011V46.355a2.108,2.108,0,0,0,4.215,0V13.519a4.3,4.3,0,1,1,8.606,0v3.333a2.145,2.145,0,0,0,.056.468V46.356a2.108,2.108,0,1,0,4.215,0V16.3a4.3,4.3,0,0,1,8.556.554V48.4a2.108,2.108,0,1,0,4.215,0V27.843a4.308,4.308,0,0,1,4.3-4.3,4.307,4.307,0,0,1,4.3,4.3V68.394h0a26.725,26.725,0,0,1-8.151,19.24,28.012,28.012,0,0,1-19.73,7.992h-3.4c-15.28,0-26.37-11.906-26.37-28.31Z" transform="translate(-18.647 -5)" fill="#cecece" stroke="#ededed" stroke-width="1"/>
    </g>
    <g id="noun_scan_2388559" transform="translate(134 218.942)">
      <path id="Path_1915" data-name="Path 1915" d="M6.786,6.786V23.538a2.393,2.393,0,1,1-4.786,0V4.393A2.393,2.393,0,0,1,4.393,2H23.538a2.393,2.393,0,1,1,0,4.786Zm81.364,0H71.4A2.393,2.393,0,1,1,71.4,2H90.543a2.393,2.393,0,0,1,2.393,2.393V23.538a2.393,2.393,0,1,1-4.786,0ZM6.786,88.15H23.538a2.393,2.393,0,1,1,0,4.786H4.393A2.393,2.393,0,0,1,2,90.543V71.4a2.393,2.393,0,1,1,4.786,0Zm81.364,0V71.4a2.393,2.393,0,1,1,4.786,0V90.543a2.393,2.393,0,0,1-2.393,2.393H71.4a2.393,2.393,0,1,1,0-4.786ZM4.393,49.861a2.393,2.393,0,1,1,0-4.786h86.15a2.393,2.393,0,0,1,0,4.786Z" transform="translate(-2 -2)" fill="#cecece"/>
    </g>
    <g id="Group_2395" data-name="Group 2395" transform="translate(161.676 287.144)">
      <g id="Ellipse_689" data-name="Ellipse 689" transform="translate(6.157 6.856)" fill="#fff" stroke="#707070" stroke-width="1">
        <circle cx="11.5" cy="11.5" r="11.5" stroke="none"/>
        <circle cx="11.5" cy="11.5" r="11" fill="none"/>
      </g>
      <path id="noun_Camera_77833" d="M29.2,12.659l-.368-1.434A5.5,5.5,0,0,0,23.721,7.4H16.255a5.637,5.637,0,0,0-5.149,3.825l-.368,1.434H7.649A5.044,5.044,0,0,0,2.5,17.551V33.77a5.08,5.08,0,0,0,5.149,4.965H32.327a5.072,5.072,0,0,0,5.112-4.965V17.551a5.059,5.059,0,0,0-5.112-4.891ZM19.97,34.138a9.357,9.357,0,0,1-9.452-9.231,9.357,9.357,0,0,1,9.452-9.231,9.4,9.4,0,0,1,9.525,9.231A9.4,9.4,0,0,1,19.97,34.138Zm6.252-9.231a6.254,6.254,0,1,0-6.252,6.105A6.17,6.17,0,0,0,26.222,24.906Z" transform="translate(-2.5 -7.4)" fill="#cecece"/>
    </g>
  </g>
</svg>
