<svg xmlns="http://www.w3.org/2000/svg" width="135.006" height="135.004" viewBox="0 0 135.006 135.004">
  <path id="Path_2025" data-name="Path 2025" d="M30.835,95.464A30.825,30.825,0,1,1,43.321,36.448L79.216.554A1.89,1.89,0,0,1,80.571,0a.715.715,0,0,1,.21.019L92.409,1.394a1.926,1.926,0,0,1,1.661,1.68l1.375,11.608a1.855,1.855,0,0,1-.535,1.566L87.387,23.77a1.89,1.89,0,0,1-2.711,0l-1.948-1.948-4.391,4.411,1.948,1.948a1.89,1.89,0,0,1,.554,1.356,1.847,1.847,0,0,1-.554,1.337l-5.69,5.69a1.9,1.9,0,0,1-2.692,0l-1.948-1.948-4.41,4.391,1.948,1.948a1.908,1.908,0,0,1,.573,1.356,1.942,1.942,0,0,1-.573,1.356l-8.477,8.477a30.455,30.455,0,0,1,2.635,12.487,30.556,30.556,0,0,1-9.031,21.8A30.6,30.6,0,0,1,30.835,95.464Zm3.265-34.1a9.441,9.441,0,0,0-16.114,6.682,9.441,9.441,0,0,0,18.883,0A9.452,9.452,0,0,0,34.1,61.364Z" transform="translate(67.504) rotate(45)" fill="#2975eb"/>
</svg>
