<svg id="noun_Camera_1560248" xmlns="http://www.w3.org/2000/svg" width="81.973" height="67.259" viewBox="0 0 81.973 67.259">
  <path id="Path_1919" data-name="Path 1919" d="M37.273,970.362l-4.2,10.509H18.357A7.34,7.34,0,0,0,11,988.228v42.037a7.34,7.34,0,0,0,7.357,7.356h67.26a7.34,7.34,0,0,0,7.357-7.356V988.228a7.341,7.341,0,0,0-7.357-7.357H70.9l-4.2-10.509H37.273Zm14.713,18.917a19.968,19.968,0,1,1-19.968,19.968A20.016,20.016,0,0,1,51.986,989.279Zm0,6.305a13.662,13.662,0,1,0,13.662,13.662A13.615,13.615,0,0,0,51.986,995.584Z" transform="translate(-11 -970.362)" fill="#2362c7"/>
</svg>
