<svg xmlns="http://www.w3.org/2000/svg" width="90.936" height="99.537" viewBox="0 0 90.936 99.537">
  <g id="Group_3277" data-name="Group 3277" transform="translate(-134 -218.941)">
    <g id="noun_scan_2388559" transform="translate(134 218.942)">
      <path id="Path_1915" data-name="Path 1915" d="M6.786,6.786V23.538a2.393,2.393,0,1,1-4.786,0V4.393A2.393,2.393,0,0,1,4.393,2H23.538a2.393,2.393,0,1,1,0,4.786Zm81.364,0H71.4A2.393,2.393,0,1,1,71.4,2H90.543a2.393,2.393,0,0,1,2.393,2.393V23.538a2.393,2.393,0,1,1-4.786,0ZM6.786,88.15H23.538a2.393,2.393,0,1,1,0,4.786H4.393A2.393,2.393,0,0,1,2,90.543V71.4a2.393,2.393,0,1,1,4.786,0Zm81.364,0V71.4a2.393,2.393,0,1,1,4.786,0V90.543a2.393,2.393,0,0,1-2.393,2.393H71.4a2.393,2.393,0,1,1,0-4.786ZM4.393,49.861a2.393,2.393,0,1,1,0-4.786h86.15a2.393,2.393,0,0,1,0,4.786Z" transform="translate(-2 -2)" fill="#cecece"/>
    </g>
    <g id="noun_Face_1302298" transform="translate(138.844 217.69)">
      <path id="Path_1924" data-name="Path 1924" d="M22.856,25.994H19.18a1.838,1.838,0,0,0,0,3.676h3.676a1.838,1.838,0,0,0,0-3.676Z" transform="translate(7.83 25.12)" fill="#cecece"/>
      <path id="Path_1925" data-name="Path 1925" d="M31.342,27.832A1.838,1.838,0,0,0,33.18,29.67h3.676a1.838,1.838,0,1,0,0-3.676H33.18A1.838,1.838,0,0,0,31.342,27.832Z" transform="translate(19.565 25.12)" fill="#cecece"/>
      <path id="Path_1926" data-name="Path 1926" d="M64.488,11.677a32.869,32.869,0,0,0-23.4-9.687h-.312C22.706,2.155,8,17.357,8,35.886V47.963A45.226,45.226,0,0,0,24.672,83.587c5.533,4.43,11.066,6.673,16.415,6.673,5.368,0,10.882-2.243,16.433-6.691A45.184,45.184,0,0,0,74.175,47.945V35.078A33,33,0,0,0,64.488,11.677ZM70.5,47.945A41.552,41.552,0,0,1,55.223,80.7c-4.871,3.916-9.632,5.882-14.136,5.882-4.485,0-9.246-1.967-14.117-5.864A41.516,41.516,0,0,1,11.695,48.46a1.72,1.72,0,0,0,.294-.331c.092-.147,10.514-14.742,25.863-13.051a1.549,1.549,0,0,0,.772-.092,42.163,42.163,0,0,0,17.444,3.805A44.262,44.262,0,0,0,70.5,36.328V47.945Z" transform="translate(0 0)" fill="#cecece" stroke="#ededed" stroke-width="1"/>
    </g>
    <g id="Group_2395" data-name="Group 2395" transform="translate(161.676 287.144)">
      <g id="Ellipse_689" data-name="Ellipse 689" transform="translate(6.157 6.856)" fill="#fff" stroke="#707070" stroke-width="1">
        <circle cx="11.5" cy="11.5" r="11.5" stroke="none"/>
        <circle cx="11.5" cy="11.5" r="11" fill="none"/>
      </g>
      <path id="noun_Camera_77833" d="M29.2,12.659l-.368-1.434A5.5,5.5,0,0,0,23.721,7.4H16.255a5.637,5.637,0,0,0-5.149,3.825l-.368,1.434H7.649A5.044,5.044,0,0,0,2.5,17.551V33.77a5.08,5.08,0,0,0,5.149,4.965H32.327a5.072,5.072,0,0,0,5.112-4.965V17.551a5.059,5.059,0,0,0-5.112-4.891ZM19.97,34.138a9.357,9.357,0,0,1-9.452-9.231,9.357,9.357,0,0,1,9.452-9.231,9.4,9.4,0,0,1,9.525,9.231A9.4,9.4,0,0,1,19.97,34.138Zm6.252-9.231a6.254,6.254,0,1,0-6.252,6.105A6.17,6.17,0,0,0,26.222,24.906Z" transform="translate(-2.5 -7.4)" fill="#cecece"/>
    </g>
  </g>
</svg>
