<svg xmlns="http://www.w3.org/2000/svg" width="77.023" height="97.808" viewBox="0 0 77.023 97.808">
  <g id="Group_3232" data-name="Group 3232" transform="translate(-880 -2107)">
    <g id="Group_1274" data-name="Group 1274" transform="translate(880 2107)">
      <g id="Group_977" data-name="Group 977" transform="translate(0 0)">
        <path id="Subtraction_21" data-name="Subtraction 21" d="M69.807,97.808H7.217a7.226,7.226,0,0,1-5.088-2.1A7.116,7.116,0,0,1,0,90.668V7.139A7.117,7.117,0,0,1,2.129,2.1,7.223,7.223,0,0,1,7.217,0H53.065V18.258a6.226,6.226,0,0,0,6.25,6.194H77.023V90.668a7.118,7.118,0,0,1-2.13,5.043A7.225,7.225,0,0,1,69.807,97.808ZM74.528,20.9H59.309a2.651,2.651,0,0,1-2.661-2.637V2.633L74.527,20.894Z" transform="translate(0 0)" fill="#c2c2c2"/>
      </g>
    </g>
    <g id="security" transform="translate(903.498 2140.011)">
      <path id="Path_1249" data-name="Path 1249" d="M111.434,15.4V9.952a9.952,9.952,0,0,0-19.9,0V15.4a6.067,6.067,0,0,0-4.9,5.946v17.6A6.064,6.064,0,0,0,92.684,45h17.6a6.064,6.064,0,0,0,6.057-6.057v-17.6a6.067,6.067,0,0,0-4.9-5.946ZM101.482,2.824a7.137,7.137,0,0,1,7.128,7.128v5.336H94.354V9.952A7.137,7.137,0,0,1,101.482,2.824Zm12.031,36.117a3.237,3.237,0,0,1-3.234,3.234h-17.6a3.237,3.237,0,0,1-3.234-3.234v-17.6a3.237,3.237,0,0,1,3.234-3.234h17.6a3.237,3.237,0,0,1,3.234,3.234Z" transform="translate(-86.627 0)" fill="#f8f8f8" stroke="#fff" stroke-width="1"/>
      <path id="Path_1250" data-name="Path 1250" d="M220.053,288.964a3.165,3.165,0,0,0,.825,5.068v1.81a1.412,1.412,0,0,0,2.824,0v-1.81a3.163,3.163,0,1,0-3.649-5.068Z" transform="translate(-207.434 -262.62)" fill="#f8f8f8" stroke="#fff" stroke-width="1"/>
    </g>
  </g>
</svg>
