<svg xmlns="http://www.w3.org/2000/svg" width="191.848" height="125.113" viewBox="0 0 191.848 125.113">
  <g id="Group_3275" data-name="Group 3275" transform="translate(20871.004 -12568)">
    <g id="Group_2964" data-name="Group 2964" transform="translate(-20871.004 12568)">
      <g id="Rectangle_1258" data-name="Rectangle 1258" transform="translate(0.004 12)" fill="#fff" stroke="#888" stroke-width="7">
        <rect width="91" height="113" rx="9" stroke="none"/>
        <rect x="3.5" y="3.5" width="84" height="106" rx="5.5" fill="none"/>
      </g>
      <g id="Group_1843" data-name="Group 1843" transform="translate(0 0)">
        <g id="noun_credential_1655181" transform="translate(0 0)">
          <path id="Path_1530" data-name="Path 1530" d="M40.133,131.433H54.356a2.085,2.085,0,0,0,0-4.171H40.133a2.085,2.085,0,0,0,0,4.171Z" transform="translate(-27.565 -26.021)" fill="#888"/>
          <path id="Path_1531" data-name="Path 1531" d="M40.133,142.055H79.379a2.085,2.085,0,1,0,0-4.171H40.133a2.085,2.085,0,1,0,0,4.171Z" transform="translate(-27.565 -27.783)" fill="#888"/>
          <circle id="Ellipse_523" data-name="Ellipse 523" cx="2.972" cy="2.972" r="2.972" transform="translate(58.842 108.328)" fill="#888"/>
          <circle id="Ellipse_524" data-name="Ellipse 524" cx="2.972" cy="2.972" r="2.972" transform="translate(67.183 108.328)" fill="#888"/>
          <circle id="Ellipse_525" data-name="Ellipse 525" cx="2.972" cy="2.972" r="2.972" transform="translate(75.524 108.328)" fill="#888"/>
          <path id="Path_1532" data-name="Path 1532" d="M94.213,129.347a2.085,2.085,0,0,0-2.085-2.085H64.185a2.085,2.085,0,0,0,0,4.171H92.128A2.085,2.085,0,0,0,94.213,129.347Z" transform="translate(-31.555 -26.021)" fill="#888"/>
          <path id="Path_1533" data-name="Path 1533" d="M117.715,127.262h-12.7a2.085,2.085,0,1,0,0,4.171h12.7a2.085,2.085,0,0,0,0-4.171Z" transform="translate(-38.33 -26.021)" fill="#888"/>
          <path id="Path_1535" data-name="Path 1535" d="M110.049,20.711H80.513l.552,5.839H110.05a1.547,1.547,0,0,1,1.543,1.551v97.965a1.547,1.547,0,0,1-1.543,1.551H32.87a1.549,1.549,0,0,1-1.551-1.551V28.1A1.549,1.549,0,0,1,32.87,26.55H59.136l.552-5.839H32.87a7.394,7.394,0,0,0-7.39,7.39v97.965a7.394,7.394,0,0,0,7.39,7.39h77.179a7.392,7.392,0,0,0,7.382-7.39V28.1A7.392,7.392,0,0,0,110.049,20.711Z" transform="translate(-25.48 -8.344)" fill="#888"/>
          <path id="Path_1536" data-name="Path 1536" d="M106.947,38.631H40.135a2.086,2.086,0,0,0-2.085,2.085V106.3a2.086,2.086,0,0,0,2.085,2.085h66.811a2.081,2.081,0,0,0,2.085-2.085V40.716A2.081,2.081,0,0,0,106.947,38.631Zm-2.085,65.585H42.221V42.8h62.641Z" transform="translate(-27.565 -11.317)" fill="#888"/>
          <path id="Path_1537" data-name="Path 1537" d="M70.4,29.434H84.211A1.491,1.491,0,0,0,85.689,27.8L83.745,7.238a1.489,1.489,0,0,0-1.478-1.354H72.346a1.489,1.489,0,0,0-1.478,1.354L68.924,27.8A1.492,1.492,0,0,0,70.4,29.434Zm6.9-19.522a3.559,3.559,0,1,1-3.533,3.558A3.546,3.546,0,0,1,77.306,9.912Z" transform="translate(-32.686 -5.884)" fill="#888"/>
        </g>
        <g id="Group_2786" data-name="Group 2786" transform="translate(26.974 36.489)">
          <path id="Union_69" data-name="Union 69" d="M8.206,49.564a7.97,7.97,0,0,1-5.912-2.3A8.521,8.521,0,0,1,0,41.04c0-1,.032-1.981.093-2.927A31.2,31.2,0,0,1,.47,34.98a26.043,26.043,0,0,1,.723-3.148,16.123,16.123,0,0,1,1.215-2.938,11.021,11.021,0,0,1,1.832-2.543A8.025,8.025,0,0,1,6.871,24.59a8.6,8.6,0,0,1,3.36-.649,3.3,3.3,0,0,1,1.82.823c.554.385,1.193.823,1.9,1.3A10.5,10.5,0,0,0,16.4,27.22a8.983,8.983,0,0,0,6,0,10.573,10.573,0,0,0,2.454-1.152c.713-.485,1.352-.924,1.9-1.3a3.3,3.3,0,0,1,1.821-.823,8.611,8.611,0,0,1,3.36.647,8.027,8.027,0,0,1,2.632,1.762A11.023,11.023,0,0,1,36.4,28.895a16.078,16.078,0,0,1,1.215,2.937,26.1,26.1,0,0,1,.723,3.149,31.3,31.3,0,0,1,.377,3.132h0c.062.944.094,1.93.094,2.928a8.516,8.516,0,0,1-2.294,6.227,7.971,7.971,0,0,1-5.911,2.3ZM11.19,20.378a11.943,11.943,0,0,1-3.282-8.441A11.94,11.94,0,0,1,11.19,3.5a10.722,10.722,0,0,1,15.845,0,11.947,11.947,0,0,1,3.282,8.44,11.945,11.945,0,0,1-3.282,8.441,10.721,10.721,0,0,1-15.845,0Z" transform="translate(0 0)" fill="#4ba9d9"/>
        </g>
      </g>
    </g>
    <g id="Group_2965" data-name="Group 2965" transform="translate(-20771.846 12583.563)">
      <path id="noun_identification_9042" d="M79.241,21.725A2.725,2.725,0,0,0,76.515,19H4.726A2.725,2.725,0,0,0,2,21.725V65.356A2.726,2.726,0,0,0,4.726,68.08h71.79a2.726,2.726,0,0,0,2.725-2.725ZM30.161,52.793H8.437c-.72-2.849,1.118-4.42,4.1-5.108,2.917-.671,4.969-2,3.144-3.822-5.338-5.338-1.348-11.835,3.6-11.835s8.98,6.5,3.642,11.835c-1.826,1.826.184,3.151,3.1,3.822C29,48.372,30.882,49.944,30.161,52.793Zm42.643,0H34.988V49.574H72.8Zm0-8.046H34.988V41.529H72.8Zm0-8.046H34.988V33.483H72.8Z" transform="translate(13.449 -0.091)" fill="#327495"/>
      <rect id="Rectangle_1399" data-name="Rectangle 1399" width="70" height="25" transform="translate(19.846 30.437)" fill="#327495"/>
      <g id="noun_Seal_147135" transform="translate(20.936 31.105)">
        <path id="Path_1946" data-name="Path 1946" d="M44.225,50.808a.612.612,0,0,1-.342-.114l-2.618-1.9-2.618,1.9a.569.569,0,0,1-.683,0,.6.6,0,0,1-.19-.645l.987-3.074-2.618-1.9a.6.6,0,0,1-.19-.645.571.571,0,0,1,.531-.379h3.226l.987-3.074a.562.562,0,0,1,1.063,0l.987,3.074h3.226a.571.571,0,0,1,.531.379.6.6,0,0,1-.19.645l-2.618,1.9.987,3.074a.6.6,0,0,1-.19.645A.3.3,0,0,1,44.225,50.808Zm-2.96-3.3a.612.612,0,0,1,.342.114l1.556,1.138-.607-1.822a.6.6,0,0,1,.19-.645L44.3,45.154H42.4a.571.571,0,0,1-.531-.379l-.607-1.784-.607,1.822a.571.571,0,0,1-.531.379h-1.9l1.556,1.138a.6.6,0,0,1,.19.645L39.368,48.8l1.556-1.138A.464.464,0,0,1,41.265,47.507Z" transform="translate(-28.997 -33.274)" fill="#f6f6f6" stroke="#f6f6f6" stroke-width="0.2"/>
        <g id="Group_2719" data-name="Group 2719" transform="translate(0 0)">
          <path id="Path_1947" data-name="Path 1947" d="M34.031,35.134l1.841-1.4a2.229,2.229,0,0,0,.775-2.412l-.678-2.249a1.351,1.351,0,0,1,0-.717l.678-2.249a2.229,2.229,0,0,0-.775-2.412l-1.841-1.4a1.508,1.508,0,0,1-.42-.587l-.775-2.217a2.2,2.2,0,0,0-2.035-1.5l-2.294-.033a1.008,1.008,0,0,1-.678-.228l-1.906-1.336a2.225,2.225,0,0,0-2.52,0L21.5,17.728a1.211,1.211,0,0,1-.678.228l-2.326.033a2.266,2.266,0,0,0-2.035,1.5L15.681,21.7a1.24,1.24,0,0,1-.42.587l-1.841,1.4a2.214,2.214,0,0,0-.743,2.412l.678,2.249a1.351,1.351,0,0,1,0,.717l-.678,2.249a2.229,2.229,0,0,0,.775,2.412l1.841,1.4a1.508,1.508,0,0,1,.42.587l.775,2.217a2.2,2.2,0,0,0,2.035,1.5l2.326.033a1.008,1.008,0,0,1,.678.228l1.906,1.336a2.14,2.14,0,0,0,1.26.391,2.213,2.213,0,0,0,1.26-.391L27.861,39.7a1.211,1.211,0,0,1,.678-.228l2.326-.033a2.266,2.266,0,0,0,2.035-1.5l.775-2.217A.822.822,0,0,1,34.031,35.134Zm-.582-.782a2.014,2.014,0,0,0-.743,1.043l-.775,2.217a1.185,1.185,0,0,1-1.131.815l-2.326.065a2.018,2.018,0,0,0-1.2.391l-1.906,1.336a1.206,1.206,0,0,1-1.389,0l-1.906-1.336a2.018,2.018,0,0,0-1.2-.391l-2.358-.065a1.229,1.229,0,0,1-1.131-.815l-.775-2.217a2.014,2.014,0,0,0-.743-1.043l-1.841-1.4a1.2,1.2,0,0,1-.42-1.336l.678-2.249a2.132,2.132,0,0,0,0-1.271l-.678-2.249a1.232,1.232,0,0,1,.42-1.336l1.841-1.4a2.014,2.014,0,0,0,.743-1.043l.775-2.217a1.185,1.185,0,0,1,1.131-.815L20.85,19a2.018,2.018,0,0,0,1.2-.391l1.906-1.336a1.317,1.317,0,0,1,.711-.228,1.156,1.156,0,0,1,.711.228l1.906,1.336a2.018,2.018,0,0,0,1.2.391l2.326.033a1.229,1.229,0,0,1,1.131.815l.775,2.217a2.014,2.014,0,0,0,.743,1.043l1.841,1.4a1.2,1.2,0,0,1,.42,1.336l-.646,2.217a2.132,2.132,0,0,0,0,1.271l.678,2.249a1.232,1.232,0,0,1-.42,1.336Z" transform="translate(-12.57 -16)" fill="#f6f6f6" stroke="#f6f6f6" stroke-width="0.2"/>
          <path id="Path_1948" data-name="Path 1948" d="M42.542,26.521h.114a8.825,8.825,0,0,1,1.063-.19.574.574,0,1,0-.152-1.138c-.379.038-.8.114-1.176.19a.579.579,0,0,0,.152,1.138Z" transform="translate(-32.506 -21.702)" fill="#f6f6f6" stroke="#f6f6f6" stroke-width="0.2"/>
          <path id="Path_1949" data-name="Path 1949" d="M34.835,78.086a7.15,7.15,0,0,1-.911-.531.6.6,0,0,0-.8.152.562.562,0,0,0,.152.8c.342.228.683.417,1.025.607a.7.7,0,0,0,.266.076.547.547,0,0,0,.493-.3A.6.6,0,0,0,34.835,78.086Z" transform="translate(-26.439 -57.633)" fill="#f6f6f6" stroke="#f6f6f6" stroke-width="0.2"/>
          <path id="Path_1950" data-name="Path 1950" d="M33.421,29.883a.715.715,0,0,0,.3-.076c.3-.19.607-.379.911-.531a.56.56,0,1,0-.531-.987c-.342.19-.683.379-1.025.607a.562.562,0,0,0-.152.8A.721.721,0,0,0,33.421,29.883Z" transform="translate(-26.303 -24.276)" fill="#f6f6f6" stroke="#f6f6f6" stroke-width="0.2"/>
          <path id="Path_1951" data-name="Path 1951" d="M43.818,81.462a10.4,10.4,0,0,1-1.063-.19.566.566,0,0,0-.266,1.1c.379.076.8.152,1.176.19h.076a.606.606,0,0,0,.569-.493A.547.547,0,0,0,43.818,81.462Z" transform="translate(-32.574 -60.667)" fill="#f6f6f6" stroke="#f6f6f6" stroke-width="0.2"/>
          <path id="Path_1952" data-name="Path 1952" d="M22.369,62.248a.576.576,0,0,0-1.1.342,9.443,9.443,0,0,0,.417,1.1.537.537,0,0,0,.531.342.481.481,0,0,0,.228-.038.572.572,0,0,0,.3-.759A7.6,7.6,0,0,1,22.369,62.248Z" transform="translate(-17.956 -47.099)" fill="#f6f6f6" stroke="#f6f6f6" stroke-width="0.2"/>
          <path id="Path_1953" data-name="Path 1953" d="M21.59,44.592c.038,0,.114.038.152.038a.559.559,0,0,0,.531-.417c.114-.342.228-.683.379-1.025a.578.578,0,0,0-1.063-.455c-.152.379-.3.759-.417,1.138A.626.626,0,0,0,21.59,44.592Z" transform="translate(-17.898 -33.901)" fill="#f6f6f6" stroke="#f6f6f6" stroke-width="0.2"/>
          <path id="Path_1954" data-name="Path 1954" d="M52.387,26.332a10.4,10.4,0,0,1,1.063.19h.114a.6.6,0,0,0,.569-.455.566.566,0,0,0-.417-.683c-.379-.076-.8-.152-1.176-.19a.574.574,0,0,0-.152,1.138Z" transform="translate(-39.244 -21.702)" fill="#f6f6f6" stroke="#f6f6f6" stroke-width="0.2"/>
          <path id="Path_1955" data-name="Path 1955" d="M26.817,70.92a.569.569,0,1,0-.911.683c.228.3.493.607.759.911a.609.609,0,0,0,.417.19.487.487,0,0,0,.379-.152.587.587,0,0,0,.038-.8A6.607,6.607,0,0,1,26.817,70.92Z" transform="translate(-21.526 -53.075)" fill="#f6f6f6" stroke="#f6f6f6" stroke-width="0.2"/>
          <path id="Path_1956" data-name="Path 1956" d="M25.92,36a.612.612,0,0,0,.342.114.541.541,0,0,0,.455-.228c.228-.266.455-.569.683-.835a.564.564,0,0,0-.835-.759c-.266.3-.531.607-.759.911A.555.555,0,0,0,25.92,36Z" transform="translate(-21.458 -28.269)" fill="#f6f6f6" stroke="#f6f6f6" stroke-width="0.2"/>
          <path id="Path_1957" data-name="Path 1957" d="M20.607,54.339a.56.56,0,0,0,.531-.607V52.707A.57.57,0,1,0,20,52.631v1.176l.569-.038L20,53.808a.587.587,0,0,0,.607.531Z" transform="translate(-17.181 -40.491)" fill="#f6f6f6" stroke="#f6f6f6" stroke-width="0.2"/>
          <path id="Path_1958" data-name="Path 1958" d="M75.047,44.075a.609.609,0,0,0,.531.417.228.228,0,0,0,.152-.038.583.583,0,0,0,.379-.721,9.442,9.442,0,0,0-.417-1.1.578.578,0,0,0-1.063.455A4.534,4.534,0,0,1,75.047,44.075Z" transform="translate(-54.551 -33.831)" fill="#f6f6f6" stroke="#f6f6f6" stroke-width="0.2"/>
          <path id="Path_1959" data-name="Path 1959" d="M53.549,81.273a8.823,8.823,0,0,1-1.063.19.568.568,0,0,0-.493.645.544.544,0,0,0,.569.493h.076c.379-.038.8-.114,1.176-.19a.585.585,0,0,0-.266-1.138Z" transform="translate(-39.312 -60.667)" fill="#f6f6f6" stroke="#f6f6f6" stroke-width="0.2"/>
          <path id="Path_1960" data-name="Path 1960" d="M78.133,52.425a.54.54,0,0,0-.607-.531.56.56,0,0,0-.531.607v1.1a.613.613,0,0,0,.531.607h.038a.551.551,0,0,0,.569-.531V52.425Z" transform="translate(-56.765 -40.355)" fill="#f6f6f6" stroke="#f6f6f6" stroke-width="0.2"/>
          <path id="Path_1961" data-name="Path 1961" d="M71.03,70.706a.555.555,0,0,0-.8.114c-.228.3-.455.569-.683.835a.55.55,0,0,0,.038.8.544.544,0,0,0,.379.152.609.609,0,0,0,.417-.19c.266-.3.531-.607.759-.911A.594.594,0,0,0,71.03,70.706Z" transform="translate(-51.074 -53.007)" fill="#f6f6f6" stroke="#f6f6f6" stroke-width="0.2"/>
          <path id="Path_1962" data-name="Path 1962" d="M75.83,61.868a.6.6,0,0,0-.721.379c-.114.342-.228.683-.379,1.025a.585.585,0,0,0,.3.759.481.481,0,0,0,.228.038.572.572,0,0,0,.531-.342c.152-.379.3-.759.417-1.138A.583.583,0,0,0,75.83,61.868Z" transform="translate(-54.619 -47.103)" fill="#f6f6f6" stroke="#f6f6f6" stroke-width="0.2"/>
          <path id="Path_1963" data-name="Path 1963" d="M61.693,29.053c.3.152.645.342.949.531a.456.456,0,0,0,.3.076.553.553,0,0,0,.493-.266.6.6,0,0,0-.152-.8c-.342-.228-.683-.417-1.025-.607a.548.548,0,0,0-.759.266A.509.509,0,0,0,61.693,29.053Z" transform="translate(-45.674 -24.077)" fill="#f6f6f6" stroke="#f6f6f6" stroke-width="0.2"/>
          <path id="Path_1964" data-name="Path 1964" d="M70.158,35.806a.541.541,0,0,0,.455.228.612.612,0,0,0,.342-.114.555.555,0,0,0,.114-.8c-.228-.3-.493-.607-.759-.911a.564.564,0,1,0-.835.759C69.7,35.237,69.93,35.5,70.158,35.806Z" transform="translate(-51.033 -28.227)" fill="#f6f6f6" stroke="#f6f6f6" stroke-width="0.2"/>
          <path id="Path_1965" data-name="Path 1965" d="M62.7,77.468c-.3.19-.607.379-.911.531a.619.619,0,0,0-.266.759.592.592,0,0,0,.493.3.7.7,0,0,0,.266-.076c.342-.19.683-.379,1.025-.607a.562.562,0,0,0,.152-.8A.618.618,0,0,0,62.7,77.468Z" transform="translate(-45.736 -57.574)" fill="#f6f6f6" stroke="#f6f6f6" stroke-width="0.2"/>
        </g>
      </g>
      <g id="Group_1779" data-name="Group 1779" transform="translate(0 0)">
        <g id="Rectangle_1253" data-name="Rectangle 1253" transform="translate(8.72 10.917)" fill="#fff" stroke="#707070" stroke-width="1">
          <rect width="20.188" height="14.954" stroke="none"/>
          <rect x="0.5" y="0.5" width="19.188" height="13.954" fill="none"/>
        </g>
        <g id="Group_1750" data-name="Group 1750" transform="translate(0)">
          <path id="noun_Stamp_831862" d="M85.975,30.114a3.888,3.888,0,0,0,0,4.643A3.888,3.888,0,0,1,83.994,40.8a3.888,3.888,0,0,0-2.729,3.739,3.881,3.881,0,0,1-5.129,3.739,3.888,3.888,0,0,0-4.411,1.436,3.888,3.888,0,0,1-6.341,0,3.888,3.888,0,0,0-4.411-1.436,3.881,3.881,0,0,1-5.129-3.739A3.888,3.888,0,0,0,53.076,40.8a3.888,3.888,0,0,1-1.959-6.027,3.888,3.888,0,0,0,0-4.643,3.888,3.888,0,0,1,1.959-6.049,3.888,3.888,0,0,0,2.729-3.739A3.881,3.881,0,0,1,60.935,16.6a3.888,3.888,0,0,0,4.412-1.436,3.888,3.888,0,0,1,6.341,0A3.888,3.888,0,0,0,76.1,16.6a3.881,3.881,0,0,1,5.129,3.739,3.888,3.888,0,0,0,2.729,3.739,3.888,3.888,0,0,1,2.019,6.034Zm-11.717-2.1a2.288,2.288,0,0,0-3.238,0l-3.978,3.978-.95-.95a2.289,2.289,0,1,0-3.238,3.238l.95.95,1.623,1.623a2.3,2.3,0,0,0,3.238,0l1.608-1.623,3.978-3.978a2.288,2.288,0,0,0,.007-3.238Z" transform="translate(-50.338 -13.53)" fill="#4ba9d9"/>
        </g>
      </g>
      <rect id="Rectangle_1400" data-name="Rectangle 1400" width="36" height="2" rx="1" transform="translate(50.846 36.437)" fill="#fff"/>
      <rect id="Rectangle_1401" data-name="Rectangle 1401" width="36" height="1" rx="0.5" transform="translate(50.846 43.437)" fill="#fff"/>
      <rect id="Rectangle_1402" data-name="Rectangle 1402" width="36" height="2" rx="1" transform="translate(50.846 49.437)" fill="#fff"/>
    </g>
    <g id="Group_2966" data-name="Group 2966" transform="translate(-20740.908 12627.493)">
      <rect id="Rectangle_1270" data-name="Rectangle 1270" width="58" height="57" rx="28.5" transform="translate(-0.092 -0.494)" fill="#9a9a9a"/>
      <g id="upload" transform="translate(12.692 7.932)">
        <g id="Group_1032" data-name="Group 1032" transform="translate(7.676)">
          <g id="Group_1031" data-name="Group 1031" transform="translate(0)">
            <path id="Path_1134" data-name="Path 1134" d="M145.272,9.148,137.6.375a1.094,1.094,0,0,0-1.649,0L128.27,9.148a1.1,1.1,0,0,0,.825,1.818h4.387V25.223a1.1,1.1,0,0,0,1.1,1.1h4.387a1.1,1.1,0,0,0,1.1-1.1V10.966h4.387a1.1,1.1,0,0,0,.825-1.818Z" transform="translate(-127.998)" fill="#fff"/>
          </g>
        </g>
        <g id="Group_1034" data-name="Group 1034" transform="translate(0 24.126)">
          <g id="Group_1033" data-name="Group 1033">
            <path id="Path_1135" data-name="Path 1135" d="M44.513,352v6.58H20.387V352H16v8.773a2.193,2.193,0,0,0,2.193,2.193H46.706a2.191,2.191,0,0,0,2.193-2.193V352Z" transform="translate(-16 -352)" fill="#fff"/>
          </g>
        </g>
      </g>
    </g>
  </g>
</svg>
