<svg id="print" xmlns="http://www.w3.org/2000/svg" width="75.615" height="78.806" viewBox="0 0 75.615 78.806">
  <g id="Group_1238" data-name="Group 1238" transform="translate(0 0)">
    <g id="Group_1177" data-name="Group 1177">
      <g id="Group_1176" data-name="Group 1176">
        <path id="Path_1176" data-name="Path 1176" d="M69.734,37.249h-8.02V20.891a2.687,2.687,0,0,0-2.521-2.826H16.421A2.687,2.687,0,0,0,13.9,20.891V37.249H5.881C2.638,37.249,0,40.207,0,43.844V72.278c0,3.636,2.638,6.595,5.881,6.595H13.9V94.044a2.687,2.687,0,0,0,2.521,2.826H59.193a2.687,2.687,0,0,0,2.521-2.826V78.873h8.02c3.243,0,5.881-2.958,5.881-6.595V43.844C75.615,40.207,72.976,37.249,69.734,37.249ZM18.942,23.718H56.673V37.249H18.942Zm37.731,67.5H18.942V68.1h37.73C56.672,68.8,56.672,90.687,56.672,91.218Zm13.9-18.94a.9.9,0,0,1-.84.942h-8.02V65.269a2.687,2.687,0,0,0-2.521-2.826H16.422A2.687,2.687,0,0,0,13.9,65.269V73.22H5.881a.9.9,0,0,1-.84-.942V43.844a.9.9,0,0,1,.84-.942H69.734a.9.9,0,0,1,.84.942Z" transform="translate(0 -18.065)" fill="#484848"/>
      </g>
    </g>
    <g id="Group_1179" data-name="Group 1179" transform="translate(50.257 30.127)">
      <g id="Group_1178" data-name="Group 1178">
        <path id="Path_1177" data-name="Path 1177" d="M349.235,199.988h-6.416a2.845,2.845,0,0,0,0,5.653h6.416a2.845,2.845,0,0,0,0-5.653Z" transform="translate(-340.298 -199.988)" fill="#484848"/>
      </g>
    </g>
    <g id="Group_1181" data-name="Group 1181" transform="translate(24.365 63.222)">
      <g id="Group_1180" data-name="Group 1180">
        <path id="Path_1178" data-name="Path 1178" d="M189.342,399.834H167.5a2.845,2.845,0,0,0,0,5.653h21.844a2.845,2.845,0,0,0,0-5.653Z" transform="translate(-164.977 -399.834)" fill="#484848"/>
      </g>
    </g>
    <g id="Group_1183" data-name="Group 1183" transform="translate(24.365 54.308)">
      <g id="Group_1182" data-name="Group 1182">
        <path id="Path_1179" data-name="Path 1179" d="M189.342,346.006H167.5a2.845,2.845,0,0,0,0,5.653h21.844a2.845,2.845,0,0,0,0-5.653Z" transform="translate(-164.977 -346.006)" fill="#484848"/>
      </g>
    </g>
  </g>
</svg>
