<svg xmlns="http://www.w3.org/2000/svg" xmlns:xlink="http://www.w3.org/1999/xlink" width="1218" height="2349" viewBox="0 0 1218 2349">
  <defs>
    <filter id="Rectangle_1232" x="0" y="0" width="1218" height="2349" filterUnits="userSpaceOnUse">
      <feOffset dy="3" input="SourceAlpha"/>
      <feGaussianBlur stdDeviation="3" result="blur"/>
      <feFlood flood-opacity="0.161"/>
      <feComposite operator="in" in2="blur"/>
      <feComposite in="SourceGraphic"/>
    </filter>
  </defs>
  <g id="Group_2092" data-name="Group 2092" transform="translate(-351 -5827)">
    <g transform="matrix(1, 0, 0, 1, 351, 5827)" filter="url(#Rectangle_1232)">
      <rect id="Rectangle_1232-2" data-name="Rectangle 1232" width="1200" height="2331" rx="8" transform="translate(9 6)" fill="#fff"/>
    </g>
    <g id="Component_10_7" data-name="Component 10 – 7" transform="translate(512 6023)">
      <g id="Rectangle_1267" data-name="Rectangle 1267" transform="translate(447)" fill="#53aa56" stroke="#53aa56" stroke-width="2">
        <path d="M0,0H432a18,18,0,0,1,18,18V48a18,18,0,0,1-18,18H0a0,0,0,0,1,0,0V0A0,0,0,0,1,0,0Z" stroke="none"/>
        <path d="M2,1H432a17,17,0,0,1,17,17V48a17,17,0,0,1-17,17H2a1,1,0,0,1-1-1V2A1,1,0,0,1,2,1Z" fill="none"/>
      </g>
      <g id="Rectangle_1268" data-name="Rectangle 1268" fill="#fff" stroke="#53aa56" stroke-width="4">
        <path d="M18,0H449a0,0,0,0,1,0,0V66a0,0,0,0,1,0,0H18A18,18,0,0,1,0,48V18A18,18,0,0,1,18,0Z" stroke="none"/>
        <path d="M18,2H445a2,2,0,0,1,2,2V62a2,2,0,0,1-2,2H18A16,16,0,0,1,2,48V18A16,16,0,0,1,18,2Z" fill="none"/>
      </g>
      <text id="Technical_Steps" data-name="Technical Steps" transform="translate(672 45)" fill="#fff" font-size="30" font-family="SegoeUI-Bold, Segoe UI" font-weight="700"><tspan x="-106.626" y="0">Technical Steps</tspan></text>
      <text id="What_s_happening_" data-name="What&apos;s happening?" transform="translate(224 45)" fill="#53aa56" font-size="30" font-family="SegoeUI-Bold, Segoe UI" font-weight="700"><tspan x="-134.487" y="0">What&apos;s happening?</tspan></text>
    </g>
    <g id="Group_2033" data-name="Group 2033" transform="translate(0 5468)">
      <rect id="Rectangle_1259" data-name="Rectangle 1259" width="1200" height="175" transform="translate(360 1896)" fill="#e9e9e9"/>
      <text id="_This_hash_string_is_then_compared_to_the_original_hash_string_decrypted_using_the_Notary_s_PEM_Key_Step_3_._If_both_strings_are_exactly_the_same_that_means_the_document_hasn_t_been_altered_in_any_way." data-name="       This hash string is then compared to the original hash string decrypted using the Notary&apos;s PEM Key (Step 3). If both strings are exactly the same, that means the document hasn&apos;t been altered in any way." transform="translate(512 1928)" fill="#9a9a9a" font-size="28" font-family="SegoeUI, Segoe UI"><tspan x="0" y="30" xml:space="preserve">       This hash string is then compared to the original hash string decrypted </tspan><tspan x="0" y="67">using the Notary&apos;s PEM Key (Step 3). If both strings are exactly the same, that </tspan><tspan x="0" y="104">means the document hasn&apos;t been altered in any way.</tspan></text>
      <text id="_6" data-name="6" transform="translate(427 2017)" fill="#9a9a9a" font-size="80" font-family="SegoeUI-Bold, Segoe UI" font-weight="700"><tspan x="-23.008" y="0">6</tspan></text>
    </g>
    <g id="Group_2021" data-name="Group 2021" transform="translate(0 4215)">
      <rect id="Rectangle_1260" data-name="Rectangle 1260" width="1200" height="178" transform="translate(360 2014)" fill="#fff"/>
      <g id="Group_1848" data-name="Group 1848" transform="translate(0 -11)">
        <g id="noun_Select_Type_Cursor_878660" data-name="noun_Select Type Cursor_878660" transform="translate(420 2093)">
          <path id="Path_1554" data-name="Path 1554" d="M43.924,32.646H26.56a2.043,2.043,0,0,1,0-4.086H43.926a1.025,1.025,0,0,0,1.022-1.024V17.325A1.025,1.025,0,0,0,43.924,16.3H26.56a2.043,2.043,0,0,1,0-4.086H43.924a5.116,5.116,0,0,1,5.11,5.11V27.536A5.116,5.116,0,0,1,43.924,32.646Zm-33.708,0H5.11A5.116,5.116,0,0,1,0,27.536V17.325a5.116,5.116,0,0,1,5.11-5.11h5.106a2.043,2.043,0,1,1,0,4.086H5.11a1.025,1.025,0,0,0-1.024,1.024V27.536A1.025,1.025,0,0,0,5.11,28.56h5.106a2.043,2.043,0,1,1,0,4.086Zm8.172,10.215a2.042,2.042,0,0,1-2.043-2.043V4.043a2.043,2.043,0,1,1,4.086,0V40.818A2.042,2.042,0,0,1,18.388,42.861ZM24.517,6.086H12.258a2.043,2.043,0,1,1,0-4.086H24.517a2.043,2.043,0,1,1,0,4.086Zm0,36.775H12.258a2.043,2.043,0,0,1,0-4.086H24.517a2.043,2.043,0,0,1,0,4.086Z" fill="#888"/>
        </g>
        <text id="INPUT" transform="translate(529 2067)" fill="#888" font-size="30" font-family="SegoeUI-Bold, Segoe UI" font-weight="700" letter-spacing="0.03em"><tspan x="0" y="32">INPUT</tspan></text>
        <text id="Document_Image_File_Scroll_to_the_top_for_a_preview_of_it_" data-name="Document Image File (Scroll to the top for a preview of it)" transform="translate(529 2111)" fill="#9a9a9a" font-size="25" font-family="SegoeUI, Segoe UI"><tspan x="0" y="27">Document Image File (Scroll to the top for a preview of it)</tspan></text>
      </g>
    </g>
    <g id="Group_2025" data-name="Group 2025" transform="translate(0 4861)">
      <rect id="Rectangle_1260-2" data-name="Rectangle 1260" width="1200" height="204" transform="translate(360 2014)" fill="#fff"/>
      <g id="Group_1848-2" data-name="Group 1848" transform="translate(0 -11)">
        <g id="noun_Select_Type_Cursor_878660-2" data-name="noun_Select Type Cursor_878660" transform="translate(420 2093)">
          <path id="Path_1554-2" data-name="Path 1554" d="M43.924,32.646H26.56a2.043,2.043,0,0,1,0-4.086H43.926a1.025,1.025,0,0,0,1.022-1.024V17.325A1.025,1.025,0,0,0,43.924,16.3H26.56a2.043,2.043,0,0,1,0-4.086H43.924a5.116,5.116,0,0,1,5.11,5.11V27.536A5.116,5.116,0,0,1,43.924,32.646Zm-33.708,0H5.11A5.116,5.116,0,0,1,0,27.536V17.325a5.116,5.116,0,0,1,5.11-5.11h5.106a2.043,2.043,0,1,1,0,4.086H5.11a1.025,1.025,0,0,0-1.024,1.024V27.536A1.025,1.025,0,0,0,5.11,28.56h5.106a2.043,2.043,0,1,1,0,4.086Zm8.172,10.215a2.042,2.042,0,0,1-2.043-2.043V4.043a2.043,2.043,0,1,1,4.086,0V40.818A2.042,2.042,0,0,1,18.388,42.861ZM24.517,6.086H12.258a2.043,2.043,0,1,1,0-4.086H24.517a2.043,2.043,0,1,1,0,4.086Zm0,36.775H12.258a2.043,2.043,0,0,1,0-4.086H24.517a2.043,2.043,0,0,1,0,4.086Z" fill="#888"/>
        </g>
        <text id="INPUT-2" data-name="INPUT" transform="translate(529 2067)" fill="#888" font-size="30" font-family="SegoeUI-Bold, Segoe UI" font-weight="700" letter-spacing="0.03em"><tspan x="0" y="32">INPUT</tspan></text>
        <text id="Base64_Code:_JVBERi0xLjQKMSAwIG9iago8PAovVGl0bGUgKP7_KQovQ3JlYXRvciAo_v8pCi9Qcm9kdWNlciAo_v8AUQB0ACAANQAuADUALgAxKQovQ3JlYXRpb25EYXRlIChEOjIwMjAwNDIzMTk1MzQ0KQo_PgplbmRvYmoKMiAwIG9iago8PAovVHlwZSAvQ2F0YWxvZwovUGFnZXMgMyAwIFIKPj4KZW5kb2JqCjQgMCBvYmoKPDwKL1" data-name="Base64 Code: 
JVBERi0xLjQKMSAwIG9iago8PAovVGl0bGUgKP7/KQovQ3JlYXRvciAo/v8pCi9Qcm9kdWNlciAo/v8AUQB0ACAANQAuADUALgAxKQovQ3JlYXRpb25EYXRlIChEOjIwMjAwNDIzMTk1MzQ0KQo+PgplbmRvYmoKMiAwIG9iago8PAovVHlwZSAvQ2F0YWxvZwovUGFnZXMgMyAwIFIKPj4KZW5kb2JqCjQgMCBvYmoKPDwKL1" transform="translate(529 2111)" fill="#9a9a9a" font-size="25" font-family="SegoeUI, Segoe UI"><tspan x="0" y="27">Base64 Code: </tspan><tspan x="0" y="60">JVBERi0xLjQKMSAwIG9iago8PAovVGl0bGUgKP7/KQovQ3JlYXRvciAo/v8pCi9Qcm9kdWNlciAo/</tspan></text>
      </g>
    </g>
    <g id="Group_2020" data-name="Group 2020" transform="translate(0 3571)">
      <rect id="Rectangle_1262" data-name="Rectangle 1262" width="1200" height="94" transform="translate(360 2564)" fill="#e9e9e9"/>
      <text id="The_JWT_is_then_decoded_to_obtain_VC_Verifiable_Credential_payload" data-name="The JWT is then decoded to obtain VC (Verifiable Credential) payload" transform="translate(512 2623)" fill="#9a9a9a" font-size="28" font-family="SegoeUI, Segoe UI"><tspan x="0" y="0">The JWT is then decoded to obtain VC (Verifiable Credential) payload</tspan></text>
      <text id="_4" data-name="4" transform="translate(427 2638)" fill="#9a9a9a" font-size="80" font-family="SegoeUI-Bold, Segoe UI" font-weight="700"><tspan x="-23.008" y="0">4</tspan></text>
    </g>
    <g id="Group_2024" data-name="Group 2024" transform="translate(0 4217)">
      <rect id="Rectangle_1262-2" data-name="Rectangle 1262" width="1200" height="94" transform="translate(360 2564)" fill="#e9e9e9"/>
      <text id="The_base64_code_is_then_calculated_into_a_hash_string" data-name="The base64 code is then calculated into a hash string" transform="translate(512 2623)" fill="#9a9a9a" font-size="28" font-family="SegoeUI, Segoe UI"><tspan x="0" y="0">The base64 code is then calculated into a hash string</tspan></text>
      <text id="_5" data-name="5" transform="translate(427 2638)" fill="#9a9a9a" font-size="80" font-family="SegoeUI-Bold, Segoe UI" font-weight="700"><tspan x="-23.008" y="0">5</tspan></text>
    </g>
    <g id="Group_2022" data-name="Group 2022" transform="translate(0 4216)">
      <path id="Path_1566" data-name="Path 1566" d="M0,0H1183.7V237H0Z" transform="translate(360.799 2191)" fill="#fff"/>
      <g id="Group_1865" data-name="Group 1865" transform="translate(0 166)">
        <text id="OUTPUT" transform="translate(529 2067)" fill="#888" font-size="30" font-family="SegoeUI-Bold, Segoe UI" font-weight="700" letter-spacing="0.03em"><tspan x="0" y="32">OUTPUT</tspan></text>
        <text id="Public_Keys:_did:ethr:0x6efedeaec20e79071251fffa655F1bdDCa65c027_owner_JWT_Payload:_eyJ0eXAiOiJKV1QiLCJhbGciOiJFUzI1NkstUiJ9.eyJpYXQiOjE1ODc2NzE2MjUsInN1YiI6ImRpZDpldGhyOjB4NmVmZWRlYWVjMjBlNzkwNzEyNTFmZmZhNjU1RjFiZERDYTY1YzAyNyIsIm5iZiI6MTU4NzY3MTYyNCwidmM" data-name="Public Keys: did:ethr:0x6efedeaec20e79071251fffa655F1bdDCa65c027#owner
JWT Payload: eyJ0eXAiOiJKV1QiLCJhbGciOiJFUzI1NkstUiJ9.eyJpYXQiOjE1ODc2NzE2MjUsInN1YiI6ImRpZDpldGhyOjB4NmVmZWRlYWVjMjBlNzkwNzEyNTFmZmZhNjU1RjFiZERDYTY1YzAyNyIsIm5iZiI6MTU4NzY3MTYyNCwidmM" transform="translate(529 2111)" fill="#9a9a9a" font-size="25" font-family="SegoeUI, Segoe UI"><tspan x="0" y="27">Public Keys: did:ethr:0x6efedeaec20e79071251fffa655F1bdDCa65c027#owner</tspan><tspan x="0" y="60">JWT Payload: </tspan><tspan x="0" y="93">eyJ0eXAiOiJKV1QiLCJhbGciOiJFUzI1NkstUiJ9.eyJpYXQiOjE1ODc2NzE2MjUsInN1YiI6ImRpZDpl</tspan></text>
        <g id="noun_text_box_660638" data-name="noun_text box_660638" transform="translate(413 2129)">
          <path id="Path_1556" data-name="Path 1556" d="M48.435,38.772V20.228a7.774,7.774,0,1,0-9.666-9.65H20.231a7.774,7.774,0,1,0-9.661,9.651V38.771a7.774,7.774,0,1,0,9.654,9.671H38.774a7.774,7.774,0,1,0,9.661-9.669Zm-9.666,5.215H20.231a7.757,7.757,0,0,0-5.206-5.215V20.228a7.758,7.758,0,0,0,5.2-5.2H38.775a7.757,7.757,0,0,0,5.205,5.2V38.771A7.757,7.757,0,0,0,38.769,43.987ZM46.2,9.455a3.34,3.34,0,0,1,.014,6.679l-.011,0-.014,0a3.34,3.34,0,0,1,.011-6.68ZM9.454,12.8a3.339,3.339,0,0,1,6.677-.026l-.007.035,0,.026a3.341,3.341,0,0,1-3.32,3.3l-.011,0-.014,0A3.345,3.345,0,0,1,9.454,12.8ZM12.8,49.545a3.341,3.341,0,1,1,3.336-3.366l-.007.035,0,.026A3.342,3.342,0,0,1,12.8,49.545Zm33.409,0A3.341,3.341,0,1,1,49.545,46.2,3.347,3.347,0,0,1,46.2,49.545Z" fill="#888"/>
          <path id="Path_1557" data-name="Path 1557" d="M49.349,32.273H34.5a2.227,2.227,0,0,0,0,4.455H49.349a2.227,2.227,0,0,0,0-4.455Z" transform="translate(-12.424 -12.424)" fill="#888"/>
          <path id="Path_1558" data-name="Path 1558" d="M49.349,45.909H34.5a2.227,2.227,0,0,0,0,4.455H49.349a2.227,2.227,0,0,0,0-4.455Z" transform="translate(-12.424 -18.636)" fill="#888"/>
          <path id="Path_1559" data-name="Path 1559" d="M49.349,59.546H34.5A2.227,2.227,0,1,0,34.5,64H49.349a2.227,2.227,0,1,0,0-4.455Z" transform="translate(-12.424 -24.849)" fill="#888"/>
        </g>
      </g>
    </g>
    <g id="Group_2023" data-name="Group 2023" transform="translate(0 4630)">
      <rect id="Rectangle_1260-3" data-name="Rectangle 1260" width="1200" height="124.6" transform="translate(360 2014)" fill="#fff"/>
      <g id="Group_1848-3" data-name="Group 1848" transform="translate(0 -38)">
        <text id="Try_it_yourself:_https:_base64.guru_converter_encode_pdf" data-name="Try it yourself: https://base64.guru/converter/encode/pdf" transform="translate(529 2125)" fill="#9a9a9a" font-size="25" font-family="SegoeUI, Segoe UI"><tspan x="0" y="0">Try it yourself: https://base64.guru/converter/encode/pdf</tspan></text>
        <g id="noun_url_1146611" transform="translate(410.7 2084.6)">
          <g id="Group_1861" data-name="Group 1861" transform="translate(24.147 24.397)">
            <path id="Path_1563" data-name="Path 1563" d="M39,56.746a2.352,2.352,0,0,0,.7,1.65l3.1,2.8a12.675,12.675,0,0,0,9.1,3.849,12.866,12.866,0,0,0,9.1-21.995L58.046,40.1a2.333,2.333,0,1,0-3.3,3.3L57.7,46.348a8.248,8.248,0,0,1-5.849,14.1A8.243,8.243,0,0,1,46,58.046L43.049,55.1a2.294,2.294,0,0,0-3.3,0A2.136,2.136,0,0,0,39,56.746Z" transform="translate(-39 -39.4)" fill="#888"/>
          </g>
          <g id="Group_1862" data-name="Group 1862" transform="translate(9.3 9.4)">
            <path id="Path_1564" data-name="Path 1564" d="M30.945,19.4a2.294,2.294,0,0,0,3.3,0,2.293,2.293,0,0,0,0-3.249L31.295,13.2a12.625,12.625,0,0,0-9.1-3.8,12.831,12.831,0,0,0-9.1,21.945l2.949,2.949a2.266,2.266,0,0,0,3.3,0,2.294,2.294,0,0,0,0-3.3L16.4,28.046a8.248,8.248,0,0,1,5.849-14.1,8.243,8.243,0,0,1,5.849,2.4Z" transform="translate(-9.3 -9.4)" fill="#888"/>
          </g>
          <g id="Group_1863" data-name="Group 1863" transform="translate(22.247 22.397)">
            <path id="Path_1565" data-name="Path 1565" d="M35.2,37.7a2.352,2.352,0,0,0,.7,1.65l9.948,9.9a2.266,2.266,0,0,0,3.3,0,2.293,2.293,0,0,0,0-3.249L39.2,36.1a2.294,2.294,0,0,0-3.3,0,2.741,2.741,0,0,0-.7,1.6Z" transform="translate(-35.2 -35.4)" fill="#888"/>
          </g>
        </g>
      </g>
    </g>
    <g id="Group_2032" data-name="Group 2032" transform="translate(0 5225)">
      <rect id="Rectangle_1260-4" data-name="Rectangle 1260" width="1200" height="124.6" transform="translate(360 2014)" fill="#fff"/>
      <g id="Group_1848-4" data-name="Group 1848" transform="translate(0 -38)">
        <text id="Try_it_yourself:_https:_base64.guru_converter_encode_pdf-2" data-name="Try it yourself: https://base64.guru/converter/encode/pdf" transform="translate(529 2125)" fill="#9a9a9a" font-size="25" font-family="SegoeUI, Segoe UI"><tspan x="0" y="0">Try it yourself: https://base64.guru/converter/encode/pdf</tspan></text>
        <g id="noun_url_1146611-2" data-name="noun_url_1146611" transform="translate(410.7 2084.6)">
          <g id="Group_1861-2" data-name="Group 1861" transform="translate(24.147 24.397)">
            <path id="Path_1563-2" data-name="Path 1563" d="M39,56.746a2.352,2.352,0,0,0,.7,1.65l3.1,2.8a12.675,12.675,0,0,0,9.1,3.849,12.866,12.866,0,0,0,9.1-21.995L58.046,40.1a2.333,2.333,0,1,0-3.3,3.3L57.7,46.348a8.248,8.248,0,0,1-5.849,14.1A8.243,8.243,0,0,1,46,58.046L43.049,55.1a2.294,2.294,0,0,0-3.3,0A2.136,2.136,0,0,0,39,56.746Z" transform="translate(-39 -39.4)" fill="#888"/>
          </g>
          <g id="Group_1862-2" data-name="Group 1862" transform="translate(9.3 9.4)">
            <path id="Path_1564-2" data-name="Path 1564" d="M30.945,19.4a2.294,2.294,0,0,0,3.3,0,2.293,2.293,0,0,0,0-3.249L31.295,13.2a12.625,12.625,0,0,0-9.1-3.8,12.831,12.831,0,0,0-9.1,21.945l2.949,2.949a2.266,2.266,0,0,0,3.3,0,2.294,2.294,0,0,0,0-3.3L16.4,28.046a8.248,8.248,0,0,1,5.849-14.1,8.243,8.243,0,0,1,5.849,2.4Z" transform="translate(-9.3 -9.4)" fill="#888"/>
          </g>
          <g id="Group_1863-2" data-name="Group 1863" transform="translate(22.247 22.397)">
            <path id="Path_1565-2" data-name="Path 1565" d="M35.2,37.7a2.352,2.352,0,0,0,.7,1.65l9.948,9.9a2.266,2.266,0,0,0,3.3,0,2.293,2.293,0,0,0,0-3.249L39.2,36.1a2.294,2.294,0,0,0-3.3,0,2.741,2.741,0,0,0-.7,1.6Z" transform="translate(-35.2 -35.4)" fill="#888"/>
          </g>
        </g>
      </g>
    </g>
    <g id="Group_2030" data-name="Group 2030" transform="translate(0 5081)">
      <rect id="Rectangle_1260-5" data-name="Rectangle 1260" width="1200" height="162" transform="translate(360 1996)" fill="#fff"/>
      <g id="Group_2031" data-name="Group 2031" transform="translate(0 -29)">
        <text id="OUTPUT-2" data-name="OUTPUT" transform="translate(529 2067)" fill="#888" font-size="30" font-family="SegoeUI-Bold, Segoe UI" font-weight="700" letter-spacing="0.03em"><tspan x="0" y="32">OUTPUT</tspan></text>
        <text id="Hash_String:_FCCB13D5961A13DA9E955A44C8106E39" data-name="Hash String: FCCB13D5961A13DA9E955A44C8106E39" transform="translate(529 2111)" fill="#9a9a9a" font-size="25" font-family="SegoeUI, Segoe UI"><tspan x="0" y="27">Hash String: FCCB13D5961A13DA9E955A44C8106E39</tspan></text>
        <g id="_5ebeb73b2ec1c7494ab0e98d_noun_shape_1992898" data-name="5ebeb73b2ec1c7494ab0e98d_noun_shape_1992898" transform="translate(416.821 2085.51)">
          <g id="Group_2012" data-name="Group 2012" transform="translate(3 3.275)">
            <path id="Path_1706" data-name="Path 1706" d="M25.972,48.31a9.416,9.416,0,0,1-3.829-.957L7.02,39.312A7.9,7.9,0,0,1,3,32.229V19.212A7.625,7.625,0,0,1,7.212,12.32L22.143,4.28a7.435,7.435,0,0,1,7.466,0l15.123,8.04h0A7.705,7.705,0,0,1,48.944,19.4V32.8a7.875,7.875,0,0,1-4.4,7.083L29.609,47.544A11.194,11.194,0,0,1,25.972,48.31ZM25.78,6.96a3.234,3.234,0,0,0-1.914.574L8.934,15.575a4.1,4.1,0,0,0-2.106,3.637V32.229a4.1,4.1,0,0,0,2.106,3.637l15.123,8.04a4.469,4.469,0,0,0,3.829,0l14.932-7.657a4.289,4.289,0,0,0,2.3-3.637v-13.4a4.1,4.1,0,0,0-2.106-3.637L27.886,7.534A4.363,4.363,0,0,0,25.78,6.96Z" transform="translate(-3 -3.275)" fill="#888"/>
          </g>
          <g id="Group_2013" data-name="Group 2013" transform="translate(23.866 14.279)">
            <path id="Path_1707" data-name="Path 1707" d="M16.006,42.671a1.918,1.918,0,0,1-1.914-1.914L13.9,24.293a8,8,0,0,1,4.594-7.274L34.958,9.17a1.885,1.885,0,1,1,1.531,3.446L20.217,20.465a4.354,4.354,0,0,0-2.3,3.829l.191,16.655a2.083,2.083,0,0,1-2.106,1.723Z" transform="translate(-13.9 -9.023)" fill="#888"/>
          </g>
          <g id="Group_2014" data-name="Group 2014" transform="translate(4.193 14.279)">
            <path id="Path_1708" data-name="Path 1708" d="M26.168,22.953a1.151,1.151,0,0,1-.766-.191L4.727,12.616a1.9,1.9,0,0,1-.957-2.489A2.2,2.2,0,0,1,6.45,9.17L27.125,19.316a1.9,1.9,0,0,1,.957,2.489A2.33,2.33,0,0,1,26.168,22.953Z" transform="translate(-3.623 -9.023)" fill="#888"/>
          </g>
        </g>
      </g>
    </g>
    <g id="Group_2035" data-name="Group 2035" transform="translate(0 5543)">
      <rect id="Rectangle_1260-6" data-name="Rectangle 1260" width="1200" height="162" transform="translate(360 1996)" fill="#fff"/>
      <g id="Group_2031-2" data-name="Group 2031" transform="translate(0 -29)">
        <text id="ORIGINAL" transform="translate(529 2067)" fill="#888" font-size="30" font-family="SegoeUI-Bold, Segoe UI" font-weight="700" letter-spacing="0.03em"><tspan x="0" y="32">ORIGINAL</tspan></text>
        <text id="Decrypted_Hash_String:_FCCB13D5961A13DA9E955A44C8106E39" data-name="Decrypted Hash String: FCCB13D5961A13DA9E955A44C8106E39" transform="translate(529 2111)" fill="#9a9a9a" font-size="25" font-family="SegoeUI, Segoe UI"><tspan x="0" y="27">Decrypted Hash String: </tspan><tspan y="27" fill="#53aa56">FCCB13D5961A13DA9E955A44C8106E39</tspan></text>
        <g id="_5ebeb73b2ec1c7494ab0e98d_noun_shape_1992898-2" data-name="5ebeb73b2ec1c7494ab0e98d_noun_shape_1992898" transform="translate(416.821 2085.51)">
          <g id="Group_2012-2" data-name="Group 2012" transform="translate(3 3.275)">
            <path id="Path_1706-2" data-name="Path 1706" d="M25.972,48.31a9.416,9.416,0,0,1-3.829-.957L7.02,39.312A7.9,7.9,0,0,1,3,32.229V19.212A7.625,7.625,0,0,1,7.212,12.32L22.143,4.28a7.435,7.435,0,0,1,7.466,0l15.123,8.04h0A7.705,7.705,0,0,1,48.944,19.4V32.8a7.875,7.875,0,0,1-4.4,7.083L29.609,47.544A11.194,11.194,0,0,1,25.972,48.31ZM25.78,6.96a3.234,3.234,0,0,0-1.914.574L8.934,15.575a4.1,4.1,0,0,0-2.106,3.637V32.229a4.1,4.1,0,0,0,2.106,3.637l15.123,8.04a4.469,4.469,0,0,0,3.829,0l14.932-7.657a4.289,4.289,0,0,0,2.3-3.637v-13.4a4.1,4.1,0,0,0-2.106-3.637L27.886,7.534A4.363,4.363,0,0,0,25.78,6.96Z" transform="translate(-3 -3.275)" fill="#888"/>
          </g>
          <g id="Group_2013-2" data-name="Group 2013" transform="translate(23.866 14.279)">
            <path id="Path_1707-2" data-name="Path 1707" d="M16.006,42.671a1.918,1.918,0,0,1-1.914-1.914L13.9,24.293a8,8,0,0,1,4.594-7.274L34.958,9.17a1.885,1.885,0,1,1,1.531,3.446L20.217,20.465a4.354,4.354,0,0,0-2.3,3.829l.191,16.655a2.083,2.083,0,0,1-2.106,1.723Z" transform="translate(-13.9 -9.023)" fill="#888"/>
          </g>
          <g id="Group_2014-2" data-name="Group 2014" transform="translate(4.193 14.279)">
            <path id="Path_1708-2" data-name="Path 1708" d="M26.168,22.953a1.151,1.151,0,0,1-.766-.191L4.727,12.616a1.9,1.9,0,0,1-.957-2.489A2.2,2.2,0,0,1,6.45,9.17L27.125,19.316a1.9,1.9,0,0,1,.957,2.489A2.33,2.33,0,0,1,26.168,22.953Z" transform="translate(-3.623 -9.023)" fill="#888"/>
          </g>
        </g>
      </g>
    </g>
    <g id="Group_2036" data-name="Group 2036" transform="translate(0 5865)">
      <rect id="Rectangle_1260-7" data-name="Rectangle 1260" width="1200" height="162" transform="translate(360 1996)" fill="#fff"/>
      <g id="Group_2031-3" data-name="Group 2031" transform="translate(0 -29)">
        <text id="VERIFIABLE_IMAGE" data-name="VERIFIABLE IMAGE" transform="translate(529 2067)" fill="#888" font-size="30" font-family="SegoeUI-Bold, Segoe UI" font-weight="700" letter-spacing="0.03em"><tspan x="0" y="32">VERIFIABLE IMAGE</tspan></text>
        <text id="Hash_String:_FCCB13D5961A13DA9E955A44C8106E39-2" data-name="Hash String: FCCB13D5961A13DA9E955A44C8106E39" transform="translate(529 2111)" fill="#9a9a9a" font-size="25" font-family="SegoeUI, Segoe UI"><tspan x="0" y="27">Hash String: </tspan><tspan y="27" fill="#53aa56">FCCB13D5961A13DA9E955A44C8106E39</tspan></text>
        <g id="_5ebeb73b2ec1c7494ab0e98d_noun_shape_1992898-3" data-name="5ebeb73b2ec1c7494ab0e98d_noun_shape_1992898" transform="translate(416.821 2085.51)">
          <g id="Group_2012-3" data-name="Group 2012" transform="translate(3 3.275)">
            <path id="Path_1706-3" data-name="Path 1706" d="M25.972,48.31a9.416,9.416,0,0,1-3.829-.957L7.02,39.312A7.9,7.9,0,0,1,3,32.229V19.212A7.625,7.625,0,0,1,7.212,12.32L22.143,4.28a7.435,7.435,0,0,1,7.466,0l15.123,8.04h0A7.705,7.705,0,0,1,48.944,19.4V32.8a7.875,7.875,0,0,1-4.4,7.083L29.609,47.544A11.194,11.194,0,0,1,25.972,48.31ZM25.78,6.96a3.234,3.234,0,0,0-1.914.574L8.934,15.575a4.1,4.1,0,0,0-2.106,3.637V32.229a4.1,4.1,0,0,0,2.106,3.637l15.123,8.04a4.469,4.469,0,0,0,3.829,0l14.932-7.657a4.289,4.289,0,0,0,2.3-3.637v-13.4a4.1,4.1,0,0,0-2.106-3.637L27.886,7.534A4.363,4.363,0,0,0,25.78,6.96Z" transform="translate(-3 -3.275)" fill="#888"/>
          </g>
          <g id="Group_2013-3" data-name="Group 2013" transform="translate(23.866 14.279)">
            <path id="Path_1707-3" data-name="Path 1707" d="M16.006,42.671a1.918,1.918,0,0,1-1.914-1.914L13.9,24.293a8,8,0,0,1,4.594-7.274L34.958,9.17a1.885,1.885,0,1,1,1.531,3.446L20.217,20.465a4.354,4.354,0,0,0-2.3,3.829l.191,16.655a2.083,2.083,0,0,1-2.106,1.723Z" transform="translate(-13.9 -9.023)" fill="#888"/>
          </g>
          <g id="Group_2014-3" data-name="Group 2014" transform="translate(4.193 14.279)">
            <path id="Path_1708-3" data-name="Path 1708" d="M26.168,22.953a1.151,1.151,0,0,1-.766-.191L4.727,12.616a1.9,1.9,0,0,1-.957-2.489A2.2,2.2,0,0,1,6.45,9.17L27.125,19.316a1.9,1.9,0,0,1,.957,2.489A2.33,2.33,0,0,1,26.168,22.953Z" transform="translate(-3.623 -9.023)" fill="#888"/>
          </g>
        </g>
      </g>
    </g>
    <g id="noun_Compare_2794347" transform="translate(878.01 7695.223)">
      <g id="Group_1744" data-name="Group 1744" transform="translate(30.772 36.097)">
        <g id="Group_1743" data-name="Group 1743" transform="translate(0 0)">
          <path id="Path_1504" data-name="Path 1504" d="M36.117,62.265l7.018-7.018L54.217,44.165l2.545-2.545H52.321l7.018,7.018L70.421,59.719l2.545,2.545a3.14,3.14,0,1,0,4.441-4.441L70.39,50.806,59.308,39.724l-2.545-2.545a3.181,3.181,0,0,0-4.441,0L45.3,44.2,34.221,55.278l-2.545,2.545a3.14,3.14,0,1,0,4.441,4.441Z" transform="translate(-30.772 -36.275)" fill="#52a956"/>
        </g>
      </g>
      <g id="Group_1746" data-name="Group 1746" transform="translate(51.395 36.076)">
        <g id="Group_1745" data-name="Group 1745" transform="translate(0 0)">
          <path id="Path_1505" data-name="Path 1505" d="M227.66,39.221v73.541c0,1-.01,2,0,3v.126a3.142,3.142,0,0,0,6.285,0V42.343c0-1,.01-2,0-3v-.126a3.142,3.142,0,0,0-6.285,0Z" transform="translate(-227.656 -36.076)" fill="#52a956"/>
        </g>
      </g>
      <g id="Group_1748" data-name="Group 1748" transform="translate(85.351 108.863)">
        <g id="Group_1747" data-name="Group 1747">
          <path id="Path_1506" data-name="Path 1506" d="M540.343,736.317l7.018,7.018,11.082,11.082,2.545,2.545a3.181,3.181,0,0,0,4.441,0l7.018-7.018,11.082-11.082,2.545-2.545a3.14,3.14,0,0,0-4.441-4.441l-7.018,7.018-11.082,11.082-2.545,2.545h4.441l-7.018-7.018L547.33,734.421l-2.545-2.545a3.14,3.14,0,0,0-4.441,4.441Z" transform="translate(-539.447 -730.972)" fill="#52a956"/>
        </g>
      </g>
      <g id="Group_1750" data-name="Group 1750" transform="translate(105.966 52.825)">
        <g id="Group_1749" data-name="Group 1749" transform="translate(0)">
          <path id="Path_1507" data-name="Path 1507" d="M742.545,275.784V202.243c0-1,.01-2,0-3v-.126a3.142,3.142,0,0,0-6.285,0v73.541c0,1-.01,2,0,3v.126a3.142,3.142,0,0,0,6.285,0Z" transform="translate(-736.256 -195.976)" fill="#52a956"/>
        </g>
      </g>
    </g>
    <text id="We_have_a_match_" data-name="We have a match!" transform="translate(839 8100)" fill="#53aa56" font-size="30" font-family="SegoeUI-Semibold, Segoe UI" font-weight="600"><tspan x="0" y="0">We have a match!</tspan></text>
    <g id="Component_11_3" data-name="Component 11 – 3" transform="translate(360 5833)">
      <path id="Rectangle_1215" data-name="Rectangle 1215" d="M8,0H1192a8,8,0,0,1,8,8V128a0,0,0,0,1,0,0H0a0,0,0,0,1,0,0V8A8,8,0,0,1,8,0Z" fill="#53aa56"/>
      <g id="Group_1742" data-name="Group 1742">
        <circle id="Ellipse_494" data-name="Ellipse 494" cx="31.5" cy="31.5" r="31.5" transform="translate(40 33)" fill="#fff"/>
        <path id="Path_1485" data-name="Path 1485" d="M32.911,10.361,17.687,25.585l-6.874-6.874a2.087,2.087,0,1,0-2.952,2.952l8.35,8.35a2.087,2.087,0,0,0,2.952,0l16.7-16.7a2.087,2.087,0,0,0-2.952-2.952Z" transform="translate(49.188 44.191)" fill="#53aa56" stroke="#53aa56" stroke-width="0.063"/>
      </g>
      <g id="Group_1706" data-name="Group 1706" transform="translate(-388.233 -8)">
        <circle id="Ellipse_375" data-name="Ellipse 375" cx="29.5" cy="29.5" r="29.5" transform="translate(1494.233 43)" fill="none"/>
        <g id="Group_1077" data-name="Group 1077" transform="translate(1534.858 69.243) rotate(90)">
          <line id="Line_268" data-name="Line 268" x2="12.388" y2="11.504" fill="none" stroke="#fff" stroke-linecap="round" stroke-width="4"/>
          <line id="Line_269" data-name="Line 269" x1="12.388" y2="11.504" transform="translate(0 12.388)" fill="none" stroke="#fff" stroke-linecap="round" stroke-width="4"/>
        </g>
      </g>
      <text id="Document_has_not_been_altered" data-name="Document has not been altered" transform="translate(145 78)" fill="#fff" font-size="37" font-family="SegoeUI-Semibold, Segoe UI" font-weight="600"><tspan x="0" y="0">Document has not been altered</tspan></text>
    </g>
  </g>
</svg>
