<?xml version="1.0" ?><!DOCTYPE svg  PUBLIC '-//W3C//DTD SVG 1.1//EN'  'http://www.w3.org/Graphics/SVG/1.1/DTD/svg11.dtd'><svg height="512px" style="enable-background:new 0 0 512 512;" version="1.1" viewBox="0 0 512 512" width="512px" xml:space="preserve" xmlns="http://www.w3.org/2000/svg" xmlns:xlink="http://www.w3.org/1999/xlink"><g id="comp_x5F_211-medium"><g><path d="M86.741,151.812c0.551-5.41-1.559-10.821-5.594-14.49L39.785,87.429V80h128.582l99.418,218.007L355.188,80H477.81v7.429    l-35.401,33.934c-3.026,2.293-4.585,6.144-3.943,9.905v249.463c-0.642,3.76,0.917,7.612,3.943,9.906l34.576,33.933V432H303.003    v-7.43l35.861-34.759c3.485-3.485,3.485-4.587,3.485-9.906V178.318l-99.693,253.04h-13.482l-115.926-253.04v169.581    c-1.011,7.152,1.374,14.308,6.42,19.442l46.59,56.497v7.429H34.19v-7.339l46.591-56.587c4.952-5.135,7.244-12.381,5.96-19.442    V151.812z"/></g></g><g id="Layer_1"/></svg>