<svg xmlns="http://www.w3.org/2000/svg" width="16" height="12" viewBox="0 0 16 12">
  <g id="Icons_arrow-right" data-name="Icons/arrow-right" transform="translate(-4 -6)">
    <g id="icon">
      <path id="Path_1515" data-name="Path 1515" d="M16.586,11,13.293,7.707a1,1,0,0,1,1.414-1.414l5,5a1,1,0,0,1,0,1.414l-5,5a1,1,0,0,1-1.414-1.414L16.586,13H5a1,1,0,0,1,0-2Z" fill="#65c6f7"/>
      <path id="Path_1516" data-name="Path 1516" d="M16.586,11,13.293,7.707a1,1,0,0,1,1.414-1.414l5,5a1,1,0,0,1,0,1.414l-5,5a1,1,0,0,1-1.414-1.414L16.586,13H5a1,1,0,0,1,0-2Z" fill="#65c6f7"/>
      <path id="Path_1517" data-name="Path 1517" d="M16.586,11,13.293,7.707a1,1,0,0,1,1.414-1.414l5,5a1,1,0,0,1,0,1.414l-5,5a1,1,0,0,1-1.414-1.414L16.586,13H5a1,1,0,0,1,0-2Z" fill="#65c6f7"/>
    </g>
  </g>
</svg>
