<svg height='100px' width='100px'  fill="#2975eb" xmlns="http://www.w3.org/2000/svg" xmlns:xlink="http://www.w3.org/1999/xlink" version="1.1" x="0px" y="0px" viewBox="0 0 512 512" enable-background="new 0 0 512 512" xml:space="preserve"><g><path d="M64,42.664L64,42.664c-5.875,0-10.672-4.781-10.672-10.664S58.125,21.336,64,21.336l0,0h405.328   c5.891,0,10.672-4.773,10.672-10.672C480,4.773,475.219,0,469.328,0H64l0,0l0,0C46.312,0,32,14.328,32,32v480h448V42.664H64z    M53.328,74.5V64h21.328v426.664H53.328V74.5z M458.656,490.664H96V64h362.656V490.664z"></path><path d="M160,298.664h53.328H288h96l-85.344-149.328L249.75,234.93L224,192L160,298.664z M347.234,277.336h-97.141l48.562-85.008   L347.234,277.336z M225.516,277.336h-27.844L224,233.469l13.625,22.695L225.516,277.336z"></path><path d="M314.656,384h-85.328c-5.891,0-10.672,4.773-10.672,10.664c0,5.898,4.781,10.672,10.672,10.672h85.328   c5.906,0,10.672-4.773,10.672-10.672C325.328,388.773,320.562,384,314.656,384z"></path><path d="M357.328,341.336H186.656c-5.875,0-10.656,4.773-10.656,10.664s4.781,10.664,10.656,10.664h170.672   c5.891,0,10.672-4.773,10.672-10.664S363.219,341.336,357.328,341.336z"></path></g></svg>