<svg height='100px' width='100px'  fill="#ffffff" xmlns="http://www.w3.org/2000/svg" xmlns:xlink="http://www.w3.org/1999/xlink" version="1.1" x="0px" y="0px" viewBox="0 0 100 100" style="enable-background:new 0 0 100 100;" xml:space="preserve"><g><path d="M27.09,83h37.82c2.81,0,5.09-2.28,5.09-5.09V30.09c0-2.81-2.28-5.09-5.09-5.09H27.09C24.28,25,22,27.28,22,30.09v47.82   C22,80.72,24.28,83,27.09,83z M26,30.09c0-0.6,0.49-1.09,1.09-1.09h37.82c0.6,0,1.09,0.49,1.09,1.09v47.82   c0,0.6-0.49,1.09-1.09,1.09H27.09c-0.6,0-1.09-0.49-1.09-1.09V30.09z"></path><path d="M74.91,15H37.09C34.28,15,32,17.28,32,20.09c0,1.1,0.9,2,2,2s2-0.9,2-2c0-0.6,0.49-1.09,1.09-1.09h37.82   c0.6,0,1.09,0.49,1.09,1.09v47.82c0,0.6-0.49,1.09-1.09,1.09c-1.1,0-2,0.9-2,2s0.9,2,2,2c2.81,0,5.09-2.28,5.09-5.09V20.09   C80,17.28,77.72,15,74.91,15z"></path></g></svg>