<svg xmlns="http://www.w3.org/2000/svg" width="30.71" height="27.926" viewBox="0 0 30.71 27.926">
  <g id="noun_Blockchain_1154141" transform="translate(0 -1.984)">
    <g id="Group_1510" data-name="Group 1510" transform="translate(1.5 3.984)">
      <rect id="Rectangle_1135" data-name="Rectangle 1135" width="0.881" height="0.881" transform="translate(10.866 19.13)" fill="#2975eb"/>
      <rect id="Rectangle_1136" data-name="Rectangle 1136" width="0.881" height="0.881" transform="translate(16.155 19.13)" fill="#2975eb"/>
      <rect id="Rectangle_1137" data-name="Rectangle 1137" width="0.881" height="0.881" transform="translate(14.392 19.13)" fill="#2975eb"/>
      <rect id="Rectangle_1138" data-name="Rectangle 1138" width="0.881" height="0.881" transform="translate(12.629 19.13)" fill="#2975eb"/>
      <rect id="Rectangle_1139" data-name="Rectangle 1139" width="0.881" height="0.881" transform="translate(8.392 13.788) rotate(45)" fill="#2975eb"/>
      <rect id="Rectangle_1140" data-name="Rectangle 1140" width="0.881" height="0.881" transform="translate(11.508 10.672) rotate(-45)" fill="#2975eb"/>
      <rect id="Rectangle_1141" data-name="Rectangle 1141" width="0.881" height="0.881" transform="translate(10.885 11.295) rotate(45)" fill="#2975eb"/>
      <rect id="Rectangle_1142" data-name="Rectangle 1142" width="0.881" height="0.881" transform="translate(9.638 13.788) rotate(-135)" fill="#2975eb"/>
      <rect id="Rectangle_1143" data-name="Rectangle 1143" width="0.881" height="0.881" transform="translate(21.76 14.411) rotate(135)" fill="#2975eb"/>
      <rect id="Rectangle_1144" data-name="Rectangle 1144" width="0.881" height="0.881" transform="translate(18.02 11.918) rotate(-45)" fill="#2975eb"/>
      <rect id="Rectangle_1145" data-name="Rectangle 1145" width="0.881" height="0.881" transform="translate(20.514 13.165) rotate(135)" fill="#2975eb"/>
      <rect id="Rectangle_1146" data-name="Rectangle 1146" width="0.881" height="0.881" transform="translate(16.774 10.672) rotate(-45)" fill="#2975eb"/>
      <g id="noun_cube_39539" transform="translate(10.628 10.493)">
        <g id="Group_2101" data-name="Group 2101" transform="translate(8.321 3.507)">
          <path id="Path_1723" data-name="Path 1723" d="M15.466,9.083a.945.945,0,0,0,.856,0l4.3-2.5a.262.262,0,0,0,0-.5l-4.3-2.482a.95.95,0,0,0-.857,0l-4.3,2.483a.262.262,0,0,0,0,.5Z" transform="translate(-10.988 -3.507)" fill="#2975eb"/>
        </g>
        <g id="Group_2102" data-name="Group 2102" transform="translate(7.872 6.843)">
          <path id="Path_1724" data-name="Path 1724" d="M13.042,29.939a.953.953,0,0,0-.428-.743L8.3,26.694c-.235-.137-.428-.026-.428.246v4.995a.95.95,0,0,0,.428.742l4.313,2.49c.236.136.428.025.428-.247v-4.98Z" transform="translate(-7.872 -26.635)" fill="#2975eb"/>
        </g>
        <g id="Group_2103" data-name="Group 2103" transform="translate(13.413 6.842)">
          <path id="Path_1725" data-name="Path 1725" d="M46.714,29.191a.953.953,0,0,0-.428.743v4.98c0,.272.193.383.429.247l4.313-2.49a.95.95,0,0,0,.429-.742v-5c0-.272-.193-.383-.428-.246Z" transform="translate(-46.286 -26.628)" fill="#2975eb"/>
        </g>
      </g>
      <g id="noun_cube_39539-2" data-name="noun_cube_39539" transform="translate(1.628 -5.507)">
        <g id="Group_2101-2" data-name="Group 2101" transform="translate(8.321 3.507)">
          <path id="Path_1723-2" data-name="Path 1723" d="M15.466,9.083a.945.945,0,0,0,.856,0l4.3-2.5a.262.262,0,0,0,0-.5l-4.3-2.482a.95.95,0,0,0-.857,0l-4.3,2.483a.262.262,0,0,0,0,.5Z" transform="translate(-10.988 -3.507)" fill="#2975eb"/>
        </g>
        <g id="Group_2102-2" data-name="Group 2102" transform="translate(7.872 6.843)">
          <path id="Path_1724-2" data-name="Path 1724" d="M13.042,29.939a.953.953,0,0,0-.428-.743L8.3,26.694c-.235-.137-.428-.026-.428.246v4.995a.95.95,0,0,0,.428.742l4.313,2.49c.236.136.428.025.428-.247v-4.98Z" transform="translate(-7.872 -26.635)" fill="#2975eb"/>
        </g>
        <g id="Group_2103-2" data-name="Group 2103" transform="translate(13.413 6.842)">
          <path id="Path_1725-2" data-name="Path 1725" d="M46.714,29.191a.953.953,0,0,0-.428.743v4.98c0,.272.193.383.429.247l4.313-2.49a.95.95,0,0,0,.429-.742v-5c0-.272-.193-.383-.428-.246Z" transform="translate(-46.286 -26.628)" fill="#2975eb"/>
        </g>
      </g>
    </g>
    <g id="noun_cube_39539-3" data-name="noun_cube_39539" transform="translate(-7.872 14.478)">
      <g id="Group_2101-3" data-name="Group 2101" transform="translate(8.321 3.507)">
        <path id="Path_1723-3" data-name="Path 1723" d="M15.466,9.083a.945.945,0,0,0,.856,0l4.3-2.5a.262.262,0,0,0,0-.5l-4.3-2.482a.95.95,0,0,0-.857,0l-4.3,2.483a.262.262,0,0,0,0,.5Z" transform="translate(-10.988 -3.507)" fill="#2975eb"/>
      </g>
      <g id="Group_2102-3" data-name="Group 2102" transform="translate(7.872 6.843)">
        <path id="Path_1724-3" data-name="Path 1724" d="M13.042,29.939a.953.953,0,0,0-.428-.743L8.3,26.694c-.235-.137-.428-.026-.428.246v4.995a.95.95,0,0,0,.428.742l4.313,2.49c.236.136.428.025.428-.247v-4.98Z" transform="translate(-7.872 -26.635)" fill="#2975eb"/>
      </g>
      <g id="Group_2103-3" data-name="Group 2103" transform="translate(13.413 6.842)">
        <path id="Path_1725-3" data-name="Path 1725" d="M46.714,29.191a.953.953,0,0,0-.428.743v4.98c0,.272.193.383.429.247l4.313-2.49a.95.95,0,0,0,.429-.742v-5c0-.272-.193-.383-.428-.246Z" transform="translate(-46.286 -26.628)" fill="#2975eb"/>
      </g>
    </g>
  </g>
</svg>
