<svg height='100px' width='100px'  fill="#2975eb" xmlns="http://www.w3.org/2000/svg" xmlns:xlink="http://www.w3.org/1999/xlink" viewBox="0 0 60 59" version="1.1" x="0px" y="0px"><title>34 -Blueprint- (Outline)</title><desc>Created with Sketch.</desc><g stroke="none" stroke-width="1" fill="none" fill-rule="evenodd"><g transform="translate(-422.000000, -730.000000)" fill="#2975eb"><g transform="translate(422.000000, 730.000000)"><g><path d="M46,21.2656 L46,52.0156 C46,52.5576 46.442,52.9996 46.985,52.9996 L51.015,52.9996 C51.558,52.9996 52,52.5576 52,52.0156 L52,21.2656 L49,16.0156 L46,21.2656 Z M51.015,54.9996 L46.985,54.9996 C45.339,54.9996 44,53.6616 44,52.0156 L44,20.7346 L49,11.9846 L54,20.7346 L54,52.0156 C54,53.6616 52.661,54.9996 51.015,54.9996 Z"></path><polygon points="45 48 53 48 53 46 45 46"></polygon><polygon points="45 44 53 44 53 42 45 42"></polygon><polygon points="45 22 53 22 53 20 45 20"></polygon><path d="M49,15 C48.448,15 48,14.552 48,14 L48,12 C48,11.448 48.448,11 49,11 C49.552,11 50,11.448 50,12 L50,14 C50,14.552 49.552,15 49,15"></path><path d="M7,45 C8.957,45 10.729,45.807 12,47.105 L12,7 C12,4.243 9.757,2 7,2 C4.243,2 2,4.243 2,7 L2,47.105 C3.271,45.807 5.043,45 7,45 M13,53 C12.448,53 12,52.552 12,52 C12,49.243 9.757,47 7,47 C4.243,47 2,49.243 2,52 C2,52.552 1.552,53 1,53 C0.448,53 0,52.552 0,52 L0,7 C0,3.14 3.14,0 7,0 C10.86,0 14,3.14 14,7 L14,52 C14,52.552 13.552,53 13,53"></path><path d="M7,47 C4.243,47 2,49.243 2,52 C2,54.784 4.216,57 6.94,57 L58,57 L58,9 L14,9 L14,52 C14,52.552 13.552,53 13,53 C12.448,53 12,52.552 12,52 C12,49.243 9.757,47 7,47 M59,59 L6.94,59 C3.113,59 0,55.887 0,52.06 C0,48.14 3.14,45 7,45 C8.957,45 10.729,45.807 12,47.105 L12,8 C12,7.448 12.448,7 13,7 L59,7 C59.552,7 60,7.448 60,8 L60,58 C60,58.552 59.552,59 59,59"></path><path d="M36.0059,25.2114 C35.5159,25.2114 35.0889,24.8514 35.0179,24.3524 C34.9399,23.8054 35.3189,23.2994 35.8659,23.2214 C36.2109,23.1724 36.5579,23.1314 36.9069,23.0984 C37.4519,23.0494 37.9439,23.4514 37.9959,24.0014 C38.0479,24.5504 37.6429,25.0384 37.0929,25.0894 C36.7769,25.1194 36.4619,25.1564 36.1489,25.2014 C36.1009,25.2084 36.0529,25.2114 36.0059,25.2114 M31.1899,26.4984 C30.7929,26.4984 30.4179,26.2604 30.2609,25.8694 C30.0559,25.3564 30.3049,24.7744 30.8179,24.5694 C31.1409,24.4404 31.4679,24.3184 31.7979,24.2034 C32.3199,24.0234 32.8899,24.2984 33.0709,24.8204 C33.2519,25.3424 32.9759,25.9124 32.4539,26.0934 C32.1529,26.1974 31.8549,26.3084 31.5609,26.4254 C31.4399,26.4744 31.3139,26.4984 31.1899,26.4984 M26.8159,28.8894 C26.5039,28.8894 26.1949,28.7434 25.9999,28.4694 C25.6799,28.0194 25.7849,27.3944 26.2349,27.0744 C26.5189,26.8724 26.8079,26.6764 27.0999,26.4884 C27.5649,26.1904 28.1829,26.3234 28.4829,26.7874 C28.7809,27.2524 28.6479,27.8704 28.1829,28.1694 C27.9159,28.3414 27.6529,28.5204 27.3949,28.7044 C27.2189,28.8294 27.0169,28.8894 26.8159,28.8894 M23.1249,32.2444 C22.8929,32.2444 22.6589,32.1644 22.4699,32.0004 C22.0529,31.6384 22.0069,31.0074 22.3689,30.5894 C22.5979,30.3254 22.8329,30.0674 23.0739,29.8144 C23.4549,29.4144 24.0889,29.3994 24.4879,29.7804 C24.8879,30.1614 24.9029,30.7944 24.5219,31.1944 C24.3019,31.4244 24.0889,31.6594 23.8809,31.8994 C23.6829,32.1274 23.4049,32.2444 23.1249,32.2444 M20.3259,36.3744 C20.1719,36.3744 20.0149,36.3384 19.8679,36.2634 C19.3769,36.0094 19.1849,35.4064 19.4379,34.9154 C19.5989,34.6054 19.7669,34.2974 19.9419,33.9954 C20.2169,33.5164 20.8299,33.3524 21.3069,33.6294 C21.7859,33.9054 21.9489,34.5174 21.6729,34.9954 C21.5139,35.2714 21.3609,35.5504 21.2149,35.8334 C21.0379,36.1774 20.6879,36.3744 20.3259,36.3744 M18.5869,41.0484 C18.5089,41.0484 18.4299,41.0394 18.3509,41.0204 C17.8139,40.8904 17.4849,40.3504 17.6139,39.8134 C17.6959,39.4734 17.7859,39.1364 17.8839,38.8014 C18.0389,38.2724 18.5919,37.9694 19.1239,38.1224 C19.6539,38.2764 19.9589,38.8324 19.8039,39.3624 C19.7149,39.6664 19.6329,39.9734 19.5579,40.2834 C19.4469,40.7414 19.0379,41.0484 18.5869,41.0484 M17.9999,46.0004 C17.4479,46.0004 16.9999,45.5524 16.9999,45.0004 C16.9999,44.6494 17.0079,44.3004 17.0249,43.9534 C17.0509,43.4014 17.5469,42.9944 18.0699,43.0014 C18.6219,43.0274 19.0479,43.4964 19.0229,44.0474 C19.0069,44.3634 18.9999,44.6804 18.9999,45.0004 C18.9999,45.5524 18.5519,46.0004 17.9999,46.0004"></path><path d="M31,41 C30.744,41 30.488,40.902 30.293,40.707 C29.902,40.316 29.902,39.684 30.293,39.293 L34.293,35.293 C34.684,34.902 35.316,34.902 35.707,35.293 C36.098,35.684 36.098,36.316 35.707,36.707 L31.707,40.707 C31.512,40.902 31.256,41 31,41"></path><path d="M35,41 C34.744,41 34.488,40.902 34.293,40.707 L30.293,36.707 C29.902,36.316 29.902,35.684 30.293,35.293 C30.684,34.902 31.316,34.902 31.707,35.293 L35.707,39.293 C36.098,39.684 36.098,40.316 35.707,40.707 C35.512,40.902 35.256,41 35,41"></path><path d="M20,21 C19.744,21 19.488,20.902 19.293,20.707 C18.902,20.316 18.902,19.684 19.293,19.293 L23.293,15.293 C23.684,14.902 24.316,14.902 24.707,15.293 C25.098,15.684 25.098,16.316 24.707,16.707 L20.707,20.707 C20.512,20.902 20.256,21 20,21"></path><path d="M24,21 C23.744,21 23.488,20.902 23.293,20.707 L19.293,16.707 C18.902,16.316 18.902,15.684 19.293,15.293 C19.684,14.902 20.316,14.902 20.707,15.293 L24.707,19.293 C25.098,19.684 25.098,20.316 24.707,20.707 C24.512,20.902 24.256,21 24,21"></path></g></g></g></g></svg>