<svg height='100px' width='100px'  fill="#FFFFFF" xmlns="http://www.w3.org/2000/svg" xmlns:xlink="http://www.w3.org/1999/xlink" xml:space="preserve" version="1.1" style="shape-rendering:geometricPrecision;text-rendering:geometricPrecision;image-rendering:optimizeQuality;" viewBox="0 0 168 276" x="0px" y="0px" fill-rule="evenodd" clip-rule="evenodd"><defs><style type="text/css">
   
    .fil0 {fill:#FFFFFF}
   
  </style></defs><g><path class="fil0" d="M168 150l0 53c0,40 -33,73 -73,73l-1 0c-40,0 -73,-33 -73,-73l0 -53 147 0z"></path><path class="fil0" d="M102 61c37,4 66,35 66,73l0 0 -147 0 0 0c0,-37 28,-68 65,-73 0,-18 -9,-24 -20,-26 -24,-4 -67,8 -66,-27 0,-11 16,-10 16,0 -1,14 42,10 52,11 20,4 35,13 34,42zm-15 28c0,-10 15,-10 15,0l0 16c0,11 -15,11 -15,0l0 -16z"></path></g></svg>