<?xml version="1.0" encoding="UTF-8"?>
<svg width="24px" height="24px" viewBox="0 0 24 24" version="1.1" xmlns="http://www.w3.org/2000/svg" xmlns:xlink="http://www.w3.org/1999/xlink">
    <!-- Generator: Sketch 49.3 (51167) - http://www.bohemiancoding.com/sketch -->
    <title>paperplane-icon-white</title>
    <desc>Created with Sketch.</desc>
    <defs></defs>
    <g id="paperplane-icon" stroke="none" stroke-width="1" fill="none" fill-rule="evenodd">
        <path d="M6.48097008,6.79617354 L6.97187617,8.7597979 C7.10582489,9.29559281 6.7800642,9.8385273 6.24426929,9.97247603 C5.70847438,10.1064248 5.16553989,9.78066406 5.03159117,9.24486915 L4.03159117,5.24486915 C3.82744822,4.42829735 4.66188211,3.74020644 5.42461913,4.09615039 L20.4246191,11.0961504 C21.1941052,11.4552439 21.1941052,12.5494232 20.4246191,12.9085167 L5.42461913,19.9085167 C4.64773139,20.2710643 3.80468616,19.5519449 4.04020972,18.7276124 L6.04020972,11.7276124 C6.16286731,11.2983108 6.55525331,11.0023335 7.00173367,11.0023335 L11.0017337,11.0023335 C11.5540184,11.0023335 12.0017337,11.4500488 12.0017337,12.0023335 C12.0017337,12.5546183 11.5540184,13.0023335 11.0017337,13.0023335 L7.75603508,13.0023335 L6.56555278,17.1690216 L17.6370272,12.0023335 L6.48097008,6.79617354 Z" id="icon" fill="#FFFFFF" fill-rule="nonzero"></path>
    </g>
</svg>