<svg id="Group_2538" data-name="Group 2538" xmlns="http://www.w3.org/2000/svg" width="372.615" height="475.845" viewBox="0 0 372.615 475.845">
  <path id="Union_69" data-name="Union 69" d="M78.782,475.845c-23.228,0-42.323-7.421-56.757-22.056C7.411,438.959,0,418.851,0,394.011c0-9.554.3-19.012.893-28.1a298.7,298.7,0,0,1,3.619-30.079,250.318,250.318,0,0,1,6.937-30.227,154.729,154.729,0,0,1,11.664-28.2,105.8,105.8,0,0,1,17.582-24.418,77,77,0,0,1,25.27-16.915,82.486,82.486,0,0,1,32.251-6.226c4.559,0,8.968,1.994,17.477,7.9,5.319,3.692,11.452,7.9,18.229,12.518,5.84,3.971,13.769,7.693,23.549,11.058a86.2,86.2,0,0,0,57.647,0c9.789-3.37,17.716-7.091,23.566-11.062,6.842-4.658,12.972-8.869,18.212-12.511,8.516-5.907,12.925-7.9,17.483-7.9a82.593,82.593,0,0,1,32.255,6.218A77.062,77.062,0,0,1,331.9,252.988a105.8,105.8,0,0,1,17.586,24.421A154.418,154.418,0,0,1,361.152,305.6a249.669,249.669,0,0,1,6.941,30.229,300.753,300.753,0,0,1,3.619,30.067h0c.6,9.062.9,18.519.9,28.108,0,24.845-7.411,44.961-22.029,59.781-14.437,14.635-33.532,22.056-56.754,22.056Zm28.651-280.2C86.521,173.363,75.918,146.1,75.918,114.6s10.6-58.75,31.515-81.031S153.931,0,183.49,0s55.142,11.294,76.056,33.57,31.515,49.551,31.515,81.034-10.6,58.755-31.512,81.035-46.5,33.577-76.06,33.577S128.351,217.919,107.433,195.643Z" fill="#5ab6e5"/>
</svg>
